<svg xmlns="http://www.w3.org/2000/svg" xmlns:xlink="http://www.w3.org/1999/xlink" width="48" height="48">
  <defs id="acyl-settings">
    <linearGradient id="acyl-gradient" x1="0%" x2="0%" y1="0%" y2="100%">
      <stop offset="0%" style="stop-color:#00FAFF;stop-opacity:1.000000"/>
      <stop offset="74%" style="stop-color:#000BFF;stop-opacity:1.000000"/>
    </linearGradient>
    <g id="acyl-filter">
      <filter id="filter">
        <feTurbulence id="feTurbulence1" type="turbulence" numOctaves="5.0" baseFrequency="0.40 0.40"/>
        <feDisplacementMap id="feDisplacementMap1" xChannelSelector="R"/>
        <feBlend id="feBlend1" in2="SourceGraphic" mode="screen"/>
        <feColorMatrix id="feColorMatrix1" values="1 0 0 -1 0 1 0 1 -1 0 1 0 0 -1 0 -0.8 -1 0 4 -2.5 "/>
        <feGaussianBlur id="feGaussianBlur1" stdDeviation="3.0"/>
        <feSpecularLighting id="feSpecularLighting1" surfaceScale="16.0" specularConstant="0.4" specularExponent="5">
          <feDistantLight id="feDistantLight1" azimuth="225" elevation="35"/>
        </feSpecularLighting>
        <feComposite id="feComposite1" in2="SourceGraphic" k2=" 0.4" k3=" 2.0" operator="arithmetic"/>
        <feComposite id="feComposite2" in2="SourceGraphic" operator="in" result="result2"/>
      </filter>
    </g>
    <g id="acyl-drawing">
      <path d="M 8.8629554,2 C 5.9184963,2 3.469,4.3894041 3.469,7.2424242 l 0,33.5151518 C 3.469,43.610596 5.9184964,46 8.8629554,46 L 38.863044,46 C 41.807503,46 44.257,43.610597 44.257,40.757576 l 0,-33.5151518 C 44.257,4.3894041 41.807504,2 38.863044,2 L 8.8629554,2 z m 0,3.8484848 2.1818246,0 0,27.0606062 L 18.62056,24 l 7.363659,8.909091 0,-27.0606062 12.878825,0 c 0.83034,0 1.424247,0.5908108 1.424247,1.3939394 l 0,33.5151518 c 0,0.803132 -0.593911,1.393939 -1.424247,1.393939 l -30.0000886,0 c -0.8303366,0 -1.4242466,-0.59081 -1.4242466,-1.393939 l 0,-33.5151518 c 0,-0.8031286 0.59391,-1.3939394 1.4242466,-1.3939394 z" id="path-main"/>
    </g>
  </defs>
  <g id="acyl-visual">
    <use id="visible1" transform="translate(24,24) scale(1.00) translate(-24,-24)" style="fill:url(#acyl-gradient);filter:url(#filter)" xlink:href="#acyl-drawing"/>
  </g>
</svg>
