<svg xmlns="http://www.w3.org/2000/svg" xmlns:xlink="http://www.w3.org/1999/xlink" width="48" height="48">
  <defs id="acyl-settings">
    <linearGradient id="acyl-gradient" x1="0%" x2="0%" y1="0%" y2="100%">
      <stop offset="0%" style="stop-color:#00FAFF;stop-opacity:1.000000"/>
      <stop offset="74%" style="stop-color:#000BFF;stop-opacity:1.000000"/>
    </linearGradient>
    <g id="acyl-filter">
      <filter id="filter">
        <feTurbulence id="feTurbulence1" type="turbulence" numOctaves="5.0" baseFrequency="0.40 0.40"/>
        <feDisplacementMap id="feDisplacementMap1" xChannelSelector="R"/>
        <feBlend id="feBlend1" in2="SourceGraphic" mode="screen"/>
        <feColorMatrix id="feColorMatrix1" values="1 0 0 -1 0 1 0 1 -1 0 1 0 0 -1 0 -0.8 -1 0 4 -2.5 "/>
        <feGaussianBlur id="feGaussianBlur1" stdDeviation="3.0"/>
        <feSpecularLighting id="feSpecularLighting1" surfaceScale="16.0" specularConstant="0.4" specularExponent="5">
          <feDistantLight id="feDistantLight1" azimuth="225" elevation="35"/>
        </feSpecularLighting>
        <feComposite id="feComposite1" in2="SourceGraphic" k2=" 0.4" k3=" 2.0" operator="arithmetic"/>
        <feComposite id="feComposite2" in2="SourceGraphic" operator="in" result="result2"/>
      </filter>
    </g>
    <g id="acyl-drawing">
      <path id="path-main" d="M 24,2 C 15.904,2 9.3333331,8.16 9.3333333,15.75 c 0,4.007282 1.8345817,7.598047 4.7552087,10.111979 0.02869,0.02875 0.057,0.05744 0.08594,0.08594 0.161487,0.136649 0.319106,0.271141 0.486979,0.401041 0.224973,0.202186 0.420892,0.413978 0.658855,0.601563 l -4.984375,0 C 5.7060809,26.95052 2,31.219097 2,36.489583 L 2,46 l 44,0 0,-9.510417 c -2e-6,-5.270485 -3.70608,-9.539062 -8.335938,-9.539062 l -4.984375,0 c 0.237963,-0.187585 0.433882,-0.399377 0.658855,-0.601563 0.167873,-0.1299 0.325492,-0.264392 0.486979,-0.401041 0.02894,-0.0285 0.05725,-0.05719 0.08594,-0.08594 C 36.832086,23.348047 38.666666,19.757282 38.666667,15.75 38.666667,8.16 32.096001,2 24,2 z m -1.632813,2.75 3.23698,0.028646 0,8.736979 8.479166,0 0,3.322917 -8.450521,0.02865 0,8.04948 -3.236979,-0.02865 0,-8.020834 -8.479166,0 0,-3.351562 8.45052,0 0,-8.7656248 z"/>
    </g>
  </defs>
  <g id="acyl-visual">
    <use id="visible1" transform="translate(24,24) scale(1.00) translate(-24,-24)" style="fill:url(#acyl-gradient);filter:url(#filter)" xlink:href="#acyl-drawing"/>
  </g>
</svg>
