<svg xmlns="http://www.w3.org/2000/svg" xmlns:xlink="http://www.w3.org/1999/xlink" width="48" height="48">
  <defs id="acyl-settings">
    <linearGradient id="acyl-gradient" x1="0%" x2="0%" y1="0%" y2="100%">
      <stop offset="0%" style="stop-color:#00FAFF;stop-opacity:1.000000"/>
      <stop offset="74%" style="stop-color:#000BFF;stop-opacity:1.000000"/>
    </linearGradient>
    <g id="acyl-filter">
      <filter id="filter">
        <feTurbulence id="feTurbulence1" type="turbulence" numOctaves="5.0" baseFrequency="0.40 0.40"/>
        <feDisplacementMap id="feDisplacementMap1" xChannelSelector="R"/>
        <feBlend id="feBlend1" in2="SourceGraphic" mode="screen"/>
        <feColorMatrix id="feColorMatrix1" values="1 0 0 -1 0 1 0 1 -1 0 1 0 0 -1 0 -0.8 -1 0 4 -2.5 "/>
        <feGaussianBlur id="feGaussianBlur1" stdDeviation="3.0"/>
        <feSpecularLighting id="feSpecularLighting1" surfaceScale="16.0" specularConstant="0.4" specularExponent="5">
          <feDistantLight id="feDistantLight1" azimuth="225" elevation="35"/>
        </feSpecularLighting>
        <feComposite id="feComposite1" in2="SourceGraphic" k2=" 0.4" k3=" 2.0" operator="arithmetic"/>
        <feComposite id="feComposite2" in2="SourceGraphic" operator="in" result="result2"/>
      </filter>
    </g>
    <g id="acyl-drawing">
      <path id="path-main" d="m 10.793829,2.7989439 c -3.2996971,1e-7 -4.3814868,2.2119014 -4.3814868,4.4123422 l 0,17.5876579 -3.3015428,0 C 2.6708399,24.798944 2,25.469655 2,25.909743 l 0,15.396915 c 0,0.440088 0.6708399,1.110798 1.1107994,1.110799 l 2.1907434,0 0,2.190744 c 0,0.440087 0.6708398,1.110798 1.1107994,1.110799 l 35.1753158,0 c 0.439959,0 1.1108,-0.67071 1.110799,-1.110799 l 0,-2.190744 2.190744,0 C 45.329159,42.417457 46,41.746744 46,41.306658 l 0,-15.396915 c -10e-7,-0.440088 -0.67084,-1.1108 -1.110799,-1.110799 l -3.301543,0 0,-17.5876579 c 0,-2.2004408 -1.081791,-4.4123422 -4.381487,-4.4123422 l -26.412342,0 z m 1.110799,4.4123422 24.190744,0 c 1.099899,0 1.110799,1.1107995 1.110799,1.1107995 l 0,16.4768584 0,3.301543 -26.412342,0 0,-3.301543 0,-16.4768584 c 0,-2e-7 0.0109,-1.1107995 1.110799,-1.1107995 z m 3.887798,4.6283309 0,3.949509 15.921459,0 0,-3.949509 -15.921459,0 z m 0.06171,7.68303 0,3.949509 15.859748,0 0,-3.949509 -15.859748,0 z"/>
    </g>
  </defs>
  <g id="acyl-visual">
    <use id="visible1" transform="translate(24,24) scale(1.00) translate(-24,-24)" style="fill:url(#acyl-gradient);filter:url(#filter)" xlink:href="#acyl-drawing"/>
  </g>
</svg>
