<svg xmlns="http://www.w3.org/2000/svg" xmlns:xlink="http://www.w3.org/1999/xlink" width="48" height="48">
  <defs id="acyl-settings">
    <linearGradient id="acyl-gradient" x1="0%" x2="0%" y1="0%" y2="100%">
      <stop offset="0%" style="stop-color:#00FAFF;stop-opacity:1.000000"/>
      <stop offset="74%" style="stop-color:#000BFF;stop-opacity:1.000000"/>
    </linearGradient>
    <g id="acyl-filter">
      <filter id="filter">
        <feTurbulence id="feTurbulence1" type="turbulence" numOctaves="5.0" baseFrequency="0.40 0.40"/>
        <feDisplacementMap id="feDisplacementMap1" xChannelSelector="R"/>
        <feBlend id="feBlend1" in2="SourceGraphic" mode="screen"/>
        <feColorMatrix id="feColorMatrix1" values="1 0 0 -1 0 1 0 1 -1 0 1 0 0 -1 0 -0.8 -1 0 4 -2.5 "/>
        <feGaussianBlur id="feGaussianBlur1" stdDeviation="3.0"/>
        <feSpecularLighting id="feSpecularLighting1" surfaceScale="16.0" specularConstant="0.4" specularExponent="5">
          <feDistantLight id="feDistantLight1" azimuth="225" elevation="35"/>
        </feSpecularLighting>
        <feComposite id="feComposite1" in2="SourceGraphic" k2=" 0.4" k3=" 2.0" operator="arithmetic"/>
        <feComposite id="feComposite2" in2="SourceGraphic" operator="in" result="result2"/>
      </filter>
    </g>
    <g id="acyl-drawing">
      <path d="m 16.829843,2 0,18.280053 L 2,20.280053 2,46 l 29.170157,0 0,-18.280053 14.829843,0 L 46,2 16.829843,2 z m 4.089005,3.9233818 21.020943,0 0,17.8731832 -21.020943,0 0,-17.8731832 z M 24,9.614267 l 0,3.051519 14.743455,0 0,-3.051519 -14.743455,0 z m 0,7.091149 0,3.051519 14.743455,0 0,-3.051519 -14.743455,0 z m -17.9397906,7.498019 10.7696336,0 0,3.516512 10.251309,0 0,14.356671 -21.0209426,0 0,-17.873183 z m 3.1963351,4.03963 0,3.051519 14.7434555,0 0,-3.051519 -14.7434555,0 z m 0,7.091149 0,3.051519 14.7434555,0 0,-3.051519 -14.7434555,0 z" id="path-main"/>
    </g>
  </defs>
  <g id="acyl-visual">
    <use id="visible1" transform="translate(24,24) scale(1.00) translate(-24,-24)" style="fill:url(#acyl-gradient);filter:url(#filter)" xlink:href="#acyl-drawing"/>
  </g>
</svg>
