<svg xmlns="http://www.w3.org/2000/svg" xmlns:xlink="http://www.w3.org/1999/xlink" width="48" height="48">
  <defs id="acyl-settings">
    <linearGradient id="acyl-gradient" x1="0%" x2="0%" y1="0%" y2="100%">
      <stop offset="0%" style="stop-color:#00FAFF;stop-opacity:1.000000"/>
      <stop offset="74%" style="stop-color:#000BFF;stop-opacity:1.000000"/>
    </linearGradient>
    <g id="acyl-filter">
      <filter id="filter">
        <feTurbulence id="feTurbulence1" type="turbulence" numOctaves="5.0" baseFrequency="0.40 0.40"/>
        <feDisplacementMap id="feDisplacementMap1" xChannelSelector="R"/>
        <feBlend id="feBlend1" in2="SourceGraphic" mode="screen"/>
        <feColorMatrix id="feColorMatrix1" values="1 0 0 -1 0 1 0 1 -1 0 1 0 0 -1 0 -0.8 -1 0 4 -2.5 "/>
        <feGaussianBlur id="feGaussianBlur1" stdDeviation="3.0"/>
        <feSpecularLighting id="feSpecularLighting1" surfaceScale="16.0" specularConstant="0.4" specularExponent="5">
          <feDistantLight id="feDistantLight1" azimuth="225" elevation="35"/>
        </feSpecularLighting>
        <feComposite id="feComposite1" in2="SourceGraphic" k2=" 0.4" k3=" 2.0" operator="arithmetic"/>
        <feComposite id="feComposite2" in2="SourceGraphic" operator="in" result="result2"/>
      </filter>
    </g>
    <g id="acyl-drawing">
      <path id="path-main" d="M 7.0989583,2 C 4.2759543,2 2,4.2759543 2,7.0989583 L 2,40.901042 C 2,43.724046 4.2759543,46 7.0989583,46 L 40.901042,46 C 43.724046,46 46,43.724045 46,40.901042 L 46,7.0989583 C 46,4.2759543 43.724045,2 40.901042,2 L 7.0989583,2 z m 1.6041667,3.6666667 30.59375,0 c 1.674795,0 3.036458,1.3616653 3.036458,3.0364583 l 0,30.59375 c 0,1.674795 -1.361665,3.036458 -3.036458,3.036458 l -30.59375,0 c -1.6747927,0 -3.0364583,-1.361665 -3.0364583,-3.036458 l 0,-30.59375 c 0,-1.6747927 1.3616653,-3.0364583 3.0364583,-3.0364583 z m 0.6302083,3.6666663 0,29.333334 29.3333337,0 0,-29.333334 -29.3333337,0 z M 19.559896,13 35,13 l 0,15.411458 -5.5,-5.5 L 28.382812,24 23.971354,28.411458 22.882812,29.5 l 5.5,5.5 -15.411458,0 0,-15.411458 5.5,5.5 L 19.559896,24 23.971354,19.588542 25.088542,18.5 19.559896,13 z"/>
    </g>
  </defs>
  <g id="acyl-visual">
    <use id="visible1" transform="translate(24,24) scale(1.00) translate(-24,-24)" style="fill:url(#acyl-gradient);filter:url(#filter)" xlink:href="#acyl-drawing"/>
  </g>
</svg>
