<svg xmlns="http://www.w3.org/2000/svg" xmlns:xlink="http://www.w3.org/1999/xlink" width="48" height="48">
  <defs id="acyl-settings">
    <linearGradient id="acyl-gradient" x1="0%" x2="0%" y1="0%" y2="100%">
      <stop offset="0%" style="stop-color:#00FAFF;stop-opacity:1.000000"/>
      <stop offset="74%" style="stop-color:#000BFF;stop-opacity:1.000000"/>
    </linearGradient>
    <g id="acyl-filter">
      <filter id="filter">
        <feTurbulence id="feTurbulence1" type="turbulence" numOctaves="5.0" baseFrequency="0.40 0.40"/>
        <feDisplacementMap id="feDisplacementMap1" xChannelSelector="R"/>
        <feBlend id="feBlend1" in2="SourceGraphic" mode="screen"/>
        <feColorMatrix id="feColorMatrix1" values="1 0 0 -1 0 1 0 1 -1 0 1 0 0 -1 0 -0.8 -1 0 4 -2.5 "/>
        <feGaussianBlur id="feGaussianBlur1" stdDeviation="3.0"/>
        <feSpecularLighting id="feSpecularLighting1" surfaceScale="16.0" specularConstant="0.4" specularExponent="5">
          <feDistantLight id="feDistantLight1" azimuth="225" elevation="35"/>
        </feSpecularLighting>
        <feComposite id="feComposite1" in2="SourceGraphic" k2=" 0.4" k3=" 2.0" operator="arithmetic"/>
        <feComposite id="feComposite2" in2="SourceGraphic" operator="in" result="result2"/>
      </filter>
    </g>
    <g id="acyl-drawing">
      <path id="path-main" d="m 42.09363,13 c 0.23904,0.0456 0.41054,0.25668 0.40625,0.5 l 0,21 c 0.002,0.17942 -0.0931,0.34594 -0.24807,0.43634 -0.15499,0.0904 -0.34653,0.0908 -0.50193,10e-4 l -17.25,-10.34359 0,9.90625 c 0.002,0.17942 -0.0931,0.34594 -0.24807,0.43634 -0.15499,0.0904 -0.34653,0.0908 -0.50193,10e-4 l -17.5,-10.5 C 6.09075,24.34924 5.992,24.18172 5.992,23.99984 c 0,-0.18188 0.0987,-0.34942 0.25788,-0.4375 l 17.5,-10.5 c 0.1554,-0.0897 0.34694,-0.0892 0.50193,10e-4 0.15499,0.0904 0.24965,0.25692 0.24807,0.43634 l 0,9.90625 17.25,-10.34375 c 0.10334,-0.0615 0.22538,-0.0837 0.34375,-0.0625 z"/>
    </g>
  </defs>
  <g id="acyl-visual">
    <use id="visible1" transform="translate(24,24) scale(1.00) translate(-24,-24)" style="fill:url(#acyl-gradient);filter:url(#filter)" xlink:href="#acyl-drawing"/>
  </g>
</svg>
