<svg xmlns="http://www.w3.org/2000/svg" xmlns:xlink="http://www.w3.org/1999/xlink" width="48" height="48">
  <defs id="acyl-settings">
    <linearGradient id="acyl-gradient" x1="0%" x2="0%" y1="0%" y2="100%">
      <stop offset="0%" style="stop-color:#00FAFF;stop-opacity:1.000000"/>
      <stop offset="74%" style="stop-color:#000BFF;stop-opacity:1.000000"/>
    </linearGradient>
    <g id="acyl-filter">
      <filter id="filter">
        <feTurbulence id="feTurbulence1" type="turbulence" numOctaves="5.0" baseFrequency="0.40 0.40"/>
        <feDisplacementMap id="feDisplacementMap1" xChannelSelector="R"/>
        <feBlend id="feBlend1" in2="SourceGraphic" mode="screen"/>
        <feColorMatrix id="feColorMatrix1" values="1 0 0 -1 0 1 0 1 -1 0 1 0 0 -1 0 -0.8 -1 0 4 -2.5 "/>
        <feGaussianBlur id="feGaussianBlur1" stdDeviation="3.0"/>
        <feSpecularLighting id="feSpecularLighting1" surfaceScale="16.0" specularConstant="0.4" specularExponent="5">
          <feDistantLight id="feDistantLight1" azimuth="225" elevation="35"/>
        </feSpecularLighting>
        <feComposite id="feComposite1" in2="SourceGraphic" k2=" 0.4" k3=" 2.0" operator="arithmetic"/>
        <feComposite id="feComposite2" in2="SourceGraphic" operator="in" result="result2"/>
      </filter>
    </g>
    <g id="acyl-drawing">
      <path id="path-main" d="M 19.606098,2.0000001 C 9.8930799,2.0000001 2,9.8738802 2,19.563269 c 0,9.689391 7.8930808,17.533899 17.606098,17.5339 4.324289,0 8.274583,-1.560912 11.33503,-4.141172 l 1.295432,4.141172 7.713708,8.223604 c 0.5306,0.56712 3.002088,1.410718 4.946195,-0.52866 1.64963,-1.645616 1.116485,-4.388063 0.52995,-4.934162 l -8.243658,-7.694945 -4.151271,-1.29228 c 2.586553,-3.053004 4.151271,-6.993686 4.151271,-11.307457 0,-9.6893898 -7.863638,-17.5632689 -17.576657,-17.5632689 z m 0,4.3761324 c 7.284764,0 13.189853,5.9200945 13.189853,13.1871365 -1e-6,7.267044 -5.90509,13.157768 -13.189853,13.157768 -7.284763,-1e-6 -13.2192943,-5.890725 -13.2192943,-13.157768 0,-7.267042 5.9345313,-13.1871365 13.2192943,-13.1871365 z m -9.126907,4.0824325 0,1.40976 0,15.360519 0,1.40976 1.413199,0 15.397975,0 1.413199,0 0,-1.40976 0,-15.360519 0,-1.40976 -1.413199,0 -15.397975,0 -1.413199,0 z m 2.826397,2.819521 12.571579,0 0,12.540997 -12.571579,0 0,-12.540997 z"/>
    </g>
  </defs>
  <g id="acyl-visual">
    <use id="visible1" transform="translate(24,24) scale(1.00) translate(-24,-24)" style="fill:url(#acyl-gradient);filter:url(#filter)" xlink:href="#acyl-drawing"/>
  </g>
</svg>
