<svg xmlns="http://www.w3.org/2000/svg" xmlns:xlink="http://www.w3.org/1999/xlink" width="48" height="48">
  <defs id="acyl-settings">
    <linearGradient id="acyl-gradient" x1="0%" x2="0%" y1="0%" y2="100%">
      <stop offset="0%" style="stop-color:#00FAFF;stop-opacity:1.000000"/>
      <stop offset="74%" style="stop-color:#000BFF;stop-opacity:1.000000"/>
    </linearGradient>
    <g id="acyl-filter">
      <filter id="filter">
        <feTurbulence id="feTurbulence1" type="turbulence" numOctaves="5.0" baseFrequency="0.40 0.40"/>
        <feDisplacementMap id="feDisplacementMap1" xChannelSelector="R"/>
        <feBlend id="feBlend1" in2="SourceGraphic" mode="screen"/>
        <feColorMatrix id="feColorMatrix1" values="1 0 0 -1 0 1 0 1 -1 0 1 0 0 -1 0 -0.8 -1 0 4 -2.5 "/>
        <feGaussianBlur id="feGaussianBlur1" stdDeviation="3.0"/>
        <feSpecularLighting id="feSpecularLighting1" surfaceScale="16.0" specularConstant="0.4" specularExponent="5">
          <feDistantLight id="feDistantLight1" azimuth="225" elevation="35"/>
        </feSpecularLighting>
        <feComposite id="feComposite1" in2="SourceGraphic" k2=" 0.4" k3=" 2.0" operator="arithmetic"/>
        <feComposite id="feComposite2" in2="SourceGraphic" operator="in" result="result2"/>
      </filter>
    </g>
    <g id="acyl-drawing">
      <path d="m 24.018811,3.1036798 c -0.169905,0.0147 -0.319001,0.11909 -0.390988,0.27369 L 17.20447,16.97254 2.6039069,19.27937 c -0.17791,0.0275 -0.325159,0.15285 -0.380668,0.3241 -0.05551,0.17125 -0.0098,0.35917 0.118148,0.4858 L 13.020912,30.5342 10.652649,45.44755 c -0.02907,0.18057 0.04774,0.36184 0.197679,0.46657 0.149941,0.10471 0.346578,0.11442 0.506097,0.025 l 13.014273,-7.14389 13.142741,6.90371 c 0.160294,0.0819 0.353025,0.0665 0.498278,-0.0398 0.145254,-0.10628 0.218258,-0.28532 0.188743,-0.46287 L 35.575263,30.3276 46.06488,19.68718 c 0.125074,-0.12849 0.167462,-0.3163 0.109697,-0.48605 -0.05776,-0.16976 -0.205903,-0.29273 -0.383389,-0.31827 L 31.151527,16.84408 24.487994,3.3661998 c -0.08742,-0.17577 -0.273653,-0.27997 -0.469183,-0.26252 l 0,0 z" id="path-main"/>
    </g>
  </defs>
  <g id="acyl-visual">
    <use id="visible1" transform="translate(24,24) scale(1.00) translate(-24,-24)" style="fill:url(#acyl-gradient);filter:url(#filter)" xlink:href="#acyl-drawing"/>
  </g>
</svg>
