<svg xmlns="http://www.w3.org/2000/svg" xmlns:xlink="http://www.w3.org/1999/xlink" width="48" height="48">
  <defs id="acyl-settings">
    <linearGradient id="acyl-gradient" x1="0%" x2="0%" y1="0%" y2="100%">
      <stop offset="0%" style="stop-color:#00FAFF;stop-opacity:1.000000"/>
      <stop offset="74%" style="stop-color:#000BFF;stop-opacity:1.000000"/>
    </linearGradient>
    <g id="acyl-filter">
      <filter id="filter">
        <feTurbulence id="feTurbulence1" type="turbulence" numOctaves="5.0" baseFrequency="0.40 0.40"/>
        <feDisplacementMap id="feDisplacementMap1" xChannelSelector="R"/>
        <feBlend id="feBlend1" in2="SourceGraphic" mode="screen"/>
        <feColorMatrix id="feColorMatrix1" values="1 0 0 -1 0 1 0 1 -1 0 1 0 0 -1 0 -0.8 -1 0 4 -2.5 "/>
        <feGaussianBlur id="feGaussianBlur1" stdDeviation="3.0"/>
        <feSpecularLighting id="feSpecularLighting1" surfaceScale="16.0" specularConstant="0.4" specularExponent="5">
          <feDistantLight id="feDistantLight1" azimuth="225" elevation="35"/>
        </feSpecularLighting>
        <feComposite id="feComposite1" in2="SourceGraphic" k2=" 0.4" k3=" 2.0" operator="arithmetic"/>
        <feComposite id="feComposite2" in2="SourceGraphic" operator="in" result="result2"/>
      </filter>
    </g>
    <g id="acyl-drawing">
      <path d="M 3.40669,13 C 3.167649,13.04561 2.996152,13.25668 3.00044,13.5 L 3.00044,34.5 C 3.000468,34.77613 3.224309,34.99997 3.50044,35 L 8.50044,35 C 8.776571,34.99997 9.000412,34.77613 9.00044,34.5 L 9.00044,24.59375 L 26.25044,34.9375 C 26.40584,35.02719 26.597384,35.02675 26.75237,34.93634 C 26.907356,34.84594 27.002023,34.67942 27.00044,34.5 L 27.00044,24.59375 L 44.25044,34.9375 C 44.40584,35.02719 44.597384,35.02675 44.75237,34.93634 C 44.907356,34.84594 45.002023,34.67942 45.00044,34.5 L 45.00044,13.5 C 45.002023,13.32058 44.907356,13.15406 44.75237,13.06366 C 44.597384,12.97325 44.40584,12.97281 44.25044,13.0625 L 27.00044,23.40625 L 27.00044,13.5 C 27.002023,13.32058 26.907356,13.15406 26.75237,13.06366 C 26.597384,12.97325 26.40584,12.97281 26.25044,13.0625 L 9.00044,23.40625 L 9.00044,13.5 C 9.000412,13.22387 8.776571,13.00003 8.50044,13 L 3.50044,13 C 3.469259,12.99706 3.437871,12.99706 3.40669,13 z" id="path-main"/>
    </g>
  </defs>
  <g id="acyl-visual">
    <use id="visible1" transform="translate(24,24) scale(1.00) translate(-24,-24)" style="fill:url(#acyl-gradient);filter:url(#filter)" xlink:href="#acyl-drawing"/>
  </g>
</svg>
