<svg xmlns="http://www.w3.org/2000/svg" xmlns:xlink="http://www.w3.org/1999/xlink" width="48" height="48">
  <defs id="acyl-settings">
    <linearGradient id="acyl-gradient" x1="0%" x2="0%" y1="0%" y2="100%">
      <stop offset="0%" style="stop-color:#00FAFF;stop-opacity:1.000000"/>
      <stop offset="74%" style="stop-color:#000BFF;stop-opacity:1.000000"/>
    </linearGradient>
    <g id="acyl-filter">
      <filter id="filter">
        <feTurbulence id="feTurbulence1" type="turbulence" numOctaves="5.0" baseFrequency="0.40 0.40"/>
        <feDisplacementMap id="feDisplacementMap1" xChannelSelector="R"/>
        <feBlend id="feBlend1" in2="SourceGraphic" mode="screen"/>
        <feColorMatrix id="feColorMatrix1" values="1 0 0 -1 0 1 0 1 -1 0 1 0 0 -1 0 -0.8 -1 0 4 -2.5 "/>
        <feGaussianBlur id="feGaussianBlur1" stdDeviation="3.0"/>
        <feSpecularLighting id="feSpecularLighting1" surfaceScale="16.0" specularConstant="0.4" specularExponent="5">
          <feDistantLight id="feDistantLight1" azimuth="225" elevation="35"/>
        </feSpecularLighting>
        <feComposite id="feComposite1" in2="SourceGraphic" k2=" 0.4" k3=" 2.0" operator="arithmetic"/>
        <feComposite id="feComposite2" in2="SourceGraphic" operator="in" result="result2"/>
      </filter>
    </g>
    <g id="acyl-drawing">
      <path d="m 23.737001,2.0000709 c -7.365504,0 -13.336001,5.9704975 -13.336001,13.3360011 0,3.58216 1.327545,6.915313 3.711016,9.225791 1.081922,1.048789 1.881875,2.257156 2.409942,3.459671 0.343054,0.781204 1.283113,4.040854 1.493276,6.091389 l 11.443532,0 c 0.210163,-2.050535 1.19832,-5.290785 1.493276,-6.091389 0.532159,-1.444449 1.369344,-2.376552 2.409943,-3.459671 C 35.661785,22.168089 37.073,18.918232 37.073,15.336072 37.073,7.9705684 31.102503,2.0000709 23.737001,2.0000709 z M 17.734322,38.385763 c 0,0 -0.412132,4.282872 0.384407,5.41128 C 19.33408,45.51876 21.99443,46 23.737001,46 c 1.742569,0 4.402919,-0.48124 5.61827,-2.202957 0.796539,-1.128408 0.384407,-5.41128 0.384407,-5.41128 z" id="path-main"/>
    </g>
  </defs>
  <g id="acyl-visual">
    <use id="visible1" transform="translate(24,24) scale(1.00) translate(-24,-24)" style="fill:url(#acyl-gradient);filter:url(#filter)" xlink:href="#acyl-drawing"/>
  </g>
</svg>
