<svg xmlns="http://www.w3.org/2000/svg" xmlns:xlink="http://www.w3.org/1999/xlink" width="48" height="48">
  <defs id="acyl-settings">
    <linearGradient id="acyl-gradient" x1="0%" x2="0%" y1="0%" y2="100%">
      <stop offset="0%" style="stop-color:#00FAFF;stop-opacity:1.000000"/>
      <stop offset="74%" style="stop-color:#000BFF;stop-opacity:1.000000"/>
    </linearGradient>
    <g id="acyl-filter">
      <filter id="filter">
        <feTurbulence id="feTurbulence1" type="turbulence" numOctaves="5.0" baseFrequency="0.40 0.40"/>
        <feDisplacementMap id="feDisplacementMap1" xChannelSelector="R"/>
        <feBlend id="feBlend1" in2="SourceGraphic" mode="screen"/>
        <feColorMatrix id="feColorMatrix1" values="1 0 0 -1 0 1 0 1 -1 0 1 0 0 -1 0 -0.8 -1 0 4 -2.5 "/>
        <feGaussianBlur id="feGaussianBlur1" stdDeviation="3.0"/>
        <feSpecularLighting id="feSpecularLighting1" surfaceScale="16.0" specularConstant="0.4" specularExponent="5">
          <feDistantLight id="feDistantLight1" azimuth="225" elevation="35"/>
        </feSpecularLighting>
        <feComposite id="feComposite1" in2="SourceGraphic" k2=" 0.4" k3=" 2.0" operator="arithmetic"/>
        <feComposite id="feComposite2" in2="SourceGraphic" operator="in" result="result2"/>
      </filter>
    </g>
    <g id="acyl-drawing">
      <path d="m 41.588689,18.101333 c -1.470437,0 -2.827764,1.361892 -3.619537,3.291238 -1.131106,0.567455 -2.827764,0.113491 -3.280206,-1.134909 l 0,-8.17135 -0.226221,0 -21.038561,0 -0.226221,0 0,8.284841 c -0.452442,1.361891 -2.035989,1.815855 -3.167095,1.2484 C 9.3521851,19.463225 7.8817481,18.101333 6.2982005,18.101333 3.9228792,18.101333 2,21.27908 2,25.137773 c 0,3.858693 1.9228792,7.03644 4.2982005,7.03644 1.470437,0 2.8277635,-1.361891 3.6195373,-3.291238 1.1311052,-0.567455 2.8277632,-0.113491 3.2802052,1.13491 l 0,8.17135 0.226221,0 21.151671,0 0.226221,0 0,-8.284841 c 0.452443,-1.361892 2.03599,-1.815855 3.167096,-1.248401 0.678663,2.156329 2.1491,3.51822 3.732647,3.51822 2.375322,0 4.298201,-3.177747 4.298201,-7.03644 0,-3.858693 -1.922879,-7.03644 -4.298201,-7.03644 l -0.11311,0 z" id="path-main"/>
    </g>
  </defs>
  <g id="acyl-visual">
    <use id="visible1" transform="translate(24,24) scale(1.00) translate(-24,-24)" style="fill:url(#acyl-gradient);filter:url(#filter)" xlink:href="#acyl-drawing"/>
  </g>
</svg>
