<svg xmlns="http://www.w3.org/2000/svg" xmlns:xlink="http://www.w3.org/1999/xlink" width="48" height="48">
  <defs id="acyl-settings">
    <linearGradient id="acyl-gradient" x1="0%" x2="0%" y1="0%" y2="100%">
      <stop offset="0%" style="stop-color:#00FAFF;stop-opacity:1.000000"/>
      <stop offset="74%" style="stop-color:#000BFF;stop-opacity:1.000000"/>
    </linearGradient>
    <g id="acyl-filter">
      <filter id="filter">
        <feTurbulence id="feTurbulence1" type="turbulence" numOctaves="5.0" baseFrequency="0.40 0.40"/>
        <feDisplacementMap id="feDisplacementMap1" xChannelSelector="R"/>
        <feBlend id="feBlend1" in2="SourceGraphic" mode="screen"/>
        <feColorMatrix id="feColorMatrix1" values="1 0 0 -1 0 1 0 1 -1 0 1 0 0 -1 0 -0.8 -1 0 4 -2.5 "/>
        <feGaussianBlur id="feGaussianBlur1" stdDeviation="3.0"/>
        <feSpecularLighting id="feSpecularLighting1" surfaceScale="16.0" specularConstant="0.4" specularExponent="5">
          <feDistantLight id="feDistantLight1" azimuth="225" elevation="35"/>
        </feSpecularLighting>
        <feComposite id="feComposite1" in2="SourceGraphic" k2=" 0.4" k3=" 2.0" operator="arithmetic"/>
        <feComposite id="feComposite2" in2="SourceGraphic" operator="in" result="result2"/>
      </filter>
    </g>
    <g id="acyl-drawing">
      <path d="m 27.395329,2 0,4.9044586 -16.955413,0 C 9.2017234,6.9045824 8.1980012,7.908305 8.1978774,9.146497 l 0,19.225478 c 1.238e-4,1.238192 1.003846,2.241914 2.2420386,2.242038 l 15.694267,0 2.634395,0 0,-4.484077 -2.634395,0 -13.452229,0 0,-14.741401 14.713375,0 0,4.932484 3.811465,-3.83949 1.765605,-1.73758 L 34.541826,9.146497 32.972399,7.57707 31.206794,5.811465 27.395329,2 z m -9.10828,15.385987 0,4.484077 17.824204,0 0,14.741401 -14.713376,0 0,-4.932484 -3.811465,3.83949 -1.765605,1.73758 -1.569427,1.597452 1.569427,1.569427 1.765605,1.765605 L 21.397877,46 l 0,-4.904459 16.955414,0 c 1.238193,-1.23e-4 2.241914,-1.003845 2.242038,-2.242038 l 0,-19.225478 c -1.24e-4,-1.238192 -1.003845,-2.241914 -2.242038,-2.242038 l -20.066242,0 z" id="path-main"/>
    </g>
  </defs>
  <g id="acyl-visual">
    <use id="visible1" transform="translate(24,24) scale(1.00) translate(-24,-24)" style="fill:url(#acyl-gradient);filter:url(#filter)" xlink:href="#acyl-drawing"/>
  </g>
</svg>
