<svg xmlns="http://www.w3.org/2000/svg" xmlns:xlink="http://www.w3.org/1999/xlink" width="48" height="48">
  <defs id="acyl-settings">
    <linearGradient id="acyl-gradient" x1="0%" x2="0%" y1="0%" y2="100%">
      <stop offset="0%" style="stop-color:#00FAFF;stop-opacity:1.000000"/>
      <stop offset="74%" style="stop-color:#000BFF;stop-opacity:1.000000"/>
    </linearGradient>
    <g id="acyl-filter">
      <filter id="filter">
        <feTurbulence id="feTurbulence1" type="turbulence" numOctaves="5.0" baseFrequency="0.40 0.40"/>
        <feDisplacementMap id="feDisplacementMap1" xChannelSelector="R"/>
        <feBlend id="feBlend1" in2="SourceGraphic" mode="screen"/>
        <feColorMatrix id="feColorMatrix1" values="1 0 0 -1 0 1 0 1 -1 0 1 0 0 -1 0 -0.8 -1 0 4 -2.5 "/>
        <feGaussianBlur id="feGaussianBlur1" stdDeviation="3.0"/>
        <feSpecularLighting id="feSpecularLighting1" surfaceScale="16.0" specularConstant="0.4" specularExponent="5">
          <feDistantLight id="feDistantLight1" azimuth="225" elevation="35"/>
        </feSpecularLighting>
        <feComposite id="feComposite1" in2="SourceGraphic" k2=" 0.4" k3=" 2.0" operator="arithmetic"/>
        <feComposite id="feComposite2" in2="SourceGraphic" operator="in" result="result2"/>
      </filter>
    </g>
    <g id="acyl-drawing">
      <path d="M 27.75,0.28125 L 27.75,5.5 L 27.75,8 L 5.28125,8 C 5.1979688,7.9958311 5.1145312,7.9958311 5.03125,8 C 3.7490535,8.128967 2.7749092,9.2113495 2.78125,10.5 L 2.78125,35.5 C 2.781388,36.880655 3.9005953,37.999862 5.28125,38 L 11.71875,38 L 16,42.28125 L 20.25,46.53125 L 20.25,40.5 L 20.25,38 L 42.71875,38 C 44.099405,37.999862 45.218612,36.880655 45.21875,35.5 L 45.21875,10.5 C 45.218612,9.1193453 44.099405,8.000138 42.71875,8 L 37.34375,8 L 31.8125,3.5625 L 27.75,0.28125 z M 7.78125,13 L 27.75,13 L 27.75,15.5 L 27.75,20.71875 L 31.8125,17.4375 L 37.34375,13 L 40.21875,13 L 40.21875,33 L 20.25,33 L 20.25,30.5 L 20.25,24.46875 L 16,28.71875 L 11.71875,33 L 7.78125,33 L 7.78125,13 z" id="path-main"/>
    </g>
  </defs>
  <g id="acyl-visual">
    <use id="visible1" transform="translate(24,24) scale(1.00) translate(-24,-24)" style="fill:url(#acyl-gradient);filter:url(#filter)" xlink:href="#acyl-drawing"/>
  </g>
</svg>
