<svg xmlns="http://www.w3.org/2000/svg" xmlns:xlink="http://www.w3.org/1999/xlink" width="48" height="48">
  <defs id="acyl-settings">
    <linearGradient id="acyl-gradient" x1="0%" x2="0%" y1="0%" y2="100%">
      <stop offset="0%" style="stop-color:#00FAFF;stop-opacity:1.000000"/>
      <stop offset="74%" style="stop-color:#000BFF;stop-opacity:1.000000"/>
    </linearGradient>
    <g id="acyl-filter">
      <filter id="filter">
        <feTurbulence id="feTurbulence1" type="turbulence" numOctaves="5.0" baseFrequency="0.40 0.40"/>
        <feDisplacementMap id="feDisplacementMap1" xChannelSelector="R"/>
        <feBlend id="feBlend1" in2="SourceGraphic" mode="screen"/>
        <feColorMatrix id="feColorMatrix1" values="1 0 0 -1 0 1 0 1 -1 0 1 0 0 -1 0 -0.8 -1 0 4 -2.5 "/>
        <feGaussianBlur id="feGaussianBlur1" stdDeviation="3.0"/>
        <feSpecularLighting id="feSpecularLighting1" surfaceScale="16.0" specularConstant="0.4" specularExponent="5">
          <feDistantLight id="feDistantLight1" azimuth="225" elevation="35"/>
        </feSpecularLighting>
        <feComposite id="feComposite1" in2="SourceGraphic" k2=" 0.4" k3=" 2.0" operator="arithmetic"/>
        <feComposite id="feComposite2" in2="SourceGraphic" operator="in" result="result2"/>
      </filter>
    </g>
    <g id="acyl-drawing">
      <path id="path-main" d="M 5.4596774,3.8275715 C 3.1433508,3.8275715 2,4.9953895 2,7.3168189 l 0,37.1397851 44,0 0,-37.1397851 C 46,4.9953893 44.85665,3.8275715 42.540323,3.8275715 l -37.0806456,0 z m 2.3360215,4.6424732 32.4086021,0 c 0.686193,10e-8 1.182796,0.4655233 1.182796,1.1532261 l 0,29.0080642 c 1e-6,0.687702 -0.496605,1.182796 -1.182796,1.182796 l -32.4086021,0 c -0.6861905,0 -1.1827957,-0.495095 -1.1827957,-1.182796 l 0,-29.0080642 c 1e-7,-0.6877031 0.496605,-1.1532261 1.1827957,-1.1532261 z m -0.1478494,2.9569893 0,5.677419 32.7043015,0 0,-5.677419 -32.7043015,0 z m 14.4596775,8.634409 0,7.392473 -7.362903,0 0,3.784946 7.362903,0 0,7.392473 3.784946,0 0,-7.392473 7.362903,0 0,-3.784946 -7.362903,0 0,-7.392473 -3.784946,0 z"/>
    </g>
  </defs>
  <g id="acyl-visual">
    <use id="visible1" transform="translate(24,24) scale(1.00) translate(-24,-24)" style="fill:url(#acyl-gradient);filter:url(#filter)" xlink:href="#acyl-drawing"/>
  </g>
</svg>
