<svg xmlns="http://www.w3.org/2000/svg" xmlns:xlink="http://www.w3.org/1999/xlink" width="48" height="48">
  <defs id="acyl-settings">
    <linearGradient id="acyl-gradient" x1="0%" x2="0%" y1="0%" y2="100%">
      <stop offset="0%" style="stop-color:#00FAFF;stop-opacity:1.000000"/>
      <stop offset="74%" style="stop-color:#000BFF;stop-opacity:1.000000"/>
    </linearGradient>
    <g id="acyl-filter">
      <filter id="filter">
        <feTurbulence id="feTurbulence1" type="turbulence" numOctaves="5.0" baseFrequency="0.40 0.40"/>
        <feDisplacementMap id="feDisplacementMap1" xChannelSelector="R"/>
        <feBlend id="feBlend1" in2="SourceGraphic" mode="screen"/>
        <feColorMatrix id="feColorMatrix1" values="1 0 0 -1 0 1 0 1 -1 0 1 0 0 -1 0 -0.8 -1 0 4 -2.5 "/>
        <feGaussianBlur id="feGaussianBlur1" stdDeviation="3.0"/>
        <feSpecularLighting id="feSpecularLighting1" surfaceScale="16.0" specularConstant="0.4" specularExponent="5">
          <feDistantLight id="feDistantLight1" azimuth="225" elevation="35"/>
        </feSpecularLighting>
        <feComposite id="feComposite1" in2="SourceGraphic" k2=" 0.4" k3=" 2.0" operator="arithmetic"/>
        <feComposite id="feComposite2" in2="SourceGraphic" operator="in" result="result2"/>
      </filter>
    </g>
    <g id="acyl-drawing">
      <path id="path-main" d="m 2,8.6692708 0,1.0598959 0,0.171875 0,14.6666663 0,0.6875 0,0.515625 1.0598958,0 0.171875,0 7.9348962,0 0,4.898438 0,0.6875 0,0.544271 1.059896,0 0.171875,0 7.934895,0 0,4.898437 0,0.6875 0,0.544271 1.059896,0 0.171875,0 23.203125,0 0.171875,0 1.059896,0 0,-0.544271 0,-0.6875 0,-14.666667 0,-0.143229 0,-1.059896 -1.059896,0 -0.171875,0 -7.934896,0 0,-4.927083 0,-0.143229 0,-1.088542 -1.059896,0 -0.171875,0 -7.934895,0 0,-4.8697913 0,-0.171875 0,-1.0598959 -1.059896,0 -0.171875,0 -23.2031252,0 -0.171875,0 -1.0598958,0 z m 2.8359375,1.6041662 19.9947915,0 -4.497396,4.497396 -7.934895,0 -0.171875,0 -1.059896,0 0,1.088542 0,0.143229 0,0.601563 -6.3307295,-6.33073 z m -1.2317708,1.231771 5.7291666,5.729167 -5.7291666,5.729167 0,-11.458334 z m 22.4583333,0 0,3.265625 -3.265625,0 3.265625,-3.265625 z M 14.002604,16.375 l 19.994792,0 -4.554688,4.554687 -7.877604,0 -0.171875,0 -1.059896,0 0,1.059896 0,0.143229 0,0.601563 L 14.002604,16.375 z m -1.231771,1.231771 5.729167,5.729166 -5.729167,5.729167 0,-11.458333 z m 22.458334,0 0,3.322916 -3.322917,0 3.322917,-3.322916 z m -24.664063,0.830729 0.601563,0.601562 0,5.127605 -6.3307295,0 5.7291665,-5.729167 z m 12.604167,4.096354 19.994791,0 -9.997395,9.997396 -9.997396,-9.997396 z m -1.231771,1.203125 5.729167,5.729167 -5.729167,5.729166 0,-11.458333 z m 22.458333,0 0,11.458333 -5.729166,-5.729166 5.729166,-5.729167 z m -24.664062,0.830729 0.601562,0.601563 0,5.127604 -6.330729,0 5.729167,-5.729167 z m 9.166666,6.130209 4.26823,4.268229 4.268229,-4.268229 5.729166,5.729166 -19.994791,0 5.729166,-5.729166 z"/>
    </g>
  </defs>
  <g id="acyl-visual">
    <use id="visible1" transform="translate(24,24) scale(1.00) translate(-24,-24)" style="fill:url(#acyl-gradient);filter:url(#filter)" xlink:href="#acyl-drawing"/>
  </g>
</svg>
