<svg xmlns="http://www.w3.org/2000/svg" xmlns:xlink="http://www.w3.org/1999/xlink" width="48" height="48">
  <defs id="acyl-settings">
    <linearGradient id="acyl-gradient" x1="0%" x2="0%" y1="0%" y2="100%">
      <stop offset="0%" style="stop-color:#00FAFF;stop-opacity:1.000000"/>
      <stop offset="74%" style="stop-color:#000BFF;stop-opacity:1.000000"/>
    </linearGradient>
    <g id="acyl-filter">
      <filter id="filter">
        <feTurbulence id="feTurbulence1" type="turbulence" numOctaves="5.0" baseFrequency="0.40 0.40"/>
        <feDisplacementMap id="feDisplacementMap1" xChannelSelector="R"/>
        <feBlend id="feBlend1" in2="SourceGraphic" mode="screen"/>
        <feColorMatrix id="feColorMatrix1" values="1 0 0 -1 0 1 0 1 -1 0 1 0 0 -1 0 -0.8 -1 0 4 -2.5 "/>
        <feGaussianBlur id="feGaussianBlur1" stdDeviation="3.0"/>
        <feSpecularLighting id="feSpecularLighting1" surfaceScale="16.0" specularConstant="0.4" specularExponent="5">
          <feDistantLight id="feDistantLight1" azimuth="225" elevation="35"/>
        </feSpecularLighting>
        <feComposite id="feComposite1" in2="SourceGraphic" k2=" 0.4" k3=" 2.0" operator="arithmetic"/>
        <feComposite id="feComposite2" in2="SourceGraphic" operator="in" result="result2"/>
      </filter>
    </g>
    <g id="acyl-drawing">
      <path id="path-main" d="M 3.2317708,8.609375 14.833333,20.210937 26.434896,8.609375 l -23.2031252,0 z M 2,9.8411458 2,24.507812 9.3333333,17.174479 2,9.8411458 z m 25.666667,0 -7.333334,7.3333332 4.067709,4.067708 -2.434896,0 -2.864584,-2.864583 -4.268229,4.296875 -4.268229,-4.296875 -7.3333332,7.333333 17.1015622,0 0,11.401042 7.333334,-7.333333 -7.333334,-7.333334 0,-1.203125 1.231771,0 11.601563,11.601563 11.601562,-11.601563 -17.101562,0 0,-11.4010412 z M 46,22.445312 38.666667,29.778646 46,37.111979 46,22.445312 z m -17.101563,8.565105 -7.333333,7.333333 23.203125,0 -7.333333,-7.333333 -4.268229,4.268229 -4.26823,-4.268229 z"/>
    </g>
  </defs>
  <g id="acyl-visual">
    <use id="visible1" transform="translate(24,24) scale(1.00) translate(-24,-24)" style="fill:url(#acyl-gradient);filter:url(#filter)" xlink:href="#acyl-drawing"/>
  </g>
</svg>
