<svg xmlns="http://www.w3.org/2000/svg" xmlns:xlink="http://www.w3.org/1999/xlink" width="48" height="48">
  <defs id="acyl-settings">
    <linearGradient id="acyl-gradient" x1="0%" x2="0%" y1="0%" y2="100%">
      <stop offset="0%" style="stop-color:#00FAFF;stop-opacity:1.000000"/>
      <stop offset="74%" style="stop-color:#000BFF;stop-opacity:1.000000"/>
    </linearGradient>
    <g id="acyl-filter">
      <filter id="filter">
        <feTurbulence id="feTurbulence1" type="turbulence" numOctaves="5.0" baseFrequency="0.40 0.40"/>
        <feDisplacementMap id="feDisplacementMap1" xChannelSelector="R"/>
        <feBlend id="feBlend1" in2="SourceGraphic" mode="screen"/>
        <feColorMatrix id="feColorMatrix1" values="1 0 0 -1 0 1 0 1 -1 0 1 0 0 -1 0 -0.8 -1 0 4 -2.5 "/>
        <feGaussianBlur id="feGaussianBlur1" stdDeviation="3.0"/>
        <feSpecularLighting id="feSpecularLighting1" surfaceScale="16.0" specularConstant="0.4" specularExponent="5">
          <feDistantLight id="feDistantLight1" azimuth="225" elevation="35"/>
        </feSpecularLighting>
        <feComposite id="feComposite1" in2="SourceGraphic" k2=" 0.4" k3=" 2.0" operator="arithmetic"/>
        <feComposite id="feComposite2" in2="SourceGraphic" operator="in" result="result2"/>
      </filter>
    </g>
    <g id="acyl-drawing">
      <path d="M 7.65625 5.84375 C 5.5733469 5.84375 3.84375 7.5733469 3.84375 9.65625 L 3.84375 40.71875 C 3.84375 42.801653 5.5733469 44.53125 7.65625 44.53125 L 41.375 44.53125 C 43.457903 44.53125 45.1875 42.801653 45.1875 40.71875 L 45.1875 9.65625 C 45.1875 7.5733469 43.457903 5.84375 41.375 5.84375 L 7.65625 5.84375 z M 7.0625 15.28125 L 13.59375 15.28125 L 13.59375 21 L 7.0625 21 L 7.0625 15.28125 z M 16.09375 15.28125 L 41.96875 15.28125 L 41.96875 21 L 16.09375 21 L 16.09375 15.28125 z M 7.0625 23.5 L 13.59375 23.5 L 13.59375 28 L 7.0625 28 L 7.0625 23.5 z M 16.09375 23.5 L 41.96875 23.5 L 41.96875 28 L 16.09375 28 L 16.09375 23.5 z M 7.0625 30.5 L 13.59375 30.5 L 13.59375 34.625 L 7.0625 34.625 L 7.0625 30.5 z M 16.09375 30.5 L 41.96875 30.5 L 41.96875 34.625 L 16.09375 34.625 L 16.09375 30.5 z M 7.0625 37.125 L 13.59375 37.125 L 13.59375 41.34375 L 7.65625 41.34375 C 7.2907958 41.34375 7.0625 41.084204 7.0625 40.71875 L 7.0625 37.125 z M 16.09375 37.125 L 41.96875 37.125 L 41.96875 40.71875 C 41.96875 41.084204 41.740454 41.34375 41.375 41.34375 L 16.09375 41.34375 L 16.09375 37.125 z " id="path-main"/>
    </g>
  </defs>
  <g id="acyl-visual">
    <use id="visible1" transform="translate(24,24) scale(1.00) translate(-24,-24)" style="fill:url(#acyl-gradient);filter:url(#filter)" xlink:href="#acyl-drawing"/>
  </g>
</svg>
