<svg xmlns="http://www.w3.org/2000/svg" xmlns:xlink="http://www.w3.org/1999/xlink" width="48" height="48">
  <defs id="acyl-settings">
    <linearGradient id="acyl-gradient" x1="0%" x2="0%" y1="0%" y2="100%">
      <stop offset="0%" style="stop-color:#00FAFF;stop-opacity:1.000000"/>
      <stop offset="74%" style="stop-color:#000BFF;stop-opacity:1.000000"/>
    </linearGradient>
    <g id="acyl-filter">
      <filter id="filter">
        <feTurbulence id="feTurbulence1" type="turbulence" numOctaves="5.0" baseFrequency="0.40 0.40"/>
        <feDisplacementMap id="feDisplacementMap1" xChannelSelector="R"/>
        <feBlend id="feBlend1" in2="SourceGraphic" mode="screen"/>
        <feColorMatrix id="feColorMatrix1" values="1 0 0 -1 0 1 0 1 -1 0 1 0 0 -1 0 -0.8 -1 0 4 -2.5 "/>
        <feGaussianBlur id="feGaussianBlur1" stdDeviation="3.0"/>
        <feSpecularLighting id="feSpecularLighting1" surfaceScale="16.0" specularConstant="0.4" specularExponent="5">
          <feDistantLight id="feDistantLight1" azimuth="225" elevation="35"/>
        </feSpecularLighting>
        <feComposite id="feComposite1" in2="SourceGraphic" k2=" 0.4" k3=" 2.0" operator="arithmetic"/>
        <feComposite id="feComposite2" in2="SourceGraphic" operator="in" result="result2"/>
      </filter>
    </g>
    <g id="acyl-drawing">
      <path d="m 7.6565,4.65625 c -2.0829,0 -3.8125,1.729597 -3.8125,3.8125 l 0,31.0625 c 0,2.082903 1.7296,3.8125 3.8125,3.8125 l 33.71875,0 c 2.0829,0 3.8125,-1.729597 3.8125,-3.8125 l 0,-31.0625 c 0,-2.082903 -1.7296,-3.8125 -3.8125,-3.8125 l -33.71875,0 z m -0.59375,9.4375 5.1875,0 0,5.71875 -5.1875,0 0,-5.71875 z m 7.6875,0 5.125,0 0,5.71875 -5.125,0 0,-5.71875 z m 7.625,0 4.75,0 0,5.71875 -4.75,0 0,-5.71875 z m 7.25,0 5,0 0,5.71875 -5,0 0,-5.71875 z m 7.5,0 4.96875,0 0,5.71875 -4.96875,0 0,-5.71875 z M 7.0315,22.3125 l 5.21875,0 0,4.5 -5.21875,0 0,-4.5 z m 7.71875,0 5.125,0 0,4.5 -5.125,0 0,-4.5 z m 7.625,0 4.75,0 0,4.5 -4.75,0 0,-4.5 z m 7.25,0 5,0 0,4.5 -5,0 0,-4.5 z m 7.5,0 4.84375,0 0,4.5 -4.84375,0 0,-4.5 z m -30.125,7 5.25,0 0,4.125 -5.25,0 0,-4.125 z m 7.75,0 5.125,0 0,4.125 -5.125,0 0,-4.125 z m 7.625,0 4.75,0 0,4.125 -4.75,0 0,-4.125 z m 7.25,0 5,0 0,4.125 -5,0 0,-4.125 z m 7.5,0 4.84375,0 0,4.125 -4.84375,0 0,-4.125 z m -30.125,6.625 5.25,0 0,4.21875 -5.25,0 0,-4.21875 z m 7.75,0 5.125,0 0,4.21875 -5.125,0 0,-4.21875 z m 7.625,0 4.75,0 0,4.21875 -4.75,0 0,-4.21875 z m 7.25,0 5,0 0,4.21875 -5,0 0,-4.21875 z m 7.5,0 4.84375,0 0,3.59375 c 0,0.365454 -0.2283,0.625 -0.59375,0.625 l -4.25,0 0,-4.21875 z" id="path-main"/>
    </g>
  </defs>
  <g id="acyl-visual">
    <use id="visible1" transform="translate(24,24) scale(1.00) translate(-24,-24)" style="fill:url(#acyl-gradient);filter:url(#filter)" xlink:href="#acyl-drawing"/>
  </g>
</svg>
