<svg xmlns="http://www.w3.org/2000/svg" xmlns:xlink="http://www.w3.org/1999/xlink" width="48" height="48">
  <defs id="acyl-settings">
    <linearGradient id="acyl-gradient" x1="0%" x2="0%" y1="0%" y2="100%">
      <stop offset="0%" style="stop-color:#00FAFF;stop-opacity:1.000000"/>
      <stop offset="74%" style="stop-color:#000BFF;stop-opacity:1.000000"/>
    </linearGradient>
    <g id="acyl-filter">
      <filter id="filter">
        <feTurbulence id="feTurbulence1" type="turbulence" numOctaves="5.0" baseFrequency="0.40 0.40"/>
        <feDisplacementMap id="feDisplacementMap1" xChannelSelector="R"/>
        <feBlend id="feBlend1" in2="SourceGraphic" mode="screen"/>
        <feColorMatrix id="feColorMatrix1" values="1 0 0 -1 0 1 0 1 -1 0 1 0 0 -1 0 -0.8 -1 0 4 -2.5 "/>
        <feGaussianBlur id="feGaussianBlur1" stdDeviation="3.0"/>
        <feSpecularLighting id="feSpecularLighting1" surfaceScale="16.0" specularConstant="0.4" specularExponent="5">
          <feDistantLight id="feDistantLight1" azimuth="225" elevation="35"/>
        </feSpecularLighting>
        <feComposite id="feComposite1" in2="SourceGraphic" k2=" 0.4" k3=" 2.0" operator="arithmetic"/>
        <feComposite id="feComposite2" in2="SourceGraphic" operator="in" result="result2"/>
      </filter>
    </g>
    <g id="acyl-drawing">
      <path d="M 19.59375 2 C 9.8807319 2 2 9.8731112 2 19.5625 C 2 29.251891 9.8807328 37.093749 19.59375 37.09375 C 23.918039 37.09375 27.877053 35.54901 30.9375 32.96875 L 32.25 37.09375 L 39.9375 45.3125 C 40.4681 45.87962 42.962143 46.720628 44.90625 44.78125 C 46.55588 43.135634 46.024035 40.389849 45.4375 39.84375 L 37.1875 32.15625 L 33.03125 30.875 C 35.617803 27.821996 37.1875 23.876271 37.1875 19.5625 C 37.1875 9.8731102 29.306769 2 19.59375 2 z M 19.59375 6.375 C 26.878514 6.375 32.78125 12.295458 32.78125 19.5625 C 32.781249 26.829544 26.878513 32.71875 19.59375 32.71875 C 12.308987 32.718749 6.375 26.829543 6.375 19.5625 C 6.375 12.295458 12.308987 6.375 19.59375 6.375 z M 10.46875 10.46875 L 10.46875 11.875 L 10.46875 17.125 L 13.3125 17.125 L 13.3125 13.28125 L 17.4375 13.28125 L 17.4375 10.46875 L 11.90625 10.46875 L 10.46875 10.46875 z M 21.90625 10.46875 L 21.90625 13.28125 L 25.875 13.28125 L 25.875 17.125 L 28.71875 17.125 L 28.71875 11.875 L 28.71875 10.46875 L 27.28125 10.46875 L 21.90625 10.46875 z M 10.46875 21.625 L 10.46875 27.21875 L 10.46875 28.625 L 11.90625 28.625 L 17.4375 28.625 L 17.4375 25.8125 L 13.3125 25.8125 L 13.3125 21.625 L 10.46875 21.625 z M 25.875 21.625 L 25.875 25.8125 L 21.90625 25.8125 L 21.90625 28.625 L 27.28125 28.625 L 28.71875 28.625 L 28.71875 27.21875 L 28.71875 21.625 L 25.875 21.625 z " id="path-main"/>
    </g>
  </defs>
  <g id="acyl-visual">
    <use id="visible1" transform="translate(24,24) scale(1.00) translate(-24,-24)" style="fill:url(#acyl-gradient);filter:url(#filter)" xlink:href="#acyl-drawing"/>
  </g>
</svg>
