<svg xmlns="http://www.w3.org/2000/svg" xmlns:xlink="http://www.w3.org/1999/xlink" width="48" height="48">
  <defs id="acyl-settings">
    <linearGradient id="acyl-gradient" x1="0%" x2="0%" y1="0%" y2="100%">
      <stop offset="0%" style="stop-color:#00FAFF;stop-opacity:1.000000"/>
      <stop offset="74%" style="stop-color:#000BFF;stop-opacity:1.000000"/>
    </linearGradient>
    <g id="acyl-filter">
      <filter id="filter">
        <feTurbulence id="feTurbulence1" type="turbulence" numOctaves="5.0" baseFrequency="0.40 0.40"/>
        <feDisplacementMap id="feDisplacementMap1" xChannelSelector="R"/>
        <feBlend id="feBlend1" in2="SourceGraphic" mode="screen"/>
        <feColorMatrix id="feColorMatrix1" values="1 0 0 -1 0 1 0 1 -1 0 1 0 0 -1 0 -0.8 -1 0 4 -2.5 "/>
        <feGaussianBlur id="feGaussianBlur1" stdDeviation="3.0"/>
        <feSpecularLighting id="feSpecularLighting1" surfaceScale="16.0" specularConstant="0.4" specularExponent="5">
          <feDistantLight id="feDistantLight1" azimuth="225" elevation="35"/>
        </feSpecularLighting>
        <feComposite id="feComposite1" in2="SourceGraphic" k2=" 0.4" k3=" 2.0" operator="arithmetic"/>
        <feComposite id="feComposite2" in2="SourceGraphic" operator="in" result="result2"/>
      </filter>
    </g>
    <g id="acyl-drawing">
      <path d="m 11.355483,2 c 1.581939,0 2.855485,1.323807 2.855485,2.98913 l 0,38.02174 C 14.210968,44.676193 12.937422,46 11.355483,46 9.773546,46 8.5,44.676193 8.5,43.01087 L 8.5,4.98913 C 8.5,3.323807 9.773546,2 11.355483,2 z m 25.282928,0.777174 c 0.729913,0 1.46333,0.274895 2.022634,0.836956 1.118607,1.124124 1.118607,2.941094 0,4.065218 L 22.59895,23.820652 38.661045,39.961956 c 1.118607,1.124124 1.118607,2.941094 0,4.065218 -1.118607,1.124123 -2.926661,1.124123 -4.045269,0 L 16.887983,26.211956 c -0.643741,-0.646916 -0.870559,-1.551533 -0.77336,-2.391304 -0.109512,-0.850885 0.120271,-1.735006 0.77336,-2.391304 L 34.615776,3.61413 C 35.17508,3.052069 35.908497,2.777174 36.638411,2.777174 z" id="path-main"/>
    </g>
  </defs>
  <g id="acyl-visual">
    <use id="visible1" transform="translate(24,24) scale(1.00) translate(-24,-24)" style="fill:url(#acyl-gradient);filter:url(#filter)" xlink:href="#acyl-drawing"/>
  </g>
</svg>
