<svg xmlns="http://www.w3.org/2000/svg" xmlns:xlink="http://www.w3.org/1999/xlink" width="48" height="48">
  <defs id="acyl-settings">
    <linearGradient id="acyl-gradient" x1="0%" x2="0%" y1="0%" y2="100%">
      <stop offset="0%" style="stop-color:#00FAFF;stop-opacity:1.000000"/>
      <stop offset="74%" style="stop-color:#000BFF;stop-opacity:1.000000"/>
    </linearGradient>
    <g id="acyl-filter">
      <filter id="filter">
        <feTurbulence id="feTurbulence1" type="turbulence" numOctaves="5.0" baseFrequency="0.40 0.40"/>
        <feDisplacementMap id="feDisplacementMap1" xChannelSelector="R"/>
        <feBlend id="feBlend1" in2="SourceGraphic" mode="screen"/>
        <feColorMatrix id="feColorMatrix1" values="1 0 0 -1 0 1 0 1 -1 0 1 0 0 -1 0 -0.8 -1 0 4 -2.5 "/>
        <feGaussianBlur id="feGaussianBlur1" stdDeviation="3.0"/>
        <feSpecularLighting id="feSpecularLighting1" surfaceScale="16.0" specularConstant="0.4" specularExponent="5">
          <feDistantLight id="feDistantLight1" azimuth="225" elevation="35"/>
        </feSpecularLighting>
        <feComposite id="feComposite1" in2="SourceGraphic" k2=" 0.4" k3=" 2.0" operator="arithmetic"/>
        <feComposite id="feComposite2" in2="SourceGraphic" operator="in" result="result2"/>
      </filter>
    </g>
    <g id="acyl-drawing">
      <path d="M 11.4199 8.88867 C 9.08247 8.88867 7.17773 10.1937 7.17773 11.8145 L 38.7148 11.8145 C 38.7148 10.1937 36.8101 8.88867 34.4727 8.88867 L 11.4199 8.88867 z M 7.88086 12.5762 C 4.6156 12.5762 2 14.8344 2 17.6367 L 2 35.3945 C 2 38.1968 4.6156 40.4551 7.88086 40.4551 L 40.1191 40.4551 C 43.3844 40.4551 46 38.1968 46 35.3945 L 46 17.6367 C 46 14.8344 43.3844 12.5762 40.1191 12.5762 L 7.88086 12.5762 z M 17.8438 18 L 18.8965 18 L 26.9883 18 L 30.1562 21.168 L 30.1562 33.9473 L 30.1562 35 L 28.2168 35 L 28.0508 35 L 26.1113 35 L 26.1113 32.8945 L 28.0508 32.8945 L 28.0508 22.041 L 26.1152 20.1055 L 19.9492 20.1055 L 19.9492 22.2109 L 17.8438 22.2109 L 17.8438 20.1055 L 17.8438 18 z M 17.8438 24.3164 L 19.9492 24.3164 L 19.9492 26.4238 L 17.8438 26.4238 L 17.8438 24.3164 z M 17.8438 28.5293 L 19.9492 28.5293 L 19.9492 30.6348 L 17.8438 30.6348 L 17.8438 28.5293 z M 17.8438 32.7402 L 19.9492 32.7402 C 19.9492 33.4935 19.9493 34.2467 19.9492 35 L 18.8965 35 L 17.8438 35 L 17.8438 33.9473 L 17.8438 32.7402 z M 21.9004 32.8945 L 24.0059 32.8945 L 24.0059 35 L 21.9004 35 L 21.9004 32.8945 z" id="path-main"/>
    </g>
  </defs>
  <g id="acyl-visual">
    <use id="visible1" transform="translate(24,24) scale(1.00) translate(-24,-24)" style="fill:url(#acyl-gradient);filter:url(#filter)" xlink:href="#acyl-drawing"/>
  </g>
</svg>
