<svg xmlns="http://www.w3.org/2000/svg" xmlns:xlink="http://www.w3.org/1999/xlink" width="48" height="48">
  <defs id="acyl-settings">
    <linearGradient id="acyl-gradient" x1="0%" x2="0%" y1="0%" y2="100%">
      <stop offset="0%" style="stop-color:#00FAFF;stop-opacity:1.000000"/>
      <stop offset="74%" style="stop-color:#000BFF;stop-opacity:1.000000"/>
    </linearGradient>
    <g id="acyl-filter">
      <filter id="filter">
        <feTurbulence id="feTurbulence1" type="turbulence" numOctaves="5.0" baseFrequency="0.40 0.40"/>
        <feDisplacementMap id="feDisplacementMap1" xChannelSelector="R"/>
        <feBlend id="feBlend1" in2="SourceGraphic" mode="screen"/>
        <feColorMatrix id="feColorMatrix1" values="1 0 0 -1 0 1 0 1 -1 0 1 0 0 -1 0 -0.8 -1 0 4 -2.5 "/>
        <feGaussianBlur id="feGaussianBlur1" stdDeviation="3.0"/>
        <feSpecularLighting id="feSpecularLighting1" surfaceScale="16.0" specularConstant="0.4" specularExponent="5">
          <feDistantLight id="feDistantLight1" azimuth="225" elevation="35"/>
        </feSpecularLighting>
        <feComposite id="feComposite1" in2="SourceGraphic" k2=" 0.4" k3=" 2.0" operator="arithmetic"/>
        <feComposite id="feComposite2" in2="SourceGraphic" operator="in" result="result2"/>
      </filter>
    </g>
    <g id="acyl-drawing">
      <path d="m 20.430851,4.0602553 c -0.223783,0.0427 -0.384333,0.2403002 -0.380319,0.4680851 l 0,3.6569149 -11.7021277,0 c -0.029191,-0.00275 -0.058575,-0.00275 -0.087766,0 -0.2237831,0.042699 -0.3843336,0.2403002 -0.3803192,0.4680851 l 0,4.6223406 C 4.6150646,13.275681 2,15.534536 2,18.336851 L 2,36.09483 c 0,2.802315 2.6150646,5.061169 5.8803191,5.06117 l 32.2393619,0 C 43.384935,41.156 46,38.897145 46,36.09483 l 0,-17.757979 c 0,-2.802315 -2.615065,-5.06117 -5.880319,-5.06117 l -1.638298,0 0,-8.7473406 c -2.6e-5,-0.2585055 -0.20958,-0.4680592 -0.468085,-0.4680851 l -17.494681,0 c -0.02919,-0.00275 -0.05857,-0.00275 -0.08777,0 z m 0.555851,0.9361702 16.558511,0 0,8.2792555 -11.497341,0 0,-0.117021 9.186171,0 0,-0.936171 -9.186171,0 0,-1.696808 9.186171,0 0,-0.9361704 -9.186171,0 0,-0.9361702 c -1e-5,-0.1008802 -0.03348,-0.1868705 -0.08777,-0.2632978 l 9.273937,0 0,-0.9361703 -11.936171,0 0,0.731383 -2.31117,0 0,-3.1888298 z m -12.1702126,4.125 16.2952126,0 0,4.1542555 -1.843085,0 0,-0.351064 -11.906915,0 0,0.351064 -2.5452126,0 0,-4.1542555 z m 2.4281916,1.3457445 0,0.93617 11.906915,0 0,-0.93617 -11.906915,0 z" id="path-main"/>
    </g>
  </defs>
  <g id="acyl-visual">
    <use id="visible1" transform="translate(24,24) scale(1.00) translate(-24,-24)" style="fill:url(#acyl-gradient);filter:url(#filter)" xlink:href="#acyl-drawing"/>
  </g>
</svg>
