<svg xmlns="http://www.w3.org/2000/svg" xmlns:xlink="http://www.w3.org/1999/xlink" width="48" height="48">
  <defs id="acyl-settings">
    <linearGradient id="acyl-gradient" x1="0%" x2="0%" y1="0%" y2="100%">
      <stop offset="0%" style="stop-color:#00FAFF;stop-opacity:1.000000"/>
      <stop offset="74%" style="stop-color:#000BFF;stop-opacity:1.000000"/>
    </linearGradient>
    <g id="acyl-filter">
      <filter id="filter">
        <feTurbulence id="feTurbulence1" type="turbulence" numOctaves="5.0" baseFrequency="0.40 0.40"/>
        <feDisplacementMap id="feDisplacementMap1" xChannelSelector="R"/>
        <feBlend id="feBlend1" in2="SourceGraphic" mode="screen"/>
        <feColorMatrix id="feColorMatrix1" values="1 0 0 -1 0 1 0 1 -1 0 1 0 0 -1 0 -0.8 -1 0 4 -2.5 "/>
        <feGaussianBlur id="feGaussianBlur1" stdDeviation="3.0"/>
        <feSpecularLighting id="feSpecularLighting1" surfaceScale="16.0" specularConstant="0.4" specularExponent="5">
          <feDistantLight id="feDistantLight1" azimuth="225" elevation="35"/>
        </feSpecularLighting>
        <feComposite id="feComposite1" in2="SourceGraphic" k2=" 0.4" k3=" 2.0" operator="arithmetic"/>
        <feComposite id="feComposite2" in2="SourceGraphic" operator="in" result="result2"/>
      </filter>
    </g>
    <g id="acyl-drawing">
      <path d="M 19.908085,2.0045781 C 13.384024,2.3428748 7.2241564,6.6793263 4.5626694,12.630732 c -1.160381,2.363447 -0.773563,5.384235 1.187629,7.219534 2.1760562,2.082516 5.0031386,3.179015 7.5945746,4.625502 -3.694848,3.322121 -8.0327342,6.422217 -10.0010859,11.157461 -1.2034727,3.750398 0.8879094,8.049664 4.4692352,9.594792 4.0638327,1.762802 8.5830217,0.177029 12.4075967,-1.468909 7.349532,-3.351714 13.971235,-8.174908 19.845905,-13.688987 1.971264,-2.177786 4.737674,-4.281214 4.875529,-7.46956 0.459378,-3.333292 -1.873146,-6.013313 -3.937927,-8.313403 C 36.421075,9.542087 31.106181,5.2778735 24.971135,2.7546595 23.352393,2.197119 21.617687,1.9635436 19.908085,2.0045781 z m 1.875204,7.7820949 c 2.210652,0.025903 4.393543,1.066376 5.938145,2.625285 2.032999,1.597984 0.998814,4.554395 -1.250136,5.25057 -2.293686,1.345837 -5.103539,0.02639 -6.938253,-1.531416 -2.201262,-1.885835 -0.7415,-6.3830432 2.250244,-6.344439 z" id="path-main"/>
    </g>
  </defs>
  <g id="acyl-visual">
    <use id="visible1" transform="translate(24,24) scale(1.00) translate(-24,-24)" style="fill:url(#acyl-gradient);filter:url(#filter)" xlink:href="#acyl-drawing"/>
  </g>
</svg>
