<svg xmlns="http://www.w3.org/2000/svg" xmlns:xlink="http://www.w3.org/1999/xlink" width="48" height="48">
  <defs id="acyl-settings">
    <linearGradient id="acyl-gradient" x1="0%" x2="0%" y1="0%" y2="100%">
      <stop offset="0%" style="stop-color:#00FAFF;stop-opacity:1.000000"/>
      <stop offset="74%" style="stop-color:#000BFF;stop-opacity:1.000000"/>
    </linearGradient>
    <g id="acyl-filter">
      <filter id="filter">
        <feTurbulence id="feTurbulence1" type="turbulence" numOctaves="5.0" baseFrequency="0.40 0.40"/>
        <feDisplacementMap id="feDisplacementMap1" xChannelSelector="R"/>
        <feBlend id="feBlend1" in2="SourceGraphic" mode="screen"/>
        <feColorMatrix id="feColorMatrix1" values="1 0 0 -1 0 1 0 1 -1 0 1 0 0 -1 0 -0.8 -1 0 4 -2.5 "/>
        <feGaussianBlur id="feGaussianBlur1" stdDeviation="3.0"/>
        <feSpecularLighting id="feSpecularLighting1" surfaceScale="16.0" specularConstant="0.4" specularExponent="5">
          <feDistantLight id="feDistantLight1" azimuth="225" elevation="35"/>
        </feSpecularLighting>
        <feComposite id="feComposite1" in2="SourceGraphic" k2=" 0.4" k3=" 2.0" operator="arithmetic"/>
        <feComposite id="feComposite2" in2="SourceGraphic" operator="in" result="result2"/>
      </filter>
    </g>
    <g id="acyl-drawing">
      <path d="M 36.40625 7 C 36.406188 9.9999725 34.304499 10.056797 31.96875 10.09375 L 7.625 10.09375 C 7.0330035 10.08525 6.5 10.595626 6.5 11.1875 C 6.5 11.779374 7.0330035 12.32097 7.625 12.3125 L 31.96875 12.3125 C 35.382521 12.3125 38.34375 11.347808 38.4375 9.25 L 43.75 9.25 L 43.75 34.34375 C 43.75 35.614803 43.338785 36.602102 42.15625 37.40625 C 41.821928 37.63355 41.41755 37.817897 40.9375 38 C 41.150614 37.467325 41.25 36.882022 41.25 36.21875 L 41.25 13.6875 L 2 13.6875 L 2 35.46875 C 2 38.51966 4.4481547 40.973501 7.5 40.96875 C 17.139776 40.95374 26.798885 41.03034 36.4375 40.96875 C 39.510336 40.94346 41.791703 40.347879 43.40625 39.25 C 45.151268 38.063368 46 36.217045 46 34.34375 L 46 7 L 36.40625 7 z M 21.375 15.9375 L 24.8125 23.1875 L 32.375 24.34375 L 26.875 29.96875 L 28.1875 37.9375 L 21.375 34.15625 L 14.59375 37.9375 L 15.875 29.96875 L 10.375 24.34375 L 18 23.1875 L 21.375 15.9375 z " id="path-main"/>
    </g>
  </defs>
  <g id="acyl-visual">
    <use id="visible1" transform="translate(24,24) scale(1.00) translate(-24,-24)" style="fill:url(#acyl-gradient);filter:url(#filter)" xlink:href="#acyl-drawing"/>
  </g>
</svg>
