<svg xmlns="http://www.w3.org/2000/svg" xmlns:xlink="http://www.w3.org/1999/xlink" width="48" height="48">
  <defs id="acyl-settings">
    <linearGradient id="acyl-gradient" x1="0%" x2="0%" y1="0%" y2="100%">
      <stop offset="0%" style="stop-color:#FF0000;stop-opacity:1.000000"/>
      <stop offset="100%" style="stop-color:#F9F702;stop-opacity:1.000000"/>
    </linearGradient>
    <g id="acyl-filter">
      <filter id="filter" x="-50%" y="-50%" width="200%" height="200%">
        <feFlood id="feFlood1" flood-opacity="0.50" flood-color="rgb(114,159,207)" result="flood"/>
        <feComposite id="feComposite1" in2="SourceAlpha" in="flood" operator="in" result="composite1"/>
        <feGaussianBlur id="feGaussianBlur1" in="composite1" stdDeviation="1.00" result="blur"/>
        <feOffset id="feOffset1" dx="2.00" dy="2.00" result="offset"/>
        <feComposite id="feComposite2" in2="offset" in="SourceGraphic" operator="over" result="composite2"/>
      </filter>
    </g>
    <g id="acyl-drawing">
      <path id="path-main" d="M 24,2 C 11.856,2 2,11.856 2,24 2,36.144 11.855999,46.000001 24,46 36.144,46 45.999998,36.144001 46,24 46,11.856 36.144,2 24,2 z m 0,8.708333 c 1.984101,0 3.208333,1.11209 3.208333,3.151042 0,0.384708 -0.04523,0.996801 -0.171875,1.804688 l -1.890625,13.75 -2.234375,0 L 20.992187,15.75 c -0.126642,-0.923297 -0.20052,-1.620501 -0.20052,-2.005208 0,-1.96201 1.224236,-3.036459 3.208333,-3.036459 z m 0,20.739584 c 1.730811,0 3.179687,1.296272 3.179687,2.950521 0,1.615768 -1.448876,2.893229 -3.179687,2.893229 -1.688594,0 -3.179688,-1.277461 -3.179688,-2.893229 0,-1.654248 1.448878,-2.950519 3.179688,-2.950521 z"/>
    </g>
  </defs>
  <g id="acyl-visual">
    <use id="visible1" transform="translate(24,24) scale(0.88) translate(-24,-24)" style="fill:url(#acyl-gradient);filter:url(#filter)" xlink:href="#acyl-drawing"/>
  </g>
</svg>
