<svg xmlns="http://www.w3.org/2000/svg" xmlns:xlink="http://www.w3.org/1999/xlink" width="48" height="48">
  <defs id="acyl-settings">
    <linearGradient id="acyl-gradient" x1="0%" x2="0%" y1="0%" y2="100%">
      <stop offset="0%" style="stop-color:#FF0000;stop-opacity:1.000000"/>
      <stop offset="100%" style="stop-color:#F9F702;stop-opacity:1.000000"/>
    </linearGradient>
    <g id="acyl-filter">
      <filter id="filter" x="-50%" y="-50%" width="200%" height="200%">
        <feFlood id="feFlood1" flood-opacity="0.50" flood-color="rgb(114,159,207)" result="flood"/>
        <feComposite id="feComposite1" in2="SourceAlpha" in="flood" operator="in" result="composite1"/>
        <feGaussianBlur id="feGaussianBlur1" in="composite1" stdDeviation="1.00" result="blur"/>
        <feOffset id="feOffset1" dx="2.00" dy="2.00" result="offset"/>
        <feComposite id="feComposite2" in2="offset" in="SourceGraphic" operator="over" result="composite2"/>
      </filter>
    </g>
    <g id="acyl-drawing">
      <path d="M 24 2 A 22 22 0 0 0 2 24.01 A 22 22 0 0 0 24 46 A 22 22 0 0 0 46 24.01 A 22 22 0 0 0 24 2 z M 20.25 9.898 L 30.25 9.898 C 30.45 9.898 30.64 9.994 30.76 10.16 C 30.87 10.32 30.91 10.53 30.84 10.72 L 27.37 21.15 L 30.25 21.15 C 30.47 21.15 30.67 21.26 30.78 21.45 C 30.9 21.63 30.91 21.86 30.81 22.05 L 22.06 39.55 C 21.95 39.77 21.73 39.9 21.5 39.9 C 21.45 39.9 21.4 39.89 21.36 39.88 C 21.08 39.82 20.88 39.57 20.88 39.27 L 20.88 27.4 L 17.75 27.4 C 17.56 27.4 17.39 27.32 17.27 27.18 C 17.15 27.04 17.1 26.86 17.13 26.68 L 19.63 10.43 C 19.68 10.12 19.94 9.898 20.25 9.898" id="path-main"/>
    </g>
  </defs>
  <g id="acyl-visual">
    <use id="visible1" transform="translate(24,24) scale(0.88) translate(-24,-24)" style="fill:url(#acyl-gradient);filter:url(#filter)" xlink:href="#acyl-drawing"/>
  </g>
</svg>
