<svg xmlns="http://www.w3.org/2000/svg" xmlns:xlink="http://www.w3.org/1999/xlink" width="48" height="48">
  <defs id="acyl-settings">
    <linearGradient id="acyl-gradient" x1="0%" x2="0%" y1="0%" y2="100%">
      <stop offset="0%" style="stop-color:#FF0000;stop-opacity:1.000000"/>
      <stop offset="100%" style="stop-color:#F9F702;stop-opacity:1.000000"/>
    </linearGradient>
    <g id="acyl-filter">
      <filter id="filter" x="-50%" y="-50%" width="200%" height="200%">
        <feFlood id="feFlood1" flood-opacity="0.50" flood-color="rgb(114,159,207)" result="flood"/>
        <feComposite id="feComposite1" in2="SourceAlpha" in="flood" operator="in" result="composite1"/>
        <feGaussianBlur id="feGaussianBlur1" in="composite1" stdDeviation="1.00" result="blur"/>
        <feOffset id="feOffset1" dx="2.00" dy="2.00" result="offset"/>
        <feComposite id="feComposite2" in2="offset" in="SourceGraphic" operator="over" result="composite2"/>
      </filter>
    </g>
    <g id="acyl-drawing">
      <path d="M 24,2 C 11.849736,2 2,11.866711 2,24.014388 2,36.162063 11.849737,46 24,46 36.150265,46 46,36.162062 46,24.014388 46,11.866712 36.150266,2 24,2 z M 10.679688,14.489209 c 0.01909,-8.34e-4 0.0382,-8.34e-4 0.05729,0 l 26.783853,0 c 0.363742,3.25e-4 0.658531,0.296463 0.658854,0.66187 l 0,18.158274 c -3.23e-4,0.365406 -0.295112,0.661545 -0.658854,0.66187 l -26.783854,0 c -0.363741,-3.25e-4 -0.658531,-0.296464 -0.658854,-0.66187 l 0,-18.158274 c -0.001,-0.344087 0.260364,-0.631672 0.601563,-0.66187 z M 35.716146,15.985612 12.3125,16.158273 24.085937,26.661871 35.716146,15.985612 z m 1.145833,0.892086 -12.088542,10.992806 C 24.57665,28.068192 24.278038,28.129496 24,28.129496 c -0.274457,0 -0.458421,-0.08642 -0.544271,-0.172661 -0.05851,-0.03393 -7.947251,-7.216756 -12.059896,-10.791367 l 0,15.482014 25.466146,0 0,-15.769784 z" id="path-main"/>
    </g>
  </defs>
  <g id="acyl-visual">
    <use id="visible1" transform="translate(24,24) scale(0.88) translate(-24,-24)" style="fill:url(#acyl-gradient);filter:url(#filter)" xlink:href="#acyl-drawing"/>
  </g>
</svg>
