<svg xmlns="http://www.w3.org/2000/svg" xmlns:xlink="http://www.w3.org/1999/xlink" width="48" height="48">
  <defs id="acyl-settings">
    <linearGradient id="acyl-gradient" x1="0%" x2="0%" y1="0%" y2="100%">
      <stop offset="0%" style="stop-color:#FF0000;stop-opacity:1.000000"/>
      <stop offset="100%" style="stop-color:#F9F702;stop-opacity:1.000000"/>
    </linearGradient>
    <g id="acyl-filter">
      <filter id="filter" x="-50%" y="-50%" width="200%" height="200%">
        <feFlood id="feFlood1" flood-opacity="0.50" flood-color="rgb(114,159,207)" result="flood"/>
        <feComposite id="feComposite1" in2="SourceAlpha" in="flood" operator="in" result="composite1"/>
        <feGaussianBlur id="feGaussianBlur1" in="composite1" stdDeviation="1.00" result="blur"/>
        <feOffset id="feOffset1" dx="2.00" dy="2.00" result="offset"/>
        <feComposite id="feComposite2" in2="offset" in="SourceGraphic" operator="over" result="composite2"/>
      </filter>
    </g>
    <g id="acyl-drawing">
      <path d="M 24 2 A 22 22 0 0 0 2 24 A 22 22 0 0 0 24 46 A 22 22 0 0 0 46 24 A 22 22 0 0 0 24 2 z M 13.37 10 L 34.63 10 L 28.74 16.82 C 38.25 24.69 34.11 36.84 21.89 42 L 20.62 40.69 C 26.94 35.71 26.67 28.41 21.94 24.69 L 15.87 31.72 L 13.37 10 z" id="path-main"/>
    </g>
  </defs>
  <g id="acyl-visual">
    <use id="visible1" transform="translate(24,24) scale(0.88) translate(-24,-24)" style="fill:url(#acyl-gradient);filter:url(#filter)" xlink:href="#acyl-drawing"/>
  </g>
</svg>
