<svg xmlns="http://www.w3.org/2000/svg" xmlns:xlink="http://www.w3.org/1999/xlink" width="48" height="48">
  <defs id="acyl-settings">
    <linearGradient id="acyl-gradient" x1="0%" x2="0%" y1="0%" y2="100%">
      <stop offset="0%" style="stop-color:#FF0000;stop-opacity:1.000000"/>
      <stop offset="100%" style="stop-color:#F9F702;stop-opacity:1.000000"/>
    </linearGradient>
    <g id="acyl-filter">
      <filter id="filter" x="-50%" y="-50%" width="200%" height="200%">
        <feFlood id="feFlood1" flood-opacity="0.50" flood-color="rgb(114,159,207)" result="flood"/>
        <feComposite id="feComposite1" in2="SourceAlpha" in="flood" operator="in" result="composite1"/>
        <feGaussianBlur id="feGaussianBlur1" in="composite1" stdDeviation="1.00" result="blur"/>
        <feOffset id="feOffset1" dx="2.00" dy="2.00" result="offset"/>
        <feComposite id="feComposite2" in2="offset" in="SourceGraphic" operator="over" result="composite2"/>
      </filter>
    </g>
    <g id="acyl-drawing">
      <path id="path-main" d="M 24,2 C 11.856,2 2,11.874172 2,24.014445 2,36.154719 11.856,46 24,46 36.144,46 46,36.154718 46,24.014445 46,11.874172 36.144,2 24,2 z m 0.286458,3.1490479 5.700521,11.9028231 12.947917,1.964544 -9.453125,9.15824 2.148437,13.029547 L 24.085937,34.992777 12.455729,41.05975 14.776042,28.059094 5.4661458,18.756402 18.414062,16.9652 24.286458,5.1490479 z"/>
    </g>
  </defs>
  <g id="acyl-visual">
    <use id="visible1" transform="translate(24,24) scale(0.88) translate(-24,-24)" style="fill:url(#acyl-gradient);filter:url(#filter)" xlink:href="#acyl-drawing"/>
  </g>
</svg>
