<svg xmlns="http://www.w3.org/2000/svg" xmlns:xlink="http://www.w3.org/1999/xlink" 
   viewBox="0 0 66.410416 41.539585" height="157" width="251">
  <defs id="acyl-settings">
    <linearGradient id="acyl-gradient" x1="0%" x2="0%" y1="0%" y2="100%">
      <stop offset="0%" style="stop-color:#00FAFF;stop-opacity:1.000000"/>
      <stop offset="74%" style="stop-color:#000BFF;stop-opacity:1.000000"/>
    </linearGradient>
    <g id="acyl-filter">
      <filter id="filter">
        <feTurbulence id="feTurbulence1" type="turbulence" numOctaves="5.0" baseFrequency="0.40 0.40"/>
        <feDisplacementMap id="feDisplacementMap1" xChannelSelector="R"/>
        <feBlend id="feBlend1" in2="SourceGraphic" mode="screen"/>
        <feColorMatrix id="feColorMatrix1" values="1 0 0 -1 0 1 0 1 -1 0 1 0 0 -1 0 -0.8 -1 0 4 -2.5 "/>
        <feGaussianBlur id="feGaussianBlur1" stdDeviation="3.0"/>
        <feSpecularLighting id="feSpecularLighting1" surfaceScale="16.0" specularConstant="0.4" specularExponent="5">
          <feDistantLight id="feDistantLight1" azimuth="225" elevation="35"/>
        </feSpecularLighting>
        <feComposite id="feComposite1" in2="SourceGraphic" k2=" 0.4" k3=" 2.0" operator="arithmetic"/>
        <feComposite id="feComposite2" in2="SourceGraphic" operator="in" result="result2"/>
      </filter>
    </g>
    <g id="acyl-drawing" transform="translate(0,-255.46039)">
      <path   d="m 11.207992,266.69023 c -0.02916,0 -0.209452,0.40005 -0.400514,0.889 -0.191062,0.48896 -0.695583,1.70296 -1.1212258,2.69782 l -0.7737819,1.80882 0.4902686,0.50434 c 0.2697386,0.27735 0.7906911,0.74561 1.1575571,1.04055 0.366864,0.29493 0.640038,0.53622 0.607093,0.53622 -0.146179,0 -1.718484,-0.86665 -2.0978471,-1.15631 -0.2308454,-0.17627 -0.4307055,-0.30616 -0.4441461,-0.28869 -0.013431,0.0175 -0.5081757,0.97542 -1.0994992,2.12885 -1.334059,2.60217 -4.6633249,8.76463 -5.6834206,10.52004 l -0.2320454,0.39927 0.6765467,-0.38058 c 2.2582825,-1.27018 4.5577499,-2.27712 6.0832218,-2.66397 0.8194712,-0.20783 0.8458794,-0.22252 0.7908778,-0.44165 -0.1847248,-0.73602 0.018636,-2.52685 0.360624,-3.17509 1.4043471,-2.662 4.0297461,-0.94033 3.8624961,2.53291 l -0.04292,0.89381 0.783397,0.20497 c 1.490857,0.39007 3.737391,1.37623 5.911015,2.59471 l 0.750987,0.42099 -0.382883,-0.71145 c -1.229317,-2.28318 -1.187362,-2.22309 -2.042821,-2.91935 -0.444709,-0.36196 -1.157448,-0.86727 -1.583714,-1.12283 -0.477193,-0.2861 -0.669913,-0.43946 -0.501489,-0.3991 0.387839,0.0929 1.365002,0.46479 1.78602,0.67959 0.196197,0.10008 0.356705,0.15871 0.356705,0.13018 0,-0.0285 -0.478442,-0.94241 -1.06317,-2.03072 -2.40061,-4.46808 -4.579106,-8.96147 -5.788848,-11.94009 -0.168031,-0.41373 -0.329331,-0.75224 -0.358486,-0.75224 z m 26.517824,3.92447 c -0.06269,0.002 -0.421707,0.0755 -0.797824,0.16295 l -0.683849,0.15921 -0.02369,4.30486 c -0.02049,3.72496 -0.0057,4.30486 0.109524,4.30486 0.116132,0 0.63113,-0.0923 1.304654,-0.23382 l 0.205153,-0.0431 v -2.15021 -2.15002 l 0.300609,-0.30062 c 0.470292,-0.47028 1.306061,-0.63304 1.924392,-0.37468 0.592006,0.24736 0.601573,0.29384 0.601573,2.90208 0,2.06692 0.01724,2.35037 0.142112,2.35037 0.0781,0 0.426866,-0.047 0.775028,-0.10454 l 0.632917,-0.10454 v -2.62391 -2.62372 l -0.233471,-0.27764 c -0.128466,-0.15267 -0.506904,-0.41222 -0.84092,-0.57682 -0.542898,-0.26754 -0.705118,-0.3026 -1.528685,-0.32999 -1.057426,-0.0351 -1.298633,0.0369 -2.094108,0.62454 -0.282759,0.20889 -0.530618,0.36337 -0.550641,0.34335 -0.02001,-0.02 0.167845,-0.23766 0.417433,-0.4835 l 0.453761,-0.44682 v -1.1661 c 0,-0.87398 -0.02854,-1.16494 -0.113973,-1.16219 z m 6.54393,0.0226 c -0.0433,-2.7e-4 -0.193252,0.0354 -0.362406,0.0874 l -0.351539,0.10793 0.05966,2.51047 c 0.03278,1.38082 0.05957,3.31448 0.05966,4.29703 l 1.82e-4,1.78654 0.341924,-0.0561 0.341924,-0.0561 -0.02725,-4.32605 c -0.01506,-2.37929 -0.03764,-4.33609 -0.05023,-4.34868 -0.0016,-9.7e-4 -0.0057,-0.002 -0.01194,-0.002 z m 1.683086,0.1699 c -0.07184,-0.005 -0.147822,0.0501 -0.284225,0.16081 l -0.215305,0.17453 0.216018,0.23043 0.216195,0.23027 0.262498,-0.19393 0.262498,-0.19412 -0.198208,-0.21103 c -0.120025,-0.12776 -0.18764,-0.19217 -0.259471,-0.19696 z m -23.757142,1.73669 c -0.348541,-0.002 -0.701196,0.0201 -1.019717,0.0696 -0.398357,0.062 -0.77083,0.14141 -0.827564,0.17648 -0.104365,0.0645 -0.424618,1.54483 -0.350294,1.61916 0.02214,0.0221 0.30148,-0.0201 0.620806,-0.094 0.927274,-0.21463 1.639247,-0.26825 2.060093,-0.15492 0.390837,0.10523 0.663191,0.3773 0.663191,0.6623 0,0.14355 -0.03322,0.13935 -0.341925,-0.0431 -0.472745,-0.27938 -1.659888,-0.27138 -2.407716,0.0163 -1.205783,0.46398 -1.711362,1.6312 -1.302695,3.00734 0.242954,0.81811 0.982203,1.46251 1.895364,1.65227 0.462396,0.0961 1.275049,0.0266 1.685402,-0.14407 0.166904,-0.0694 0.592556,-0.40391 0.945812,-0.74333 l 0.642353,-0.61706 -0.287607,0.45589 c -0.15812,0.25075 -0.375737,0.56814 -0.483681,0.70522 -0.107947,0.13709 -0.168916,0.27648 -0.135523,0.30987 0.06086,0.0609 1.299997,-0.11318 1.445342,-0.20301 0.116174,-0.0718 0.09494,-4.50519 -0.02422,-5.06084 -0.131358,-0.61249 -0.648179,-1.19352 -1.248736,-1.40402 -0.378649,-0.13273 -0.947783,-0.20609 -1.528686,-0.21015 z m 7.776638,0.086 c -0.384816,-0.008 -1.202335,0.13404 -1.584604,0.3056 -0.258977,0.11622 -0.516862,0.29726 -0.57308,0.40229 -0.171071,0.31965 -0.27817,0.21531 -0.27817,-0.27104 0,-0.39594 -0.02283,-0.45584 -0.159565,-0.41833 -0.08776,0.0241 -0.323688,0.0692 -0.524283,0.10044 -0.200598,0.0312 -0.477555,0.079 -0.615464,0.10632 l -0.250744,0.0497 v 3.28762 3.28765 l 0.387514,-0.0536 c 0.213135,-0.0294 0.602925,-0.1 0.866209,-0.15671 l 0.478693,-0.1031 v -1.99136 -1.99135 l 0.247004,-0.29367 c 0.28738,-0.34153 0.862206,-0.62748 1.267257,-0.63024 0.265624,-9.7e-4 0.303954,-0.0479 0.615464,-0.73905 0.182709,-0.40543 0.332129,-0.77887 0.332129,-0.82988 0,-0.0398 -0.08009,-0.0589 -0.20836,-0.0613 z m 2.866286,0.0942 c -0.85749,9.7e-4 -1.686673,0.2427 -2.277891,0.71003 -1.418872,1.12155 -1.460851,3.92055 -0.07747,5.17035 0.447092,0.40392 1.147315,0.7303 1.798485,0.83825 0.687762,0.11401 0.699319,0.11409 1.352024,0.008 0.788212,-0.12789 1.818904,-0.67747 1.960011,-1.04518 0.02967,-0.0773 -0.157691,-0.32733 -0.470858,-0.62846 l -0.520011,-0.50006 -0.227948,0.21797 c -0.708525,0.67772 -2.058448,0.64902 -2.708147,-0.0577 -0.52532,-0.57143 -0.640573,-1.57256 -0.256443,-2.22802 0.516491,-0.88132 1.941185,-1.10755 2.89567,-0.45982 l 0.32091,0.21779 0.506476,-0.60459 c 0.472885,-0.56443 0.496733,-0.61542 0.359377,-0.7672 -0.08093,-0.0894 -0.396226,-0.28461 -0.700767,-0.43382 -0.602372,-0.29511 -1.286484,-0.43891 -1.95342,-0.43773 z m 17.67107,0.28672 c -0.841589,-0.012 -1.705498,0.34291 -2.121711,1.04714 l -0.199278,0.33694 -0.02689,-0.61547 c -0.01483,-0.3385 -0.06099,-0.61546 -0.102578,-0.61546 -0.04159,0 -0.210256,0.0269 -0.37487,0.0598 l -0.299361,0.0598 0.06215,3.05772 c 0.03417,1.68171 0.07709,3.07267 0.09545,3.09104 0.01837,0.0184 0.171303,-0.002 0.339787,-0.0459 l 0.306307,-0.0793 0.04558,-2.18688 c 0.05164,-2.47702 0.05435,-2.48698 0.792302,-2.95498 0.566123,-0.35903 1.279148,-0.50103 1.834994,-0.36544 0.494052,0.12051 0.747347,0.30586 1.012416,0.74066 0.178422,0.29268 0.189138,0.44291 0.189483,2.64653 l 3.79e-4,2.33648 0.296334,-0.0605 0.296334,-0.0605 0.02707,-2.18475 c 0.03135,-2.5284 0.0047,-2.80397 -0.321266,-3.30652 -0.384913,-0.59362 -1.110046,-0.88981 -1.852623,-0.9004 z m 4.107186,0.13285 -0.341212,0.0641 c -0.187679,0.0351 -0.372315,0.0832 -0.410309,0.10668 -0.1141,0.0705 -0.08228,4.571 0.03508,4.96271 0.142741,0.47641 0.584003,0.98582 1.029157,1.188 0.261036,0.11856 0.587567,0.16903 1.100568,0.16971 1.06482,9.8e-4 1.682348,-0.31957 2.205767,-1.1474 0.09041,-0.14299 0.109516,-0.0674 0.113975,0.45092 l 0.0053,0.62258 0.296334,-0.0633 c 0.162984,-0.035 0.327107,-0.0817 0.364719,-0.10382 0.07797,-0.0458 0.09543,-6.08129 0.01781,-6.15892 -0.02788,-0.0279 -0.188722,-0.009 -0.357418,0.0435 l -0.30684,0.0942 -0.0301,2.06864 -0.0301,2.06864 -0.274964,0.4445 c -0.201588,0.32587 -0.408368,0.5144 -0.775029,0.70682 -0.448172,0.23521 -0.572705,0.25932 -1.199762,0.23169 -0.596071,-0.0262 -0.735633,-0.0645 -0.94314,-0.2584 -0.486942,-0.45498 -0.499886,-0.5347 -0.499886,-3.10528 z m -8.420417,0.0203 c -0.01759,0 -0.161199,0.0451 -0.31913,0.10009 l -0.287251,0.10007 v 3.05631 3.05612 l 0.205153,-0.0549 c 0.112838,-0.0303 0.256441,-0.0557 0.319129,-0.0562 0.08892,-7.2e-4 0.113976,-0.68272 0.113976,-3.10136 0,-1.70507 -0.01431,-3.10011 -0.03187,-3.10011 z m 14.259841,0.0912 c -0.03482,0 -0.149746,0.0924 -0.255374,0.20516 l -0.191977,0.20516 0.948483,1.23092 c 0.521712,0.67701 0.949886,1.2561 0.951334,1.28685 0.0015,0.0307 -0.448848,0.69567 -1.000485,1.47776 -0.551638,0.78208 -1.001713,1.4546 -1.000129,1.49431 0.0051,0.1287 0.466811,0.41427 0.53871,0.33319 0.03836,-0.0432 0.469747,-0.64288 0.958455,-1.33243 0.488708,-0.68954 0.922092,-1.25372 0.963086,-1.25372 0.04099,0 0.513952,0.61778 1.051062,1.37286 l 0.97662,1.37286 0.219224,-0.20586 c 0.120567,-0.11327 0.202184,-0.2502 0.181469,-0.30417 -0.02071,-0.054 -0.465364,-0.69202 -0.988018,-1.41774 -0.522655,-0.72574 -0.979695,-1.36845 -1.0158,-1.42843 -0.03889,-0.0646 0.285578,-0.59894 0.79622,-1.31088 l 0.861934,-1.20155 -0.27069,-0.22795 c -0.14893,-0.12531 -0.283335,-0.21254 -0.298649,-0.19376 -0.01532,0.0187 -0.344279,0.49493 -0.731041,1.05801 -0.386762,0.56307 -0.736329,1.0442 -0.77681,1.06923 -0.04048,0.0251 -0.474314,-0.46651 -0.963977,-1.0922 -0.489661,-0.6257 -0.918821,-1.13762 -0.953647,-1.13762 z m -38.446347,2.75446 c 0.376684,-0.005 0.760733,0.12069 1.030402,0.39036 0.486764,0.48676 0.342216,1.10887 -0.339787,1.46155 h -1.82e-4 c -0.37802,0.19548 -1.075384,0.17143 -1.438041,-0.0497 -0.166002,-0.10121 -0.362708,-0.32997 -0.4372,-0.50826 -0.123086,-0.29461 -0.120489,-0.35447 0.02832,-0.65784 0.200212,-0.40819 0.672179,-0.62991 1.156486,-0.63613 z"/>
    </g>
  </defs>
  <g id="acyl-visual">
    <use id="visible1" transform="translate(24,24) scale(1.00) translate(-24,-24)" style="fill:url(#acyl-gradient);filter:url(#filter)" xlink:href="#acyl-drawing"/>
  </g>
</svg>
