<svg xmlns="http://www.w3.org/2000/svg" xmlns:xlink="http://www.w3.org/1999/xlink" 
   viewBox="0 0 66.410416 41.539585" height="157" width="251">
  <defs id="acyl-settings">
    <linearGradient id="acyl-gradient" x1="0%" x2="0%" y1="0%" y2="100%">
      <stop offset="0%" style="stop-color:#00FAFF;stop-opacity:1.000000"/>
      <stop offset="74%" style="stop-color:#000BFF;stop-opacity:1.000000"/>
    </linearGradient>
    <g id="acyl-filter">
      <filter id="filter">
        <feTurbulence id="feTurbulence1" type="turbulence" numOctaves="5.0" baseFrequency="0.40 0.40"/>
        <feDisplacementMap id="feDisplacementMap1" xChannelSelector="R"/>
        <feBlend id="feBlend1" in2="SourceGraphic" mode="screen"/>
        <feColorMatrix id="feColorMatrix1" values="1 0 0 -1 0 1 0 1 -1 0 1 0 0 -1 0 -0.8 -1 0 4 -2.5 "/>
        <feGaussianBlur id="feGaussianBlur1" stdDeviation="3.0"/>
        <feSpecularLighting id="feSpecularLighting1" surfaceScale="16.0" specularConstant="0.4" specularExponent="5">
          <feDistantLight id="feDistantLight1" azimuth="225" elevation="35"/>
        </feSpecularLighting>
        <feComposite id="feComposite1" in2="SourceGraphic" k2=" 0.4" k3=" 2.0" operator="arithmetic"/>
        <feComposite id="feComposite2" in2="SourceGraphic" operator="in" result="result2"/>
      </filter>
    </g>
    <g id="acyl-drawing" transform="translate(0,-255.46039)">
      <path   d="m 5.0979963,289.29748 c -0.2367957,-0.0701 -0.56222,-0.24734 -0.7231653,-0.39406 -0.5194766,-0.47353 -0.6299533,-0.94029 -0.6299533,-2.6615 v -1.60311 h 0.6670281 0.667028 l 0.040284,1.67084 c 0.035806,1.48513 0.066819,1.6902 0.2790632,1.84516 0.3119263,0.22774 0.6196116,0.22095 0.8595305,-0.019 0.1565366,-0.15655 0.1933027,-0.50749 0.1933027,-1.84516 v -1.65187 h 0.7501335 0.7501334 l -0.042827,1.6299 c -0.035462,1.3497 -0.086448,1.71448 -0.296597,2.12193 -0.4012753,0.77803 -1.549192,1.1921 -2.513966,0.90683 z m 4.0593539,-0.0231 c -0.5329153,-0.14201 -0.5522379,-0.16345 -0.5183943,-0.57536 0.048103,-0.58548 0.1579062,-0.65617 0.7652869,-0.49262 0.2883151,0.0776 0.6551632,0.10829 0.8152172,0.0682 0.412218,-0.10347 0.384247,-0.53104 -0.04542,-0.6944 -1.2342307,-0.46926 -1.6915524,-0.95963 -1.5813725,-1.69567 0.1245793,-0.83222 0.7919935,-1.24645 2.0039555,-1.24371 1.085612,0.002 1.165273,0.0571 1.004768,0.68944 l -0.12689,0.4999 -0.746476,-0.0112 c -1.0248532,-0.0155 -1.0423284,0.19866 -0.05281,0.64733 0.880653,0.39931 1.237582,0.81246 1.237582,1.43253 0,1.06805 -1.360661,1.7474 -2.7554407,1.37574 z m 3.4443018,-2.23318 v -2.40239 h 1.544706 1.544708 l -0.03783,0.52279 -0.03783,0.5228 -0.830321,0.0364 c -0.789668,0.0346 -0.830323,0.0512 -0.830323,0.33829 0,0.28957 0.03267,0.3019 0.799571,0.3019 h 0.799569 v 0.55355 0.55354 h -0.799569 -0.799571 v 0.43054 0.43054 h 0.929653 0.929655 l -0.03783,0.52279 -0.03783,0.5228 -1.568387,0.0345 -1.568387,0.0344 z m 3.934583,2.1865 c -9.52e-4,-0.1221 -0.0074,-1.19072 -0.01427,-2.37469 l -0.01251,-2.15269 1.275139,-0.0327 c 1.021101,-0.0262 1.360883,0.0107 1.705535,0.18453 0.788922,0.39815 0.949557,1.4072 0.32041,2.01273 -0.282211,0.27162 -0.283367,0.28275 -0.06803,0.65502 0.273002,0.47194 0.627475,1.66363 0.537945,1.8085 -0.102052,0.16513 -1.11255,0.12813 -1.254466,-0.0459 -0.06895,-0.0846 -0.19599,-0.40286 -0.282305,-0.70732 -0.184727,-0.65156 -0.435855,-0.98408 -0.743223,-0.98408 -0.189718,0 -0.226761,0.12819 -0.257708,0.89183 l -0.03614,0.89182 -0.5843,0.0374 c -0.494572,0.0317 -0.584572,0.003 -0.58606,-0.18452 z m 2.145661,-2.81402 c 0.391679,-0.39168 0.135364,-0.79079 -0.507858,-0.79079 -0.391584,0 -0.405936,0.0173 -0.405936,0.49206 0,0.46203 0.02197,0.49204 0.360246,0.49204 0.198135,0 0.447232,-0.087 0.553548,-0.19331 z m 3.514592,0.63027 v -2.40514 h 1.234059 c 1.743199,0 2.456263,0.36683 2.456263,1.26359 0,0.42754 -0.292521,1.01794 -0.554091,1.11832 -0.169793,0.0651 -0.161964,0.11804 0.06238,0.42149 0.320262,0.43317 0.675461,1.73647 0.516562,1.89536 -0.176847,0.17685 -1.153802,0.0635 -1.270468,-0.14736 -0.05614,-0.10148 -0.160112,-0.41728 -0.231048,-0.70178 -0.146722,-0.58843 -0.428261,-0.92794 -0.721704,-0.87028 -0.161807,0.0318 -0.200994,0.2045 -0.20375,0.89798 l -0.0033,0.8586 -0.642393,0.0372 -0.642393,0.0371 v -2.40514 z m 2.262664,-0.71374 c 0.210795,-0.33666 -0.05437,-0.64581 -0.55392,-0.64581 -0.398512,0 -0.41624,0.0192 -0.39719,0.43055 0.01097,0.23679 0.02481,0.44788 0.03076,0.46908 0.0379,0.13513 0.810179,-0.0778 0.920357,-0.25382 z m 2.12472,3.02402 c -0.04509,-0.0451 -0.08201,-1.12453 -0.08201,-2.39872 v -2.3167 h 1.59914 1.59914 v 0.35897 c 0,0.69027 -0.07713,0.74814 -0.997247,0.74814 -0.818226,0 -0.847914,0.0106 -0.847914,0.30189 0,0.28713 0.04065,0.30369 0.830321,0.33828 l 0.830324,0.0364 0.03783,0.5228 0.03783,0.5228 H 28.715342 27.8394 l 0.03855,0.39979 0.03854,0.39977 0.891828,0.0361 c 0.821617,0.0332 0.892945,0.0575 0.906017,0.30752 0.0078,0.14926 0.02164,0.35441 0.03076,0.45591 0.0091,0.10148 -0.0388,0.22518 -0.106447,0.27488 -0.153727,0.11294 -2.94288,0.12402 -3.054767,0.0122 z m 3.854335,-2.31028 v -2.40514 h 1.235008 c 1.89758,0 2.586493,0.49361 2.420118,1.73403 -0.111739,0.83308 -0.793862,1.34124 -1.800393,1.34124 h -0.490374 l -0.03637,0.83032 -0.03638,0.83033 -0.645806,0.0372 -0.645807,0.0371 z m 2.099269,-0.44129 c 0.522475,-0.27961 0.170859,-0.97977 -0.492044,-0.97977 -0.219157,0 -0.254107,0.0761 -0.254107,0.55355 0,0.47741 0.03495,0.55355 0.254107,0.55355 0.139761,0 0.36118,-0.0573 0.492044,-0.12733 z m 3.724089,2.71698 c -0.692871,-0.16723 -1.201082,-0.5471 -1.48723,-1.11164 -0.702144,-1.38526 0.04264,-3.26419 1.394403,-3.51777 0.667468,-0.12522 1.632349,0.0105 1.997555,0.28099 1.146164,0.8489 1.29744,2.71624 0.304048,3.75311 -0.473344,0.49408 -1.49141,0.76846 -2.208776,0.59531 z m 1.058382,-1.22967 c 0.535501,-0.5355 0.45421,-1.81789 -0.143348,-2.26138 -0.283271,-0.21023 -0.383528,-0.22618 -0.652198,-0.10377 -0.727835,0.33163 -0.868863,1.84416 -0.219568,2.3549 0.398328,0.31332 0.708912,0.31646 1.015114,0.0103 z m 3.022749,1.20952 c -0.269455,-0.0646 -0.53642,-0.16383 -0.593256,-0.22067 -0.148418,-0.14842 0.141459,-1.14506 0.303854,-1.04469 0.254132,0.15706 1.028109,0.28291 1.308709,0.21282 0.453977,-0.11343 0.297485,-0.52776 -0.283366,-0.75026 -1.170134,-0.44821 -1.645087,-1.17636 -1.272588,-1.95099 0.308216,-0.64096 0.88296,-0.90689 1.960078,-0.90689 0.52725,0 0.986356,0.0449 1.02024,0.0997 0.03389,0.0548 0.0062,0.31816 -0.06163,0.58519 l -0.123239,0.48553 -0.749807,-7.3e-4 c -1.024885,-0.002 -1.042463,0.2099 -0.05477,0.65774 0.880657,0.39931 1.237582,0.81246 1.237582,1.43253 0,1.04038 -1.322746,1.72877 -2.691809,1.4009 z m 3.380671,-2.25554 v -2.40514 h 0.679214 0.679214 l -0.03343,2.36796 -0.03343,2.36796 -0.645806,0.0372 -0.645805,0.0371 z m 3.162946,2.31594 c -0.04822,-0.0482 -0.08768,-0.88109 -0.08768,-1.85082 v -1.76315 h -0.615048 -0.615056 v -0.55355 -0.55356 h 1.913738 1.913742 l -0.03785,0.52279 -0.03785,0.5228 -0.581051,0.0373 -0.581051,0.0374 -0.03399,1.80779 -0.03399,1.8078 -0.558126,0.0364 c -0.306974,0.02 -0.597583,-0.003 -0.645809,-0.0512 z m 4.384767,-0.0398 c -1.081996,-0.26139 -1.768569,-1.1532 -1.76351,-2.29066 0.0073,-1.65077 1.299704,-2.65829 3.00053,-2.33921 1.639819,0.30764 2.220279,2.72824 0.967805,4.03585 -0.471026,0.49176 -1.490797,0.76651 -2.204825,0.59402 z m 0.873008,-1.06737 c 0.505683,-0.19405 0.711435,-1.28896 0.387784,-2.06356 -0.351254,-0.84068 -1.297524,-0.64604 -1.557756,0.32038 -0.287926,1.06927 0.370329,2.05003 1.169972,1.74318 z m 2.650245,-1.20877 v -2.40513 h 1.234057 c 1.350642,0 1.92756,0.16098 2.25567,0.62942 0.298293,0.42588 0.252201,1.06334 -0.111354,1.53998 -0.295495,0.38742 -0.301502,0.42492 -0.113906,0.71123 0.189916,0.28985 0.544359,1.43557 0.547404,1.76944 9.52e-4,0.11598 -0.175438,0.14994 -0.639459,0.12302 l -0.640918,-0.0371 -0.269707,-0.78492 c -0.148338,-0.43171 -0.34428,-0.83218 -0.435422,-0.88995 -0.379694,-0.24062 -0.46239,-0.11075 -0.498611,0.78304 l -0.03612,0.89183 -0.645806,0.0371 -0.645809,0.0371 z m 2.189589,-0.58458 c 0.210894,-0.21089 0.182357,-0.67381 -0.04697,-0.7618 -0.107017,-0.041 -0.328436,-0.0747 -0.492042,-0.0747 -0.265033,0 -0.297467,0.0536 -0.297467,0.49205 0,0.45689 0.02459,0.49204 0.344434,0.49204 0.189437,0 0.410856,-0.0665 0.492041,-0.14761 z m 3.064536,2.90052 c -0.04822,-0.0482 -0.08767,-0.49853 -0.08767,-1.00068 0,-0.87628 -0.02952,-0.96948 -0.733373,-2.3167 l -0.733369,-1.40369 h 0.772129 0.772125 l 0.282272,0.79957 c 0.155248,0.43975 0.319625,0.79957 0.365281,0.79957 0.04566,0 0.21757,-0.35982 0.382031,-0.79957 l 0.29902,-0.79957 h 0.711564 c 0.391362,0 0.710898,0.0415 0.71008,0.0923 -9.52e-4,0.0507 -0.144544,0.34135 -0.319406,0.6458 -1.143993,1.99184 -1.090736,1.85573 -1.155239,2.95226 l -0.0615,1.04559 -0.558125,0.0364 c -0.306974,0.02 -0.597583,-0.003 -0.64581,-0.0512 z M 3.6218675,288.69817 c 0,-0.0676 0.058619,-0.12302 0.1302704,-0.12302 0.071649,0 0.096059,0.0553 0.054245,0.12302 -0.041816,0.0676 -0.1004354,0.123 -0.1302711,0.123 -0.029834,0 -0.054245,-0.0553 -0.054244,-0.123 z m 28.0464465,-4.99871 c -2.77656,-0.52693 -4.480101,-1.72465 -5.525787,-3.88504 -0.991654,-2.04875 -1.021966,-2.32774 -1.082984,-9.96766 l -0.05379,-6.73483 h 2.768307 2.768308 l 0.04679,6.55033 c 0.0452,6.32773 0.05586,6.57748 0.313709,7.34988 0.48314,1.44728 1.257928,2.20484 2.451292,2.39677 1.36417,0.21941 2.567812,-0.45505 3.15766,-1.76942 0.497313,-1.10816 0.567005,-2.16989 0.568036,-8.6538 l 9.52e-4,-5.87376 h 2.777732 2.777734 l -0.04914,6.73483 -0.04913,6.73485 -0.324204,1.20486 c -0.796003,2.95823 -2.554588,4.84176 -5.256011,5.62941 -0.749027,0.21839 -1.304397,0.27587 -2.952257,0.30547 -1.116323,0.0201 -2.168064,0.0103 -2.337204,-0.0219 z M 4.3613272,283.38021 c 7.328e-4,-0.0858 0.2285043,-0.93099 0.5060812,-1.87817 0.2775777,-0.94719 0.7699265,-2.63552 1.0941079,-3.75183 1.6009594,-5.51293 3.7499142,-12.88416 4.1061547,-14.08472 l 0.146001,-0.49205 3.697264,-0.0326 3.697262,-0.0326 0.275503,0.95511 c 0.151525,0.5253 0.488458,1.64703 0.748738,2.49273 0.26028,0.8457 0.645692,2.14654 0.85647,2.89075 0.210778,0.74422 0.515133,1.76829 0.676344,2.27571 0.161213,0.50742 0.717798,2.36181 1.236857,4.12085 0.519059,1.75906 1.242265,4.18597 1.607126,5.39314 0.36486,1.20717 0.663382,2.21739 0.663382,2.24494 0,0.0275 -1.352266,0.0501 -3.005035,0.0501 h -3.005034 l -0.185235,-0.64581 c -0.101879,-0.35519 -0.303155,-1.11632 -0.447277,-1.69139 -0.144121,-0.57509 -0.345397,-1.33621 -0.447276,-1.69141 l -0.185235,-0.6458 -2.605249,0.002 -2.60525,0.002 -0.569688,2.30402 -0.569689,2.30403 -2.843859,0.0329 c -2.2330452,0.0259 -2.8435594,-4.6e-4 -2.8424638,-0.12302 z m 11.1473868,-8.98204 c -0.04064,-0.15223 -0.448415,-1.78468 -0.906174,-3.62766 -0.457758,-1.84299 -0.865925,-3.35141 -0.907037,-3.35205 -0.04111,-4.6e-4 -0.163969,0.42784 -0.273011,0.95218 -0.109043,0.52433 -0.476615,2.14346 -0.816824,3.59806 -0.340212,1.45461 -0.618679,2.65857 -0.618818,2.67548 -1.36e-4,0.017 0.808849,0.0307 1.797749,0.0307 h 1.798003 z m 30.768536,-0.9399 0.03217,-10.07347 0.398373,-0.0697 c 2.234018,-0.39063 8.774454,-0.40901 10.300739,-0.029 1.200523,0.29894 2.039726,0.66887 2.819388,1.24283 1.387933,1.02173 2.031213,2.52525 1.958843,4.57833 -0.03673,1.04236 -0.09303,1.30618 -0.426817,2.00029 -0.494649,1.02863 -1.096468,1.71192 -2.073647,2.35438 l -0.783232,0.51494 0.456498,0.33069 c 1.058201,0.76655 1.649364,1.87684 2.301799,4.32309 0.240741,0.90267 0.646912,2.37565 0.902596,3.27331 l 0.464876,1.63211 -2.833596,-0.033 -2.833595,-0.0329 -0.269088,-0.69489 c -0.147994,-0.38218 -0.52494,-1.66981 -0.837656,-2.86139 -0.681623,-2.59728 -0.937632,-3.18597 -1.566519,-3.60215 -0.378447,-0.25045 -0.671785,-0.32303 -1.519162,-0.37589 l -1.050152,-0.0655 v 3.83067 3.83066 l -2.736986,2e-5 -2.736989,10e-6 z m 8.640093,-1.94437 c 1.598417,-0.72557 1.968086,-2.62185 0.730913,-3.74935 -0.702837,-0.64052 -1.677398,-0.82947 -3.283385,-0.63657 l -0.64581,0.0776 v 2.33587 2.33588 l 1.322365,-0.0561 c 0.977217,-0.0414 1.46685,-0.12164 1.875917,-0.30733 z"/>
    </g>
  </defs>
  <g id="acyl-visual">
    <use id="visible1" transform="translate(24,24) scale(1.00) translate(-24,-24)" style="fill:url(#acyl-gradient);filter:url(#filter)" xlink:href="#acyl-drawing"/>
  </g>
</svg>
