<svg xmlns="http://www.w3.org/2000/svg" xmlns:xlink="http://www.w3.org/1999/xlink" 
   viewBox="0 0 66.410416 41.539585" height="157" width="251">
  <defs id="acyl-settings">
    <linearGradient id="acyl-gradient" x1="0%" x2="0%" y1="0%" y2="100%">
      <stop offset="0%" style="stop-color:#00FAFF;stop-opacity:1.000000"/>
      <stop offset="74%" style="stop-color:#000BFF;stop-opacity:1.000000"/>
    </linearGradient>
    <g id="acyl-filter">
      <filter id="filter">
        <feTurbulence id="feTurbulence1" type="turbulence" numOctaves="5.0" baseFrequency="0.40 0.40"/>
        <feDisplacementMap id="feDisplacementMap1" xChannelSelector="R"/>
        <feBlend id="feBlend1" in2="SourceGraphic" mode="screen"/>
        <feColorMatrix id="feColorMatrix1" values="1 0 0 -1 0 1 0 1 -1 0 1 0 0 -1 0 -0.8 -1 0 4 -2.5 "/>
        <feGaussianBlur id="feGaussianBlur1" stdDeviation="3.0"/>
        <feSpecularLighting id="feSpecularLighting1" surfaceScale="16.0" specularConstant="0.4" specularExponent="5">
          <feDistantLight id="feDistantLight1" azimuth="225" elevation="35"/>
        </feSpecularLighting>
        <feComposite id="feComposite1" in2="SourceGraphic" k2=" 0.4" k3=" 2.0" operator="arithmetic"/>
        <feComposite id="feComposite2" in2="SourceGraphic" operator="in" result="result2"/>
      </filter>
    </g>
    <g id="acyl-drawing" transform="translate(0,-255.46039)">
      <path   d="m 10.205811,283.97946 c -2.1890204,-0.89406 -3.9166574,-2.77977 -4.6418275,-5.06655 -0.2951867,-0.93086 -0.3778179,-1.50463 -0.3710192,-2.57625 0.00493,-0.78105 0.037755,-1.09538 0.1777667,-1.70303 0.862592,-3.74385 4.1199406,-6.35747 7.939793,-6.37072 2.302385,-0.007 4.362526,0.8721 5.963176,2.54744 1.076674,1.12691 1.762883,2.43456 2.102725,4.00697 0.162486,0.75183 0.163741,2.51604 0.0022,3.23684 -0.614254,2.74248 -2.406014,4.90419 -4.926346,5.94349 -0.26658,0.10994 -0.565174,0.19987 -0.66354,0.19987 -0.362708,0 -0.383711,-0.0904 -0.408153,-1.75655 l -0.02237,-1.52535 -0.215991,-0.41865 c -0.227333,-0.44062 -0.212605,-0.52394 0.093,-0.52613 0.273631,-0.002 1.315584,-0.34253 1.674979,-0.54748 0.831536,-0.47419 1.368639,-1.30974 1.559539,-2.42613 0.193417,-1.1311 0.03218,-2.08264 -0.478716,-2.82515 l -0.239443,-0.34802 0.07804,-0.4838 c 0.08387,-0.51993 0.02472,-1.13777 -0.141584,-1.4788 -0.08171,-0.16756 -0.116942,-0.18107 -0.447778,-0.17169 -0.294157,0.009 -0.494357,0.0785 -1.107098,0.38803 l -0.748006,0.37783 -0.643906,-0.10728 c -0.825527,-0.13753 -1.957112,-0.13678 -2.813637,0.001 l -0.674171,0.10912 -0.457809,-0.2698 c -0.542938,-0.31995 -1.2193631,-0.55797 -1.5062254,-0.53 -0.1529508,0.0149 -0.230502,0.0709 -0.3021469,0.21825 -0.1249676,0.25694 -0.1764392,1.4066 -0.075891,1.69504 0.067608,0.19394 0.05626,0.24124 -0.1157032,0.48207 -0.5082598,0.71182 -0.7087174,1.45179 -0.6360263,2.34783 0.1207639,1.48867 0.6475933,2.4653 1.6344314,3.02992 0.3449124,0.19734 1.3888304,0.53629 1.6576064,0.53821 0.07768,5.1e-4 0.183478,0.0278 0.235104,0.0604 0.07962,0.0504 0.0761,0.0865 -0.02324,0.23811 -0.0644,0.0983 -0.168585,0.33121 -0.231516,0.51759 -0.149907,0.44397 -0.328218,0.53671 -1.028156,0.5347 -0.4358013,-10e-4 -0.5718951,-0.0284 -0.7761775,-0.15474 l -0.2477171,-0.15322 v 0.14349 c 0,0.10075 -0.034219,0.13689 -0.1148412,0.12136 -0.1477185,-0.0285 -0.1966356,-0.2518 -0.055142,-0.2518 0.133697,0 0.1328575,-0.0919 -0.00176,-0.20373 -0.05818,-0.0483 -0.2056251,-0.24387 -0.3276476,-0.43463 -0.2661623,-0.41608 -0.7842883,-0.74727 -1.1705332,-0.74823 -0.3392022,-7e-4 -0.400935,0.16356 -0.1411039,0.37578 0.4836372,0.39502 0.7077252,0.66548 0.924102,1.11535 0.4439725,0.92306 1.0570318,1.26028 2.1839715,1.20133 0.739938,-0.0387 0.709642,-0.0805 0.674574,0.92988 -0.03495,1.00689 -0.1933,1.10598 -1.145793,0.71696 z m 0.159706,-2.29549 c -0.07086,-0.0438 -0.07437,-0.0753 -0.01495,-0.13478 0.08301,-0.083 0.284635,-0.0385 0.284635,0.0629 0,0.0924 -0.165122,0.13644 -0.26967,0.0718 z m -0.6894652,-0.13086 c -0.025655,-0.0414 -0.015552,-0.10652 0.022421,-0.14454 0.088774,-0.0888 0.2957508,-0.0113 0.2596307,0.0971 -0.036764,0.11042 -0.2236937,0.14185 -0.2820609,0.0473 z m 1.2894222,-0.031 c 0,-0.055 0.05872,-0.099 0.132116,-0.099 0.0734,0 0.132117,0.044 0.132117,0.099 0,0.055 -0.05872,0.0991 -0.132117,0.0991 -0.0734,0 -0.132116,-0.044 -0.132116,-0.0991 z m 16.846099,-0.3677 c -2.447376,-0.30269 -3.633779,-1.89724 -3.633779,-4.88389 0,-2.83366 1.053018,-4.57254 3.021645,-4.98972 1.204238,-0.25519 3.631497,0.0123 3.840009,0.42317 0.05238,0.10322 -0.250748,1.544 -0.344576,1.63783 -0.02299,0.023 -0.287586,-0.0128 -0.587983,-0.0797 -0.79448,-0.17672 -1.944073,-0.1655 -2.429549,0.0237 -1.007178,0.39254 -1.445488,1.4339 -1.36747,3.24892 0.06961,1.61944 0.548217,2.43124 1.560927,2.6476 0.39829,0.0851 1.361178,0.0526 1.463144,-0.0494 0.03887,-0.0389 0.05808,-0.42695 0.04711,-0.9521 l -0.0185,-0.88647 -0.627548,-0.033 -0.627546,-0.033 -0.01845,-0.83886 c -0.01738,-0.78938 -0.01047,-0.84317 0.117681,-0.91174 0.160229,-0.0858 3.127452,-0.0655 3.214809,0.022 0.03021,0.0302 0.06345,1.11135 0.07386,2.40248 0.02172,2.69094 0.04777,2.56072 -0.566835,2.83363 -0.835139,0.37083 -2.114056,0.54256 -3.116933,0.41853 z m 22.359149,0.0299 c -0.108994,-0.0145 -0.391146,-0.0762 -0.626999,-0.13678 -0.35802,-0.092 -0.484254,-0.16568 -0.76452,-0.44594 -0.543939,-0.54393 -0.567208,-0.69822 -0.543677,-3.60445 l 0.01952,-2.41111 h 0.990866 0.990865 l 0.03303,2.26108 0.03303,2.26107 0.183328,0.18306 c 0.165007,0.16477 0.227731,0.18269 0.627551,0.1793 0.299744,-0.003 0.530152,-0.0456 0.708446,-0.13259 l 0.264234,-0.12885 0.03303,-2.31153 0.03303,-2.31154 h 0.990866 0.990864 l 0.01718,3.13019 c 0.01238,2.25633 -0.0037,3.15535 -0.05763,3.22031 -0.05224,0.0629 -0.240924,0.0901 -0.625597,0.0901 -0.553777,0 -0.587284,-0.0124 -0.777359,-0.28799 -0.08167,-0.1184 -0.0966,-0.11682 -0.413428,0.0437 -0.597571,0.3028 -1.525116,0.47978 -2.106614,0.40191 z m -12.608438,-0.13354 c -0.612244,-0.18802 -0.994766,-0.5346 -1.214072,-1.10001 -0.08552,-0.22048 -0.1156,-0.62815 -0.144831,-1.96276 l -0.03689,-1.68446 -0.440197,-0.0195 c -0.268669,-0.0119 -0.469157,-0.0543 -0.514514,-0.10893 -0.04666,-0.0563 -0.06722,-0.31893 -0.05523,-0.70593 l 0.01907,-0.61639 0.495434,-0.13473 0.495432,-0.13474 0.03303,-0.92349 0.03303,-0.9235 h 0.990865 0.990866 l 0.03303,0.89179 0.03303,0.89178 0.693607,0.033 0.693606,0.033 0.01875,0.75021 c 0.01214,0.486 -0.0075,0.7818 -0.05571,0.83991 -0.05105,0.0615 -0.274919,0.0956 -0.71235,0.10855 l -0.637899,0.0188 -0.01798,1.32048 c -0.01109,0.81528 0.0087,1.38462 0.05148,1.48814 0.107002,0.25831 0.31878,0.35538 0.800876,0.36706 0.240921,0.005 0.471299,0.0311 0.511947,0.0563 0.08402,0.0519 0.102969,1.27709 0.02172,1.40489 -0.137418,0.21616 -1.505895,0.28856 -2.086111,0.11037 z m 20.105988,-0.0131 c -0.199823,-0.0665 -0.488468,-0.1853 -0.641432,-0.26406 -0.325438,-0.16759 -0.41549,-0.17818 -0.41549,-0.0488 0,0.23089 -0.192386,0.30198 -0.817229,0.30198 -0.38607,0 -0.638686,-0.0291 -0.688887,-0.0793 -0.114668,-0.11467 -0.114668,-9.2391 0,-9.35377 0.05397,-0.054 0.369405,-0.0793 0.988542,-0.0793 0.831363,0 0.915131,0.011 0.977653,0.12778 0.04121,0.077 0.06838,0.70694 0.06838,1.58538 0,0.8017 0.01423,1.45762 0.03164,1.45762 0.01741,0 0.253017,-0.0743 0.523594,-0.16514 0.370479,-0.12437 0.629929,-0.16514 1.050728,-0.16514 0.74722,0 1.159079,0.13894 1.596334,0.53857 0.652192,0.59607 0.933065,1.57824 0.866074,3.02854 -0.08137,1.76138 -0.480779,2.6643 -1.354099,3.06109 -0.43279,0.19663 -1.666097,0.22741 -2.185809,0.0546 z m 0.962687,-1.62712 c 0.173471,-0.0724 0.267952,-0.17637 0.375429,-0.41286 0.124266,-0.27341 0.143927,-0.43617 0.145903,-1.20778 0.0019,-0.81023 -0.0122,-0.9212 -0.156137,-1.2136 -0.279323,-0.56743 -0.88113,-0.70308 -1.641655,-0.37004 l -0.280746,0.12294 v 1.41587 c 0,1.59288 -0.02079,1.52552 0.515632,1.66994 0.420057,0.11309 0.763771,0.11161 1.041574,-0.004 z m -25.998556,1.56804 c -0.05449,-0.0207 -0.120926,-0.0704 -0.147621,-0.11038 -0.05807,-0.087 -0.06814,-6.06034 -0.01047,-6.21063 0.03399,-0.0886 0.184619,-0.1045 0.988541,-0.1045 0.870092,0 0.954095,0.0107 1.016826,0.12777 0.04424,0.0827 0.06838,1.17896 0.06838,3.10471 0,2.88887 -0.004,2.98084 -0.132113,3.10905 -0.117813,0.11782 -0.216152,0.13156 -0.908294,0.12691 -0.426898,-0.003 -0.820767,-0.0222 -0.875264,-0.043 z m 7.992981,-0.0166 c -0.08623,-0.0545 -0.101399,-0.65456 -0.116931,-4.62489 -0.01216,-3.10765 0.0044,-4.60379 0.05186,-4.69252 0.06423,-0.12001 0.141663,-0.13026 0.984106,-0.13026 0.680728,0 0.933048,0.0226 0.987384,0.0879 0.04798,0.0578 0.07905,0.6635 0.09066,1.76704 l 0.01767,1.6791 1.246536,0.0179 c 0.863508,0.0124 1.27454,-0.005 1.337668,-0.0577 0.07307,-0.0607 0.09113,-0.40645 0.09113,-1.74495 0,-1.46125 0.01303,-1.67431 0.104487,-1.7094 0.201728,-0.0775 1.780629,-0.0442 1.86403,0.0392 0.114665,0.11465 0.114665,9.2391 0,9.35377 -0.09016,0.0902 -1.747825,0.11252 -1.884945,0.0254 -0.0611,-0.0388 -0.08597,-0.54845 -0.09908,-2.03028 l -0.01752,-1.97844 h -1.321153 -1.321154 l -0.01752,1.94315 c -0.01171,1.29904 -0.04177,1.97238 -0.09066,2.03128 -0.08725,0.10514 -1.745054,0.12555 -1.906568,0.0235 z M 8.7489837,280.75674 c -0.068072,-0.11014 0.085032,-0.23645 0.176158,-0.14532 0.076225,0.0762 0.028517,0.21714 -0.073513,0.21714 -0.032046,0 -0.078233,-0.0324 -0.1026458,-0.0718 z m 24.1820233,-6.88318 c -0.666239,-0.37734 -0.757566,-1.35622 -0.172468,-1.84853 0.4571,-0.38463 1.032845,-0.37667 1.485231,0.0205 0.297142,0.2609 0.392996,0.5162 0.356962,0.95073 -0.0694,0.83677 -0.936681,1.29244 -1.669725,0.87726 z"/>
    </g>
  </defs>
  <g id="acyl-visual">
    <use id="visible1" transform="translate(24,24) scale(1.00) translate(-24,-24)" style="fill:url(#acyl-gradient);filter:url(#filter)" xlink:href="#acyl-drawing"/>
  </g>
</svg>
