<svg xmlns="http://www.w3.org/2000/svg" xmlns:xlink="http://www.w3.org/1999/xlink" 
   viewBox="0 0 66.410416 41.539585" height="157" width="251">
  <defs id="acyl-settings">
    <linearGradient id="acyl-gradient" x1="0%" x2="0%" y1="0%" y2="100%">
      <stop offset="0%" style="stop-color:#00FAFF;stop-opacity:1.000000"/>
      <stop offset="74%" style="stop-color:#000BFF;stop-opacity:1.000000"/>
    </linearGradient>
    <g id="acyl-filter">
      <filter id="filter">
        <feTurbulence id="feTurbulence1" type="turbulence" numOctaves="5.0" baseFrequency="0.40 0.40"/>
        <feDisplacementMap id="feDisplacementMap1" xChannelSelector="R"/>
        <feBlend id="feBlend1" in2="SourceGraphic" mode="screen"/>
        <feColorMatrix id="feColorMatrix1" values="1 0 0 -1 0 1 0 1 -1 0 1 0 0 -1 0 -0.8 -1 0 4 -2.5 "/>
        <feGaussianBlur id="feGaussianBlur1" stdDeviation="3.0"/>
        <feSpecularLighting id="feSpecularLighting1" surfaceScale="16.0" specularConstant="0.4" specularExponent="5">
          <feDistantLight id="feDistantLight1" azimuth="225" elevation="35"/>
        </feSpecularLighting>
        <feComposite id="feComposite1" in2="SourceGraphic" k2=" 0.4" k3=" 2.0" operator="arithmetic"/>
        <feComposite id="feComposite2" in2="SourceGraphic" operator="in" result="result2"/>
      </filter>
    </g>
    <g id="acyl-drawing" transform="translate(0,-255.4604)">
      <path   d="m 11.592707,285.74074 c -1.069089,-0.77906 -3.656774,-2.6599 -5.7504075,-4.17962 -2.0936324,-1.51971 -3.8671397,-2.82738 -3.9411186,-2.9059 -0.1537802,-0.16323 -0.2380482,-0.37668 -0.2380482,-0.60298 0,-0.11482 0.1626942,-0.65756 0.6125172,-2.04331 0.3368826,-1.03783 0.6805217,-2.10565 0.7636377,-2.37292 0.08312,-0.26727 0.3310978,-1.03994 0.5510613,-1.71702 0.2199635,-0.67709 0.6647656,-2.04747 0.9884427,-3.04529 1.1760872,-3.62559 1.1072433,-3.42494 1.2158504,-3.5435 0.1975832,-0.21569 0.5821142,-0.16019 0.7057185,0.10187 0.058123,0.12321 0.2115282,0.59065 1.5282136,4.65651 0.5452867,1.68381 1.0284381,3.17446 1.0736683,3.31256 l 0.082234,0.25107 h 4.4006056 4.40061 l 0.11433,-0.34826 c 0.06288,-0.19155 0.480468,-1.4781 0.927968,-2.85901 1.383305,-4.26867 1.591652,-4.90463 1.642273,-5.01287 0.07605,-0.16262 0.238234,-0.24657 0.439023,-0.22728 0.285673,0.0274 0.324393,0.0941 0.665148,1.14486 1.739107,5.36272 2.29069,7.06777 2.420032,7.48075 0.0837,0.26726 0.408372,1.27318 0.72148,2.23537 0.366011,1.12474 0.57449,1.81478 0.583869,1.93251 0.01982,0.24894 -0.05931,0.47476 -0.230087,0.65655 -0.07437,0.0791 -1.797168,1.35022 -3.828439,2.82457 -2.031267,1.47435 -4.621906,3.35598 -5.756978,4.18142 -1.135069,0.82544 -2.082671,1.49981 -2.105782,1.4986 -0.02309,-0.001 -0.916729,-0.63962 -1.985822,-1.41868 z m 25.107406,-5.5969 c -0.142542,-0.0257 -0.399969,-0.0948 -0.572057,-0.15372 -1.205992,-0.41255 -1.934129,-1.38167 -2.169613,-2.88767 -0.06613,-0.42292 -0.04871,-1.41799 0.03281,-1.87432 0.300718,-1.68345 1.288615,-2.70835 2.87766,-2.98546 0.365389,-0.0638 1.153963,-0.0634 1.491523,9.5e-4 0.325223,0.0617 0.663026,0.17604 0.959732,0.32486 0.260495,0.13066 0.533152,0.31932 0.55906,0.38683 0.01461,0.0381 -0.118445,0.29988 -0.301747,0.5938 l -0.04665,0.0748 -0.103291,-0.068 c -0.898854,-0.59201 -2.190841,-0.68274 -3.132375,-0.22 -0.221889,0.10906 -0.332548,0.19227 -0.569777,0.42845 -0.255706,0.25457 -0.316488,0.33781 -0.462378,0.63326 -0.514793,1.0425 -0.52063,2.62169 -0.01347,3.64456 0.331392,0.66839 0.895341,1.09747 1.644971,1.25158 0.576301,0.1185 1.556858,0.0475 1.855936,-0.13439 l 0.104059,-0.0633 -0.0038,-0.7861 c -0.0019,-0.43235 -0.01295,-0.97562 -0.02427,-1.20725 l -0.02063,-0.42115 -0.907109,-0.0162 -0.907105,-0.0162 -0.0091,-0.41306 -0.0091,-0.41305 h 1.373955 1.37395 l 0.02323,1.8547 c 0.0128,1.0201 0.01816,1.91118 0.012,1.98022 -0.01052,0.11722 -0.02195,0.12971 -0.173258,0.18929 -0.253515,0.0998 -0.841149,0.24404 -1.219033,0.29914 -0.432956,0.0631 -1.307766,0.0619 -1.664269,-0.002 z m 8.763298,9.5e-4 c -0.498563,-0.10721 -0.939723,-0.43133 -1.128662,-0.82921 -0.225195,-0.47423 -0.21205,-0.25132 -0.223639,-3.79314 l -0.01048,-3.20009 0.446505,0.009 0.446508,0.009 0.0087,0.90001 0.0087,0.90001 0.08259,0.0314 c 0.04542,0.0172 0.43152,0.0314 0.857995,0.0314 h 0.775411 v 0.35583 0.35582 l -0.850413,0.008 -0.850414,0.008 v 1.81421 1.81421 l 0.09437,0.20437 c 0.113851,0.24658 0.307973,0.4285 0.565006,0.52949 0.146938,0.0578 0.267442,0.0745 0.6122,0.0853 l 0.429258,0.0134 v 0.3818 c 0,0.36856 -0.0023,0.38248 -0.07289,0.40134 -0.136393,0.0366 -0.977826,0.0144 -1.190578,-0.0314 z m 8.687529,-0.0141 c -0.308992,-0.081 -0.537363,-0.21413 -0.746762,-0.43554 -0.284549,-0.30088 -0.423621,-0.71058 -0.423621,-1.24804 0,-1.04584 0.576605,-1.65737 1.752938,-1.8591 0.408533,-0.0701 0.975711,-0.0934 1.356018,-0.0558 0.436944,0.0432 0.434707,0.0454 0.408922,-0.40147 -0.03129,-0.54255 -0.170324,-0.85593 -0.466818,-1.05232 -0.247085,-0.16366 -0.453663,-0.2103 -0.914003,-0.20634 -0.490577,0.004 -0.880372,0.0952 -1.339436,0.31266 l -0.300969,0.14257 -0.150964,-0.26179 -0.150964,-0.26177 0.08836,-0.0712 c 0.286873,-0.23126 0.778778,-0.46483 1.230588,-0.58429 0.274606,-0.0726 0.38297,-0.0836 0.83396,-0.0848 0.430462,-9.6e-4 0.560393,0.0102 0.766316,0.067 0.529876,0.14617 0.853582,0.39865 1.063133,0.82919 0.225454,0.4632 0.22774,0.49268 0.22774,2.93531 v 2.17194 h -0.306522 -0.306517 l -0.03139,-0.12152 c -0.147038,-0.56943 -0.149087,-0.57495 -0.216745,-0.58465 -0.04957,-0.007 -0.09174,0.0296 -0.161783,0.14102 -0.177243,0.2818 -0.577653,0.53402 -1.020121,0.64255 -0.300586,0.0738 -0.883212,0.067 -1.191379,-0.0137 z m 1.530808,-0.84277 c 0.251172,-0.0776 0.551664,-0.25567 0.707435,-0.4192 l 0.121485,-0.12753 -4.5e-4,-0.67348 c -4.74e-4,-0.7224 -0.0092,-0.80198 -0.09184,-0.83831 -0.02945,-0.0129 -0.303497,-0.0302 -0.609047,-0.0383 -0.626794,-0.0166 -0.958489,0.0301 -1.273925,0.17928 -0.421615,0.19943 -0.64459,0.60183 -0.607226,1.09586 0.03731,0.49342 0.328859,0.79038 0.869371,0.88554 0.232017,0.0408 0.640758,0.0113 0.884188,-0.0639 z m 4.392554,0.88787 c -0.274482,-0.0337 -0.675776,-0.11869 -0.911126,-0.19304 l -0.255156,-0.0806 v -3.78902 -3.789 h 0.437358 0.437352 l 0.0047,0.20248 c 0.0023,0.11136 0.01342,0.63135 0.02427,1.15554 0.01366,0.65927 0.03092,0.95676 0.05606,0.96511 0.01996,0.007 0.114733,-0.055 0.210576,-0.13704 0.380471,-0.3255 0.886501,-0.49006 1.405334,-0.45702 0.705804,0.0449 1.252147,0.31921 1.62152,0.81395 0.407902,0.54635 0.565286,1.11037 0.565016,2.02491 -3.18e-4,0.80876 -0.113235,1.39046 -0.374574,1.92826 -0.320851,0.66026 -0.811803,1.06958 -1.536592,1.28108 -0.20884,0.0609 -0.336276,0.0721 -0.907105,0.0796 -0.365275,0.005 -0.71516,0.002 -0.777521,-0.005 z m 1.395392,-0.85161 c 0.570198,-0.17727 0.954895,-0.62371 1.131098,-1.31265 0.148271,-0.57974 0.163804,-1.43353 0.03524,-1.93625 -0.0938,-0.36675 -0.214492,-0.5881 -0.428908,-0.78661 -0.236431,-0.2189 -0.465489,-0.30943 -0.839987,-0.33202 -0.497585,-0.03 -0.919191,0.0865 -1.333575,0.3683 l -0.21894,0.14892 0.0084,1.88135 0.0084,1.88134 0.170883,0.0591 c 0.3928,0.13576 1.079667,0.14913 1.467483,0.0285 z m -19.991073,-2.18914 v -2.9319 h 0.437357 0.437353 v 2.9319 2.93191 h -0.437353 -0.437357 z m 6.65635,2.89165 c -0.0086,-0.0224 -0.01176,-1.761 -0.0071,-3.86354 l 0.0084,-3.82281 0.461654,-0.009 0.461654,-0.009 4.73e-4,3.41064 c 3.18e-4,1.87585 0.012,3.42873 0.02604,3.45082 0.01963,0.0309 0.392079,0.0422 1.611239,0.0486 l 1.585726,0.008 v 0.40495 0.40496 l -2.066212,0.008 c -1.635783,0.006 -2.069442,-1.3e-4 -2.081722,-0.0324 z m -6.65635,-7.249 v -0.45355 h 0.437357 0.437353 v 0.45355 0.45355 h -0.437353 -0.437357 z"/>
    </g>
  </defs>
  <g id="acyl-visual">
    <use id="visible1" transform="translate(24,24) scale(1.00) translate(-24,-24)" style="fill:url(#acyl-gradient);filter:url(#filter)" xlink:href="#acyl-drawing"/>
  </g>
</svg>
