<svg xmlns="http://www.w3.org/2000/svg" xmlns:xlink="http://www.w3.org/1999/xlink" 
   viewBox="0 0 66.410416 41.539585" height="157" width="251">
  <defs id="acyl-settings">
    <linearGradient id="acyl-gradient" x1="0%" x2="0%" y1="0%" y2="100%">
      <stop offset="0%" style="stop-color:#00FAFF;stop-opacity:1.000000"/>
      <stop offset="74%" style="stop-color:#000BFF;stop-opacity:1.000000"/>
    </linearGradient>
    <g id="acyl-filter">
      <filter id="filter">
        <feTurbulence id="feTurbulence1" type="turbulence" numOctaves="5.0" baseFrequency="0.40 0.40"/>
        <feDisplacementMap id="feDisplacementMap1" xChannelSelector="R"/>
        <feBlend id="feBlend1" in2="SourceGraphic" mode="screen"/>
        <feColorMatrix id="feColorMatrix1" values="1 0 0 -1 0 1 0 1 -1 0 1 0 0 -1 0 -0.8 -1 0 4 -2.5 "/>
        <feGaussianBlur id="feGaussianBlur1" stdDeviation="3.0"/>
        <feSpecularLighting id="feSpecularLighting1" surfaceScale="16.0" specularConstant="0.4" specularExponent="5">
          <feDistantLight id="feDistantLight1" azimuth="225" elevation="35"/>
        </feSpecularLighting>
        <feComposite id="feComposite1" in2="SourceGraphic" k2=" 0.4" k3=" 2.0" operator="arithmetic"/>
        <feComposite id="feComposite2" in2="SourceGraphic" operator="in" result="result2"/>
      </filter>
    </g>
    <g id="acyl-drawing" transform="translate(0,-255.4604)">
      <path  d="m 5.7452616,282.91549 c -0.4001044,-0.12865 -0.73119,-0.42985 -0.9271572,-0.84345 l -0.1151378,-0.24302 -0.011315,-5.46665 c -0.00848,-4.0941 -4.16e-4,-5.51732 0.031903,-5.66844 0.1149132,-0.53647 0.4934216,-0.95827 1.0187173,-1.13524 l 0.2260566,-0.0761 8.1726805,0.01 8.172681,0.01 0.246672,0.11686 c 0.294597,0.13954 0.566911,0.38393 0.699723,0.62795 0.219438,0.40318 0.209328,0.11373 0.209096,5.98616 -1.12e-4,3.23377 -0.01415,5.4615 -0.03519,5.58995 -0.09558,0.58361 -0.405523,0.9061 -1.037049,1.07903 -0.21368,0.0585 -0.805702,0.0636 -8.338278,0.0715 -7.7170829,0.009 -8.1181633,0.006 -8.3133983,-0.0575 z m 14.9270904,-0.342 c -0.0081,-0.0244 -1.416988,-1.01549 -3.130794,-2.20244 -2.19484,-1.52009 -3.1377,-2.15343 -3.189387,-2.14235 -0.04035,0.009 -0.127034,0.0376 -0.192617,0.0642 -0.09926,0.0403 -0.139214,0.04 -0.238478,-9.4e-4 -0.06558,-0.0274 -0.152259,-0.0515 -0.192617,-0.0537 -0.08768,-0.005 -6.2877955,4.26722 -6.290386,4.33409 -0.00139,0.0366 1.3468194,0.0459 6.623645,0.0459 5.164337,0 6.622161,-0.01 6.610634,-0.0444 z m -10.357027,-2.48646 c 1.667433,-1.15441 3.025749,-2.1168 3.018477,-2.13861 -0.01957,-0.0588 -6.090007,-4.21241 -6.1345759,-4.19755 -0.025972,0.009 -0.041065,1.35905 -0.047424,4.24236 -0.00917,4.15802 -0.00812,4.22936 0.061249,4.21122 0.038818,-0.0102 1.4348411,-0.96299 3.1022739,-2.11742 z m 10.622523,-2.11035 c 0,-3.36701 -0.0094,-4.23702 -0.04586,-4.2349 -0.08706,0.005 -6.099547,4.16182 -6.099547,4.21694 0,0.0554 6.013697,4.24879 6.099547,4.25319 0.03644,0.002 0.04586,-0.86837 0.04586,-4.23523 z m -3.538168,-5.65292 c 1.80474,-1.32356 3.281345,-2.4216 3.281345,-2.44008 0,-0.0202 -2.631553,-0.0336 -6.607078,-0.0336 -5.2692339,0 -6.6040263,0.009 -6.5920163,0.0459 0.024642,0.0751 6.5357663,4.86935 6.5882213,4.85107 0.0265,-0.009 1.524787,-1.09968 3.329528,-2.42325 z"/>
      <path
         transform="matrix(0.26458333,0,0,0.26458333,0,255.46039)"
         d="m 127.50781,59.751953 c -0.36989,-0.0062 -0.73864,-0.0016 -1.10742,0.01367 -6.49052,0.26818 -12.73478,3.829315 -15.94531,9.777344 -1.31473,2.435754 -2.38086,6.758498 -2.38086,9.654297 0,2.883288 1.06029,7.201298 2.375,9.667968 2.18226,4.0944 7.17433,7.981981 11.875,9.248047 v -0.002 c 2.47772,0.667351 7.05501,0.667803 9.64648,0.002 6.304,-1.619981 10.78097,-5.99532 12.38086,-12.101562 0.69045,-2.635087 0.75487,-7.509945 0.10547,-7.921875 -0.60916,-0.385134 -16.24514,-0.38989 -16.85351,-0.0039 -0.31246,0.197968 -0.42891,0.914596 -0.35547,2.205078 l 0.10937,1.912109 6.50196,0.09766 6.5039,0.0957 -0.18359,1.617188 c -0.27656,2.453669 -1.93163,5.353222 -4.03321,7.066406 -6.13725,5.002923 -15.53984,3.842095 -20.36914,-2.513672 -3.51577,-4.627049 -4.04526,-11.485479 -1.30273,-16.861328 1.07916,-2.115288 4.24554,-5.138141 6.41992,-6.128906 5.05773,-2.304605 11.05735,-1.607229 15.04492,1.748047 0.591,0.497272 1.20215,0.904297 1.35938,0.904297 0.5521,0 2.61914,-2.26918 2.61914,-2.875 0,-0.837166 -2.21331,-2.6121 -4.77539,-3.828125 -2.44072,-1.158442 -5.04549,-1.730247 -7.63477,-1.773438 z m 93.79102,0.330078 c -0.72746,0 -1.45512,0.347687 -2.15039,1.042969 -1.66593,1.66594 -1.21336,4.475745 0.86133,5.349609 3.24652,1.367471 5.95077,-2.838264 3.43945,-5.349609 -0.69527,-0.695282 -1.42294,-1.042969 -2.15039,-1.042969 z m 8.87305,0.408203 c -0.78191,0.0099 -1.09341,0.12719 -1.09766,0.378907 -0.11467,6.662626 0.055,36.516554 0.20898,36.765625 0.1187,0.192 1.03869,0.302345 2.04297,0.24414 l 1.82617,-0.105468 V 79.197266 60.621094 l -2.03515,-0.107422 c -0.37121,-0.01937 -0.68471,-0.02675 -0.94531,-0.02344 z m -67.70704,11.132813 c -2.50656,-0.03792 -5.09154,0.83645 -6.81445,2.634765 -0.5518,0.575963 -1.12307,1.046876 -1.26953,1.046876 -0.14638,0 -0.31648,-0.596421 -0.37695,-1.326172 l -0.10938,-1.328125 -2.03515,-0.105469 -2.03321,-0.105469 v 12.519531 c 0,6.885733 0.1135,12.631201 0.25195,12.769532 0.13848,0.14022 1.0527,0.205886 2.03321,0.148437 l 1.7832,-0.103515 0.19531,-8.138672 c 0.12876,-5.352454 0.35003,-8.50017 0.64454,-9.197266 2.24323,-5.310765 8.45891,-6.350292 10.93164,-1.828125 0.51919,0.949493 0.63856,2.482622 0.78906,10.140625 l 0.17773,9.023438 h 2.12305 2.12305 l 0.17578,-8.492188 c 0.19413,-9.318728 0.24766,-9.566109 2.52539,-11.792969 2.68634,-2.626431 7.1554,-2.119272 8.70312,0.986328 0.53171,1.066961 0.65224,2.598263 0.80274,10.275391 l 0.17578,9.023438 h 2.12305 2.12304 l 0.11328,-8.138672 c 0.13181,-9.572372 -0.19311,-12.159057 -1.82812,-14.605469 -1.57542,-2.357291 -3.83092,-3.430374 -7.12891,-3.392578 -2.976,0.03504 -4.55923,0.648928 -6.65429,2.580078 -0.86058,0.793285 -1.7274,1.441406 -1.92579,1.441406 -0.1984,0 -0.77302,-0.540019 -1.27734,-1.201172 -1.40774,-1.845808 -3.83524,-2.796061 -6.3418,-2.833984 z m 40.61133,0.0098 c -3.17505,-0.0175 -4.9736,0.474334 -7.13281,1.949219 -1.59407,1.088807 -3.1279,3.230218 -2.84375,3.970703 0.0972,0.253267 0.92856,0.746916 1.84766,1.097657 l 1.67187,0.638671 1.03516,-1.107421 c 1.54348,-1.651541 3.03882,-2.310547 5.24609,-2.310547 3.12163,0 5.66348,1.794 6.40234,4.519531 0.53463,1.97212 0.13864,2.181503 -2.74414,1.455078 -4.25452,-1.072176 -9.20038,-0.244284 -11.91601,1.994141 -1.96276,1.617902 -2.83851,3.571047 -2.83985,6.326172 -0.002,3.983093 2.17333,6.881861 6.14063,8.18164 0.48777,0.157985 2.09976,0.241799 3.58203,0.183594 2.82563,-0.111156 4.94883,-0.986344 6.4707,-2.667969 1.01049,-1.116623 1.56864,-0.925354 1.69336,0.582031 l 0.10938,1.326172 h 1.94726 1.94532 l -0.0117,-9.375 c -0.0126,-10.540834 -0.058,-10.780146 -2.66407,-13.607422 -2.01266,-2.183505 -4.41338,-3.133572 -7.93945,-3.15625 z m 16.09961,0.841797 v 12.501953 c 0,6.876057 0.11351,12.613623 0.25195,12.751954 v 0.002 c 0.13848,0.139464 1.05271,0.203933 2.03321,0.146484 l 1.7832,-0.105469 0.0937,-12.648437 0.0918,-12.648438 h -2.12696 z m -15.7207,12.744141 c 2.26146,-0.0082 5.14306,0.777358 5.8125,1.583984 1.24567,1.501002 -2.20927,6.296512 -5.16992,7.175782 -4.03751,1.198979 -7.56641,-0.589071 -7.56641,-3.833985 0,-2.743181 3.0471,-4.914442 6.92383,-4.925781 z"
         id="path139" />
    </g>
  </defs>
  <g id="acyl-visual">
    <use id="visible1" transform="translate(24,24) scale(1.00) translate(-24,-24)" style="fill:url(#acyl-gradient);filter:url(#filter)" xlink:href="#acyl-drawing"/>
  </g>
</svg>
