<svg xmlns="http://www.w3.org/2000/svg" xmlns:xlink="http://www.w3.org/1999/xlink" 
   viewBox="0 0 66.410416 41.539585" height="157" width="251">
  <defs id="acyl-settings">
    <linearGradient id="acyl-gradient" x1="0%" x2="0%" y1="0%" y2="100%">
      <stop offset="0%" style="stop-color:#00FAFF;stop-opacity:1.000000"/>
      <stop offset="74%" style="stop-color:#000BFF;stop-opacity:1.000000"/>
    </linearGradient>
    <g id="acyl-filter">
      <filter id="filter">
        <feTurbulence id="feTurbulence1" type="turbulence" numOctaves="5.0" baseFrequency="0.40 0.40"/>
        <feDisplacementMap id="feDisplacementMap1" xChannelSelector="R"/>
        <feBlend id="feBlend1" in2="SourceGraphic" mode="screen"/>
        <feColorMatrix id="feColorMatrix1" values="1 0 0 -1 0 1 0 1 -1 0 1 0 0 -1 0 -0.8 -1 0 4 -2.5 "/>
        <feGaussianBlur id="feGaussianBlur1" stdDeviation="3.0"/>
        <feSpecularLighting id="feSpecularLighting1" surfaceScale="16.0" specularConstant="0.4" specularExponent="5">
          <feDistantLight id="feDistantLight1" azimuth="225" elevation="35"/>
        </feSpecularLighting>
        <feComposite id="feComposite1" in2="SourceGraphic" k2=" 0.4" k3=" 2.0" operator="arithmetic"/>
        <feComposite id="feComposite2" in2="SourceGraphic" operator="in" result="result2"/>
      </filter>
    </g>
    <g id="acyl-drawing" transform="translate(0,-255.4604)">
      <path
           id="path75"           
           d="m 142.20508,63.25 c -1.07721,-6.38e-4 -2.16692,0.05912 -2.85742,0.179688 -6.00584,1.047343 -9.74038,4.920557 -10.87696,11.283203 -0.3081,1.724711 -0.37298,5.485546 -0.12304,7.083984 0.89001,5.691969 3.64114,9.354818 8.19922,10.914063 0.6504,0.222688 1.62336,0.482944 2.1621,0.580078 v 0.002 c 1.34742,0.241512 4.6527,0.246312 6.28907,0.0078 1.42822,-0.208252 3.64925,-0.753662 4.60742,-1.130859 0.57187,-0.225184 0.61649,-0.271808 0.65625,-0.714844 0.0233,-0.260938 0.001,-3.628879 -0.0469,-7.484375 l -0.0879,-7.009765 h -5.1914 -5.19336 l 0.0332,1.560546 0.0352,1.5625 3.42773,0.06055 3.42969,0.06055 0.0781,1.591797 c 0.0428,0.875452 0.0846,2.930374 0.0918,4.564453 l 0.0137,2.970703 -0.39258,0.238281 c -1.13037,0.687459 -4.83748,0.955687 -7.01562,0.507813 -2.83325,-0.582463 -4.96429,-2.20427 -6.2168,-4.730469 -1.91682,-3.865965 -1.89491,-9.83328 0.0508,-13.773437 0.5514,-1.116662 0.7816,-1.432378 1.74805,-2.394531 0.89661,-0.892649 1.31371,-1.206946 2.15234,-1.619141 3.55856,-1.748939 8.4426,-1.405487 11.83985,0.832031 l 0.39062,0.257813 0.17578,-0.283203 c 0.6928,-1.110879 1.19585,-2.100141 1.14063,-2.244141 -0.0979,-0.255156 -1.12873,-0.969058 -2.11328,-1.462891 -1.12141,-0.562469 -2.39778,-0.993365 -3.62695,-1.226562 -0.63791,-0.121607 -1.70209,-0.182956 -2.7793,-0.183594 z m 24.47461,0.480469 0.0391,12.09375 c 0.0438,13.386406 -0.005,12.545525 0.8457,14.33789 0.7141,1.503799 2.3813,2.72761 4.26563,3.132813 v -0.0039 c 0.8041,0.173102 3.9845,0.257471 4.5,0.11914 0.26679,-0.07128 0.27539,-0.124595 0.27539,-1.517578 v -1.443359 l -1.62109,-0.05078 c -1.30303,-0.04082 -1.7591,-0.103809 -2.31446,-0.322266 -0.97146,-0.381695 -1.70446,-1.069997 -2.13476,-2.001953 l -0.35743,-0.771485 v -6.857422 -6.855468 l 3.21485,-0.03125 3.21289,-0.0293 v -1.345703 -1.345703 h -2.92969 c -1.61187,0 -3.07052,-0.05218 -3.24219,-0.117188 l -0.3125,-0.119141 -0.0332,-3.402343 -0.0332,-3.400391 -1.6875,-0.03516 z m 18.74219,0 -1.74415,0.0332 -1.74609,0.03516 -0.0312,14.447266 c -0.0176,7.944482 -0.005,14.511502 0.0273,14.599609 0.0464,0.121965 1.68666,0.145724 7.86915,0.123047 l 7.80859,-0.03125 v -1.529297 -1.53125 l -5.99414,-0.0293 c -4.60785,-0.02419 -6.01565,-0.06681 -6.08985,-0.183594 -0.0531,-0.08349 -0.0966,-5.953141 -0.0976,-13.042968 z m -28.65235,0.0059 v 1.714844 1.714844 h 1.65235 1.65429 v -1.714844 -1.714844 h -1.65429 z m 65.875,0 v 14.320313 14.322265 l 0.96485,0.304688 c 0.8895,0.281008 2.40594,0.601145 3.44335,0.728515 v 0.002 c 0.2357,0.02646 1.55889,0.03648 2.93946,0.01758 2.15746,-0.02835 2.63842,-0.07061 3.42773,-0.300782 2.73936,-0.79937 4.59593,-2.346326 5.8086,-4.841797 0.98773,-2.032628 1.41286,-4.230378 1.41406,-7.287109 10e-4,-3.456529 -0.59309,-5.589352 -2.13477,-7.654297 -1.39605,-1.869883 -3.4613,-2.906471 -6.1289,-3.076172 -1.96095,-0.124875 -3.87255,0.49828 -5.31055,1.728516 -0.36224,0.310072 -0.72144,0.544035 -0.79688,0.517578 -0.095,-0.03156 -0.1593,-1.156708 -0.21093,-3.648437 -0.041,-1.981191 -0.0831,-3.9463 -0.0918,-4.367188 l -0.0176,-0.765625 h -1.65429 z m -13.5293,6.574219 c -1.70452,0.0045 -2.11446,0.04592 -3.15234,0.320312 -1.70763,0.451503 -3.5681,1.334931 -4.65234,2.208985 l -0.33399,0.269531 0.57227,0.988281 0.57031,0.990235 1.13672,-0.539063 c 1.73504,-0.821896 3.20835,-1.166523 5.0625,-1.18164 1.73987,-0.01497 2.52121,0.160739 3.45508,0.779296 1.1206,0.742262 1.64541,1.927933 1.76367,3.978516 0.0974,1.688957 0.10652,1.678901 -1.54492,1.515625 -1.43738,-0.14211 -3.58094,-0.05401 -5.125,0.210937 -4.44599,0.762445 -6.625,3.074563 -6.625,7.027344 0,2.031345 0.52415,3.579613 1.59961,4.716797 0.79143,0.836825 1.65442,1.340343 2.82226,1.646485 1.16473,0.305006 3.36784,0.329711 4.50391,0.05078 1.67232,-0.410192 3.18557,-1.362664 3.85547,-2.427735 0.26473,-0.421115 0.42397,-0.559659 0.61133,-0.533203 0.25571,0.03666 0.26263,0.05681 0.81835,2.208985 L 214.57227,93 h 1.1582 1.1582 v -8.207031 c 0,-9.231988 -0.007,-9.345026 -0.85937,-11.095703 -0.79201,-1.627238 -2.01685,-2.580359 -4.01953,-3.132813 -0.7783,-0.214677 -1.26759,-0.257534 -2.89454,-0.253906 z m -52.3457,0.527344 v 11.082031 11.082031 h 1.65235 1.65429 V 81.919922 70.837891 h -1.65429 z m 74.47656,2.832031 c 0.22662,-0.0033 0.45828,0.0034 0.69336,0.01758 1.41543,0.08538 2.28023,0.426568 3.17383,1.253906 0.81039,0.750274 1.26658,1.586516 1.6211,2.972656 0.4859,1.900045 0.42758,5.127217 -0.13282,7.31836 -0.66596,2.603868 -2.12031,4.290941 -4.27539,4.960937 -1.46576,0.455925 -4.06032,0.405686 -5.54492,-0.107421 l -0.64648,-0.222657 -0.0312,-7.111328 -0.0332,-7.111328 0.82813,-0.5625 c 1.3704,-0.931937 2.76136,-1.385322 4.34765,-1.408203 z M 209.34961,82.1309 c 0.46944,-0.01655 0.99174,-0.01569 1.58398,0 1.15484,0.03061 2.18948,0.09773 2.30079,0.146485 0.31233,0.13731 0.34586,0.437639 0.34765,3.167968 l 0.002,2.544922 -0.45898,0.482422 c -0.58874,0.618066 -1.72452,1.290693 -2.67383,1.583985 -0.92005,0.28422 -2.46489,0.396392 -3.34179,0.242187 -2.04288,-0.35966 -3.1461,-1.482762 -3.28711,-3.347656 -0.14122,-1.8672 0.70141,-3.388827 2.29492,-4.142578 0.89415,-0.422873 1.82409,-0.628092 3.23242,-0.677735 z"
           transform="matrix(0.26458333,0,0,0.26458333,0,255.4604)" />
      <path  d="m 15.206411,286.95496 c -1.421996,-0.0457 -3.569753,-0.20618 -4.303838,-0.32144 -0.808971,-0.12717 -1.5802602,-0.56382 -2.1071727,-1.19311 -0.3040906,-0.36319 -0.6678298,-1.10352 -0.801745,-1.63186 -0.2458078,-0.96976 -0.4952938,-4.78491 -0.495378,-7.57537 -6.75e-5,-2.26167 0.1891293,-5.68776 0.390196,-7.06601 0.1957771,-1.34195 0.9156126,-2.43202 1.9633389,-2.97314 0.6259038,-0.32328 1.0432048,-0.4018 2.9564418,-0.55619 1.991951,-0.16091 7.349459,-0.19896 9.648306,-0.0688 1.40364,0.0794 2.69146,0.2211 3.156153,0.34714 1.32456,0.3593 2.27417,1.4458 2.594473,2.96845 0.247357,1.17591 0.478511,5.63326 0.429948,8.2908 -0.04865,2.6625 -0.241922,5.52159 -0.434145,6.42243 -0.31904,1.49514 -1.22437,2.53868 -2.545606,2.93412 -0.378481,0.11344 -1.565159,0.24779 -3.063782,0.34727 -0.970437,0.0645 -6.102134,0.11706 -7.38719,0.0759 z m -2.09451,-3.24976 c 0.762621,-0.16042 1.36457,-0.46589 1.890445,-0.95938 0.720211,-0.67581 1.102637,-1.43066 1.347728,-2.66015 0.0632,-0.31709 0.07518,-0.83002 0.09594,-4.10944 l 0.02361,-3.74714 h 1.991331 1.991328 l 0.02143,5.52433 0.02143,5.52432 2.844103,0.012 c 2.542809,0.01 2.85203,0.002 2.918921,-0.0565 0.17116,-0.15489 0.372786,-1.24395 0.391933,-2.11693 l 0.01155,-0.53531 -1.563086,-0.0217 -1.563087,-0.0217 -0.01085,-4.20209 c -0.0086,-3.33027 2.09e-4,-4.21059 0.04284,-4.24321 0.02955,-0.0217 0.169379,-0.065 0.310685,-0.094 0.452107,-0.0928 0.800011,-0.21966 1.370377,-0.49987 0.624852,-0.3069 1.257801,-0.7226 1.337628,-0.87849 0.103137,-0.20136 0.03502,-0.92964 -0.129853,-1.38804 -0.13214,-0.36741 -0.350863,-0.75586 -0.553824,-0.98357 -0.33586,-0.37681 -0.315288,-0.3762 -0.833671,-0.0252 -0.752976,0.51 -1.508861,0.83319 -2.320779,0.99213 -0.155071,0.0304 -1.591881,0.0585 -4.051629,0.0798 -2.409179,0.0216 -3.926681,0.05 -4.124822,0.0802 -1.652973,0.25105 -2.606782,0.57528 -3.600417,1.2239 -0.660269,0.43102 -1.4393912,1.15452 -1.501971,1.39475 -0.096564,0.37068 -0.192935,3.51311 -0.1084873,3.53691 0.023605,0.007 0.216251,-0.23125 0.4282459,-0.5287 0.8234424,-1.15533 1.6115564,-1.81169 2.5647444,-2.13594 0.376154,-0.12791 0.973222,-0.24209 1.020321,-0.19487 0.01999,0.0192 0.03077,1.51846 0.02415,3.33019 l -0.01204,3.29405 -0.112896,0.30882 c -0.207459,0.56743 -0.55578,0.91848 -1.063932,1.07216 -0.540445,0.16354 -1.501653,0.0413 -2.2802001,-0.29015 -0.1644885,-0.0699 -0.3259541,-0.12718 -0.3588181,-0.12718 -0.074356,0 -0.079438,0.38763 -0.015416,1.17615 0.088881,1.09436 0.2850524,1.92767 0.4838312,2.055 0.119325,0.0764 0.875896,0.22667 1.398906,0.2778 0.513937,0.05 1.27328,0.0216 1.674025,-0.0624 z"/>
    </g>
  </defs>
  <g id="acyl-visual">
    <use id="visible1" transform="translate(24,24) scale(1.00) translate(-24,-24)" style="fill:url(#acyl-gradient);filter:url(#filter)" xlink:href="#acyl-drawing"/>
  </g>
</svg>
