<svg xmlns="http://www.w3.org/2000/svg" xmlns:xlink="http://www.w3.org/1999/xlink" 
   viewBox="0 0 66.410416 41.539585" height="157" width="251">
  <defs id="acyl-settings">
    <linearGradient id="acyl-gradient" x1="0%" x2="0%" y1="0%" y2="100%">
      <stop offset="0%" style="stop-color:#00FAFF;stop-opacity:1.000000"/>
      <stop offset="74%" style="stop-color:#000BFF;stop-opacity:1.000000"/>
    </linearGradient>
    <g id="acyl-filter">
      <filter id="filter">
        <feTurbulence id="feTurbulence1" type="turbulence" numOctaves="5.0" baseFrequency="0.40 0.40"/>
        <feDisplacementMap id="feDisplacementMap1" xChannelSelector="R"/>
        <feBlend id="feBlend1" in2="SourceGraphic" mode="screen"/>
        <feColorMatrix id="feColorMatrix1" values="1 0 0 -1 0 1 0 1 -1 0 1 0 0 -1 0 -0.8 -1 0 4 -2.5 "/>
        <feGaussianBlur id="feGaussianBlur1" stdDeviation="3.0"/>
        <feSpecularLighting id="feSpecularLighting1" surfaceScale="16.0" specularConstant="0.4" specularExponent="5">
          <feDistantLight id="feDistantLight1" azimuth="225" elevation="35"/>
        </feSpecularLighting>
        <feComposite id="feComposite1" in2="SourceGraphic" k2=" 0.4" k3=" 2.0" operator="arithmetic"/>
        <feComposite id="feComposite2" in2="SourceGraphic" operator="in" result="result2"/>
      </filter>
    </g>
    <g id="acyl-drawing" transform="translate(0,-255.4604)">
      <path   d="m 24.915011,294.99303 c -1.427854,-0.0227 -1.910065,-0.0463 -2.243849,-0.11 -1.673224,-0.31918 -3.052733,-0.91339 -4.312945,-1.85774 -0.199929,-0.14983 -0.615355,-0.51645 -0.923167,-0.81473 -0.928839,-0.90007 -1.470305,-1.64252 -2.016075,-2.7644 -0.482477,-0.99178 -0.698483,-1.66679 -0.907006,-2.83434 -0.09915,-0.55519 -0.101793,-0.69625 -0.128053,-6.84965 -0.04572,-10.71364 -0.03492,-13.28706 0.05816,-13.85911 0.405707,-2.4934 1.459932,-4.42528 3.311345,-6.06808 1.376265,-1.2212 3.179424,-2.05454 5.035837,-2.32737 0.495793,-0.0728 1.413987,-0.0803 10.510672,-0.0847 9.420874,-0.004 9.99203,-1.4e-4 10.416191,0.0804 2.285677,0.43405 3.938553,1.27959 5.444938,2.7854 1.514434,1.51385 2.39698,3.24456 2.787828,5.46705 l 0.103847,0.59048 -0.01469,9.82571 c -0.01241,8.31047 -0.02549,9.90948 -0.08424,10.36895 -0.238585,1.864 -1.113475,3.76851 -2.373238,5.16618 -1.648591,1.82905 -3.761868,2.96078 -6.097968,3.26564 -0.500106,0.0652 -1.533381,0.0726 -8.658359,0.0616 -4.449768,-0.007 -8.9089,-0.0255 -9.909187,-0.0414 z m 15.659719,-3.27574 c 1.272423,-0.0432 2.364473,-0.32146 3.495801,-0.89068 0.828515,-0.41686 1.499063,-0.89252 2.141414,-1.51902 1.417106,-1.38212 2.254265,-3.01937 2.542629,-4.97265 0.07543,-0.51093 0.08249,-1.17449 0.08464,-7.95036 0.0023,-6.86176 -0.0037,-7.43092 -0.08165,-7.92216 -0.510719,-3.21867 -2.727125,-5.84733 -5.802512,-6.88177 -0.701738,-0.23604 -1.117138,-0.32929 -1.799787,-0.40403 -0.303645,-0.0332 -2.86672,-0.05 -7.581852,-0.0497 -5.876823,2.8e-4 -7.234717,0.0124 -7.760863,0.0686 -2.696533,0.28814 -5.085871,1.86649 -6.510133,4.30044 -0.571134,0.97603 -1.009458,2.42251 -1.070127,3.53142 -0.01314,0.24017 -0.03517,3.59988 -0.04897,7.46604 -0.0276,7.73387 -0.02823,7.71237 0.256858,8.83607 0.446161,1.75862 1.468297,3.36194 2.876683,4.51235 1.401384,1.14469 3.198699,1.82833 5.015321,1.90765 0.468096,0.0204 13.56437,-0.009 14.242547,-0.0322 z m -14.502362,-2.20231 c -1.392793,-0.15351 -2.69881,-0.7652 -3.725554,-1.74492 -0.894997,-0.85401 -1.52928,-2.00259 -1.854614,-3.3584 -0.07849,-0.32711 -0.08526,-0.84882 -0.100461,-7.74365 -0.01784,-8.08993 -0.02749,-7.75983 0.255664,-8.73695 0.486363,-1.67833 1.655008,-3.07148 3.237466,-3.85938 0.523208,-0.26051 0.920349,-0.40042 1.539912,-0.54248 l 0.458628,-0.10516 7.48738,0.0117 c 6.184527,0.01 7.562568,0.0234 7.919499,0.0787 0.887608,0.1376 1.97477,0.59237 2.699588,1.12926 0.446532,0.33077 1.122036,1.02436 1.419137,1.45714 0.47672,0.69443 0.829555,1.51868 1.015044,2.37122 l 0.102783,0.47238 v 7.6291 7.62909 l -0.112926,0.44877 c -0.66491,2.64237 -2.782063,4.53641 -5.436414,4.86352 -0.469672,0.0579 -14.38001,0.0579 -14.905135,5e-5 z m 8.857305,-4.30251 c 1.303582,-0.2035 2.558783,-0.77105 3.688165,-1.66762 1.426853,-1.13273 2.463842,-2.85295 2.840494,-4.71199 0.09374,-0.46268 0.108106,-0.67256 0.106132,-1.55073 -0.0019,-0.86669 -0.01768,-1.08666 -0.107196,-1.4999 -0.354288,-1.63538 -1.072114,-2.96727 -2.211068,-4.10254 -0.783973,-0.78142 -1.587999,-1.32057 -2.579849,-1.72993 -1.110653,-0.4584 -2.07599,-0.62988 -3.332371,-0.59194 -1.436468,0.0434 -2.749349,0.43178 -3.922407,1.16044 -3.510806,2.18076 -4.806633,6.55668 -3.041077,10.26951 1.219629,2.5648 3.791363,4.32673 6.596032,4.51905 0.677047,0.0464 1.232369,0.0198 1.963145,-0.0943 z m -2.196613,-2.1061 c -0.301449,-0.0409 -1.103024,-0.27111 -1.445885,-0.41524 -1.745044,-0.73353 -3.072723,-2.37999 -3.417997,-4.23867 -0.102873,-0.55379 -0.106571,-1.61123 -0.0074,-2.1265 0.218318,-1.13468 0.703377,-2.09326 1.473477,-2.91187 1.109024,-1.1789 2.572022,-1.80914 4.200902,-1.80968 1.67941,-5.6e-4 3.255835,0.69152 4.31624,1.89489 0.673117,0.76388 1.044407,1.46033 1.311543,2.46013 0.162848,0.60949 0.206386,1.74771 0.09199,2.40511 -0.414991,2.38489 -2.314347,4.28715 -4.698515,4.70572 -0.365127,0.0641 -1.458619,0.0857 -1.824323,0.0361 z m 9.808808,-13.66253 c 0.737188,-0.37937 1.049907,-1.2456 0.708947,-1.9638 -0.537546,-1.13229 -2.107448,-1.16159 -2.690903,-0.0502 -0.172578,0.32872 -0.180815,0.9226 -0.01774,1.27845 0.176824,0.38584 0.502602,0.67167 0.921781,0.80875 0.288791,0.0944 0.822629,0.0582 1.077903,-0.0732 z"/>
    </g>
  </defs>
  <g id="acyl-visual">
    <use id="visible1" transform="translate(24,24) scale(1.00) translate(-24,-24)" style="fill:url(#acyl-gradient);filter:url(#filter)" xlink:href="#acyl-drawing"/>
  </g>
</svg>
