<svg xmlns="http://www.w3.org/2000/svg" xmlns:xlink="http://www.w3.org/1999/xlink" 
   viewBox="0 0 66.410416 41.539585" height="157" width="251">
  <defs id="acyl-settings">
    <linearGradient id="acyl-gradient" x1="0%" x2="0%" y1="0%" y2="100%">
      <stop offset="0%" style="stop-color:#00FAFF;stop-opacity:1.000000"/>
      <stop offset="74%" style="stop-color:#000BFF;stop-opacity:1.000000"/>
    </linearGradient>
    <g id="acyl-filter">
      <filter id="filter">
        <feTurbulence id="feTurbulence1" type="turbulence" numOctaves="5.0" baseFrequency="0.40 0.40"/>
        <feDisplacementMap id="feDisplacementMap1" xChannelSelector="R"/>
        <feBlend id="feBlend1" in2="SourceGraphic" mode="screen"/>
        <feColorMatrix id="feColorMatrix1" values="1 0 0 -1 0 1 0 1 -1 0 1 0 0 -1 0 -0.8 -1 0 4 -2.5 "/>
        <feGaussianBlur id="feGaussianBlur1" stdDeviation="3.0"/>
        <feSpecularLighting id="feSpecularLighting1" surfaceScale="16.0" specularConstant="0.4" specularExponent="5">
          <feDistantLight id="feDistantLight1" azimuth="225" elevation="35"/>
        </feSpecularLighting>
        <feComposite id="feComposite1" in2="SourceGraphic" k2=" 0.4" k3=" 2.0" operator="arithmetic"/>
        <feComposite id="feComposite2" in2="SourceGraphic" operator="in" result="result2"/>
      </filter>
    </g>
    <g id="acyl-drawing" transform="translate(0,-255.4604)">
      <path  d="m 13.34569,287.26814 c -1.208452,-0.25473 -3.8214797,-0.80365 -5.8067326,-1.21979 -4.9728783,-1.04242 -5.2141391,-1.09417 -5.2449855,-1.125 -0.050647,-0.0506 -0.057744,-1.16971 -0.059926,-9.43287 l -0.00206,-8.18732 0.4824498,-0.0937 c 0.265349,-0.0515 3.2684645,-0.63487 6.6735955,-1.29632 3.4051298,-0.66144 6.1986918,-1.19508 6.2079148,-1.18585 0.0092,0.009 0.02038,5.18974 0.02482,11.51226 0.0078,11.16421 0.0068,11.49543 -0.03487,11.49363 -0.02361,-9.9e-4 -1.03166,-0.21029 -2.24011,-0.46503 z m -3.8924353,-7.09132 c 0.3754406,-0.0522 0.8854563,-0.27802 1.2069873,-0.53439 0.595045,-0.47447 1.059456,-1.29848 1.251877,-2.22122 0.09941,-0.47672 0.119416,-0.68901 0.118099,-1.25336 -0.0031,-1.36086 -0.317699,-2.34019 -0.991946,-3.08862 -0.529749,-0.58805 -1.1768815,-0.87579 -1.9689813,-0.87552 -0.7983784,2.7e-4 -1.3925916,0.24671 -1.9566817,0.81147 -0.5048239,0.50544 -0.851315,1.19408 -1.0360802,2.05923 -0.054274,0.25412 -0.06082,0.34321 -0.071642,0.97493 -0.013583,0.79217 0.014517,1.23588 0.098632,1.55867 0.1326878,0.50912 0.3536975,1.02685 0.5695392,1.3342 0.146905,0.20918 0.4905103,0.56937 0.7187559,0.75343 0.1967534,0.15866 0.6028871,0.3654 0.8328566,0.42395 0.3045184,0.0776 0.8874394,0.10469 1.2285866,0.0572 z m -0.7755433,-1.50946 c -0.2386237,-0.0506 -0.5482452,-0.27962 -0.7385667,-0.54633 -0.2636575,-0.36948 -0.4206959,-0.82914 -0.4567791,-1.33703 -0.029005,-0.40831 -0.00708,-1.27798 0.037556,-1.48977 0.1048676,-0.49748 0.3479752,-0.96593 0.6450346,-1.24291 0.2574654,-0.24007 0.499653,-0.33641 0.8456546,-0.33641 0.2246148,0 0.5073047,0.0665 0.6594739,0.15518 0.2415389,0.14072 0.5193783,0.50464 0.6584023,0.86238 0.181067,0.46593 0.240037,0.92939 0.220575,1.73358 -0.01008,0.41681 -0.02188,0.55343 -0.06164,0.71321 -0.07743,0.31127 -0.13914,0.48468 -0.248201,0.69751 -0.178245,0.34785 -0.3783087,0.54858 -0.702344,0.70466 -0.1887685,0.0909 -0.2000234,0.0933 -0.4766361,0.10004 -0.1558158,0.004 -0.327957,-0.003 -0.382533,-0.014 z m 7.8233596,3.21732 c -0.02349,-0.0235 -0.02065,-6.04867 0.0029,-6.06321 0.01067,-0.007 0.316708,0.19287 0.680078,0.44327 0.710784,0.48978 0.868442,0.57992 0.969763,0.55449 0.132668,-0.0333 0.87859,-0.51426 3.841152,-2.47679 1.067785,-0.70734 2.176837,-1.44038 2.464564,-1.62898 l 0.523141,-0.34289 0.01863,0.4106 c 0.01024,0.22583 0.0137,2.1265 0.0077,4.22371 -0.01196,4.16046 -0.0052,3.96123 -0.14486,4.25865 -0.08435,0.17962 -0.347087,0.4524 -0.498435,0.51751 -0.06225,0.0267 -0.179064,0.0605 -0.259589,0.075 -0.16524,0.0297 -7.575962,0.0576 -7.60494,0.0286 z m 1.587743,-6.81478 c -0.147155,-0.0554 -1.522177,-0.88978 -1.575345,-0.9559 -0.02306,-0.0287 -0.02792,-0.50584 -0.02325,-2.26955 l 0.0059,-2.23328 3.650348,-0.006 c 2.007691,-0.003 3.788327,0.003 3.956969,0.0143 0.266869,0.018 0.320026,0.0285 0.410008,0.0812 0.128394,0.0753 0.303779,0.26772 0.378743,0.41567 0.05311,0.10481 0.138276,0.38614 0.121332,0.4008 -0.02863,0.0248 -3.394877,2.28758 -4.739174,3.18565 -1.469712,0.98188 -2.097181,1.38769 -2.137223,1.38221 -0.0074,-6.3e-4 -0.02915,-0.008 -0.04834,-0.0149 z"/>
      <path
         d="m 31.361561,280.22042 c -1.150544,-0.21839 -1.994453,-0.87282 -2.46566,-1.91204 -0.266978,-0.58881 -0.357788,-1.07223 -0.355992,-1.89513 0.005,-2.31842 1.288452,-3.78869 3.406939,-3.90303 1.743869,-0.0941 3.083967,0.89337 3.551814,2.61725 0.154557,0.56949 0.13941,1.86358 -0.02899,2.47637 -0.358212,1.30353 -1.16443,2.16829 -2.352256,2.52306 -0.375901,0.11227 -1.376381,0.16556 -1.755862,0.0935 z m 1.680899,-0.92535 c 0.693768,-0.2688 1.177805,-0.79719 1.463376,-1.59748 0.140556,-0.39389 0.155651,-0.51705 0.157447,-1.28434 0.0015,-0.65543 -0.02216,-0.92863 -0.104048,-1.19984 -0.253484,-0.83951 -0.776729,-1.47575 -1.427375,-1.7356 -0.281619,-0.11248 -0.446353,-0.13458 -1.012461,-0.13583 -0.664931,-9.5e-4 -0.683479,0.002 -1.121296,0.21853 -0.994385,0.49145 -1.527382,1.47566 -1.529062,2.82348 -9.08e-4,0.6659 0.07916,1.06616 0.320569,1.60414 0.309752,0.69027 0.787569,1.12322 1.499489,1.35867 0.443768,0.14677 1.306758,0.12131 1.753361,-0.0517 z m 4.883925,0.92174 c -0.555948,-0.11683 -1.010736,-0.55415 -1.218851,-1.17206 -0.09601,-0.28505 -0.10765,-0.5316 -0.10765,-2.28033 v -1.9607 h 0.409701 0.4097 l 0.02954,1.87291 c 0.03177,2.01402 0.04942,2.13287 0.368317,2.47977 0.458839,0.4991 1.394878,0.47032 1.896425,-0.0583 0.38233,-0.40298 0.394985,-0.47643 0.4273,-2.47999 l 0.02927,-1.81438 0.424926,-0.0172 0.424924,-0.0172 -0.01522,2.68027 -0.01522,2.68027 -0.341478,0.0177 c -0.431201,0.0224 -0.507189,-0.0384 -0.507189,-0.4053 0,-0.15702 -0.01322,-0.28549 -0.02942,-0.28549 -0.01617,0 -0.123888,0.10457 -0.23935,0.23238 -0.424473,0.46984 -1.208793,0.68255 -1.945721,0.52769 z m 5.84327,0.004 c -0.483351,-0.0975 -0.809074,-0.40357 -0.93837,-0.88166 -0.04679,-0.17299 -0.07562,-0.85592 -0.084,-1.98997 -0.007,-0.94964 -0.0169,-1.74326 -0.02197,-1.76362 -0.005,-0.0204 -0.207969,-0.0556 -0.450921,-0.0784 l -0.44173,-0.0413 0.01739,-0.33129 0.01739,-0.33128 0.408344,-0.0292 0.408345,-0.0293 0.04835,-0.26338 c 0.0266,-0.14486 0.03591,-0.39952 0.02071,-0.56592 -0.01752,-0.19184 -6.64e-4,-0.33941 0.04603,-0.40328 0.08584,-0.1174 0.722434,-0.3297 0.76792,-0.25611 0.01697,0.0274 0.03744,0.3473 0.04551,0.71077 0.0081,0.36348 0.03508,0.69378 0.06002,0.73402 0.03154,0.0509 0.229531,0.0732 0.650193,0.0732 0.68536,0 0.707142,0.015 0.643058,0.44234 -0.03661,0.24417 -0.03958,0.24677 -0.32397,0.28449 -0.157858,0.021 -0.41405,0.0212 -0.569313,6.7e-4 -0.470693,-0.0624 -0.45872,-0.11048 -0.447957,1.79746 0.0061,1.08227 0.03245,1.71588 0.0757,1.82081 0.10654,0.25844 0.397429,0.40606 0.74234,0.37673 0.160956,-0.0137 0.337635,-0.0439 0.392619,-0.0671 0.132859,-0.0561 0.194084,0.18051 0.123703,0.47811 -0.0446,0.18858 -0.08431,0.22901 -0.284084,0.28923 -0.258119,0.0778 -0.595014,0.0868 -0.905317,0.0242 z m 5.759127,-0.0518 c -0.474188,-0.14103 -0.824635,-0.35322 -1.129336,-0.68379 -0.933547,-1.01277 -0.917793,-3.00632 0.03211,-4.06456 0.492585,-0.54877 1.17318,-0.78971 2.119936,-0.75051 0.761531,0.0315 1.16199,0.17104 1.586434,0.55265 0.505738,0.4547 0.771102,1.0467 0.848212,1.89226 0.126818,1.39066 -0.523381,2.56106 -1.660916,2.98977 -0.46606,0.17565 -1.319205,0.20613 -1.79645,0.0642 z m 1.719654,-0.85775 c 0.605123,-0.32935 0.857633,-0.93806 0.822774,-1.98343 -0.01944,-0.58274 -0.04103,-0.69269 -0.204005,-1.03852 -0.291589,-0.61877 -0.741515,-0.88884 -1.483803,-0.89065 -1.114087,-0.003 -1.765102,0.76251 -1.765102,2.07475 0,1.32833 0.680586,2.07154 1.853621,2.02419 0.382855,-0.0154 0.525422,-0.0497 0.776515,-0.18634 z m 4.344024,0.90009 c -1.36932,-0.26742 -2.191907,-1.68589 -1.918388,-3.30806 0.246719,-1.46321 1.169403,-2.24765 2.641532,-2.24575 0.879996,9.6e-4 1.421649,0.20721 1.895227,0.72097 0.466759,0.50637 0.673522,1.11305 0.681595,1.99993 0.0087,0.95215 -0.200038,1.54681 -0.745163,2.1232 -0.165664,0.17517 -0.425862,0.38164 -0.578216,0.45885 -0.551236,0.27933 -1.326788,0.37776 -1.976587,0.25086 z m 1.492482,-0.85696 c 0.628378,-0.32755 0.915559,-0.92201 0.915559,-1.8952 0,-1.35356 -0.566408,-2.03887 -1.697256,-2.05355 -0.737529,-0.01 -1.241155,0.29062 -1.560128,0.92992 -0.150221,0.30109 -0.172603,0.4163 -0.193213,0.99455 -0.0266,0.74638 0.05753,1.10336 0.360313,1.52862 0.189856,0.26668 0.410811,0.42803 0.77838,0.56844 0.328384,0.12544 1.092472,0.0856 1.396345,-0.0728 z m -11.227762,0.76514 c -0.02146,-0.0214 -0.03902,-1.81358 -0.03902,-3.98251 v -3.94349 l 0.424334,0.0172 0.424335,0.0172 0.01504,3.88566 c 0.01093,2.82156 -0.003,3.90747 -0.05107,3.96532 -0.06835,0.0823 -0.698802,0.11548 -0.773637,0.0406 z m 14.1338,-0.0381 c -0.05079,-0.0612 -0.06439,-1.07575 -0.05318,-3.96788 l 0.01506,-3.88566 0.424334,-0.0172 0.424334,-0.0172 v 2.42805 c 0,1.45601 0.02208,2.4417 0.05514,2.46213 0.03032,0.0188 0.536949,-0.49329 1.125833,-1.13786 l 1.070693,-1.17192 h 0.545145 c 0.455729,0 0.537456,0.0137 0.49827,0.0837 -0.02578,0.0461 -0.555824,0.6121 -1.177868,1.25787 -0.622048,0.64577 -1.122438,1.21221 -1.111978,1.25877 0.01047,0.0466 0.580034,0.66608 1.265717,1.37671 0.685685,0.71063 1.230644,1.31804 1.211017,1.34979 -0.01963,0.0317 -0.26974,0.0577 -0.555812,0.0577 h -0.520133 l -0.961786,-1.03889 c -0.528982,-0.57138 -1.034099,-1.12559 -1.122487,-1.23156 -0.08838,-0.10597 -0.190351,-0.18282 -0.226593,-0.17078 -0.04466,0.0149 -0.07532,0.40689 -0.09515,1.21692 l -0.02927,1.19504 -0.35652,0.0172 c -0.251853,0.0122 -0.376552,-0.007 -0.424753,-0.065 z"
         id="path139" />
    </g>
  </defs>
  <g id="acyl-visual">
    <use id="visible1" transform="translate(24,24) scale(1.00) translate(-24,-24)" style="fill:url(#acyl-gradient);filter:url(#filter)" xlink:href="#acyl-drawing"/>
  </g>
</svg>
