<svg xmlns="http://www.w3.org/2000/svg" xmlns:xlink="http://www.w3.org/1999/xlink" 
   viewBox="0 0 66.410416 41.539585" height="157" width="251">
  <defs id="acyl-settings">
    <linearGradient id="acyl-gradient" x1="0%" x2="0%" y1="0%" y2="100%">
      <stop offset="0%" style="stop-color:#00FAFF;stop-opacity:1.000000"/>
      <stop offset="74%" style="stop-color:#000BFF;stop-opacity:1.000000"/>
    </linearGradient>
    <g id="acyl-filter">
      <filter id="filter">
        <feTurbulence id="feTurbulence1" type="turbulence" numOctaves="5.0" baseFrequency="0.40 0.40"/>
        <feDisplacementMap id="feDisplacementMap1" xChannelSelector="R"/>
        <feBlend id="feBlend1" in2="SourceGraphic" mode="screen"/>
        <feColorMatrix id="feColorMatrix1" values="1 0 0 -1 0 1 0 1 -1 0 1 0 0 -1 0 -0.8 -1 0 4 -2.5 "/>
        <feGaussianBlur id="feGaussianBlur1" stdDeviation="3.0"/>
        <feSpecularLighting id="feSpecularLighting1" surfaceScale="16.0" specularConstant="0.4" specularExponent="5">
          <feDistantLight id="feDistantLight1" azimuth="225" elevation="35"/>
        </feSpecularLighting>
        <feComposite id="feComposite1" in2="SourceGraphic" k2=" 0.4" k3=" 2.0" operator="arithmetic"/>
        <feComposite id="feComposite2" in2="SourceGraphic" operator="in" result="result2"/>
      </filter>
    </g>
    <g id="acyl-drawing" transform="translate(0,-255.4604)">
      <path  d="m 12.827473,286.95496 c -1.421996,-0.0457 -3.5697531,-0.20618 -4.3038381,-0.32144 -0.808971,-0.12717 -1.5802602,-0.56382 -2.1071727,-1.19311 -0.3040906,-0.36319 -0.6678298,-1.10352 -0.801745,-1.63186 -0.2458078,-0.96976 -0.4952938,-4.78491 -0.495378,-7.57537 -6.75e-5,-2.26167 0.1891293,-5.68776 0.390196,-7.06601 0.1957771,-1.34195 0.9156126,-2.43202 1.9633389,-2.97314 0.6259038,-0.32328 1.0432048,-0.4018 2.9564419,-0.55619 1.991951,-0.16091 7.349459,-0.19896 9.648306,-0.0688 1.40364,0.0794 2.69146,0.2211 3.156153,0.34714 1.32456,0.3593 2.27417,1.4458 2.594473,2.96845 0.247357,1.17591 0.478511,5.63326 0.429948,8.2908 -0.04865,2.6625 -0.241922,5.52159 -0.434145,6.42243 -0.31904,1.49514 -1.22437,2.53868 -2.545606,2.93412 -0.378481,0.11344 -1.565159,0.24779 -3.063782,0.34727 -0.970437,0.0645 -6.102134,0.11706 -7.38719,0.0759 z m -2.09451,-3.24976 c 0.762621,-0.16042 1.36457,-0.46589 1.890445,-0.95938 0.720211,-0.67581 1.102637,-1.43066 1.347728,-2.66015 0.0632,-0.31709 0.07518,-0.83002 0.09594,-4.10944 l 0.02361,-3.74714 h 1.991331 1.991328 l 0.02143,5.52433 0.02143,5.52432 2.844103,0.012 c 2.542809,0.01 2.85203,0.002 2.918921,-0.0565 0.17116,-0.15489 0.372786,-1.24395 0.391933,-2.11693 l 0.01155,-0.53531 -1.563086,-0.0217 -1.563087,-0.0217 -0.01085,-4.20209 c -0.0086,-3.33027 2.09e-4,-4.21059 0.04284,-4.24321 0.02955,-0.0217 0.169379,-0.065 0.310685,-0.094 0.452107,-0.0928 0.800011,-0.21966 1.370377,-0.49987 0.624852,-0.3069 1.257801,-0.7226 1.337628,-0.87849 0.103137,-0.20136 0.03502,-0.92964 -0.129853,-1.38804 -0.13214,-0.36741 -0.350863,-0.75586 -0.553824,-0.98357 -0.33586,-0.37681 -0.315288,-0.3762 -0.833671,-0.0252 -0.752976,0.51 -1.508861,0.83319 -2.320779,0.99213 -0.155071,0.0304 -1.591881,0.0585 -4.051629,0.0798 -2.409179,0.0216 -3.926681,0.05 -4.124822,0.0802 -1.652973,0.25105 -2.6067821,0.57528 -3.6004171,1.2239 -0.660269,0.43102 -1.4393912,1.15452 -1.501971,1.39475 -0.096564,0.37068 -0.192935,3.51311 -0.1084873,3.53691 0.023605,0.007 0.216251,-0.23125 0.4282459,-0.5287 0.8234424,-1.15533 1.6115564,-1.81169 2.5647444,-2.13594 0.3761541,-0.12791 0.9732221,-0.24209 1.0203211,-0.19487 0.01999,0.0192 0.03077,1.51846 0.02415,3.33019 l -0.01204,3.29405 -0.112896,0.30882 c -0.207459,0.56743 -0.55578,0.91848 -1.0639321,1.07216 -0.540445,0.16354 -1.501653,0.0413 -2.2802001,-0.29015 -0.1644885,-0.0699 -0.3259541,-0.12718 -0.3588181,-0.12718 -0.074356,0 -0.079438,0.38763 -0.015416,1.17615 0.088881,1.09436 0.2850524,1.92767 0.4838312,2.055 0.119325,0.0764 0.875896,0.22667 1.398906,0.2778 0.513937,0.05 1.2732801,0.0216 1.6740251,-0.0624 z"/>
      <text
         xml:space="preserve"
         style="ont-style:normal;font-weight:normal;font-size:5.03499079px;line-height:1.25;font-family:sans-serif;letter-spacing:0px;word-spacing:0px;fill-opacity:1;stroke:none;stroke-width:0.12587476"
         x="31.262825"
         y="274.88293"
         id="text249"><tspan
           id="tspan247"
           x="31.262825"
           y="274.88293"
           style="stroke-width:0.12587476">Расписание</tspan><tspan
           x="31.262825"
           y="281.17667"
           id="tspan251">занятий</tspan></text>
    </g>
  </defs>
  <g id="acyl-visual">
    <use id="visible1" transform="translate(24,24) scale(1.00) translate(-24,-24)" style="fill:url(#acyl-gradient);filter:url(#filter)" xlink:href="#acyl-drawing"/>
  </g>
</svg>
