<svg xmlns="http://www.w3.org/2000/svg" xmlns:xlink="http://www.w3.org/1999/xlink" 
   viewBox="0 0 66.410416 41.539585" height="157" width="251">
  <defs id="acyl-settings">
    <linearGradient id="acyl-gradient" x1="0%" x2="0%" y1="0%" y2="100%">
      <stop offset="0%" style="stop-color:#00FAFF;stop-opacity:1.000000"/>
      <stop offset="74%" style="stop-color:#000BFF;stop-opacity:1.000000"/>
    </linearGradient>
    <g id="acyl-filter">
      <filter id="filter">
        <feTurbulence id="feTurbulence1" type="turbulence" numOctaves="5.0" baseFrequency="0.40 0.40"/>
        <feDisplacementMap id="feDisplacementMap1" xChannelSelector="R"/>
        <feBlend id="feBlend1" in2="SourceGraphic" mode="screen"/>
        <feColorMatrix id="feColorMatrix1" values="1 0 0 -1 0 1 0 1 -1 0 1 0 0 -1 0 -0.8 -1 0 4 -2.5 "/>
        <feGaussianBlur id="feGaussianBlur1" stdDeviation="3.0"/>
        <feSpecularLighting id="feSpecularLighting1" surfaceScale="16.0" specularConstant="0.4" specularExponent="5">
          <feDistantLight id="feDistantLight1" azimuth="225" elevation="35"/>
        </feSpecularLighting>
        <feComposite id="feComposite1" in2="SourceGraphic" k2=" 0.4" k3=" 2.0" operator="arithmetic"/>
        <feComposite id="feComposite2" in2="SourceGraphic" operator="in" result="result2"/>
      </filter>
    </g>
    <g id="acyl-drawing" transform="translate(0,-255.46038)">
      <path   d="m 46.302038,288.75626 c -0.764639,-0.20807 -1.574274,-0.61698 -2.16961,-1.0958 -0.470559,-0.37845 -1.651821,-1.60715 -2.559828,-2.66264 -1.190098,-1.38337 -1.908151,-1.96054 -2.560838,-2.0584 -0.354479,-0.0531 -0.579904,0.0476 -0.96223,0.4302 -0.387109,0.38735 -0.570268,0.68194 -0.741551,1.19271 -0.215169,0.64163 -0.300296,1.1717 -0.338798,2.10967 -0.03062,0.74598 -0.05179,0.92285 -0.137941,1.15238 -0.192883,0.51391 -0.611845,0.78662 -1.363956,0.88782 -0.571499,0.0768 -4.097202,0.0238 -4.692216,-0.0706 -1.278975,-0.203 -2.829956,-0.69157 -3.890668,-1.22562 -0.967374,-0.48705 -2.779399,-1.66945 -3.725908,-2.43128 -0.697441,-0.56137 -1.617334,-1.45825 -2.139724,-2.08622 -0.531984,-0.63949 -1.840528,-2.35101 -2.470406,-3.23119 -1.820531,-2.54397 -3.482704,-5.34705 -5.265743,-8.88013 -0.960946,-1.90411 -1.983695,-4.13854 -2.148938,-4.69484 -0.200797,-0.676 0.09006,-1.13473 0.814653,-1.28488 0.134858,-0.0279 1.576503,-0.06 3.574503,-0.0794 3.326679,-0.0324 3.35054,-0.032 3.663259,0.063 0.372332,0.11307 0.815752,0.38724 0.984952,0.60902 0.06652,0.0872 0.283714,0.53919 0.482645,1.0044 0.646588,1.51211 1.165266,2.56426 2.6507,5.377 1.149448,2.17653 2.097194,3.40994 3.075801,4.00289 0.234631,0.14218 0.28484,0.15473 0.618727,0.15473 0.505192,0 0.622851,-0.0595 0.822092,-0.4157 0.327745,-0.58592 0.428905,-1.01006 0.612226,-2.56694 0.166855,-1.41706 0.130989,-3.63216 -0.07876,-4.86381 -0.18101,-1.06296 -0.456843,-1.72505 -0.848022,-2.03556 -0.317179,-0.25178 -0.780512,-0.46785 -1.199018,-0.55915 -0.585841,-0.12779 -0.62107,-0.15858 -0.484246,-0.42311 0.111245,-0.21506 0.719798,-0.74623 1.029717,-0.89877 0.831115,-0.40905 2.480461,-0.57613 5.333034,-0.54022 1.757159,0.022 2.379703,0.0735 3.199637,0.26434 0.948729,0.22076 1.306116,0.56163 1.537609,1.46655 0.127286,0.49757 0.150787,1.19264 0.09235,2.73164 -0.02878,0.75808 -0.07016,2.2528 -0.09194,3.32158 -0.05204,2.55365 0.005,3.22972 0.323003,3.82615 0.328935,0.617 0.835927,0.82087 1.332812,0.53595 0.376352,-0.2158 1.24275,-1.08547 1.733756,-1.7403 1.602845,-2.13766 3.213027,-5.04985 4.341906,-7.85284 0.328012,-0.81445 0.507482,-1.08436 0.832005,-1.25132 l 0.224716,-0.1156 3.09765,-0.0291 c 1.703707,-0.0161 3.555324,-0.041 4.114702,-0.0558 1.134594,-0.0297 1.423205,0.006 1.884549,0.22881 0.183602,0.0889 0.303333,0.18622 0.398164,0.32349 0.126357,0.18293 0.135298,0.22299 0.131109,0.5875 -0.0056,0.48007 -0.136988,0.91584 -0.517108,1.71394 -0.702043,1.47402 -1.852575,3.1568 -4.626363,6.76652 -1.038192,1.35107 -1.566736,2.11431 -1.82784,2.63946 -0.205,0.41231 -0.211349,0.43742 -0.211349,0.83604 0,0.37843 0.01284,0.43786 0.162287,0.75068 0.193306,0.40466 0.784192,1.07224 1.718109,1.94111 1.459034,1.35743 2.839428,2.77238 3.616482,3.70705 0.700868,0.84304 1.388008,1.91939 1.543492,2.41775 0.132261,0.42392 0.139756,1.05293 0.01555,1.30304 -0.108118,0.21768 -0.482576,0.50356 -0.810537,0.6188 -0.400649,0.14078 -0.944846,0.17233 -3.442831,0.1996 -1.292788,0.0141 -2.79802,0.036 -3.344968,0.0486 -0.882703,0.0204 -1.030004,0.0133 -1.310864,-0.0632 z"/>
    </g>
  </defs>
  <g id="acyl-visual">
    <use id="visible1" transform="translate(24,24) scale(1.00) translate(-24,-24)" style="fill:url(#acyl-gradient);filter:url(#filter)" xlink:href="#acyl-drawing"/>
  </g>
</svg>
