<svg xmlns="http://www.w3.org/2000/svg" xmlns:xlink="http://www.w3.org/1999/xlink" 
   viewBox="0 0 66.410416 41.539585" height="157" width="251">
  <defs id="acyl-settings">
    <linearGradient id="acyl-gradient" x1="0%" x2="0%" y1="0%" y2="100%">
      <stop offset="0%" style="stop-color:#00FAFF;stop-opacity:1.000000"/>
      <stop offset="74%" style="stop-color:#000BFF;stop-opacity:1.000000"/>
    </linearGradient>
    <g id="acyl-filter">
      <filter id="filter">
        <feTurbulence id="feTurbulence1" type="turbulence" numOctaves="5.0" baseFrequency="0.40 0.40"/>
        <feDisplacementMap id="feDisplacementMap1" xChannelSelector="R"/>
        <feBlend id="feBlend1" in2="SourceGraphic" mode="screen"/>
        <feColorMatrix id="feColorMatrix1" values="1 0 0 -1 0 1 0 1 -1 0 1 0 0 -1 0 -0.8 -1 0 4 -2.5 "/>
        <feGaussianBlur id="feGaussianBlur1" stdDeviation="3.0"/>
        <feSpecularLighting id="feSpecularLighting1" surfaceScale="16.0" specularConstant="0.4" specularExponent="5">
          <feDistantLight id="feDistantLight1" azimuth="225" elevation="35"/>
        </feSpecularLighting>
        <feComposite id="feComposite1" in2="SourceGraphic" k2=" 0.4" k3=" 2.0" operator="arithmetic"/>
        <feComposite id="feComposite2" in2="SourceGraphic" operator="in" result="result2"/>
      </filter>
    </g>
    <g id="acyl-drawing" transform="translate(0,-255.4604)">
      <path   d="m 42.611335,288.69589 c -0.257824,-0.006 -1.27037,-0.0298 -2.250103,-0.0518 -4.887197,-0.10975 -6.589673,-0.19005 -7.98786,-0.3768 -0.679187,-0.0907 -0.939106,-0.14609 -1.425065,-0.30361 -0.746859,-0.24207 -1.493541,-0.73214 -1.948553,-1.27891 -0.503069,-0.6045 -0.995858,-1.84457 -1.218796,-3.067 -0.07704,-0.4224 -0.191432,-1.54673 -0.284275,-2.79389 -0.193952,-2.60533 -0.201305,-6.66749 -0.01673,-9.24416 0.162324,-2.26608 0.270848,-2.98646 0.607326,-4.03143 0.30902,-0.95969 0.662947,-1.57376 1.200676,-2.08317 0.700802,-0.6639 1.487877,-1.04948 2.485394,-1.21757 0.950597,-0.16019 3.175727,-0.2833 7.93161,-0.43888 1.962885,-0.0642 10.289407,-0.0645 12.394312,-5.3e-4 3.063171,0.0933 4.999979,0.1898 5.887192,0.29351 1.219678,0.14258 2.029943,0.48591 2.814668,1.19268 0.570354,0.51368 0.933408,1.1209 1.255617,2.10008 0.366075,1.11245 0.481792,1.92756 0.663382,4.67274 0.06738,1.01868 0.06701,6.64051 -5.23e-4,7.65034 -0.137784,2.06065 -0.295645,3.56924 -0.442593,4.22961 -0.210906,0.9478 -0.635168,2.01814 -1.005884,2.53764 -0.207844,0.29126 -0.701967,0.75891 -1.050071,0.99382 -0.517196,0.34898 -1.128825,0.60392 -1.746496,0.72794 -1.223609,0.24571 -6.758244,0.46402 -12.375562,0.48816 -1.660388,0.007 -3.229832,0.007 -3.487657,10e-4 z m -2.906381,-4.68355 c 0.385736,-0.15366 0.736439,-0.4011 1.191133,-0.84038 0.222232,-0.21471 0.416407,-0.37808 0.431501,-0.36304 0.01509,0.015 0.03287,0.27857 0.03951,0.58564 l 0.01206,0.55831 0.1192,0.0221 c 0.140123,0.0259 2.073365,0.008 2.100222,-0.0197 0.01504,-0.0154 0.04279,-11.08323 0.02941,-11.72922 l -0.0041,-0.19744 -1.115676,0.0102 -1.115676,0.0102 -0.01875,4.54084 -0.01875,4.54085 -0.165578,0.21461 c -0.521691,0.67618 -0.996171,0.9388 -1.358058,0.75166 -0.231544,-0.11974 -0.220193,0.1455 -0.220193,-5.1453 0,-3.70776 -0.01046,-4.84189 -0.04501,-4.87641 -0.07095,-0.071 -2.143006,-0.0636 -2.202268,0.008 -0.03316,0.0399 -0.04026,1.28669 -0.02916,5.1096 0.01585,5.45131 0.01074,5.30895 0.212621,5.91565 0.157568,0.47349 0.516401,0.83909 0.957511,0.97555 0.302574,0.0937 0.871246,0.06 1.200054,-0.0711 z m 10.692728,0.0224 c 0.310483,-0.10442 0.611668,-0.30646 0.789212,-0.52944 0.312017,-0.39187 0.45316,-0.80319 0.563487,-1.64213 0.06088,-0.46293 0.06762,-0.85279 0.06762,-3.90813 0,-3.08714 -0.0061,-3.43289 -0.06768,-3.82517 -0.03723,-0.2372 -0.09305,-0.53252 -0.124058,-0.65628 -0.2435,-0.97179 -0.739511,-1.5132 -1.495838,-1.6327 -0.742781,-0.1174 -1.494016,0.199 -2.237252,0.94222 -0.142557,0.14256 -0.275373,0.25921 -0.295144,0.25921 -0.02248,0 -0.03956,-0.9519 -0.04558,-2.54075 l -0.0096,-2.54073 -1.028804,-0.0102 c -0.565845,-0.005 -1.041628,0.003 -1.0573,0.0187 -0.01566,0.0157 -0.04055,3.61013 -0.0553,7.98737 -0.0263,7.8087 -0.02546,7.9592 0.04476,7.98787 0.09174,0.0375 2.030367,0.033 2.068197,-0.005 0.01563,-0.0156 0.03432,-0.25485 0.0415,-0.5316 0.0072,-0.27676 0.02471,-0.50319 0.03891,-0.50319 0.01422,0 0.109604,0.0858 0.211959,0.19063 0.561646,0.57533 1.182839,0.93605 1.761169,1.02269 0.189923,0.0285 0.627219,-0.0157 0.829781,-0.0839 z m -2.104838,-1.94759 c -0.26974,-0.10071 -0.391674,-0.17008 -0.571902,-0.32541 l -0.159382,-0.13738 v -3.62175 -3.62175 l 0.158628,-0.14644 c 0.22651,-0.20912 0.589301,-0.37253 0.878634,-0.39574 0.442972,-0.0356 0.734685,0.16072 0.86495,0.582 0.06168,0.19948 0.06662,0.45883 0.06662,3.49686 0,3.07189 -0.0044,3.29576 -0.06859,3.50641 -0.09486,0.31125 -0.225409,0.52235 -0.383449,0.62002 -0.187825,0.11608 -0.538576,0.13536 -0.785525,0.0431 z m 9.280644,1.90782 c 1.094453,-0.32043 1.876097,-1.18619 2.120203,-2.34834 0.04052,-0.19292 0.06986,-0.56947 0.08339,-1.06993 l 0.02087,-0.77225 -0.235917,-0.0246 c -0.297945,-0.0312 -0.807645,-0.0312 -1.486712,-1.1e-4 l -0.530517,0.0243 -0.0257,0.73501 c -0.02936,0.83963 -0.05179,0.96154 -0.225787,1.22724 -0.364433,0.55651 -1.274042,0.49565 -1.578729,-0.10561 -0.169184,-0.33387 -0.199899,-0.64047 -0.201335,-2.00976 -0.001,-0.96662 0.0093,-1.25141 0.04556,-1.26271 0.02578,-0.008 0.98242,-0.0243 2.125854,-0.0361 1.607732,-0.0166 2.086187,-0.0322 2.110785,-0.0686 0.01749,-0.0259 0.02481,-0.78965 0.01624,-1.6972 -0.01642,-1.74228 -0.03177,-1.92185 -0.217731,-2.55011 -0.327723,-1.1072 -1.140813,-1.87683 -2.263203,-2.14223 -0.35297,-0.0835 -1.141159,-0.0838 -1.512207,-5.1e-4 -0.622764,0.13961 -1.13581,0.43776 -1.605499,0.93301 -0.420908,0.44381 -0.673714,0.96785 -0.839872,1.74098 -0.07352,0.34211 -0.08191,0.54686 -0.115892,2.8252 -0.03839,2.57439 -0.0258,3.33485 0.06394,3.86266 0.217337,1.27829 0.928247,2.2343 1.959097,2.63459 0.461853,0.17933 0.704504,0.21413 1.394152,0.19996 0.499348,-0.0103 0.672868,-0.0286 0.899015,-0.0948 z m -2.042231,-7.57483 c -0.0317,-0.1443 0.01422,-1.61824 0.05762,-1.84898 0.09951,-0.52927 0.375966,-0.74196 0.962517,-0.74049 0.527583,10e-4 0.766696,0.15853 0.900923,0.59234 0.05549,0.17933 0.06595,0.36183 0.06595,1.15067 v 0.93754 l -0.981303,0.0102 -0.981309,0.0102 z m -20.462456,7.52207 c 0.03056,-0.0369 0.04457,-1.90093 0.05146,-6.85342 l 0.0095,-6.80285 1.275057,-0.0228 c 0.701281,-0.0126 1.279528,-0.0252 1.284992,-0.0281 0.0054,-0.003 0.0054,-0.50737 0,-1.12098 l -0.0099,-1.11569 -3.637664,-0.0103 c -2.000716,-0.006 -3.675887,-10e-4 -3.722599,0.0103 l -0.08494,0.0206 0.0099,1.11483 0.0099,1.11481 1.218804,0.0187 1.218807,0.0186 0.01941,6.8253 c 0.01068,3.75393 0.02332,6.8283 0.02812,6.83195 0.04275,0.0325 0.285144,0.0415 1.213559,0.0453 0.859286,0.003 1.081966,-0.006 1.115576,-0.0463 z m -20.902505,0.19914 c -0.556621,-0.0666 -1.210106,-0.3556 -1.646048,-0.72804 -0.404949,-0.34595 -0.760677,-0.8989 -0.918792,-1.42817 -0.188993,-0.63262 -0.195855,-0.73917 -0.228119,-3.54258 -0.03183,-2.76692 -0.01377,-3.44055 0.108102,-4.02337 0.161996,-0.77484 0.408886,-1.25999 0.883581,-1.73629 0.469984,-0.47156 0.970357,-0.68971 1.75731,-0.76613 1.040482,-0.101 2.020742,0.23424 2.617325,0.89524 0.261497,0.28971 0.428823,0.57058 0.580476,0.97432 0.314173,0.83642 0.364617,1.57537 0.342191,5.01249 -0.01499,2.29626 -0.02044,2.45828 -0.09392,2.79389 -0.174433,0.7966 -0.381129,1.20114 -0.855556,1.67456 -0.297271,0.29662 -0.396804,0.36926 -0.73274,0.53478 -0.597626,0.29447 -1.218105,0.41054 -1.813808,0.3393 z m 0.820376,-2.07516 c 0.217496,-0.12746 0.376154,-0.37684 0.456336,-0.71725 0.0252,-0.10712 0.02408,-2.34771 -0.0027,-5.23148 -0.01355,-1.45766 -0.02832,-1.57316 -0.239007,-1.86398 -0.153127,-0.21138 -0.395706,-0.32166 -0.711232,-0.32332 -0.365427,-0.002 -0.644518,0.16609 -0.805059,0.48465 -0.139363,0.27653 -0.145662,0.49397 -0.109641,3.784 0.03847,3.51373 0.02738,3.36634 0.276554,3.66866 0.267713,0.32478 0.769625,0.41268 1.134719,0.19872 z m 5.658783,2.03887 c -0.606387,-0.12643 -1.037878,-0.61024 -1.191991,-1.33652 -0.106859,-0.50359 -0.127105,-1.32857 -0.147331,-6.00296 -0.02011,-4.64806 -0.01916,-4.73407 0.05186,-4.77209 0.08938,-0.0478 2.023222,-0.0521 2.098196,-0.004 0.04386,0.0278 0.0545,0.79232 0.06739,4.84652 0.01052,3.30426 0.02813,4.86384 0.05621,4.97393 0.05897,0.23128 0.209042,0.3459 0.452893,0.3459 0.349622,0 0.669527,-0.22118 1.063064,-0.73499 l 0.21971,-0.28684 5.22e-4,-4.57994 5.22e-4,-4.57995 h 1.08755 1.08755 l 0.0274,3.22515 c 0.01506,1.77382 0.0235,4.46551 0.01875,5.98151 l -0.0087,2.75638 h -1.08756 -1.087549 l -0.01875,-0.57822 c -0.01183,-0.36474 -0.0337,-0.58319 -0.05924,-0.59166 -0.02227,-0.007 -0.124917,0.0757 -0.228101,0.18446 -0.544423,0.57424 -1.029164,0.93364 -1.440529,1.06801 -0.282429,0.0922 -0.736974,0.13285 -0.962137,0.0859 z M 6.6305082,283.90895 c -0.00817,-0.0261 -0.02553,-1.49714 -0.038694,-3.26901 l -0.023917,-3.2216 -0.520054,-1.67237 c -0.2860266,-0.91982 -0.5625136,-1.80739 -0.6144128,-1.9724 -0.9242909,-2.93866 -1.4109051,-4.47743 -1.5950242,-5.04378 -0.1240185,-0.38145 -0.2124905,-0.70657 -0.1966065,-0.72243 0.01589,-0.0159 0.5593086,-0.0244 1.2076129,-0.019 l 1.178734,0.0102 0.04427,0.13525 c 0.039246,0.11982 0.4100232,1.48569 1.3102512,4.8267 0.2825765,1.04873 0.3233026,1.17148 0.3658076,1.1027 0.013266,-0.0215 0.2010609,-0.73662 0.4173432,-1.58927 0.2162821,-0.85264 0.559716,-2.2059 0.763186,-3.00724 0.2167387,-0.85362 0.3916086,-1.47072 0.4222607,-1.49013 0.07626,-0.0483 2.2966267,-0.0438 2.3451647,0.004 0.03913,0.0391 -0.01204,0.21358 -2.0300457,6.91758 l -0.7789196,2.58761 0.014327,3.22515 0.014328,3.22514 -1.1353935,0.0102 c -0.8895022,0.008 -1.138588,-2.6e-4 -1.1501563,-0.0375 z"/>
    </g>
  </defs>
  <g id="acyl-visual">
    <use id="visible1" transform="translate(24,24) scale(1.00) translate(-24,-24)" style="fill:url(#acyl-gradient);filter:url(#filter)" xlink:href="#acyl-drawing"/>
  </g>
</svg>
