<svg xmlns="http://www.w3.org/2000/svg" xmlns:xlink="http://www.w3.org/1999/xlink" width="48" height="48">
  <defs id="acyl-settings">
    <linearGradient id="acyl-gradient" x1="0%" x2="0%" y1="0%" y2="100%">
      <stop offset="0%" style="stop-color:#00FAFF;stop-opacity:1.000000"/>
      <stop offset="74%" style="stop-color:#000BFF;stop-opacity:1.000000"/>
    </linearGradient>
    <g id="acyl-filter">
      <filter id="filter">
        <feTurbulence id="feTurbulence1" type="turbulence" numOctaves="5.0" baseFrequency="0.40 0.40"/>
        <feDisplacementMap id="feDisplacementMap1" xChannelSelector="R"/>
        <feBlend id="feBlend1" in2="SourceGraphic" mode="screen"/>
        <feColorMatrix id="feColorMatrix1" values="1 0 0 -1 0 1 0 1 -1 0 1 0 0 -1 0 -0.8 -1 0 4 -2.5 "/>
        <feGaussianBlur id="feGaussianBlur1" stdDeviation="3.0"/>
        <feSpecularLighting id="feSpecularLighting1" surfaceScale="16.0" specularConstant="0.4" specularExponent="5">
          <feDistantLight id="feDistantLight1" azimuth="225" elevation="35"/>
        </feSpecularLighting>
        <feComposite id="feComposite1" in2="SourceGraphic" k2=" 0.4" k3=" 2.0" operator="arithmetic"/>
        <feComposite id="feComposite2" in2="SourceGraphic" operator="in" result="result2"/>
      </filter>
    </g>
    <g id="acyl-drawing">
      <path id="path-main" d="M 29.16 3 L 10.23 3.008 C 8.993 3.008 8 4.03 8 5.299 L 8 42.71 C 8 43.98 8.993 45 10.23 45 L 37.73 45 C 38.97 45 39.96 43.98 39.96 42.71 L 40 14.11 L 29.16 3 z M 24 14.82 L 24 14.83 C 25.11 14.83 26.13 15.46 26.62 16.46 C 26.94 16.38 27.29 16.28 27.64 16.28 C 29.24 16.28 30.54 17.58 30.54 19.19 C 30.54 19.54 30.48 19.88 30.36 20.2 C 31.36 20.69 32 21.71 32 22.83 C 32 23.94 31.36 24.95 30.36 25.44 C 30.44 25.77 30.54 26.11 30.54 26.46 C 30.54 28.07 29.24 29.37 27.64 29.37 C 27.39 29.37 27.15 29.37 26.91 29.27 L 26.91 36.45 C 26.91 37.1 26.12 37.42 25.66 36.96 L 24 35.3 L 22.34 36.96 C 21.88 37.42 21.09 37.1 21.09 36.45 L 21.09 29.26 C 20.85 29.36 20.61 29.36 20.36 29.36 C 18.76 29.36 17.46 28.06 17.46 26.45 C 17.46 26.1 17.52 25.76 17.64 25.43 C 16.64 24.95 16 23.93 16 22.82 C 16 21.7 16.64 20.68 17.64 20.19 C 17.56 19.87 17.46 19.53 17.46 19.18 C 17.46 17.57 18.76 16.27 20.36 16.27 C 20.71 16.27 21.06 16.34 21.39 16.46 C 21.87 15.46 22.89 14.82 24 14.82 z M 24 17.72 C 21.19 17.72 18.91 20 18.91 22.82 C 18.91 25.62 21.19 27.91 24 27.91 C 26.82 27.91 29.09 25.62 29.09 22.82 C 29.09 20 26.82 17.72 24 17.72 z M 24 18.45 C 26.41 18.45 28.36 20.4 28.36 22.82 C 28.36 25.22 26.41 27.18 24 27.18 C 21.59 27.18 19.64 25.22 19.64 22.82 C 19.64 20.4 21.59 18.45 24 18.45 z"/>
    </g>
  </defs>
  <g id="acyl-visual">
    <use id="visible1" transform="translate(24,24) scale(1.00) translate(-24,-24)" style="fill:url(#acyl-gradient);filter:url(#filter)" xlink:href="#acyl-drawing"/>
  </g>
</svg>
