<svg xmlns="http://www.w3.org/2000/svg" xmlns:xlink="http://www.w3.org/1999/xlink" width="48" height="48">
  <defs id="acyl-settings">
    <linearGradient id="acyl-gradient" x1="0%" x2="0%" y1="0%" y2="100%">
      <stop offset="0%" style="stop-color:#00FAFF;stop-opacity:1.000000"/>
      <stop offset="74%" style="stop-color:#000BFF;stop-opacity:1.000000"/>
    </linearGradient>
    <g id="acyl-filter">
      <filter id="filter">
        <feTurbulence id="feTurbulence1" type="turbulence" numOctaves="5.0" baseFrequency="0.40 0.40"/>
        <feDisplacementMap id="feDisplacementMap1" xChannelSelector="R"/>
        <feBlend id="feBlend1" in2="SourceGraphic" mode="screen"/>
        <feColorMatrix id="feColorMatrix1" values="1 0 0 -1 0 1 0 1 -1 0 1 0 0 -1 0 -0.8 -1 0 4 -2.5 "/>
        <feGaussianBlur id="feGaussianBlur1" stdDeviation="3.0"/>
        <feSpecularLighting id="feSpecularLighting1" surfaceScale="16.0" specularConstant="0.4" specularExponent="5">
          <feDistantLight id="feDistantLight1" azimuth="225" elevation="35"/>
        </feSpecularLighting>
        <feComposite id="feComposite1" in2="SourceGraphic" k2=" 0.4" k3=" 2.0" operator="arithmetic"/>
        <feComposite id="feComposite2" in2="SourceGraphic" operator="in" result="result2"/>
      </filter>
    </g>
    <g id="acyl-drawing">
      <path id="path-main" d="M 10.23 3 C 8.993 3.008 8 4.03 8 5.299 L 8 42.71 C 8 43.98 8.993 45 10.23 45 L 37.73 45 C 38.97 45 39.96 43.98 39.96 42.71 L 39.96 14.11 L 29.16 3 L 10.23 3 z M 15.64 16 L 23 16 L 23 19.71 L 15.64 19.71 C 15.29 19.71 15 19.41 15 19.06 L 15 16.66 C 15 16.3 15.29 16 15.64 16 z M 25 16 L 32.36 16 C 32.71 16 33 16.3 33 16.66 L 33 19.06 C 33 19.41 32.71 19.71 32.36 19.71 L 25 19.71 L 25 16 z M 15.64 21.43 L 23 21.43 L 23 25.14 L 15.64 25.14 C 15.29 25.14 15 24.84 15 24.48 L 15 22.08 C 15 21.73 15.29 21.43 15.64 21.43 z M 25 21.43 L 32.36 21.43 C 32.71 21.43 33 21.73 33 22.08 L 33 24.48 C 33 24.84 32.71 25.14 32.36 25.14 L 25 25.14 L 25 21.43 z M 15.64 26.87 L 23 26.87 L 23 30.57 L 15.64 30.57 C 15.29 30.57 15 30.28 15 29.92 L 15 27.52 C 15 27.16 15.29 26.87 15.64 26.87 z M 25 26.87 L 32.36 26.87 C 32.71 26.87 33 27.16 33 27.52 L 33 29.92 C 33 30.28 32.71 30.57 32.36 30.57 L 25 30.57 L 25 26.87 z M 15.64 32.29 L 23 32.29 L 23 36 L 15.64 36 C 15.29 36 15 35.7 15 35.35 L 15 32.94 C 15 32.59 15.29 32.29 15.64 32.29 z M 25 32.29 L 32.36 32.29 C 32.71 32.29 33 32.59 33 32.94 L 33 35.35 C 33 35.7 32.71 36 32.36 36 L 25 36 L 25 32.29 z"/>
    </g>
  </defs>
  <g id="acyl-visual">
    <use id="visible1" transform="translate(24,24) scale(1.00) translate(-24,-24)" style="fill:url(#acyl-gradient);filter:url(#filter)" xlink:href="#acyl-drawing"/>
  </g>
</svg>
