<svg xmlns="http://www.w3.org/2000/svg" xmlns:xlink="http://www.w3.org/1999/xlink" width="48" height="48">
  <defs id="acyl-settings">
    <linearGradient id="acyl-gradient" x1="0%" x2="0%" y1="0%" y2="100%">
      <stop offset="0%" style="stop-color:#00FAFF;stop-opacity:1.000000"/>
      <stop offset="74%" style="stop-color:#000BFF;stop-opacity:1.000000"/>
    </linearGradient>
    <g id="acyl-filter">
      <filter id="filter">
        <feTurbulence id="feTurbulence1" type="turbulence" numOctaves="5.0" baseFrequency="0.40 0.40"/>
        <feDisplacementMap id="feDisplacementMap1" xChannelSelector="R"/>
        <feBlend id="feBlend1" in2="SourceGraphic" mode="screen"/>
        <feColorMatrix id="feColorMatrix1" values="1 0 0 -1 0 1 0 1 -1 0 1 0 0 -1 0 -0.8 -1 0 4 -2.5 "/>
        <feGaussianBlur id="feGaussianBlur1" stdDeviation="3.0"/>
        <feSpecularLighting id="feSpecularLighting1" surfaceScale="16.0" specularConstant="0.4" specularExponent="5">
          <feDistantLight id="feDistantLight1" azimuth="225" elevation="35"/>
        </feSpecularLighting>
        <feComposite id="feComposite1" in2="SourceGraphic" k2=" 0.4" k3=" 2.0" operator="arithmetic"/>
        <feComposite id="feComposite2" in2="SourceGraphic" operator="in" result="result2"/>
      </filter>
    </g>
    <g id="acyl-drawing">
      <path d="M 12.71875,5 C 12.318018,5 12,5.3012923 12,5.6875 L 12,42.3125 C 12,42.698712 12.318018,43 12.71875,43 L 23.46875,43 L 36,31.1875 L 36,17.15625 L 23.09375,5 L 12.71875,5 z M 25.125,5 L 36,15.25 L 36,5.6875 C 36,5.3012922 35.650727,5 35.25,5 L 25.125,5 z M 21.375,14 L 26.625,14 C 26.833019,14 27.000001,14.151384 27,14.34375 L 27,21 L 33.65625,21 C 33.848618,21 33.999999,21.166979 34,21.375 L 34,26.625 C 34,26.833024 33.848617,27 33.65625,27 L 27,27 L 27,33.65625 C 27,33.848619 26.833023,34 26.625,34 L 21.375,34 C 21.166978,34 21.000001,33.848619 21,33.65625 L 21,27 L 14.34375,27 C 14.151381,27 14,26.833024 14,26.625 L 14,21.375 C 14,21.16698 14.151381,21 14.34375,21 L 21,21 L 21,14.34375 C 21,14.151383 21.166978,14 21.375,14 z M 36,33.09375 L 25.5,43 L 35.25,43 C 35.650737,43 36,42.698712 36,42.3125 L 36,33.09375 z" id="path-main"/>
    </g>
  </defs>
  <g id="acyl-visual">
    <use id="visible1" transform="translate(24,24) scale(1.00) translate(-24,-24)" style="fill:url(#acyl-gradient);filter:url(#filter)" xlink:href="#acyl-drawing"/>
  </g>
</svg>
