<svg xmlns="http://www.w3.org/2000/svg" xmlns:xlink="http://www.w3.org/1999/xlink" width="48" height="48">
  <defs id="acyl-settings">
    <linearGradient id="acyl-gradient" x1="0%" x2="0%" y1="0%" y2="100%">
      <stop offset="0%" style="stop-color:#00FAFF;stop-opacity:1.000000"/>
      <stop offset="74%" style="stop-color:#000BFF;stop-opacity:1.000000"/>
    </linearGradient>
    <g id="acyl-filter">
      <filter id="filter">
        <feTurbulence id="feTurbulence1" type="turbulence" numOctaves="5.0" baseFrequency="0.40 0.40"/>
        <feDisplacementMap id="feDisplacementMap1" xChannelSelector="R"/>
        <feBlend id="feBlend1" in2="SourceGraphic" mode="screen"/>
        <feColorMatrix id="feColorMatrix1" values="1 0 0 -1 0 1 0 1 -1 0 1 0 0 -1 0 -0.8 -1 0 4 -2.5 "/>
        <feGaussianBlur id="feGaussianBlur1" stdDeviation="3.0"/>
        <feSpecularLighting id="feSpecularLighting1" surfaceScale="16.0" specularConstant="0.4" specularExponent="5">
          <feDistantLight id="feDistantLight1" azimuth="225" elevation="35"/>
        </feSpecularLighting>
        <feComposite id="feComposite1" in2="SourceGraphic" k2=" 0.4" k3=" 2.0" operator="arithmetic"/>
        <feComposite id="feComposite2" in2="SourceGraphic" operator="in" result="result2"/>
      </filter>
    </g>
    <g id="acyl-drawing">
      <path d="M 24 3.1 C 13.2 3.1 4.4 9.709 4.4 19.12 L 4.4 22.92 C 2.9 24.3 2 26.2 2 28.18 C 2 31.81 4.799 34.91 8.699 35.78 L 8.699 36.04 C 8.699 37.25 9.8 38.19 11.1 38.19 C 12.4 38.19 13.5 37.25 13.5 36.04 L 13.5 20.33 C 13.5 19.2 12.4 18.26 11.1 18.26 C 10.5 18.26 10 18.43 9.6 18.77 C 9.8 12.04 16.2 7.502 24 7.502 C 31.9 7.502 38.3 12.13 38.4 18.86 C 38 18.6 37.5 18.43 36.9 18.43 C 35.6 18.43 34.5 19.38 34.5 20.5 L 34.5 36.21 C 34.5 37.33 35.6 38.28 36.9 38.28 C 38.2 38.28 39.3 37.33 39.3 36.21 L 39.3 35.95 C 39.88 35.81 40.44 35.62 40.96 35.39 C 40.88 36.87 40.68 38.09 40.3 38.98 C 39.72 40.51 38.89 41.3 37.52 41.87 C 35.74 42.61 32.88 42.73 29.21 42.74 L 29.21 41.82 L 18.8 41.82 L 18.8 45.76 L 29.21 45.76 L 29.21 45.05 C 32.97 45.08 36 44.96 38.39 43.96 C 40.22 43.2 41.65 41.82 42.42 39.8 C 43.01 38.25 43.27 36.34 43.27 33.96 C 44.96 32.54 46 30.56 46 28.35 C 46 26.28 45.1 24.47 43.6 23 L 43.6 19.12 C 43.6 9.709 34.8 3.1 24 3.1 z" id="path-main"/>
    </g>
  </defs>
  <g id="acyl-visual">
    <use id="visible1" transform="translate(24,24) scale(1.00) translate(-24,-24)" style="fill:url(#acyl-gradient);filter:url(#filter)" xlink:href="#acyl-drawing"/>
  </g>
</svg>
