<svg xmlns="http://www.w3.org/2000/svg" xmlns:xlink="http://www.w3.org/1999/xlink" width="48" height="48">
  <defs id="acyl-settings">
    <linearGradient id="acyl-gradient" x1="0%" x2="0%" y1="0%" y2="100%">
      <stop offset="0%" style="stop-color:#00FAFF;stop-opacity:1.000000"/>
      <stop offset="74%" style="stop-color:#000BFF;stop-opacity:1.000000"/>
    </linearGradient>
    <g id="acyl-filter">
      <filter id="filter">
        <feTurbulence id="feTurbulence1" type="turbulence" numOctaves="5.0" baseFrequency="0.40 0.40"/>
        <feDisplacementMap id="feDisplacementMap1" xChannelSelector="R"/>
        <feBlend id="feBlend1" in2="SourceGraphic" mode="screen"/>
        <feColorMatrix id="feColorMatrix1" values="1 0 0 -1 0 1 0 1 -1 0 1 0 0 -1 0 -0.8 -1 0 4 -2.5 "/>
        <feGaussianBlur id="feGaussianBlur1" stdDeviation="3.0"/>
        <feSpecularLighting id="feSpecularLighting1" surfaceScale="16.0" specularConstant="0.4" specularExponent="5">
          <feDistantLight id="feDistantLight1" azimuth="225" elevation="35"/>
        </feSpecularLighting>
        <feComposite id="feComposite1" in2="SourceGraphic" k2=" 0.4" k3=" 2.0" operator="arithmetic"/>
        <feComposite id="feComposite2" in2="SourceGraphic" operator="in" result="result2"/>
      </filter>
    </g>
    <g id="acyl-drawing">
      <path id="path-main" d="M 46,9.5103878 32.714681,16.640582 32.470914,31.936981 46,39.25 46,9.5103878 z M 5.4736842,10.24169 C 3.5440127,10.24169 2,11.785703 2,13.715374 l 0,21.908587 c 0,1.929671 1.5440128,3.473687 3.4736842,3.473684 l 21.9085868,0 c 1.929672,0 3.473683,-1.544013 3.473685,-3.473684 l 0,-21.908587 c 0,-1.929672 -1.544013,-3.473684 -3.473685,-3.473684 l -21.9085868,0 z m 1.1274238,2.041551 c 1.4216922,0 2.5290859,1.137864 2.5290859,2.559557 3e-7,1.421694 -1.1073936,2.590027 -2.5290859,2.590027 -1.4216924,0 -2.5900277,-1.168335 -2.5900277,-2.590027 0,-1.421691 1.1683354,-2.559557 2.5900277,-2.559557 z"/>
    </g>
  </defs>
  <g id="acyl-visual">
    <use id="visible1" transform="translate(24,24) scale(1.00) translate(-24,-24)" style="fill:url(#acyl-gradient);filter:url(#filter)" xlink:href="#acyl-drawing"/>
  </g>
</svg>
