<svg xmlns="http://www.w3.org/2000/svg" xmlns:xlink="http://www.w3.org/1999/xlink" width="48" height="48">
  <defs id="acyl-settings">
    <linearGradient id="acyl-gradient" x1="0%" x2="0%" y1="0%" y2="100%">
      <stop offset="0%" style="stop-color:#00FAFF;stop-opacity:1.000000"/>
      <stop offset="74%" style="stop-color:#000BFF;stop-opacity:1.000000"/>
    </linearGradient>
    <g id="acyl-filter">
      <filter id="filter">
        <feTurbulence id="feTurbulence1" type="turbulence" numOctaves="5.0" baseFrequency="0.40 0.40"/>
        <feDisplacementMap id="feDisplacementMap1" xChannelSelector="R"/>
        <feBlend id="feBlend1" in2="SourceGraphic" mode="screen"/>
        <feColorMatrix id="feColorMatrix1" values="1 0 0 -1 0 1 0 1 -1 0 1 0 0 -1 0 -0.8 -1 0 4 -2.5 "/>
        <feGaussianBlur id="feGaussianBlur1" stdDeviation="3.0"/>
        <feSpecularLighting id="feSpecularLighting1" surfaceScale="16.0" specularConstant="0.4" specularExponent="5">
          <feDistantLight id="feDistantLight1" azimuth="225" elevation="35"/>
        </feSpecularLighting>
        <feComposite id="feComposite1" in2="SourceGraphic" k2=" 0.4" k3=" 2.0" operator="arithmetic"/>
        <feComposite id="feComposite2" in2="SourceGraphic" operator="in" result="result2"/>
      </filter>
    </g>
    <g id="acyl-drawing">
      <path id="path-main" d="m 2.588,9.903 c -0.315,0 -0.587,0.227 -0.587,0.517 v 21.31 c 0,0.31 0.272,0.52 0.587,0.52 H 14.57 V 36 h -2.88 c -0.15,0 -0.26,0.11 -0.26,0.27 v 1.57 c 0,0.14 0.11,0.26 0.26,0.26 h 9.95 c 0.15,0 0.27,-0.12 0.27,-0.26 V 36.27 C 21.91,36.12 21.79,36 21.64,36 h -2.88 v -3.75 h 11.99 c 0.31,0 0.58,-0.22 0.58,-0.52 V 10.42 c 0,-0.3 -0.27,-0.517 -0.58,-0.517 z m 33.982,0 c -0.58,0 -1.05,0.497 -1.05,1.107 v 25.98 c 0,0.61 0.47,1.11 1.05,1.11 h 8.38 C 45.54,38.1 46,37.6 46,36.99 V 11.01 C 46,10.4 45.54,9.903 44.95,9.903 Z"/>
    </g>
  </defs>
  <g id="acyl-visual">
    <use id="visible1" transform="translate(24,24) scale(1.00) translate(-24,-24)" style="fill:url(#acyl-gradient);filter:url(#filter)" xlink:href="#acyl-drawing"/>
  </g>
</svg>
