<svg xmlns="http://www.w3.org/2000/svg" xmlns:xlink="http://www.w3.org/1999/xlink" width="48" height="48">
  <defs id="acyl-settings">
    <linearGradient id="acyl-gradient" x1="0%" x2="0%" y1="0%" y2="100%">
      <stop offset="0%" style="stop-color:#00FAFF;stop-opacity:1.000000"/>
      <stop offset="74%" style="stop-color:#000BFF;stop-opacity:1.000000"/>
    </linearGradient>
    <g id="acyl-filter">
      <filter id="filter">
        <feTurbulence id="feTurbulence1" type="turbulence" numOctaves="5.0" baseFrequency="0.40 0.40"/>
        <feDisplacementMap id="feDisplacementMap1" xChannelSelector="R"/>
        <feBlend id="feBlend1" in2="SourceGraphic" mode="screen"/>
        <feColorMatrix id="feColorMatrix1" values="1 0 0 -1 0 1 0 1 -1 0 1 0 0 -1 0 -0.8 -1 0 4 -2.5 "/>
        <feGaussianBlur id="feGaussianBlur1" stdDeviation="3.0"/>
        <feSpecularLighting id="feSpecularLighting1" surfaceScale="16.0" specularConstant="0.4" specularExponent="5">
          <feDistantLight id="feDistantLight1" azimuth="225" elevation="35"/>
        </feSpecularLighting>
        <feComposite id="feComposite1" in2="SourceGraphic" k2=" 0.4" k3=" 2.0" operator="arithmetic"/>
        <feComposite id="feComposite2" in2="SourceGraphic" operator="in" result="result2"/>
      </filter>
    </g>
    <g id="acyl-drawing">
      <path d="M 5.125,8.0000003 C 3.391658,8.0000003 2,9.3044062 2,10.9375 l 0.125,26.90625 c 0,1.207106 1.39166,2.156247 3.125,2.15625 l 37.625,0 C 44.608342,40 46.000002,39.050856 46,37.84375 L 46,16.25 c 0,-1.633093 -1.391662,-2.96875 -3.125,-2.96875 l -16.6875,0 -1.25,-2.34375 C 24.220631,9.0427522 23.15482,7.9345846 21.8125,8.0000003 l -16.6875,0 z m 2.15625,3.6562497 14.78125,0 c 1.189135,-0.05795 2.146191,0.915231 2.78125,2.59375 l 1.09375,2.09375 14.78125,0 c 1.535528,0 2.78125,1.178277 2.78125,2.625 l 0,1.3125 C 43.296061,20.2519 43.091667,20.25 42.875,20.25 l -16.6875,0 -1.25,-1.71875 c -0.716869,-1.400508 -1.78268,-2.235853 -3.125,-2.1875 l -16.6875,0 c -0.2166678,0 -0.4210606,0.03378 -0.625,0.0625 L 4.5,14.25 c 0,-1.446725 1.2457182,-2.59375 2.78125,-2.59375 z" id="path-main"/>
    </g>
  </defs>
  <g id="acyl-visual">
    <use id="visible1" transform="translate(24,24) scale(1.00) translate(-24,-24)" style="fill:url(#acyl-gradient);filter:url(#filter)" xlink:href="#acyl-drawing"/>
  </g>
</svg>
