<svg xmlns="http://www.w3.org/2000/svg" xmlns:xlink="http://www.w3.org/1999/xlink" width="48" height="48">
  <defs id="acyl-settings">
    <linearGradient id="acyl-gradient" x1="0%" x2="0%" y1="0%" y2="100%">
      <stop offset="0%" style="stop-color:#00FAFF;stop-opacity:1.000000"/>
      <stop offset="74%" style="stop-color:#000BFF;stop-opacity:1.000000"/>
    </linearGradient>
    <g id="acyl-filter">
      <filter id="filter">
        <feTurbulence id="feTurbulence1" type="turbulence" numOctaves="5.0" baseFrequency="0.40 0.40"/>
        <feDisplacementMap id="feDisplacementMap1" xChannelSelector="R"/>
        <feBlend id="feBlend1" in2="SourceGraphic" mode="screen"/>
        <feColorMatrix id="feColorMatrix1" values="1 0 0 -1 0 1 0 1 -1 0 1 0 0 -1 0 -0.8 -1 0 4 -2.5 "/>
        <feGaussianBlur id="feGaussianBlur1" stdDeviation="3.0"/>
        <feSpecularLighting id="feSpecularLighting1" surfaceScale="16.0" specularConstant="0.4" specularExponent="5">
          <feDistantLight id="feDistantLight1" azimuth="225" elevation="35"/>
        </feSpecularLighting>
        <feComposite id="feComposite1" in2="SourceGraphic" k2=" 0.4" k3=" 2.0" operator="arithmetic"/>
        <feComposite id="feComposite2" in2="SourceGraphic" operator="in" result="result2"/>
      </filter>
    </g>
    <g id="acyl-drawing">
      <path d="m 11.420213,6.5239362 c -2.3374489,0 -4.2420215,1.3048128 -4.2420215,2.9255318 l 31.5372345,0 c 0,-1.620719 -1.904574,-2.9255318 -4.242022,-2.9255318 l -23.053191,0 z M 7.8803191,10.210106 C 4.6150646,10.210106 2,12.468962 2,15.271277 l 0,17.757978 c 0,2.802315 2.6150646,5.06117 5.8803191,5.061171 l 15.4468089,0 0,1.43351 c -0.562826,0.249405 -1.033008,0.711713 -1.257979,1.287234 l -17.9335107,0 c -0.029246,-0.0014 -0.058529,-0.0014 -0.087766,0 -0.5170375,0.02424 -0.901897,0.477648 -0.8776595,0.994681 0.024237,0.517034 0.4483881,0.901895 0.9654255,0.87766 l 18.0212767,0 c 0.380319,0.778441 1.182168,1.316488 2.106383,1.316489 0.924215,10e-7 1.726064,-0.538049 2.106383,-1.316489 l 17.992021,0 c 0.337611,0.0048 0.648944,-0.17647 0.819149,-0.468085 0.170196,-0.291615 0.170196,-0.644556 0,-0.936171 -0.170205,-0.291613 -0.481538,-0.472859 -0.819149,-0.468085 l -17.904255,0 c -0.224971,-0.57552 -0.695163,-1.03783 -1.257979,-1.287234 l 0,-1.43351 14.920213,0 C 43.384935,38.090426 46,35.83157 46,33.029255 l 0,-17.757978 c 0,-2.802315 -2.615065,-5.061171 -5.880319,-5.061171 l -32.2393619,0 z" id="path-main"/>
    </g>
  </defs>
  <g id="acyl-visual">
    <use id="visible1" transform="translate(24,24) scale(1.00) translate(-24,-24)" style="fill:url(#acyl-gradient);filter:url(#filter)" xlink:href="#acyl-drawing"/>
  </g>
</svg>
