<svg xmlns="http://www.w3.org/2000/svg" xmlns:xlink="http://www.w3.org/1999/xlink" width="48" height="48">
  <defs id="acyl-settings">
    <linearGradient id="acyl-gradient" x1="0%" x2="0%" y1="0%" y2="100%">
      <stop offset="0%" style="stop-color:#00FAFF;stop-opacity:1.000000"/>
      <stop offset="74%" style="stop-color:#000BFF;stop-opacity:1.000000"/>
    </linearGradient>
    <g id="acyl-filter">
      <filter id="filter">
        <feTurbulence id="feTurbulence1" type="turbulence" numOctaves="5.0" baseFrequency="0.40 0.40"/>
        <feDisplacementMap id="feDisplacementMap1" xChannelSelector="R"/>
        <feBlend id="feBlend1" in2="SourceGraphic" mode="screen"/>
        <feColorMatrix id="feColorMatrix1" values="1 0 0 -1 0 1 0 1 -1 0 1 0 0 -1 0 -0.8 -1 0 4 -2.5 "/>
        <feGaussianBlur id="feGaussianBlur1" stdDeviation="3.0"/>
        <feSpecularLighting id="feSpecularLighting1" surfaceScale="16.0" specularConstant="0.4" specularExponent="5">
          <feDistantLight id="feDistantLight1" azimuth="225" elevation="35"/>
        </feSpecularLighting>
        <feComposite id="feComposite1" in2="SourceGraphic" k2=" 0.4" k3=" 2.0" operator="arithmetic"/>
        <feComposite id="feComposite2" in2="SourceGraphic" operator="in" result="result2"/>
      </filter>
    </g>
    <g id="acyl-drawing">
      <path d="M 5.125 8 C 3.391658 8 2 9.304406 2 10.9375 L 2.125 37.0625 C 2.125 38.695593 3.51666 39.999996 5.25 40 L 42.875 40 C 44.608342 40 46.000002 38.695593 46 37.0625 L 46 16.25 C 46 14.616907 44.608338 13.28125 42.875 13.28125 L 26.1875 13.28125 L 24.9375 10.9375 C 24.220631 9.042752 23.15482 7.9345843 21.8125 8 L 5.125 8 z M 21.21875 16.96875 C 21.263657 16.951552 21.322995 16.96875 21.375 16.96875 L 26.625 16.96875 C 26.833019 16.96875 27.000001 17.120134 27 17.3125 L 27 23.96875 L 33.65625 23.96875 C 33.848618 23.96875 33.999999 24.135729 34 24.34375 L 34 29.59375 C 34 29.801774 33.848617 29.96875 33.65625 29.96875 L 27 29.96875 L 27 36.625 C 27 36.817369 26.833023 36.96875 26.625 36.96875 L 21.375 36.96875 C 21.166978 36.96875 21.000001 36.817369 21 36.625 L 21 29.96875 L 14.34375 29.96875 C 14.151381 29.96875 14 29.801774 14 29.59375 L 14 24.34375 C 14 24.13573 14.151381 23.96875 14.34375 23.96875 L 21 23.96875 L 21 17.3125 C 21 17.168225 21.084028 17.020344 21.21875 16.96875 z " id="path-main"/>
    </g>
  </defs>
  <g id="acyl-visual">
    <use id="visible1" transform="translate(24,24) scale(1.00) translate(-24,-24)" style="fill:url(#acyl-gradient);filter:url(#filter)" xlink:href="#acyl-drawing"/>
  </g>
</svg>
