<svg xmlns="http://www.w3.org/2000/svg" xmlns:xlink="http://www.w3.org/1999/xlink" width="48" height="48">
  <defs id="acyl-settings">
    <linearGradient id="acyl-gradient" x1="0%" x2="0%" y1="0%" y2="100%">
      <stop offset="0%" style="stop-color:#00FAFF;stop-opacity:1.000000"/>
      <stop offset="74%" style="stop-color:#000BFF;stop-opacity:1.000000"/>
    </linearGradient>
    <g id="acyl-filter">
      <filter id="filter">
        <feTurbulence id="feTurbulence1" type="turbulence" numOctaves="5.0" baseFrequency="0.40 0.40"/>
        <feDisplacementMap id="feDisplacementMap1" xChannelSelector="R"/>
        <feBlend id="feBlend1" in2="SourceGraphic" mode="screen"/>
        <feColorMatrix id="feColorMatrix1" values="1 0 0 -1 0 1 0 1 -1 0 1 0 0 -1 0 -0.8 -1 0 4 -2.5 "/>
        <feGaussianBlur id="feGaussianBlur1" stdDeviation="3.0"/>
        <feSpecularLighting id="feSpecularLighting1" surfaceScale="16.0" specularConstant="0.4" specularExponent="5">
          <feDistantLight id="feDistantLight1" azimuth="225" elevation="35"/>
        </feSpecularLighting>
        <feComposite id="feComposite1" in2="SourceGraphic" k2=" 0.4" k3=" 2.0" operator="arithmetic"/>
        <feComposite id="feComposite2" in2="SourceGraphic" operator="in" result="result2"/>
      </filter>
    </g>
    <g id="acyl-drawing">
      <path d="M 24 2 C 11.856 2 2 11.856002 2 24 C 2 36.143997 11.856 46 24 46 C 36.144001 46 46 36.143997 46 24 C 46 11.856002 36.144001 2 24 2 z M 24 3 L 24 14.71875 C 29.119529 14.71875 33.28125 18.880467 33.28125 24 C 33.28125 29.119529 29.119529 33.28125 24 33.28125 C 18.880471 33.28125 14.71875 29.119529 14.71875 24 C 14.71875 22.008592 15.367918 20.167995 16.4375 18.65625 L 6.84375 11.875 C 10.779359 6.3057446 17.180497 3.0000019 24 3 z M 24 16.03125 L 24 17.96875 C 27.333647 17.96875 30.03125 20.666353 30.03125 24 C 30.03125 27.333647 27.333647 30.03125 24 30.03125 C 20.666353 30.03125 17.96875 27.333647 17.96875 24 C 17.96875 22.709537 18.372158 21.512972 19.0625 20.53125 L 17.46875 19.40625 C 16.553057 20.705036 16.03125 22.291209 16.03125 24 C 16.03125 28.405177 19.594823 31.96875 24 31.96875 C 28.405176 31.96875 31.96875 28.405177 31.96875 24 C 31.96875 19.594823 28.405176 16.03125 24 16.03125 z " id="path-main"/>
    </g>
  </defs>
  <g id="acyl-visual">
    <use id="visible1" transform="translate(24,24) scale(1.00) translate(-24,-24)" style="fill:url(#acyl-gradient);filter:url(#filter)" xlink:href="#acyl-drawing"/>
  </g>
</svg>
