<svg xmlns="http://www.w3.org/2000/svg" xmlns:xlink="http://www.w3.org/1999/xlink" width="48" height="48">
  <defs id="acyl-settings">
    <linearGradient id="acyl-gradient" x1="0%" x2="0%" y1="0%" y2="100%">
      <stop offset="0%" style="stop-color:#00FAFF;stop-opacity:1.000000"/>
      <stop offset="74%" style="stop-color:#000BFF;stop-opacity:1.000000"/>
    </linearGradient>
    <g id="acyl-filter">
      <filter id="filter">
        <feTurbulence id="feTurbulence1" type="turbulence" numOctaves="5.0" baseFrequency="0.40 0.40"/>
        <feDisplacementMap id="feDisplacementMap1" xChannelSelector="R"/>
        <feBlend id="feBlend1" in2="SourceGraphic" mode="screen"/>
        <feColorMatrix id="feColorMatrix1" values="1 0 0 -1 0 1 0 1 -1 0 1 0 0 -1 0 -0.8 -1 0 4 -2.5 "/>
        <feGaussianBlur id="feGaussianBlur1" stdDeviation="3.0"/>
        <feSpecularLighting id="feSpecularLighting1" surfaceScale="16.0" specularConstant="0.4" specularExponent="5">
          <feDistantLight id="feDistantLight1" azimuth="225" elevation="35"/>
        </feSpecularLighting>
        <feComposite id="feComposite1" in2="SourceGraphic" k2=" 0.4" k3=" 2.0" operator="arithmetic"/>
        <feComposite id="feComposite2" in2="SourceGraphic" operator="in" result="result2"/>
      </filter>
    </g>
    <g id="acyl-drawing">
      <path d="M 13.1074 4.59961 C 12.7067 4.59961 12.4004 4.90676 12.4004 5.29297 L 12.4004 41.9062 C 12.4004 42.2925 12.7067 42.5996 13.1074 42.5996 L 23.8613 42.5996 L 36.4004 30.7793 L 36.4004 16.7676 L 23.4941 4.59961 L 13.1074 4.59961 z M 25.5312 4.59961 L 36.4004 14.8477 L 36.4004 5.29297 C 36.4004 4.90676 36.0648 4.59961 35.6641 4.59961 L 25.5312 4.59961 z M 17.8438 15.5 L 18.8965 15.5 L 26.9883 15.5 L 30.1562 18.668 L 30.1562 31.4473 L 30.1562 32.5 L 28.2168 32.5 L 28.0508 32.5 L 26.1113 32.5 L 26.1113 30.3945 L 28.0508 30.3945 L 28.0508 19.541 L 26.1152 17.6055 L 19.9492 17.6055 L 19.9492 19.7109 L 17.8438 19.7109 L 17.8438 17.6055 L 17.8438 15.5 z M 17.8438 21.8164 L 19.9492 21.8164 L 19.9492 23.9238 L 17.8438 23.9238 L 17.8438 21.8164 z M 17.8438 26.0293 L 19.9492 26.0293 L 19.9492 28.1348 L 17.8438 28.1348 L 17.8438 26.0293 z M 17.8438 30.2402 L 19.9492 30.2402 C 19.9492 30.9935 19.9493 31.7467 19.9492 32.5 L 18.8965 32.5 L 17.8438 32.5 L 17.8438 31.4473 L 17.8438 30.2402 z M 21.9004 30.3945 L 24.0059 30.3945 L 24.0059 32.5 L 21.9004 32.5 L 21.9004 30.3945 z M 36.4004 32.6992 L 25.9004 42.5996 L 35.6641 42.5996 C 36.0648 42.5996 36.4004 42.2925 36.4004 41.9062 L 36.4004 32.6992 z" id="path-main"/>
    </g>
  </defs>
  <g id="acyl-visual">
    <use id="visible1" transform="translate(24,24) scale(1.00) translate(-24,-24)" style="fill:url(#acyl-gradient);filter:url(#filter)" xlink:href="#acyl-drawing"/>
  </g>
</svg>
