<svg xmlns="http://www.w3.org/2000/svg" xmlns:xlink="http://www.w3.org/1999/xlink" width="48" height="48">
  <defs id="acyl-settings">
    <linearGradient id="acyl-gradient" x1="0%" x2="0%" y1="0%" y2="100%">
      <stop offset="0%" style="stop-color:#00FAFF;stop-opacity:1.000000"/>
      <stop offset="74%" style="stop-color:#000BFF;stop-opacity:1.000000"/>
    </linearGradient>
    <g id="acyl-filter">
      <filter id="filter">
        <feTurbulence id="feTurbulence1" type="turbulence" numOctaves="5.0" baseFrequency="0.40 0.40"/>
        <feDisplacementMap id="feDisplacementMap1" xChannelSelector="R"/>
        <feBlend id="feBlend1" in2="SourceGraphic" mode="screen"/>
        <feColorMatrix id="feColorMatrix1" values="1 0 0 -1 0 1 0 1 -1 0 1 0 0 -1 0 -0.8 -1 0 4 -2.5 "/>
        <feGaussianBlur id="feGaussianBlur1" stdDeviation="3.0"/>
        <feSpecularLighting id="feSpecularLighting1" surfaceScale="16.0" specularConstant="0.4" specularExponent="5">
          <feDistantLight id="feDistantLight1" azimuth="225" elevation="35"/>
        </feSpecularLighting>
        <feComposite id="feComposite1" in2="SourceGraphic" k2=" 0.4" k3=" 2.0" operator="arithmetic"/>
        <feComposite id="feComposite2" in2="SourceGraphic" operator="in" result="result2"/>
      </filter>
    </g>
    <g id="acyl-drawing">
      <path d="M 40.599845,35.927664 C 34.089619,23.924082 24.673923,5.8896697 23.806502,1.9999968 c 0,0 -1.891344,4.7671806 -5.263802,12.1115142 1.227953,1.902862 4.251003,3.952447 5.357299,5.267916 -3.819881,-1.205337 -6.145754,-3.60337 -6.145754,-3.60337 C 13.829716,24.230733 8.2863964,35.375656 2,45.666826 c 2.9999999,-1.532601 11.266666,-6.59684 17.2,-7.263188 -0.200001,-2.798654 -0.133334,-10.72819 4.466666,-10.861459 4.6,-0.13327 5.733333,6.596839 5.066667,10.928094 C 32.999999,39.403161 42.599999,43.601146 46,46 l -3.633334,-6.863379 c 0,0 -5.033333,-3.431689 -7.466667,-5.197508 3.133333,0.06664 4.922191,1.559706 5.699846,1.988551 z" id="path-main"/>
    </g>
  </defs>
  <g id="acyl-visual">
    <use id="visible1" transform="translate(24,24) scale(1.00) translate(-24,-24)" style="fill:url(#acyl-gradient);filter:url(#filter)" xlink:href="#acyl-drawing"/>
  </g>
</svg>
