<svg xmlns="http://www.w3.org/2000/svg" xmlns:xlink="http://www.w3.org/1999/xlink" width="48" height="48">
  <defs id="acyl-settings">
    <linearGradient id="acyl-gradient" x1="0%" x2="0%" y1="0%" y2="100%">
      <stop offset="0%" style="stop-color:#00FAFF;stop-opacity:1.000000"/>
      <stop offset="74%" style="stop-color:#000CFF;stop-opacity:1.000000"/>
    </linearGradient>
    <g id="acyl-filter">
      <filter id="filter">
        <feTurbulence id="feTurbulence1" type="turbulence" numOctaves="5.0" baseFrequency="0.40 0.40"/>
        <feDisplacementMap id="feDisplacementMap1" xChannelSelector="R"/>
        <feBlend id="feBlend1" in2="SourceGraphic" mode="screen"/>
        <feColorMatrix id="feColorMatrix1" values="1 0 0 -1 0 1 0 1 -1 0 1 0 0 -1 0 -0.8 -1 0 4 -2.5 "/>
        <feGaussianBlur id="feGaussianBlur1" stdDeviation="3.0"/>
        <feSpecularLighting id="feSpecularLighting1" surfaceScale="16.0" specularConstant="0.4" specularExponent="5">
          <feDistantLight id="feDistantLight1" azimuth="225" elevation="35"/>
        </feSpecularLighting>
        <feComposite id="feComposite1" in2="SourceGraphic" k2=" 0.4" k3=" 2.0" operator="arithmetic"/>
        <feComposite id="feComposite2" in2="SourceGraphic" operator="in" result="result2"/>
      </filter>
    </g>
    <g id="acyl-drawing">
      <path id="path-main" d="M 33.684783,4.3722826 17.065217,13.967391 15.570652,11.1875 3.7038043,18.032609 5.2282609,20.8125 l -2.3913044,1.375 1.7934783,3.108696 -1.8532609,1.046195 -0.5081522,0.298913 0.388587,0.44837 1.763587,1.883152 L 2.5679348,30.019022 2,30.347826 2.4483696,30.766304 14.793478,43.05163 15.0625,43.320652 15.182065,43.5 46,25.714674 33.684783,4.3722826 z M 20.173913,15.641304 c 0.131775,-0.0033 0.290813,0.0738 0.418478,0.209239 0.510661,0.541758 0.740572,1.422271 4.065218,0.6875 3.324646,-0.73477 5.850203,3.896376 5.948369,7.472827 -1.793996,-7.526777 -7.09019,-6.362233 -7.323369,-5.380435 l 7.233695,7.532608 c 1.883051,1.958012 0.583158,4.297543 -0.597826,5.171196 -1.180983,0.873653 -2.907983,1.22449 -3.826087,-0.388587 -0.918102,-1.613078 0.672135,-4.321287 2.570652,-4.991848 L 19.875,16.627717 c -0.406223,-0.4323 -0.09641,-0.976485 0.298913,-0.986413 z M 5.1086957,26.133152 13.269022,40.182065 3.5842391,30.557065 5.4076087,29.480978 5.9157609,29.182065 5.5271739,28.733696 3.7934783,26.880435 5.1086957,26.133152 z"/>
    </g>
  </defs>
  <g id="acyl-visual">
    <use id="visible1" transform="translate(24,24) scale(1.00) translate(-24,-24)" style="fill:url(#acyl-gradient);filter:url(#filter)" xlink:href="#acyl-drawing"/>
  </g>
</svg>
