<svg xmlns="http://www.w3.org/2000/svg" xmlns:xlink="http://www.w3.org/1999/xlink" width="48" height="48">
  <defs id="acyl-settings">
    <linearGradient id="acyl-gradient" x1="0%" x2="0%" y1="0%" y2="100%">
      <stop offset="0%" style="stop-color:#00FAFF;stop-opacity:1.000000"/>
      <stop offset="74%" style="stop-color:#000BFF;stop-opacity:1.000000"/>
    </linearGradient>
    <g id="acyl-filter">
      <filter id="filter">
        <feTurbulence id="feTurbulence1" type="turbulence" numOctaves="5.0" baseFrequency="0.40 0.40"/>
        <feDisplacementMap id="feDisplacementMap1" xChannelSelector="R"/>
        <feBlend id="feBlend1" in2="SourceGraphic" mode="screen"/>
        <feColorMatrix id="feColorMatrix1" values="1 0 0 -1 0 1 0 1 -1 0 1 0 0 -1 0 -0.8 -1 0 4 -2.5 "/>
        <feGaussianBlur id="feGaussianBlur1" stdDeviation="3.0"/>
        <feSpecularLighting id="feSpecularLighting1" surfaceScale="16.0" specularConstant="0.4" specularExponent="5">
          <feDistantLight id="feDistantLight1" azimuth="225" elevation="35"/>
        </feSpecularLighting>
        <feComposite id="feComposite1" in2="SourceGraphic" k2=" 0.4" k3=" 2.0" operator="arithmetic"/>
        <feComposite id="feComposite2" in2="SourceGraphic" operator="in" result="result2"/>
      </filter>
    </g>
    <g id="acyl-drawing">
      <path id="path-main" d="m 35.83953,3.2133072 -0.229615,0.2583171 -7.979126,9.2420087 -23.8225698,0 17.1637308,17.163732 9.643836,-9.672538 0,3.32942 0,0.287018 0,0.0287 -1.5212,1.492499 10.849315,10.849315 0,-12.341814 0.861057,0 0.287019,0 0,-0.31572 0,-8.49576 4.276581,0 0.631442,0 L 45.598174,14.550554 36.040444,3.4716243 35.83953,3.2133072 z m 0,0.9184606 8.868885,10.3039792 -3.903457,0 -0.287019,0 0,0.287019 0,8.524462 -9.328115,0 0,-8.524462 0,-0.287019 -0.287019,0 -3.989563,0 L 35.83953,4.1317678 z M 2,14.521853 2,36.191781 12.849315,25.342466 2,14.521853 z M 14.657534,27.150685 3.8082192,38 38.135682,38 27.286367,27.150685 20.97195,33.465101 14.657534,27.150685 z"/>
    </g>
  </defs>
  <g id="acyl-visual">
    <use id="visible1" transform="translate(24,24) scale(1.00) translate(-24,-24)" style="fill:url(#acyl-gradient);filter:url(#filter)" xlink:href="#acyl-drawing"/>
  </g>
</svg>
