<svg xmlns="http://www.w3.org/2000/svg" xmlns:xlink="http://www.w3.org/1999/xlink" width="48" height="48">
  <defs id="acyl-settings">
    <linearGradient id="acyl-gradient" x1="0%" x2="0%" y1="0%" y2="100%">
      <stop offset="0%" style="stop-color:#00FAFF;stop-opacity:1.000000"/>
      <stop offset="74%" style="stop-color:#000BFF;stop-opacity:1.000000"/>
    </linearGradient>
    <g id="acyl-filter">
      <filter id="filter">
        <feTurbulence id="feTurbulence1" type="turbulence" numOctaves="5.0" baseFrequency="0.40 0.40"/>
        <feDisplacementMap id="feDisplacementMap1" xChannelSelector="R"/>
        <feBlend id="feBlend1" in2="SourceGraphic" mode="screen"/>
        <feColorMatrix id="feColorMatrix1" values="1 0 0 -1 0 1 0 1 -1 0 1 0 0 -1 0 -0.8 -1 0 4 -2.5 "/>
        <feGaussianBlur id="feGaussianBlur1" stdDeviation="3.0"/>
        <feSpecularLighting id="feSpecularLighting1" surfaceScale="16.0" specularConstant="0.4" specularExponent="5">
          <feDistantLight id="feDistantLight1" azimuth="225" elevation="35"/>
        </feSpecularLighting>
        <feComposite id="feComposite1" in2="SourceGraphic" k2=" 0.4" k3=" 2.0" operator="arithmetic"/>
        <feComposite id="feComposite2" in2="SourceGraphic" operator="in" result="result2"/>
      </filter>
    </g>
    <g id="acyl-drawing">
      <path d="M 9.0872178,2 C 6.1427674,2 3.6932784,4.3894041 3.6932784,7.2424242 l 0,33.5151518 C 3.6932784,43.610596 6.1427675,46 9.0872178,46 l 29.9999992,0 c 2.94445,0 5.39394,-2.389403 5.39394,-5.242424 l 0,-33.5151518 C 44.481157,4.3894041 42.031668,2 39.087217,2 L 9.0872178,2 z m 0,3.8484848 2.1818182,0 0,27.0606062 L 18.844793,24 l 7.363637,8.909091 0,-27.0606062 12.878787,0 c 0.830338,0 1.424243,0.5908108 1.424243,1.3939394 l 0,33.5151518 c 0,0.803132 -0.593909,1.393939 -1.424243,1.393939 l -29.9999992,0 c -0.8303341,0 -1.4242424,-0.59081 -1.4242424,-1.393939 l 0,-33.5151518 c 0,-0.8031286 0.5939083,-1.3939394 1.4242424,-1.3939394 z" id="path-main"/>
    </g>
  </defs>
  <g id="acyl-visual">
    <use id="visible1" transform="translate(24,24) scale(1.00) translate(-24,-24)" style="fill:url(#acyl-gradient);filter:url(#filter)" xlink:href="#acyl-drawing"/>
  </g>
</svg>
