<svg xmlns="http://www.w3.org/2000/svg" xmlns:xlink="http://www.w3.org/1999/xlink" width="48" height="48">
  <defs id="acyl-settings">
    <linearGradient id="acyl-gradient" x1="0%" x2="0%" y1="0%" y2="100%">
      <stop offset="0%" style="stop-color:#00FAFF;stop-opacity:1.000000"/>
      <stop offset="74%" style="stop-color:#000BFF;stop-opacity:1.000000"/>
    </linearGradient>
    <g id="acyl-filter">
      <filter id="filter">
        <feTurbulence id="feTurbulence1" type="turbulence" numOctaves="5.0" baseFrequency="0.40 0.40"/>
        <feDisplacementMap id="feDisplacementMap1" xChannelSelector="R"/>
        <feBlend id="feBlend1" in2="SourceGraphic" mode="screen"/>
        <feColorMatrix id="feColorMatrix1" values="1 0 0 -1 0 1 0 1 -1 0 1 0 0 -1 0 -0.8 -1 0 4 -2.5 "/>
        <feGaussianBlur id="feGaussianBlur1" stdDeviation="3.0"/>
        <feSpecularLighting id="feSpecularLighting1" surfaceScale="16.0" specularConstant="0.4" specularExponent="5">
          <feDistantLight id="feDistantLight1" azimuth="225" elevation="35"/>
        </feSpecularLighting>
        <feComposite id="feComposite1" in2="SourceGraphic" k2=" 0.4" k3=" 2.0" operator="arithmetic"/>
        <feComposite id="feComposite2" in2="SourceGraphic" operator="in" result="result2"/>
      </filter>
    </g>
    <g id="acyl-drawing">
      <path d="m 8.5,40.5 c 0,3.037375 2.449456,5.5 5.470588,5.5 l 20.058824,0 C 37.050544,46 39.5,43.537375 39.5,40.5 l 0,-33 C 39.5,4.462625 37.050544,2 34.029412,2 L 13.970588,2 C 10.949456,2 8.5,4.462625 8.5,7.5 z m 5.014706,-22.916667 c -1.007045,0 -1.82353,-0.820875 -1.82353,-1.833333 l 0,-7.3333333 c 0,-1.0124584 0.816485,-1.8333334 1.82353,-1.8333334 l 20.970588,0 c 1.007044,0 1.823529,0.820875 1.823529,1.8333334 l 0,7.3333333 c 0,1.012458 -0.816485,1.833333 -1.823529,1.833333 z m 0.911764,8.25 c -1.007044,0 -1.823529,-0.820875 -1.823529,-1.833333 0,-1.012458 0.816485,-1.833333 1.823529,-1.833333 l 0.911765,0 c 1.007044,0 1.823529,0.820875 1.823529,1.833333 0,1.012458 -0.816485,1.833333 -1.823529,1.833333 z m 9.117648,0 c -1.007044,0 -1.823529,-0.820875 -1.823529,-1.833333 0,-1.012458 0.816485,-1.833333 1.823529,-1.833333 l 0.911765,0 c 1.007043,0 1.823529,0.820875 1.823529,1.833333 0,1.012458 -0.816486,1.833333 -1.823529,1.833333 z m 9.117647,0 c -1.007045,0 -1.82353,-0.820875 -1.82353,-1.833333 0,-1.012458 0.816485,-1.833333 1.82353,-1.833333 l 0.911764,0 c 1.007045,0 1.82353,0.820875 1.82353,1.833333 0,1.012458 -0.816485,1.833333 -1.82353,1.833333 z M 14.42647,33.166667 c -1.007044,0 -1.823529,-0.820875 -1.823529,-1.833334 0,-1.012458 0.816485,-1.833333 1.823529,-1.833333 l 0.911765,0 c 1.007044,0 1.823529,0.820875 1.823529,1.833333 0,1.012459 -0.816485,1.833334 -1.823529,1.833334 z m 9.117648,0 c -1.007044,0 -1.823529,-0.820875 -1.823529,-1.833334 0,-1.012458 0.816485,-1.833333 1.823529,-1.833333 l 0.911765,0 c 1.007043,0 1.823529,0.820875 1.823529,1.833333 0,1.012459 -0.816486,1.833334 -1.823529,1.833334 z m 9.117647,0 c -1.007045,0 -1.82353,-0.820875 -1.82353,-1.833334 0,-1.012458 0.816485,-1.833333 1.82353,-1.833333 l 0.911764,0 c 1.007045,0 1.82353,0.820875 1.82353,1.833333 0,1.012459 -0.816485,1.833334 -1.82353,1.833334 z M 14.42647,40.5 c -1.007044,0 -1.823529,-0.820875 -1.823529,-1.833333 0,-1.012459 0.816485,-1.833334 1.823529,-1.833334 l 0.911765,0 c 1.007044,0 1.823529,0.820875 1.823529,1.833334 0,1.012458 -0.816485,1.833333 -1.823529,1.833333 z m 9.117648,0 c -1.007044,0 -1.823529,-0.820875 -1.823529,-1.833333 0,-1.012459 0.816485,-1.833334 1.823529,-1.833334 l 0.911765,0 c 1.007043,0 1.823529,0.820875 1.823529,1.833334 0,1.012458 -0.816486,1.833333 -1.823529,1.833333 z m 9.117647,0 c -1.007045,0 -1.82353,-0.820875 -1.82353,-1.833333 0,-1.012459 0.816485,-1.833334 1.82353,-1.833334 l 0.911764,0 c 1.007045,0 1.82353,0.820875 1.82353,1.833334 0,1.012458 -0.816485,1.833333 -1.82353,1.833333 z" id="path-main"/>
    </g>
  </defs>
  <g id="acyl-visual">
    <use id="visible1" transform="translate(24,24) scale(1.00) translate(-24,-24)" style="fill:url(#acyl-gradient);filter:url(#filter)" xlink:href="#acyl-drawing"/>
  </g>
</svg>
