<svg xmlns="http://www.w3.org/2000/svg" xmlns:xlink="http://www.w3.org/1999/xlink" width="48" height="48">
  <defs id="acyl-settings">
    <linearGradient id="acyl-gradient" x1="0%" x2="0%" y1="0%" y2="100%">
      <stop offset="0%" style="stop-color:#00FAFF;stop-opacity:1.000000"/>
      <stop offset="74%" style="stop-color:#000BFF;stop-opacity:1.000000"/>
    </linearGradient>
    <g id="acyl-filter">
      <filter id="filter">
        <feTurbulence id="feTurbulence1" type="turbulence" numOctaves="5.0" baseFrequency="0.40 0.40"/>
        <feDisplacementMap id="feDisplacementMap1" xChannelSelector="R"/>
        <feBlend id="feBlend1" in2="SourceGraphic" mode="screen"/>
        <feColorMatrix id="feColorMatrix1" values="1 0 0 -1 0 1 0 1 -1 0 1 0 0 -1 0 -0.8 -1 0 4 -2.5 "/>
        <feGaussianBlur id="feGaussianBlur1" stdDeviation="3.0"/>
        <feSpecularLighting id="feSpecularLighting1" surfaceScale="16.0" specularConstant="0.4" specularExponent="5">
          <feDistantLight id="feDistantLight1" azimuth="225" elevation="35"/>
        </feSpecularLighting>
        <feComposite id="feComposite1" in2="SourceGraphic" k2=" 0.4" k3=" 2.0" operator="arithmetic"/>
        <feComposite id="feComposite2" in2="SourceGraphic" operator="in" result="result2"/>
      </filter>
    </g>
    <g id="acyl-drawing">
      <path id="path-main" d="m 21.775174,1.9999999 c -2.860514,0 -5.212079,2.3215587 -5.212079,5.1832461 l 0,23.036649 11.835164,0 7.45817,7.486911 5.989572,-3.484293 -2.073314,-3.455497 -2.706826,1.554974 -7.2278,-7.198953 -8.149274,0 0,-2.246074 7.37178,0 0,-5.125654 -7.37178,0 0.05759,-5.471204 c 1.441699,-0.104733 2.721747,-0.510112 3.628298,-1.324608 1.009115,-0.906645 1.583781,-2.2331148 1.583781,-3.772251 -1e-6,-3.0642938 -2.349317,-5.1832462 -5.183284,-5.1832461 z M 13.913862,20.602094 13.222757,21.005236 C 9.157259,23.422639 7.1180001,27.214682 7.118,32.17801 c 10e-8,7.630649 6.320386,13.821993 14.11005,13.82199 5.146386,-2e-6 9.680693,-2.701437 12.15192,-6.73822 l 0.172777,-0.287958 -3.858667,-3.829843 -0.28796,0.575916 c -1.404527,3.067547 -4.509567,5.240838 -8.17807,5.240838 -4.980974,-10e-7 -8.984358,-3.929779 -8.984358,-8.782723 0,-2.314163 0.164583,-3.552396 1.554985,-5.096858 l 0.115185,-0.143979 0,-6.335079 z"/>
    </g>
  </defs>
  <g id="acyl-visual">
    <use id="visible1" transform="translate(24,24) scale(1.00) translate(-24,-24)" style="fill:url(#acyl-gradient);filter:url(#filter)" xlink:href="#acyl-drawing"/>
  </g>
</svg>
