<svg xmlns="http://www.w3.org/2000/svg" xmlns:xlink="http://www.w3.org/1999/xlink" width="48" height="48">
  <defs id="acyl-settings">
    <linearGradient id="acyl-gradient" x1="0%" x2="0%" y1="0%" y2="100%">
      <stop offset="0%" style="stop-color:#00FAFF;stop-opacity:1.000000"/>
      <stop offset="74%" style="stop-color:#000BFF;stop-opacity:1.000000"/>
    </linearGradient>
    <g id="acyl-filter">
      <filter id="filter">
        <feTurbulence id="feTurbulence1" type="turbulence" numOctaves="5.0" baseFrequency="0.40 0.40"/>
        <feDisplacementMap id="feDisplacementMap1" xChannelSelector="R"/>
        <feBlend id="feBlend1" in2="SourceGraphic" mode="screen"/>
        <feColorMatrix id="feColorMatrix1" values="1 0 0 -1 0 1 0 1 -1 0 1 0 0 -1 0 -0.8 -1 0 4 -2.5 "/>
        <feGaussianBlur id="feGaussianBlur1" stdDeviation="3.0"/>
        <feSpecularLighting id="feSpecularLighting1" surfaceScale="16.0" specularConstant="0.4" specularExponent="5">
          <feDistantLight id="feDistantLight1" azimuth="225" elevation="35"/>
        </feSpecularLighting>
        <feComposite id="feComposite1" in2="SourceGraphic" k2=" 0.4" k3=" 2.0" operator="arithmetic"/>
        <feComposite id="feComposite2" in2="SourceGraphic" operator="in" result="result2"/>
      </filter>
    </g>
    <g id="acyl-drawing">
      <path d="M 24 7.53125 C 24 7.53125 21.490203 21.407361 21.15625 27.3125 C 21.093634 28.419714 21.136069 29.525304 21.28125 30.59375 C 20.825194 29.861772 20.329609 29.119947 20.03125 28.6875 C 18.360566 26.26598 10.25 17.0625 10.25 17.0625 C 10.25 17.0625 12.005071 26.830382 14.34375 32.625 C 9.4516423 30.608176 2.5 29.03125 2.5 29.03125 C 2.5 29.03125 11.384255 38.249808 16.65625 39.03125 C 19.611591 39.469305 21.990816 39.452808 23.59375 39.34375 C 24.272776 39.384227 24.868678 39.410004 25.375 39.40625 C 25.724713 39.481995 27.227323 39.706256 31.78125 39.03125 C 37.053244 38.249808 45.9375 29.03125 45.9375 29.03125 C 45.9375 29.03125 39.731892 30.53451 34.5625 32.5625 C 35.266919 30.760651 35.861611 28.751542 38.125 25.46875 C 39.5229 23.441251 44.375 18.5625 44.375 18.5625 C 44.375 18.5625 39.252932 19.310431 36.25 21.1875 C 33.761173 22.743212 31.113354 25.26216 29.34375 27.46875 C 29.364019 18.9734 24 7.53125 24 7.53125 z " id="path-main"/>
    </g>
  </defs>
  <g id="acyl-visual">
    <use id="visible1" transform="translate(24,24) scale(1.00) translate(-24,-24)" style="fill:url(#acyl-gradient);filter:url(#filter)" xlink:href="#acyl-drawing"/>
  </g>
</svg>
