<svg xmlns="http://www.w3.org/2000/svg" xmlns:xlink="http://www.w3.org/1999/xlink" width="48" height="48">
  <defs id="acyl-settings">
    <linearGradient id="acyl-gradient" x1="0%" x2="0%" y1="0%" y2="100%">
      <stop offset="0%" style="stop-color:#00FAFF;stop-opacity:1.000000"/>
      <stop offset="74%" style="stop-color:#000BFF;stop-opacity:1.000000"/>
    </linearGradient>
    <g id="acyl-filter">
      <filter id="filter">
        <feTurbulence id="feTurbulence1" type="turbulence" numOctaves="5.0" baseFrequency="0.40 0.40"/>
        <feDisplacementMap id="feDisplacementMap1" xChannelSelector="R"/>
        <feBlend id="feBlend1" in2="SourceGraphic" mode="screen"/>
        <feColorMatrix id="feColorMatrix1" values="1 0 0 -1 0 1 0 1 -1 0 1 0 0 -1 0 -0.8 -1 0 4 -2.5 "/>
        <feGaussianBlur id="feGaussianBlur1" stdDeviation="3.0"/>
        <feSpecularLighting id="feSpecularLighting1" surfaceScale="16.0" specularConstant="0.4" specularExponent="5">
          <feDistantLight id="feDistantLight1" azimuth="225" elevation="35"/>
        </feSpecularLighting>
        <feComposite id="feComposite1" in2="SourceGraphic" k2=" 0.4" k3=" 2.0" operator="arithmetic"/>
        <feComposite id="feComposite2" in2="SourceGraphic" operator="in" result="result2"/>
      </filter>
    </g>
    <g id="acyl-drawing">
      <path id="path-main" d="M 24,2 C 11.738505,2.197766 2,11.914813 2,24 c 0,12.094314 9.905685,22 22,22 12.094314,-2e-6 22,-9.905684 22,-22 -2e-6,-12.094316 -9.905684,-22 -22,-22 z m 8.436314,12.669377 c 0.95393,0 1.711111,0.172899 2.474255,0.745257 1.526287,1.144716 1.740923,3.24336 0.596206,4.769648 L 25.192412,33.747967 c -0.572358,0.763144 -1.520325,1.341465 -2.474255,1.341464 -0.953929,0 -1.919782,-0.190785 -2.682927,-0.95393 l -7.422764,-7.452574 c -1.335501,-1.335502 -1.335501,-3.434147 0,-4.769648 0.763144,-0.572358 1.520325,-0.953929 2.474255,-0.953929 0.953929,0 1.901896,0.381571 2.474255,0.953929 0,0 3.052573,3.052575 4.769647,4.769648 2.098645,-2.671003 7.810298,-10.672087 7.810298,-10.672087 0.572358,-0.763143 1.341463,-1.150677 2.295393,-1.341463 z"/>
    </g>
  </defs>
  <g id="acyl-visual">
    <use id="visible1" transform="translate(24,24) scale(1.00) translate(-24,-24)" style="fill:url(#acyl-gradient);filter:url(#filter)" xlink:href="#acyl-drawing"/>
  </g>
</svg>
