<svg xmlns="http://www.w3.org/2000/svg" xmlns:xlink="http://www.w3.org/1999/xlink" width="48" height="48"  viewBox="0 0 12.7 12.7">
  <defs id="acyl-settings">
    <linearGradient id="acyl-gradient" x1="0%" x2="0%" y1="0%" y2="100%">
      <stop offset="0%" style="stop-color:#00FAFF;stop-opacity:1.000000"/>
      <stop offset="74%" style="stop-color:#000BFF;stop-opacity:1.000000"/>
    </linearGradient>
    <g id="acyl-filter">
      <filter id="filter">
        <feTurbulence id="feTurbulence1" type="turbulence" numOctaves="5.0" baseFrequency="0.40 0.40"/>
        <feDisplacementMap id="feDisplacementMap1" xChannelSelector="R"/>
        <feBlend id="feBlend1" in2="SourceGraphic" mode="screen"/>
        <feColorMatrix id="feColorMatrix1" values="1 0 0 -1 0 1 0 1 -1 0 1 0 0 -1 0 -0.8 -1 0 4 -2.5 "/>
        <feGaussianBlur id="feGaussianBlur1" stdDeviation="3.0"/>
        <feSpecularLighting id="feSpecularLighting1" surfaceScale="16.0" specularConstant="0.4" specularExponent="5">
          <feDistantLight id="feDistantLight1" azimuth="225" elevation="35"/>
        </feSpecularLighting>
        <feComposite id="feComposite1" in2="SourceGraphic" k2=" 0.4" k3=" 2.0" operator="arithmetic"/>
        <feComposite id="feComposite2" in2="SourceGraphic" operator="in" result="result2"/>
      </filter>
    </g>
    <g id="acyl-drawing" transform="translate(0,-284.29998)">
      <path d="m 0.52916667,290.64994 v -5.82078 H 6.35 12.170833 v 5.82078 5.82089 H 6.35 0.52916667 Z m 5.46703393,3.99818 v -0.3531 H 3.8144415 1.6326821 l -0.00457,0.3355 c -0.00251,0.1848 -8.467e-4,0.34541 0.0037,0.35751 0.00669,0.022 0.4273838,0.022 2.18634,0.022 l 2.1780515,-0.005 z m -1.5162181,-3.43641 c 0.4082703,-0.055 0.7775461,-0.2057 1.0997808,-0.4433 0.1318739,-0.099 0.4080136,-0.3575 0.4080136,-0.385 0,-0.022 -0.641071,-0.6655 -0.662021,-0.6655 -0.00754,0 -0.065738,0.044 -0.1293235,0.099 -0.3378457,0.2904 -0.657623,0.4279 -1.0450396,0.4499 -0.403937,0.022 -0.7522567,-0.099 -1.0292077,-0.3597 -0.1439717,-0.1353 -0.2144371,-0.2299 -0.3026365,-0.4059 -0.3193838,-0.6358 -0.1610177,-1.46939 0.3616322,-1.90246 0.1378374,-0.1144 0.3705691,-0.2343 0.540599,-0.2783 0.1779459,-0.044 0.5418397,-0.044 0.7328692,0.009 0.2513183,0.066 0.5859094,0.2519 0.7673665,0.4235 0.02824,0.022 0.060193,0.044 0.071007,0.044 0.031521,0 0.6634971,-0.7392 0.6576879,-0.7689 -0.00736,-0.033 -0.2496531,-0.2442 -0.4093942,-0.3487 -0.4504491,-0.2937 -0.9068061,-0.407 -1.5639496,-0.3905 -0.3446759,0.009 -0.5880394,0.055 -0.8544264,0.1551 -0.5668386,0.2178 -1.0425181,0.6446 -1.3090865,1.17634 -0.3204874,0.6391 -0.3565237,1.4233 -0.096277,2.09551 0.1572574,0.4059 0.4691729,0.8118 0.8143068,1.0604 0.3411828,0.2453 0.7615916,0.4037 1.1814719,0.4477 0.1700125,0.022 0.580549,0.008 0.7666265,-0.022 z m 5.3882429,-0.033 c 0.026052,-0.022 0.028362,-0.066 0.024282,-0.4411 l -0.00449,-0.4202 -1.0445492,-0.009 c -0.5745025,-0.005 -1.0464444,-0.0104 -1.0487608,-0.011 -0.00233,-0.002 -0.00422,-0.8767 -0.00422,-1.94294 0,-1.74042 -0.00271,-1.94183 -0.026474,-1.96548 -0.022823,-0.022 -0.092354,-0.022 -0.504049,-0.022 -0.2626661,0 -0.4895664,0.005 -0.5042235,0.0102 -0.024128,0.009 -0.026649,0.2365 -0.026649,2.40923 0,1.90344 0.00435,2.40075 0.02106,2.40746 0.011583,0.005 0.7114138,0.009 1.5551794,0.01 1.2024158,8.8e-4 1.5403468,-0.003 1.5629169,-0.022 z"/>
    </g>
  </defs>
  <g id="acyl-visual">
    <use id="visible1" transform="translate(24,24) scale(1.00) translate(-24,-24)" style="fill:url(#acyl-gradient);filter:url(#filter)" xlink:href="#acyl-drawing"/>
  </g>
</svg>
