<svg xmlns="http://www.w3.org/2000/svg" xmlns:xlink="http://www.w3.org/1999/xlink" width="48" height="48">
  <defs id="acyl-settings">
    <linearGradient id="acyl-gradient" x1="0%" x2="0%" y1="0%" y2="100%">
      <stop offset="0%" style="stop-color:#00FAFF;stop-opacity:1.000000"/>
      <stop offset="74%" style="stop-color:#000BFF;stop-opacity:1.000000"/>
    </linearGradient>
    <g id="acyl-filter">
      <filter id="filter">
        <feTurbulence id="feTurbulence1" type="turbulence" numOctaves="5.0" baseFrequency="0.40 0.40"/>
        <feDisplacementMap id="feDisplacementMap1" xChannelSelector="R"/>
        <feBlend id="feBlend1" in2="SourceGraphic" mode="screen"/>
        <feColorMatrix id="feColorMatrix1" values="1 0 0 -1 0 1 0 1 -1 0 1 0 0 -1 0 -0.8 -1 0 4 -2.5 "/>
        <feGaussianBlur id="feGaussianBlur1" stdDeviation="3.0"/>
        <feSpecularLighting id="feSpecularLighting1" surfaceScale="16.0" specularConstant="0.4" specularExponent="5">
          <feDistantLight id="feDistantLight1" azimuth="225" elevation="35"/>
        </feSpecularLighting>
        <feComposite id="feComposite1" in2="SourceGraphic" k2=" 0.4" k3=" 2.0" operator="arithmetic"/>
        <feComposite id="feComposite2" in2="SourceGraphic" operator="in" result="result2"/>
      </filter>
    </g>
    <g id="acyl-drawing">
      <path d="m 23.977418,2 c -3.313059,0 -5.997175,2.699653 -5.997175,6.012712 0,1.128747 0.312429,2.174553 0.85452,3.076271 -2.767278,1.560836 -6.521948,5.105833 -6.680791,8.918079 -0.181783,4.362781 2.9e-5,10.182717 -1.817797,13.454802 C 8.51835,36.73395 4.339,36.367232 4.339,36.367232 l 0,5.810738 15.474576,0 C 19.950043,44.31345 21.714257,46 23.884198,46 c 2.16994,0 3.934155,-1.68655 4.070621,-3.82203 l 14.930794,0 0,-5.810738 c 0,0 -4.194889,0.366718 -6.012715,-2.905368 C 35.055073,30.189779 35.236884,24.369843 35.055102,20.007062 34.906284,16.435434 31.596137,13.105456 28.902559,11.415254 29.576138,10.445458 29.974593,9.282937 29.974593,8.012712 29.974593,4.699653 27.290477,2 23.977418,2 z m -0.279661,4.909605 c 0.953759,0 1.724576,0.700308 1.724576,1.553672 0,0.853364 -0.770817,1.538135 -1.724576,1.538135 -0.953759,0 -1.724576,-0.684771 -1.724576,-1.538135 0,-0.853364 0.770817,-1.553672 1.724576,-1.553672 z" id="path-main"/>
    </g>
  </defs>
  <g id="acyl-visual">
    <use id="visible1" transform="translate(24,24) scale(1.00) translate(-24,-24)" style="fill:url(#acyl-gradient);filter:url(#filter)" xlink:href="#acyl-drawing"/>
  </g>
</svg>
