<svg xmlns="http://www.w3.org/2000/svg" xmlns:xlink="http://www.w3.org/1999/xlink" width="48" height="48" viewBox="0 0 12.7 12.7">
  <defs id="acyl-settings">
    <linearGradient id="acyl-gradient" x1="0%" x2="0%" y1="0%" y2="100%">
      <stop offset="0%" style="stop-color:#00FAFF;stop-opacity:1.000000"/>
      <stop offset="74%" style="stop-color:#000BFF;stop-opacity:1.000000"/>
    </linearGradient>
    <g id="acyl-filter">
      <filter id="filter">
        <feTurbulence id="feTurbulence1" type="turbulence" numOctaves="5.0" baseFrequency="0.40 0.40"/>
        <feDisplacementMap id="feDisplacementMap1" xChannelSelector="R"/>
        <feBlend id="feBlend1" in2="SourceGraphic" mode="screen"/>
        <feColorMatrix id="feColorMatrix1" values="1 0 0 -1 0 1 0 1 -1 0 1 0 0 -1 0 -0.8 -1 0 4 -2.5 "/>
        <feGaussianBlur id="feGaussianBlur1" stdDeviation="3.0"/>
        <feSpecularLighting id="feSpecularLighting1" surfaceScale="16.0" specularConstant="0.4" specularExponent="5">
          <feDistantLight id="feDistantLight1" azimuth="225" elevation="35"/>
        </feSpecularLighting>
        <feComposite id="feComposite1" in2="SourceGraphic" k2=" 0.4" k3=" 2.0" operator="arithmetic"/>
        <feComposite id="feComposite2" in2="SourceGraphic" operator="in" result="result2"/>
      </filter>
    </g>
    <g id="acyl-drawing" transform="translate(0,-284.29998)">
      <path d="m 0.52916667,290.64981 v -5.821 H 6.3499667 12.170868 v 5.821 5.821 H 6.3499667 0.52916667 Z m 5.43820003,4.344 c 0.037,-0.04 0.034,-0.658 0,-0.689 -0.02,-0.02 -0.6077,-0.02 -2.1841,-0.02 h -2.1563 l -0.01,0.337 c 0,0.185 0,0.348 0,0.363 0.014,0.04 4.3076,0.04 4.3448,0 z m 3.3192,-3.782 c 0.5493,-0.07 1.0582013,-0.269 1.4831013,-0.588 l 0.1739,-0.13 -0.01,-1.058 -0.01,-1.057 H 9.9029667 c -0.7367,0 -1.0284,0 -1.0486,0.02 -0.022,0.02 -0.028,0.112 -0.028,0.435 2e-4,0.226 0.01,0.423 0.016,0.437 0.012,0.02 0.1514,0.03 0.5367,0.03 h 0.5208 l 0.01,0.335 c 0,0.284 6e-4,0.341 -0.027,0.372 -0.055,0.06 -0.3258,0.181 -0.5147,0.228 -0.2325,0.06 -0.6253,0.06 -0.8244,0.01 -0.5106,-0.135 -0.8857,-0.518 -1.026,-1.047 -0.061,-0.232 -0.062,-0.651 0,-0.873 0.1357,-0.496 0.4705,-0.868 0.9228,-1.024 0.1189,-0.04 0.1745,-0.05 0.4527,-0.05 0.2661,0 0.3428,0 0.4767,0.05 0.1995,0.06 0.3493,0.132 0.5482,0.275 0.085,0.06 0.1654013,0.118 0.1776013,0.125 0.03,0.02 0.6804,-0.759 0.6661,-0.797 -0.015,-0.04 -0.2829,-0.238 -0.4511,-0.335 -0.194,-0.112 -0.4722013,-0.215 -0.7232013,-0.269 -0.2921,-0.06 -0.962,-0.07 -1.2221,-0.01 -0.4908,0.108 -0.8999,0.322 -1.243,0.651 -0.7048,0.676 -0.9448,1.711 -0.622,2.682 0.326,0.98 1.2361,1.6 2.3626,1.609 0.1354,0 0.3241,0 0.4195,-0.02 z m -5.0644,-0.119 c 0.5543,-0.133 0.9399,-0.342 1.2818,-0.693 0.4134,-0.425 0.6278,-0.918 0.6651,-1.528 0.052,-0.85 -0.3378,-1.644 -1.0364,-2.11 -0.2218,-0.148 -0.3868,-0.226 -0.6605,-0.314 -0.3602,-0.115 -0.5216,-0.127 -1.6924,-0.121 h -1.0537 l -0.01,2.384 c 0,1.311 -6e-4,2.395 0,2.41 0.01,0.02 0.2223,0.03 1.1613,0.02 1.0946,0 1.16,-0.01 1.3351,-0.05 z m -1.4373,-0.906 c -0.039,-0.04 -0.037,-2.817 0,-2.871 0.026,-0.03 0.06,-0.04 0.5371,-0.03 0.4279,0 0.5354,0.02 0.6691,0.05 0.4026,0.107 0.715,0.357 0.8826,0.704 0.1119,0.232 0.155,0.434 0.155,0.727 0,0.426 -0.1225,0.739 -0.3988,1.019 -0.1326,0.135 -0.197,0.182 -0.3378,0.25 -0.2962,0.141 -0.3551,0.151 -0.9514,0.161 -0.4148,0 -0.5376,0 -0.5575,-0.02 z"/>
    </g>
  </defs>
  <g id="acyl-visual">
    <use id="visible1" transform="translate(24,24) scale(1.00) translate(-24,-24)" style="fill:url(#acyl-gradient);filter:url(#filter)" xlink:href="#acyl-drawing"/>
  </g>
</svg>
