<svg xmlns="http://www.w3.org/2000/svg" xmlns:xlink="http://www.w3.org/1999/xlink" width="48" height="48">
  <defs id="acyl-settings">
    <linearGradient id="acyl-gradient" x1="0%" x2="0%" y1="0%" y2="100%">
      <stop offset="0%" style="stop-color:#00FAFF;stop-opacity:1.000000"/>
      <stop offset="74%" style="stop-color:#000BFF;stop-opacity:1.000000"/>
    </linearGradient>
    <g id="acyl-filter">
      <filter id="filter">
        <feTurbulence id="feTurbulence1" type="turbulence" numOctaves="5.0" baseFrequency="0.40 0.40"/>
        <feDisplacementMap id="feDisplacementMap1" xChannelSelector="R"/>
        <feBlend id="feBlend1" in2="SourceGraphic" mode="screen"/>
        <feColorMatrix id="feColorMatrix1" values="1 0 0 -1 0 1 0 1 -1 0 1 0 0 -1 0 -0.8 -1 0 4 -2.5 "/>
        <feGaussianBlur id="feGaussianBlur1" stdDeviation="3.0"/>
        <feSpecularLighting id="feSpecularLighting1" surfaceScale="16.0" specularConstant="0.4" specularExponent="5">
          <feDistantLight id="feDistantLight1" azimuth="225" elevation="35"/>
        </feSpecularLighting>
        <feComposite id="feComposite1" in2="SourceGraphic" k2=" 0.4" k3=" 2.0" operator="arithmetic"/>
        <feComposite id="feComposite2" in2="SourceGraphic" operator="in" result="result2"/>
      </filter>
    </g>
    <g id="acyl-drawing">
      <path d="M 6.5625 4.5 L 6.5625 8.15625 L 2 8.15625 L 2 13.59375 L 6.5625 13.59375 L 6.5625 15 L 8.46875 15 L 8.46875 35.8125 L 2.1875 35.8125 L 2.1875 41.0625 L 8.0625 41.0625 L 11.28125 45.96875 L 14.71875 41.0625 L 30 41.0625 C 52.041582 38.671742 50.642118 10.19714 30 8.15625 L 15.875 8.15625 L 15.875 4.5 L 6.5625 4.5 z M 15.875 13.59375 L 29.28125 13.59375 C 44.325503 14.526725 43.975639 35.229386 29.28125 35.8125 L 13.71875 35.8125 L 13.71875 15 L 15.875 15 L 15.875 13.59375 z M 25.28125 14.46875 L 16.5625 31.4375 L 34.40625 31.4375 L 25.28125 14.46875 z M 25.46875 21.90625 L 28.78125 28 L 22.3125 28 L 25.46875 21.90625 z " id="path-main"/>
    </g>
  </defs>
  <g id="acyl-visual">
    <use id="visible1" transform="translate(24,24) scale(1.00) translate(-24,-24)" style="fill:url(#acyl-gradient);filter:url(#filter)" xlink:href="#acyl-drawing"/>
  </g>
</svg>
