<svg xmlns="http://www.w3.org/2000/svg" xmlns:xlink="http://www.w3.org/1999/xlink" width="48" height="48">
  <defs id="acyl-settings">
    <linearGradient id="acyl-gradient" x1="0%" x2="0%" y1="0%" y2="100%">
      <stop offset="0%" style="stop-color:#00FAFF;stop-opacity:1.000000"/>
      <stop offset="74%" style="stop-color:#000BFF;stop-opacity:1.000000"/>
    </linearGradient>
    <g id="acyl-filter">
      <filter id="filter">
        <feTurbulence id="feTurbulence1" type="turbulence" numOctaves="5.0" baseFrequency="0.40 0.40"/>
        <feDisplacementMap id="feDisplacementMap1" xChannelSelector="R"/>
        <feBlend id="feBlend1" in2="SourceGraphic" mode="screen"/>
        <feColorMatrix id="feColorMatrix1" values="1 0 0 -1 0 1 0 1 -1 0 1 0 0 -1 0 -0.8 -1 0 4 -2.5 "/>
        <feGaussianBlur id="feGaussianBlur1" stdDeviation="3.0"/>
        <feSpecularLighting id="feSpecularLighting1" surfaceScale="16.0" specularConstant="0.4" specularExponent="5">
          <feDistantLight id="feDistantLight1" azimuth="225" elevation="35"/>
        </feSpecularLighting>
        <feComposite id="feComposite1" in2="SourceGraphic" k2=" 0.4" k3=" 2.0" operator="arithmetic"/>
        <feComposite id="feComposite2" in2="SourceGraphic" operator="in" result="result2"/>
      </filter>
    </g>
    <g id="acyl-drawing">
      <path d="M 3.78796,2 A 1.13502,1.13502 0 0 0 2.65301,3.13495 l 0,41.73015 A 1.13502,1.13502 0 0 0 3.78796,46 l 40.42414,0 a 1.13502,1.13502 0 0 0 1.1349,-1.1349 l 0,-41.73015 A 1.13502,1.13502 0 0 0 44.2121,2 L 3.78796,2 Z m 1.13494,2.26989 38.1542,0 0,39.46021 -38.1542,0 0,-39.46021 z m 2.27615,2.50146 0,4.41045 17.68355,0 0,-4.41045 -17.68355,0 z M 35.75,9.25404 35.75,22.0722 41.091,15.6631 35.75,9.25404 Z M 7.19905,13.458 l 0,4.4104 24.94375,0 0,-4.4104 -24.94375,0 z m 0,6.6886 0,4.4083 20.11405,0 0,-4.4083 -20.11405,0 z m 5.34715,8.3264 -5.34089,6.4091 5.34089,6.4091 0,-12.8182 z m 3.8993,0.8616 0,4.4084 24.3909,0 0,-4.4084 -24.3909,0 z m 2.9751,6.6866 0,4.4084 21.4158,0 0,-4.4084 -21.4158,0 z" id="path-main"/>
    </g>
  </defs>
  <g id="acyl-visual">
    <use id="visible1" transform="translate(24,24) scale(1.00) translate(-24,-24)" style="fill:url(#acyl-gradient);filter:url(#filter)" xlink:href="#acyl-drawing"/>
  </g>
</svg>
