<svg xmlns="http://www.w3.org/2000/svg" xmlns:xlink="http://www.w3.org/1999/xlink" width="48" height="48">
  <defs id="acyl-settings">
    <linearGradient id="acyl-gradient" x1="0%" x2="0%" y1="0%" y2="100%">
      <stop offset="0%" style="stop-color:#00FAFF;stop-opacity:1.000000"/>
      <stop offset="74%" style="stop-color:#000BFF;stop-opacity:1.000000"/>
    </linearGradient>
    <g id="acyl-filter">
      <filter id="filter">
        <feTurbulence id="feTurbulence1" type="turbulence" numOctaves="5.0" baseFrequency="0.40 0.40"/>
        <feDisplacementMap id="feDisplacementMap1" xChannelSelector="R"/>
        <feBlend id="feBlend1" in2="SourceGraphic" mode="screen"/>
        <feColorMatrix id="feColorMatrix1" values="1 0 0 -1 0 1 0 1 -1 0 1 0 0 -1 0 -0.8 -1 0 4 -2.5 "/>
        <feGaussianBlur id="feGaussianBlur1" stdDeviation="3.0"/>
        <feSpecularLighting id="feSpecularLighting1" surfaceScale="16.0" specularConstant="0.4" specularExponent="5">
          <feDistantLight id="feDistantLight1" azimuth="225" elevation="35"/>
        </feSpecularLighting>
        <feComposite id="feComposite1" in2="SourceGraphic" k2=" 0.4" k3=" 2.0" operator="arithmetic"/>
        <feComposite id="feComposite2" in2="SourceGraphic" operator="in" result="result2"/>
      </filter>
    </g>
    <g id="acyl-drawing">
      <path d="m 7.5181982,8.5791234 c -1.017197,0 -1.666181,0.833327 -1.836213,1.8362116 l -3.672425,18.053874 c -0.114597,1.010736 0.819016,1.836212 1.836213,1.836212 l 40.3085378,0 c 1.017199,0 1.950252,-0.825413 1.836213,-1.836212 L 42.318099,10.415335 C 42.161321,9.4102934 41.499081,8.5791234 40.481885,8.5791234 z M 3.8457732,32.161391 c -1.017212,0 -1.836213,0.819001 -1.836213,1.836213 l 0,3.731183 c 0,1.017214 0.819001,1.836213 1.836213,1.836213 l 40.3085378,0 c 1.017214,0 1.836213,-0.818999 1.836213,-1.836213 l 0,-3.731183 c 0,-1.017212 -0.818999,-1.836213 -1.836213,-1.836213 z m 1.792143,2.218145 4.4950488,0 c 0.339493,0 0.616967,0.262784 0.616967,0.602278 l 0,1.748074 c 0,0.339494 -0.277474,0.616967 -0.616967,0.616967 l -4.4950488,0 c -0.339493,0 -0.616967,-0.277473 -0.616967,-0.616967 l 0,-1.748074 c 0,-0.339494 0.277474,-0.602278 0.616967,-0.602278 z" id="path-main"/>
    </g>
  </defs>
  <g id="acyl-visual">
    <use id="visible1" transform="translate(24,24) scale(1.00) translate(-24,-24)" style="fill:url(#acyl-gradient);filter:url(#filter)" xlink:href="#acyl-drawing"/>
  </g>
</svg>
