<svg xmlns="http://www.w3.org/2000/svg" xmlns:xlink="http://www.w3.org/1999/xlink" width="48" height="48">
  <defs id="acyl-settings">
    <linearGradient id="acyl-gradient" x1="0%" x2="0%" y1="0%" y2="100%">
      <stop offset="0%" style="stop-color:#00FAFF;stop-opacity:1.000000"/>
      <stop offset="74%" style="stop-color:#000BFF;stop-opacity:1.000000"/>
    </linearGradient>
    <g id="acyl-filter">
      <filter id="filter">
        <feTurbulence id="feTurbulence1" type="turbulence" numOctaves="5.0" baseFrequency="0.40 0.40"/>
        <feDisplacementMap id="feDisplacementMap1" xChannelSelector="R"/>
        <feBlend id="feBlend1" in2="SourceGraphic" mode="screen"/>
        <feColorMatrix id="feColorMatrix1" values="1 0 0 -1 0 1 0 1 -1 0 1 0 0 -1 0 -0.8 -1 0 4 -2.5 "/>
        <feGaussianBlur id="feGaussianBlur1" stdDeviation="3.0"/>
        <feSpecularLighting id="feSpecularLighting1" surfaceScale="16.0" specularConstant="0.4" specularExponent="5">
          <feDistantLight id="feDistantLight1" azimuth="225" elevation="35"/>
        </feSpecularLighting>
        <feComposite id="feComposite1" in2="SourceGraphic" k2=" 0.4" k3=" 2.0" operator="arithmetic"/>
        <feComposite id="feComposite2" in2="SourceGraphic" operator="in" result="result2"/>
      </filter>
    </g>
    <g id="acyl-drawing">
      <path d="m 8.086,2 c 0,0 -1.026,0 -1.026,0.978 l 0,42.042 C 7.06,46 8.086,46 8.086,46 l 31.828,0 c 0,0 1.026,0 1.026,-0.978 l 0,-33.022 -8.47,0 c 0,0 -2.118,0 -2.118,-2 l 0,-8 -22.266,0 z m 24.386,0.734 0,7.266 7.63,0 -7.63,-7.266 z M 13.414,8 26.12,8 l 0,2 -12.706,0 0,-2 z m 0,6 12.706,0 0,2 -12.706,0 0,-2 z m 0,6 21.176,0 0,2 -21.176,0 0,-2 z m 0,6 21.176,0 0,2 -21.176,0 0,-2 z m 0,6 21.176,0 0,2 -21.176,0 0,-2 z m 0,6 21.176,0 0,2 -21.176,0 0,-2 z" id="path-main"/>
    </g>
  </defs>
  <g id="acyl-visual">
    <use id="visible1" transform="translate(24,24) scale(1.00) translate(-24,-24)" style="fill:url(#acyl-gradient);filter:url(#filter)" xlink:href="#acyl-drawing"/>
  </g>
</svg>
