<?xml version="1.0" encoding="UTF-8" standalone="no"?>
<!-- Created with Inkscape (http://www.inkscape.org/) -->

<svg
   width="48"
   height="48"
   viewBox="0 0 12.699998 12.699998"
   version="1.1"
   id="svg8"
   sodipodi:docname="drawing.svg">
  <defs
     id="defs2" />
  <g
     id="layer1"
     transform="translate(0,-284.30002)">
    <path
       style="fill:#121212;stroke-width:0.21037979"
       d="m 0.59065064,296.242 c -0.05692,-0.14831 -0.0782,-2.77686 -0.04729,-5.84123 l 0.05618,-5.57158 H 6.3851866 12.170833 v 5.78525 5.78523 l -5.7383514,0.056 c -4.513325,0.044 -5.76044196,-0.002 -5.84183296,-0.21367 z m 5.26856896,-1.63049 c 0,-0.25832 -0.362013,-0.31556 -1.995796,-0.31556 -1.749308,0 -2.00474,0.0465 -2.068208,0.37598 -0.06619,0.34367 0.10527,0.37078 1.995797,0.31555 1.671295,-0.0488 2.068207,-0.12097 2.068207,-0.37597 z m 2.465391,-3.93347 c 0.335989,-0.30403 0.380971,-0.6269 0.329386,-2.36419 -0.05499,-1.85189 -0.09324,-2.01205 -0.480518,-2.01205 -0.380494,0 -0.426746,0.16104 -0.483154,1.68224 -0.03431,0.92523 -0.153042,1.7729 -0.263849,1.8837 -0.110808,0.1108 -0.53244,0.17917 -0.936959,0.15193 -0.618785,-0.0417 -0.735491,0.0193 -0.735491,0.38458 0,0.85029 1.729912,1.03454 2.570585,0.27379 z m -3.62252,0.0673 c 0,-0.15939 -0.142012,-0.40765 -0.31558,-0.55169 -0.446671,-0.37068 -0.428642,-2.4716 0.02551,-2.97341 0.506883,-0.56006 0.220263,-1.02367 -0.632868,-1.02367 -0.399163,0 -0.875505,0.0575 -1.058539,0.1277 -0.421375,0.16168 -0.431596,0.63086 -0.01721,0.78987 0.235092,0.0902 0.315581,0.46497 0.315581,1.46935 0,0.94181 -0.09514,1.42721 -0.315581,1.61016 -0.660359,0.54801 -0.366859,0.84149 0.841549,0.84149 0.842589,0 1.157128,-0.0788 1.157128,-0.2898 z"
       id="acyl-drawing" />
  </g>
</svg>
