<svg xmlns="http://www.w3.org/2000/svg" xmlns:xlink="http://www.w3.org/1999/xlink" width="48" height="48">
  <defs id="acyl-settings">
    <linearGradient id="acyl-gradient" x1="0%" x2="0%" y1="0%" y2="100%">
      <stop offset="0%" style="stop-color:#00FAFF;stop-opacity:1.000000"/>
      <stop offset="74%" style="stop-color:#000BFF;stop-opacity:1.000000"/>
    </linearGradient>
    <g id="acyl-filter">
      <filter id="filter">
        <feTurbulence id="feTurbulence1" type="turbulence" numOctaves="5.0" baseFrequency="0.40 0.40"/>
        <feDisplacementMap id="feDisplacementMap1" xChannelSelector="R"/>
        <feBlend id="feBlend1" in2="SourceGraphic" mode="screen"/>
        <feColorMatrix id="feColorMatrix1" values="1 0 0 -1 0 1 0 1 -1 0 1 0 0 -1 0 -0.8 -1 0 4 -2.5 "/>
        <feGaussianBlur id="feGaussianBlur1" stdDeviation="3.0"/>
        <feSpecularLighting id="feSpecularLighting1" surfaceScale="16.0" specularConstant="0.4" specularExponent="5">
          <feDistantLight id="feDistantLight1" azimuth="225" elevation="35"/>
        </feSpecularLighting>
        <feComposite id="feComposite1" in2="SourceGraphic" k2=" 0.4" k3=" 2.0" operator="arithmetic"/>
        <feComposite id="feComposite2" in2="SourceGraphic" operator="in" result="result2"/>
      </filter>
    </g>
    <g id="acyl-drawing">
      <path d="m 32.473598,3.6188571 -8.010992,7.5012609 12.366266,7.343576 8.823375,-6.96063 L 32.473598,3.6188571 z M 15.097645,4.0018042 2.4605841,11.931063 10.62954,18.48622 22.747577,10.804748 15.097645,4.0018042 z M 11.035732,19.004325 2.3477532,26.212743 15.639231,34.637581 23.401997,27.001163 11.035732,19.004325 z m 26.063935,0.382947 -12.253434,7.74905 8.304353,7.501259 12.501661,-8.289681 -8.55258,-6.960628 z M 24.598003,29.59662 24.32721,43.923351 36.828872,35.768828 36.693474,34.59746 32.879792,37.345669 24.598003,29.59662 z m -1.331402,0.518105 -7.514538,7.636418 -4.851728,-3.671789 -0.135398,2.094948 12.388831,7.50126 0.112833,-13.560837 z" id="path-main"/>
    </g>
  </defs>
  <g id="acyl-visual">
    <use id="visible1" transform="translate(24,24) scale(1.00) translate(-24,-24)" style="fill:url(#acyl-gradient);filter:url(#filter)" xlink:href="#acyl-drawing"/>
  </g>
</svg>
