<svg xmlns="http://www.w3.org/2000/svg" xmlns:xlink="http://www.w3.org/1999/xlink" width="48" height="48">
  <defs id="acyl-settings">
    <linearGradient id="acyl-gradient" x1="0%" x2="0%" y1="0%" y2="100%">
      <stop offset="0%" style="stop-color:#00FAFF;stop-opacity:1.000000"/>
      <stop offset="74%" style="stop-color:#000BFF;stop-opacity:1.000000"/>
    </linearGradient>
    <g id="acyl-filter">
      <filter id="filter">
        <feTurbulence id="feTurbulence1" type="turbulence" numOctaves="5.0" baseFrequency="0.40 0.40"/>
        <feDisplacementMap id="feDisplacementMap1" xChannelSelector="R"/>
        <feBlend id="feBlend1" in2="SourceGraphic" mode="screen"/>
        <feColorMatrix id="feColorMatrix1" values="1 0 0 -1 0 1 0 1 -1 0 1 0 0 -1 0 -0.8 -1 0 4 -2.5 "/>
        <feGaussianBlur id="feGaussianBlur1" stdDeviation="3.0"/>
        <feSpecularLighting id="feSpecularLighting1" surfaceScale="16.0" specularConstant="0.4" specularExponent="5">
          <feDistantLight id="feDistantLight1" azimuth="225" elevation="35"/>
        </feSpecularLighting>
        <feComposite id="feComposite1" in2="SourceGraphic" k2=" 0.4" k3=" 2.0" operator="arithmetic"/>
        <feComposite id="feComposite2" in2="SourceGraphic" operator="in" result="result2"/>
      </filter>
    </g>
    <g id="acyl-drawing">
      <path d="M 24.630198,2.0082234 A 21.999623,22.01207 0 0 0 2.114959,22.071308 l 43.770082,0 A 21.999623,22.01207 0 0 0 24.630198,2.0082234 z m -7.218627,3.8119859 c 0.763306,-0.00144 1.38493,0.2141954 1.747366,0.6878772 0.966497,1.2631512 -0.270844,3.8265415 -2.749953,5.7036485 -2.479108,1.877108 -5.278188,2.380952 -6.244684,1.1178 -0.9664963,-1.263151 0.270844,-3.8265404 2.749953,-5.7036481 1.549442,-1.1731921 3.225143,-1.8032706 4.497318,-1.8056776 z M 2.0003777,23.762339 a 21.999623,22.01207 0 0 0 0,0.257954 21.999623,22.01207 0 0 0 0.085936,1.633708 l 43.8273723,0 a 21.999623,22.01207 0 0 0 0.08594,-1.633708 21.999623,22.01207 0 0 0 0,-0.257954 l -43.9992443,0 z m 0.2864534,3.582694 a 21.999623,22.01207 0 0 0 0.3437441,1.948985 l 42.7102048,0 a 21.999623,22.01207 0 0 0 0.401034,-1.948985 l -43.4549829,0 z m 0.8307149,3.611355 a 21.999623,22.01207 0 0 0 41.736263,0 l -41.736263,0 z" id="path-main"/>
    </g>
  </defs>
  <g id="acyl-visual">
    <use id="visible1" transform="translate(24,24) scale(1.00) translate(-24,-24)" style="fill:url(#acyl-gradient);filter:url(#filter)" xlink:href="#acyl-drawing"/>
  </g>
</svg>
