<svg xmlns="http://www.w3.org/2000/svg" xmlns:xlink="http://www.w3.org/1999/xlink" width="48" height="48" viewBox="0 0 12.7 12.7">
  <defs id="acyl-settings">
    <linearGradient id="acyl-gradient" x1="0%" x2="0%" y1="0%" y2="100%">
      <stop offset="0%" style="stop-color:#00FAFF;stop-opacity:1.000000"/>
      <stop offset="74%" style="stop-color:#000BFF;stop-opacity:1.000000"/>
    </linearGradient>
    <g id="acyl-filter">
      <filter id="filter">
        <feTurbulence id="feTurbulence1" type="turbulence" numOctaves="5.0" baseFrequency="0.40 0.40"/>
        <feDisplacementMap id="feDisplacementMap1" xChannelSelector="R"/>
        <feBlend id="feBlend1" in2="SourceGraphic" mode="screen"/>
        <feColorMatrix id="feColorMatrix1" values="1 0 0 -1 0 1 0 1 -1 0 1 0 0 -1 0 -0.8 -1 0 4 -2.5 "/>
        <feGaussianBlur id="feGaussianBlur1" stdDeviation="3.0"/>
        <feSpecularLighting id="feSpecularLighting1" surfaceScale="16.0" specularConstant="0.4" specularExponent="5">
          <feDistantLight id="feDistantLight1" azimuth="225" elevation="35"/>
        </feSpecularLighting>
        <feComposite id="feComposite1" in2="SourceGraphic" k2=" 0.4" k3=" 2.0" operator="arithmetic"/>
        <feComposite id="feComposite2" in2="SourceGraphic" operator="in" result="result2"/>
      </filter>
    </g>
    <g id="acyl-drawing" transform="translate(0,-284.29998)">
      <path d="m 6.1738183,296.46217 c -0.950341,-0.0965 -1.794239,-0.89848 -2.349366,-2.2327 -0.09643,-0.23178 -0.08559,-0.33772 0.04382,-0.4283 0.06689,-0.0468 0.174456,-0.0627 0.25645,-0.0379 0.0879,0.0266 0.152827,0.10074 0.207302,0.23666 0.245216,0.61182 0.590419,1.14548 0.957353,1.47997 0.233698,0.21304 0.479843,0.35556 0.743367,0.43039 0.159653,0.0453 0.458102,0.0489 0.62078,0.007 0.431912,-0.11008 0.83676,-0.42546 1.199243,-0.93418 0.122095,-0.17135 0.180193,-0.22372 0.264249,-0.23819 0.160406,-0.0276 0.298299,0.0538 0.333948,0.19726 0.02044,0.0822 -0.0017,0.14463 -0.104837,0.29535 -0.584179,0.85381 -1.383502,1.30426 -2.172309,1.22416 z m 2.529909,-1.7984 c -1.040847,-0.0846 -2.139668,-0.38832 -3.25909,-0.90064 -1.127174,-0.51587 -2.081135,-1.14048 -2.902945,-1.90071 -0.339266,-0.31385 -0.378008,-0.38374 -0.297401,-0.53653 0.05993,-0.11359 0.219481,-0.16986 0.351275,-0.12387 0.02452,0.009 0.177538,0.13859 0.340041,0.28898 0.724511,0.67049 1.600682,1.2568 2.580418,1.72671 1.027689,0.49293 2.145204,0.8228 3.10104,0.91538 0.353549,0.0342 0.942768,0.0233 1.205699,-0.0225 0.1871287,-0.0326 0.5141187,-0.12343 0.5636197,-0.15664 0.02368,-0.0159 0.02375,-0.0255 7.47e-4,-0.10649 -0.03324,-0.11711 -0.03271,-0.33911 0.0011,-0.44352 0.04699,-0.14527 0.120055,-0.25656 0.241397,-0.36774 0.227832,-0.20874 0.532138,-0.2897 0.839213,-0.22327 0.220911,0.0478 0.414763,0.17162 0.54204,0.34624 0.240705,0.33023 0.207142,0.74804 -0.08295,1.03259 -0.276212,0.27094 -0.646002,0.34534 -1.02485,0.20617 -0.08539,-0.0314 -0.112755,-0.0356 -0.14741,-0.0226 -0.02341,0.009 -0.116067,0.0442 -0.205917,0.0786 -0.197459,0.0757 -0.521478,0.15416 -0.7761417,0.18781 -0.22049,0.0291 -0.828097,0.0416 -1.069859,0.0219 z m 2.7487107,-0.76906 c 0.142099,-0.0904 0.19285,-0.27731 0.112972,-0.41614 -0.09982,-0.17349 -0.355813,-0.21951 -0.516984,-0.0929 -0.199087,0.15637 -0.161393,0.43125 0.07293,0.53187 0.09713,0.0417 0.245718,0.0315 0.331078,-0.0228 z m -10.1980617,0.55716 c -0.138673,-0.0239 -0.33647204,-0.1217 -0.44560104,-0.2203 -0.374519,-0.33836 -0.372601,-0.86325 0.0044,-1.20921 l 0.11783,-0.10811 0.0097,-0.20058 c 0.01157,-0.24021 0.05288,-0.43085 0.15229904,-0.70276 0.632819,-1.73077 3.089263,-3.62426 5.756575,-4.4373 0.442084,-0.13475 0.913446,-0.24399 1.016245,-0.23551 0.142535,0.0118 0.243004,0.11448 0.244144,0.24963 7.1e-4,0.0841 -0.0307,0.14725 -0.09984,0.20063 -0.05729,0.0442 -0.05125,0.0423 -0.28656,0.0926 -0.09884,0.0212 -0.293455,0.0696 -0.432491,0.10758 -2.331881,0.63772 -4.646286,2.23783 -5.481877,3.79 -0.179836,0.33406 -0.295122,0.67852 -0.305739,0.9135 l -0.004,0.089 0.05718,0.0129 c 0.17178,0.0388 0.283587,0.0778 0.369508,0.1289 0.488066,0.29004 0.558377,0.9195 0.145125,1.29923 -0.217121,0.19951 -0.511686,0.28235 -0.816855,0.22972 z m 0.327882,-0.53559 c 0.143912,-0.06 0.229762,-0.22777 0.187463,-0.3664 -0.0428,-0.14027 -0.17659,-0.23507 -0.33091,-0.23448 -0.217313,8.2e-4 -0.352581,0.14002 -0.336335,0.3461 0.01702,0.21595 0.261474,0.34576 0.479782,0.25478 z m 7.061523,0.043 c -0.03297,-0.016 -0.07641,-0.0503 -0.09653,-0.0762 -0.0625,-0.0805 -0.05937,-0.16201 0.01552,-0.40422 0.228038,-0.73753 0.337948,-1.46139 0.356044,-2.34483 0.01556,-0.75962 -0.03989,-1.38141 -0.184488,-2.06865 -0.21215,-1.00828 -0.615385,-1.90156 -1.114226,-2.46831 -0.119775,-0.13607 -0.384121,-0.36923 -0.462584,-0.40801 l -0.05548,-0.0274 -0.10835,0.0975 c -0.251811,0.22656 -0.609072,0.3024 -0.93388,0.19826 -0.147319,-0.0472 -0.251303,-0.11098 -0.368308,-0.22574 -0.338091,-0.33165 -0.32144,-0.84431 0.03796,-1.16864 0.216968,-0.1958 0.556547,-0.2795 0.849695,-0.20944 0.337962,0.0808 0.615099,0.35815 0.668444,0.66901 l 0.01828,0.10655 0.118421,0.0733 c 0.509259,0.31533 0.90274,0.7638 1.26231,1.43872 0.869857,1.63274 1.089476,4.10723 0.547293,6.16644 -0.07977,0.30297 -0.147541,0.50962 -0.185716,0.5663 -0.07169,0.10643 -0.239735,0.1458 -0.364408,0.0854 z m -2.142423,-8.0057 c 0.216007,-0.096 0.264259,-0.33871 0.09985,-0.50238 -0.214339,-0.21336 -0.584806,-0.0756 -0.584806,0.21745 0,0.0935 0.01652,0.13343 0.08453,0.20452 0.10402,0.1087 0.264267,0.14089 0.40042,0.0804 z m -0.341229,5.59372 c -0.199678,-0.0586 -0.336994,-0.16895 -0.42692,-0.34311 -0.04834,-0.0936 -0.0517,-0.1109 -0.0517,-0.26581 0,-0.16134 0.0016,-0.16865 0.06152,-0.27989 0.102573,-0.19044 0.278274,-0.30935 0.511185,-0.34596 0.403055,-0.0633 0.790577,0.2438 0.790577,0.62663 0,0.42075 -0.455687,0.734 -0.884666,0.60814 z m 4.1021997,-0.0659 c -0.102266,-0.0495 -0.148556,-0.1273 -0.141175,-0.23727 0.0049,-0.0735 0.01534,-0.0961 0.07827,-0.1706 0.444003,-0.52523 0.628813,-0.79459 0.799319,-1.16505 0.194569,-0.42275 0.259639,-0.82282 0.186601,-1.14727 -0.136298,-0.60549 -0.749261,-0.97318 -1.7301497,-1.03783 -0.334688,-0.0221 -0.344373,-0.024 -0.416638,-0.0839 -0.109412,-0.0907 -0.126246,-0.21962 -0.04363,-0.33417 0.06155,-0.0853 0.125174,-0.1062 0.323983,-0.1062 0.47996,0 0.9935977,0.10517 1.3941837,0.28546 0.716295,0.32238 1.105069,0.92447 1.064317,1.64828 -0.03803,0.67546 -0.389065,1.39616 -1.055585,2.16721 -0.186951,0.21626 -0.297371,0.25985 -0.459496,0.18137 z m -8.7164347,-0.83545 c -0.07854,-0.0357 -0.117733,-0.0857 -0.235242,-0.3005 -0.41823004,-0.76432 -0.49668204,-1.45353 -0.230054,-2.02101 0.251909,-0.53616 0.837017,-0.92424 1.603204,-1.06334 0.327075,-0.0594 0.455789,-0.0693 0.890329,-0.0685 0.341061,6.5e-4 0.477262,0.007 0.691312,0.0336 0.491404,0.0605 0.566536,0.0849 0.625305,0.20368 0.05685,0.11487 0.03172,0.22074 -0.07228,0.30453 -0.03259,0.0263 -0.08428,0.0521 -0.114848,0.0573 -0.03229,0.006 -0.184762,-0.008 -0.363832,-0.0329 -0.282845,-0.0389 -0.34661,-0.0424 -0.77383,-0.0426 -0.412375,-1.1e-4 -0.488681,0.004 -0.667685,0.0336 -0.470914,0.0786 -0.829898,0.23597 -1.073008,0.47049 -0.128637,0.12409 -0.20593,0.24375 -0.270306,0.4185 -0.04453,0.12088 -0.05332,0.16931 -0.06004,0.33107 -0.01469,0.35329 0.08437,0.70343 0.325296,1.14982 0.124309,0.23032 0.131813,0.24974 0.125132,0.32366 -0.0167,0.18482 -0.21595,0.28579 -0.399456,0.20245 z" id="path-main"/>
    </g>
  </defs>
  <g id="acyl-visual">
    <use id="visible1" transform="translate(24,24) scale(1.00) translate(-24,-24)" style="fill:url(#acyl-gradient);filter:url(#filter)" xlink:href="#acyl-drawing"/>
  </g>
</svg>
