<svg xmlns="http://www.w3.org/2000/svg" xmlns:xlink="http://www.w3.org/1999/xlink" width="48" height="48">
  <defs id="acyl-settings">
    <linearGradient id="acyl-gradient" x1="0%" x2="0%" y1="0%" y2="100%">
      <stop offset="0%" style="stop-color:#00FAFF;stop-opacity:1.000000"/>
      <stop offset="74%" style="stop-color:#000BFF;stop-opacity:1.000000"/>
    </linearGradient>
    <g id="acyl-filter">
      <filter id="filter">
        <feTurbulence id="feTurbulence1" type="turbulence" numOctaves="5.0" baseFrequency="0.40 0.40"/>
        <feDisplacementMap id="feDisplacementMap1" xChannelSelector="R"/>
        <feBlend id="feBlend1" in2="SourceGraphic" mode="screen"/>
        <feColorMatrix id="feColorMatrix1" values="1 0 0 -1 0 1 0 1 -1 0 1 0 0 -1 0 -0.8 -1 0 4 -2.5 "/>
        <feGaussianBlur id="feGaussianBlur1" stdDeviation="3.0"/>
        <feSpecularLighting id="feSpecularLighting1" surfaceScale="16.0" specularConstant="0.4" specularExponent="5">
          <feDistantLight id="feDistantLight1" azimuth="225" elevation="35"/>
        </feSpecularLighting>
        <feComposite id="feComposite1" in2="SourceGraphic" k2=" 0.4" k3=" 2.0" operator="arithmetic"/>
        <feComposite id="feComposite2" in2="SourceGraphic" operator="in" result="result2"/>
      </filter>
    </g>
    <g id="acyl-drawing">
      <path d="M 24.40625,4.75 L 24.625,6.15625 C 24.925965,8.0779937 25.530298,11.305956 25.59375,14.53125 C 25.657202,17.756544 25.157917,20.924752 23.46875,22.71875 C 22.013807,24.263988 18.714775,25.266664 15.03125,27.65625 C 11.347725,30.045836 7.3137824,35.221013 4.248367,42.7094 C 6.1023406,40.877994 8.2461926,39.380584 10.40625,37.9375 C 13.484191,36.000457 17.337657,34.27782 20.1875,34.8125 C 23.537189,35.440962 26.801424,38.22451 30.75,40.40625 C 34.698576,42.58799 39.390504,44.104926 45.5625,42.0625 L 46.65625,41.71875 L 45.65625,41.15625 C 43.405898,39.881969 40.226174,38.480203 37.53125,36.65625 C 34.836326,34.832297 32.67285,32.627587 32.34375,29.78125 C 31.709582,24.29643 34.463582,13.993861 25.4375,5.71875 L 24.40625,4.75 z" id="path-main"/>
    </g>
  </defs>
  <g id="acyl-visual">
    <use id="visible1" transform="translate(24,24) scale(1.00) translate(-24,-24)" style="fill:url(#acyl-gradient);filter:url(#filter)" xlink:href="#acyl-drawing"/>
  </g>
</svg>
