<svg xmlns="http://www.w3.org/2000/svg" xmlns:xlink="http://www.w3.org/1999/xlink" width="48" height="48">
  <defs id="acyl-settings">
    <linearGradient id="acyl-gradient" x1="0%" x2="0%" y1="0%" y2="100%">
      <stop offset="0%" style="stop-color:#00FAFF;stop-opacity:1.000000"/>
      <stop offset="74%" style="stop-color:#000BFF;stop-opacity:1.000000"/>
    </linearGradient>
    <g id="acyl-filter">
      <filter id="filter">
        <feTurbulence id="feTurbulence1" type="turbulence" numOctaves="5.0" baseFrequency="0.40 0.40"/>
        <feDisplacementMap id="feDisplacementMap1" xChannelSelector="R"/>
        <feBlend id="feBlend1" in2="SourceGraphic" mode="screen"/>
        <feColorMatrix id="feColorMatrix1" values="1 0 0 -1 0 1 0 1 -1 0 1 0 0 -1 0 -0.8 -1 0 4 -2.5 "/>
        <feGaussianBlur id="feGaussianBlur1" stdDeviation="3.0"/>
        <feSpecularLighting id="feSpecularLighting1" surfaceScale="16.0" specularConstant="0.4" specularExponent="5">
          <feDistantLight id="feDistantLight1" azimuth="225" elevation="35"/>
        </feSpecularLighting>
        <feComposite id="feComposite1" in2="SourceGraphic" k2=" 0.4" k3=" 2.0" operator="arithmetic"/>
        <feComposite id="feComposite2" in2="SourceGraphic" operator="in" result="result2"/>
      </filter>
    </g>
    <g id="acyl-drawing">
      <path id="path-main" d="M 24,2 C 11.855881,2 2,11.85588 2,24 2,36.144119 11.855881,46 24,46 36.144119,46 46,36.144119 46,24 46,11.85588 36.144119,1.9999991 24,2 z m 6.852481,5.1596753 c 6.075016,0.019784 6.862447,2.5933097 7.243038,4.3059957 0.477611,2.149255 -1.602984,3.819616 -3.752237,3.853734 -2.149254,0.03411 -2.185068,-1.158639 -8.871638,-1.226867 -6.68657,-0.06823 -1.773136,3.889554 -1.773136,3.889554 0,0 5.663543,4.332195 8.904473,6.856713 -4.093815,0.102346 -16.923234,-0.104051 -16.582088,4.023883 0.341156,4.127933 9.724523,4.298928 16.513439,6.755219 6.788906,2.45629 1.568865,3.51472 -3.411944,4.435823 -4.980809,0.921112 -15.794029,-1.570149 -15.794029,-1.570149 0,0 4.229849,0.0021 10.677609,-0.134329 6.44776,-0.136455 0.715137,-1.502774 -1.638808,-1.946266 C 20.013215,35.959484 7.6285717,31.62729 8.1403008,26.441789 c 0.51172,-5.185501 12.5897662,-5.014927 17.8776122,-3.820896 -3.036247,-1.637524 -8.3919,-5.459703 -9.961196,-8.802983 -1.569297,-3.343283 2.046055,-3.545841 3.922389,-3.477611 1.876334,0.06823 13.236676,2.284008 13.13433,0.44179 C 33.01109,8.939873 25.158208,8.077611 25.158208,8.077612 27.488054,7.7745673 29.303947,7.1546327 30.852481,7.1596753 z"/>
    </g>
  </defs>
  <g id="acyl-visual">
    <use id="visible1" transform="translate(24,24) scale(1.00) translate(-24,-24)" style="fill:url(#acyl-gradient);filter:url(#filter)" xlink:href="#acyl-drawing"/>
  </g>
</svg>
