<svg xmlns="http://www.w3.org/2000/svg" xmlns:xlink="http://www.w3.org/1999/xlink" width="48" height="48" viewBox="0 0 12.7 12.7">
  <defs id="acyl-settings">
    <linearGradient id="acyl-gradient" x1="0%" x2="0%" y1="0%" y2="100%">
      <stop offset="0%" style="stop-color:#00FAFF;stop-opacity:1.000000"/>
      <stop offset="74%" style="stop-color:#000BFF;stop-opacity:1.000000"/>
    </linearGradient>
    <g id="acyl-filter">
      <filter id="filter">
        <feTurbulence id="feTurbulence1" type="turbulence" numOctaves="5.0" baseFrequency="0.40 0.40"/>
        <feDisplacementMap id="feDisplacementMap1" xChannelSelector="R"/>
        <feBlend id="feBlend1" in2="SourceGraphic" mode="screen"/>
        <feColorMatrix id="feColorMatrix1" values="1 0 0 -1 0 1 0 1 -1 0 1 0 0 -1 0 -0.8 -1 0 4 -2.5 "/>
        <feGaussianBlur id="feGaussianBlur1" stdDeviation="3.0"/>
        <feSpecularLighting id="feSpecularLighting1" surfaceScale="16.0" specularConstant="0.4" specularExponent="5">
          <feDistantLight id="feDistantLight1" azimuth="225" elevation="35"/>
        </feSpecularLighting>
        <feComposite id="feComposite1" in2="SourceGraphic" k2=" 0.4" k3=" 2.0" operator="arithmetic"/>
        <feComposite id="feComposite2" in2="SourceGraphic" operator="in" result="result2"/>
      </filter>
    </g>
    <g id="acyl-drawing" transform="translate(0,-284.29998)">
      <path d="m 4.9766664,296.45104 c -1.68126,-0.1716 -2.53818,-0.48542 -3.25116,-1.19066 -0.60598,-0.59937 -0.93816999,-1.36624 -1.12842999,-2.60498 -0.0902,-0.58753 -0.0906,-3.33278 -5.8e-4,-3.9444 0.31622,-2.14734 1.15353999,-3.1778 2.94919999,-3.6295 1.33759,-0.33646 4.23295,-0.33646 5.57054,0 1.0284596,0.25871 1.7391906,0.71023 2.1945306,1.3942 0.44048,0.66164 0.68368,1.49165 0.79893,2.72666 l 0.0611,0.65522 -0.35187,0.35677 c -0.92419,0.93711 -2.1135206,1.61157 -3.4486106,1.95566 -0.86389,0.22266 -2.38031,0.23527 -2.7049,0.0224 -0.0907,-0.0594 -0.0707,-0.0776 0.60511,-0.54896 1.28626,-0.89726 1.91158,-1.67225 2.0454,-2.53501 0.28107,-1.81196 -1.67696,-2.7562 -3.63505,-1.75298 -0.54996,0.28176 -1.21235,0.93062 -1.45365,1.42395 -0.55085,1.1262 -0.36149,2.33457 0.50227,3.20518 0.16591,0.16723 0.30166,0.32552 0.30166,0.35177 0,0.0854 -2.12217,1.18654 -2.28671,1.18654 -0.0266,0 -0.0904,0.0465 -0.14192,0.10327 -0.0713,0.0787 -0.0794,0.11744 -0.0339,0.16286 0.0455,0.0454 0.12354,0.0437 0.32843,-0.007 0.40401,-0.10065 1.4216,-0.49325 2.07775,-0.80158 0.32035,-0.15056 0.61038,-0.27374 0.64452,-0.27374 0.0341,0 0.25499,0.0902 0.49077,0.20034 1.63717,0.76508 4.04567,0.6566 5.9785306,-0.26927 0.26436,-0.12664 0.58988,-0.2931 0.72337,-0.36991 0.13349,-0.0768 0.25775,-0.1246 0.27615,-0.10624 0.0463,0.0462 -0.0689,0.84281 -0.19325,1.33613 -0.0566,0.22454 -0.20448,0.62322 -0.32865,0.88593 -0.18737,0.39643 -0.29323,0.54437 -0.62242,0.86984 -0.607081,0.60019 -1.3246006,0.92069 -2.4711806,1.10379 -0.51179,0.0817 -2.96894,0.14781 -3.49601,0.094 z m -0.46689,-4.80873 c -0.84212,-0.60918 -1.03229,-1.80905 -0.42615,-2.6888 0.78572,-1.14041 2.58877,-1.53058 3.15119,-0.68189 0.12787,0.19297 0.14383,0.26273 0.14383,0.62903 0,0.52755 -0.15546,0.86396 -0.63288,1.36951 -0.45302,0.47972 -1.79761,1.51765 -1.96604,1.51765 -0.0378,0 -0.15932,-0.0654 -0.26995,-0.1455 z" id="path-main"/>
    </g>
  </defs>
  <g id="acyl-visual">
    <use id="visible1" transform="translate(24,24) scale(1.00) translate(-24,-24)" style="fill:url(#acyl-gradient);filter:url(#filter)" xlink:href="#acyl-drawing"/>
  </g>
</svg>
