<svg xmlns="http://www.w3.org/2000/svg" xmlns:xlink="http://www.w3.org/1999/xlink" width="48" height="48">
  <defs id="acyl-settings">
    <linearGradient id="acyl-gradient" x1="0%" x2="0%" y1="0%" y2="100%">
      <stop offset="0%" style="stop-color:#00FAFF;stop-opacity:1.000000"/>
      <stop offset="74%" style="stop-color:#000BFF;stop-opacity:1.000000"/>
    </linearGradient>
    <g id="acyl-filter">
      <filter id="filter">
        <feTurbulence id="feTurbulence1" type="turbulence" numOctaves="5.0" baseFrequency="0.40 0.40"/>
        <feDisplacementMap id="feDisplacementMap1" xChannelSelector="R"/>
        <feBlend id="feBlend1" in2="SourceGraphic" mode="screen"/>
        <feColorMatrix id="feColorMatrix1" values="1 0 0 -1 0 1 0 1 -1 0 1 0 0 -1 0 -0.8 -1 0 4 -2.5 "/>
        <feGaussianBlur id="feGaussianBlur1" stdDeviation="3.0"/>
        <feSpecularLighting id="feSpecularLighting1" surfaceScale="16.0" specularConstant="0.4" specularExponent="5">
          <feDistantLight id="feDistantLight1" azimuth="225" elevation="35"/>
        </feSpecularLighting>
        <feComposite id="feComposite1" in2="SourceGraphic" k2=" 0.4" k3=" 2.0" operator="arithmetic"/>
        <feComposite id="feComposite2" in2="SourceGraphic" operator="in" result="result2"/>
      </filter>
    </g>
    <g id="acyl-drawing">
      <path d="M 0.376,0.37599998 C 6.1789285,6.4880594 3.6608081,10.398043 6.8447439,17.596827 C 9.7994331,24.277305 16.231223,19.276929 20.634515,24.000009 C 16.231243,28.72305 9.7775472,23.700846 6.8228777,30.381323 C 3.638961,37.580126 6.1789104,41.511939 0.376,47.623998 C 6.4880604,41.82107 10.419873,44.361038 17.618677,41.177121 C 24.299173,38.222432 19.298778,31.790642 24.021877,27.387352 C 28.711325,31.79114 23.730831,38.247889 30.403192,41.198968 C 37.603579,44.383611 41.510604,41.81979 47.624,47.623998 C 41.819812,41.510602 44.383593,37.603559 41.198971,30.403191 C 38.247892,23.73083 31.812989,28.689476 27.409201,24.000009 C 31.812989,19.310522 38.247892,24.269169 41.198971,17.596827 C 44.383613,10.396439 41.819792,6.489396 47.624,0.37599998 C 41.510585,6.1801886 37.603561,3.6164065 30.403192,6.8010295 C 23.730831,9.7521087 28.711325,16.208878 24.021877,20.612666 C 19.298797,16.209356 24.299173,9.7775659 17.618677,6.8228767 C 10.419873,3.6389606 6.4880604,6.1789283 0.376,0.37599998 z" id="path-main"/>
    </g>
  </defs>
  <g id="acyl-visual">
    <use id="visible1" transform="translate(24,24) scale(1.00) translate(-24,-24)" style="fill:url(#acyl-gradient);filter:url(#filter)" xlink:href="#acyl-drawing"/>
  </g>
</svg>
