<svg xmlns="http://www.w3.org/2000/svg" xmlns:xlink="http://www.w3.org/1999/xlink" width="48" height="48">
  <defs id="acyl-settings">
    <linearGradient id="acyl-gradient" x1="0%" x2="0%" y1="0%" y2="100%">
      <stop offset="0%" style="stop-color:#00FAFF;stop-opacity:1.000000"/>
      <stop offset="74%" style="stop-color:#000BFF;stop-opacity:1.000000"/>
    </linearGradient>
    <g id="acyl-filter">
      <filter id="filter">
        <feTurbulence id="feTurbulence1" type="turbulence" numOctaves="5.0" baseFrequency="0.40 0.40"/>
        <feDisplacementMap id="feDisplacementMap1" xChannelSelector="R"/>
        <feBlend id="feBlend1" in2="SourceGraphic" mode="screen"/>
        <feColorMatrix id="feColorMatrix1" values="1 0 0 -1 0 1 0 1 -1 0 1 0 0 -1 0 -0.8 -1 0 4 -2.5 "/>
        <feGaussianBlur id="feGaussianBlur1" stdDeviation="3.0"/>
        <feSpecularLighting id="feSpecularLighting1" surfaceScale="16.0" specularConstant="0.4" specularExponent="5">
          <feDistantLight id="feDistantLight1" azimuth="225" elevation="35"/>
        </feSpecularLighting>
        <feComposite id="feComposite1" in2="SourceGraphic" k2=" 0.4" k3=" 2.0" operator="arithmetic"/>
        <feComposite id="feComposite2" in2="SourceGraphic" operator="in" result="result2"/>
      </filter>
    </g>
    <g id="acyl-drawing">
      <path d="M 5.255004,2 C 3.455017,2 2,3.442671 2,5.24318 L 2,42.75682 C 2,44.55733 3.455017,46 5.255004,46 l 37.489992,0 C 44.544977,46 46,44.55733 46,42.75682 L 46,5.24318 C 46,3.442671 44.544977,2 42.744996,2 L 5.255004,2 z m 35.856107,5.707487 0,5.043529 c -1.994707,0 -4.181673,0.06384 -5.169714,0.06384 -1.076822,0 -1.669054,0.349951 -1.965768,0.753337 -0.358174,0.486944 -0.548883,1.184357 -0.548883,2.03018 l 0,1.774811 7.224835,0 0,5.247824 -7.224835,0 0,19.95705 -7.365244,0 0,-19.95705 -3.433711,0 0,-5.247824 3.433711,0 0,-1.902495 c -1.4e-4,-2.119982 0.284726,-3.450271 0.727589,-4.494487 0.45867,-1.044151 2.021109,-2.018934 3.255004,-2.604759 1.468367,-0.697147 2.327624,-0.663958 11.067016,-0.663958 z" id="path-main"/>
    </g>
  </defs>
  <g id="acyl-visual">
    <use id="visible1" transform="translate(24,24) scale(1.00) translate(-24,-24)" style="fill:url(#acyl-gradient);filter:url(#filter)" xlink:href="#acyl-drawing"/>
  </g>
</svg>
