<svg xmlns="http://www.w3.org/2000/svg" xmlns:xlink="http://www.w3.org/1999/xlink" width="48" height="48" viewBox="0 0 12.7 12.7">
  <defs id="acyl-settings">
    <linearGradient id="acyl-gradient" x1="0%" x2="0%" y1="0%" y2="100%">
      <stop offset="0%" style="stop-color:#00FAFF;stop-opacity:1.000000"/>
      <stop offset="74%" style="stop-color:#000BFF;stop-opacity:1.000000"/>
    </linearGradient>
    <g id="acyl-filter">
      <filter id="filter">
        <feTurbulence id="feTurbulence1" type="turbulence" numOctaves="5.0" baseFrequency="0.40 0.40"/>
        <feDisplacementMap id="feDisplacementMap1" xChannelSelector="R"/>
        <feBlend id="feBlend1" in2="SourceGraphic" mode="screen"/>
        <feColorMatrix id="feColorMatrix1" values="1 0 0 -1 0 1 0 1 -1 0 1 0 0 -1 0 -0.8 -1 0 4 -2.5 "/>
        <feGaussianBlur id="feGaussianBlur1" stdDeviation="3.0"/>
        <feSpecularLighting id="feSpecularLighting1" surfaceScale="16.0" specularConstant="0.4" specularExponent="5">
          <feDistantLight id="feDistantLight1" azimuth="225" elevation="35"/>
        </feSpecularLighting>
        <feComposite id="feComposite1" in2="SourceGraphic" k2=" 0.4" k3=" 2.0" operator="arithmetic"/>
        <feComposite id="feComposite2" in2="SourceGraphic" operator="in" result="result2"/>
      </filter>
    </g>
    <g id="acyl-drawing" transform="translate(0,-284.29998)">
      <path d="m 2.0762264,296.188 c -0.73205,-1.01356 -1.32887005,-2.26572 -1.49694005,-3.14064 -0.0819,-0.42648 -0.0604,-1.14562 0.0426,-1.42502 0.0379,-0.10274 0.3105,-0.54099 0.60580005,-0.97389 1.12497,-1.64915 1.62024,-2.97484 1.62492,-4.34943 10e-4,-0.30574 0.007,-0.55589 0.0137,-0.55589 0.0339,0 0.67499,0.99141 0.86426,1.33654 0.27281,0.49746 0.43474,0.86381 0.62407,1.4119 0.0812,0.23505 0.16503,0.43304 0.1863,0.43997 0.0829,0.027 0.92997,-0.60793 1.30913,-0.98125 0.49528,-0.48767 0.76434,-0.83727 0.99311,-1.29043 0.22466,-0.44503 0.32586,-0.77745 0.41522,-1.36396 l 0.0711,-0.46675 0.16772,0.54477 c 0.42843,1.39157 0.53343,1.99262 0.55706,3.18891 0.0172,0.87172 0.0255,0.96491 0.0845,0.94819 0.0359,-0.0102 0.17309,-0.0481 0.30478,-0.0843 0.36745,-0.10093 1.10475,-0.38693 1.5339,-0.59502 1.0277096,-0.4983 1.7632696,-1.14534 2.0957096,-1.84351 0.12507,-0.26265 0.12781,-0.19911 0.0208,0.48372 -0.40284,2.57164 -1.0883,4.30218 -2.1203196,5.35307 -0.59332,0.60417 -1.10493,0.86712 -1.93789,0.996 -1.69437,0.26218 -1.94908,0.31414 -2.68481,0.54764 -1.27437,0.40446 -2.34469,1.09802 -2.8679,1.85838 -0.0923,0.1341 -0.17561,0.24381 -0.1852,0.24381 -0.01,0 -0.10934,-0.12727 -0.22169,-0.28282 z m 0.61624,-0.90698 c 0.22741,-0.45483 0.46393,-0.77916 0.8426,-1.15538 0.54891,-0.54538 1.33557,-1.06447 2.11943,-1.39856 0.97125,-0.41395 1.33959,-0.65681 1.67908,-1.10707 0.32789,-0.43488 0.60965,-1.09629 0.66725,-1.5663 0.0213,-0.17354 0.009,-0.15348 -0.11185,0.18193 -0.25733,0.7146 -0.62626,1.26152 -1.07099,1.58775 -0.1155,0.0847 -0.61403,0.34693 -1.10784,0.58269 -0.49381,0.23576 -1.05945,0.53377 -1.25697,0.66223 -0.70666,0.4596 -1.37363,1.1654 -1.72416,1.82454 -0.18051,0.33943 -0.37266,0.92672 -0.36775,1.12397 0.002,0.096 0.0195,0.0677 0.0794,-0.13115 0.042,-0.13946 0.15529,-0.41155 0.25184,-0.60465 z m 0.0555,-1.63894 c 0.21266,-0.41242 0.55902,-0.92169 0.96587,-1.42015 0.41337,-0.50645 0.6086,-0.80904 0.73199,-1.13446 0.16584,-0.43741 0.15348,-0.50175 -0.0262,-0.13653 -0.10624,0.21591 -0.30636,0.5163 -0.51978,0.78019 -0.7991,0.9881 -1.14771,1.56174 -1.4191,2.33517 -0.19411,0.55318 -0.21421,0.73934 -0.0258,0.23895 0.0728,-0.19339 0.20468,-0.49182 0.29304,-0.66317 z"/>
    </g>
  </defs>
  <g id="acyl-visual">
    <use id="visible1" transform="translate(24,24) scale(1.00) translate(-24,-24)" style="fill:url(#acyl-gradient);filter:url(#filter)" xlink:href="#acyl-drawing"/>
  </g>
</svg>
