<svg xmlns="http://www.w3.org/2000/svg" xmlns:xlink="http://www.w3.org/1999/xlink" width="48" height="48">
  <defs id="acyl-settings">
    <linearGradient id="acyl-gradient" x1="0%" x2="0%" y1="0%" y2="100%">
      <stop offset="0%" style="stop-color:#00FAFF;stop-opacity:1.000000"/>
      <stop offset="74%" style="stop-color:#000BFF;stop-opacity:1.000000"/>
    </linearGradient>
    <g id="acyl-filter">
      <filter id="filter">
        <feTurbulence id="feTurbulence1" type="turbulence" numOctaves="5.0" baseFrequency="0.40 0.40"/>
        <feDisplacementMap id="feDisplacementMap1" xChannelSelector="R"/>
        <feBlend id="feBlend1" in2="SourceGraphic" mode="screen"/>
        <feColorMatrix id="feColorMatrix1" values="1 0 0 -1 0 1 0 1 -1 0 1 0 0 -1 0 -0.8 -1 0 4 -2.5 "/>
        <feGaussianBlur id="feGaussianBlur1" stdDeviation="3.0"/>
        <feSpecularLighting id="feSpecularLighting1" surfaceScale="16.0" specularConstant="0.4" specularExponent="5">
          <feDistantLight id="feDistantLight1" azimuth="225" elevation="35"/>
        </feSpecularLighting>
        <feComposite id="feComposite1" in2="SourceGraphic" k2=" 0.4" k3=" 2.0" operator="arithmetic"/>
        <feComposite id="feComposite2" in2="SourceGraphic" operator="in" result="result2"/>
      </filter>
    </g>
    <g id="acyl-drawing">
      <path d="M 24.016309,2 C 11.864846,2 2,11.832228 2,23.983691 2,36.13515 11.864846,46 24.016309,46 36.167772,46 46,36.13515 46,23.983691 46,11.832228 36.167772,2 24.016309,2 z m 0,4.892513 c 3.045094,0 5.906697,0.790371 8.382506,2.185322 L 19.515197,16.514455 6.92513,23.755374 C 7.047325,14.419295 14.651141,6.892513 24.016309,6.892513 z m 8.480356,2.250556 c 5.14386,2.945428 8.610822,8.48659 8.610822,14.840622 0,6.354032 -3.466962,11.895189 -8.610822,14.840619 l 0,-14.840619 0,-14.840622 z M 6.92513,24.212008 19.515197,31.48554 32.366198,38.92216 c -2.466727,1.38125 -5.320921,2.15271 -8.349889,2.15271 -9.365168,0 -16.968984,-7.52678 -17.091179,-16.862862 z" id="path-main"/>
    </g>
  </defs>
  <g id="acyl-visual">
    <use id="visible1" transform="translate(24,24) scale(1.00) translate(-24,-24)" style="fill:url(#acyl-gradient);filter:url(#filter)" xlink:href="#acyl-drawing"/>
  </g>
</svg>
