<svg xmlns="http://www.w3.org/2000/svg" xmlns:xlink="http://www.w3.org/1999/xlink" width="48" height="48">
  <defs id="acyl-settings">
    <linearGradient id="acyl-gradient" x1="0%" x2="0%" y1="0%" y2="100%">
      <stop offset="0%" style="stop-color:#00FAFF;stop-opacity:1.000000"/>
      <stop offset="74%" style="stop-color:#000BFF;stop-opacity:1.000000"/>
    </linearGradient>
    <g id="acyl-filter">
      <filter id="filter">
        <feTurbulence id="feTurbulence1" type="turbulence" numOctaves="5.0" baseFrequency="0.40 0.40"/>
        <feDisplacementMap id="feDisplacementMap1" xChannelSelector="R"/>
        <feBlend id="feBlend1" in2="SourceGraphic" mode="screen"/>
        <feColorMatrix id="feColorMatrix1" values="1 0 0 -1 0 1 0 1 -1 0 1 0 0 -1 0 -0.8 -1 0 4 -2.5 "/>
        <feGaussianBlur id="feGaussianBlur1" stdDeviation="3.0"/>
        <feSpecularLighting id="feSpecularLighting1" surfaceScale="16.0" specularConstant="0.4" specularExponent="5">
          <feDistantLight id="feDistantLight1" azimuth="225" elevation="35"/>
        </feSpecularLighting>
        <feComposite id="feComposite1" in2="SourceGraphic" k2=" 0.4" k3=" 2.0" operator="arithmetic"/>
        <feComposite id="feComposite2" in2="SourceGraphic" operator="in" result="result2"/>
      </filter>
    </g>
    <g id="acyl-drawing">
      <path d="M 3.374013,9.507087 C 2.615765,9.507087 2,10.122851 2,10.8811 l 0,4.169418 44,0 0,-4.169418 C 46,10.122851 45.384235,9.507087 44.625987,9.507087 l -41.251974,0 z M 2,17.040468 2,39.229987 C 2,39.988236 2.615765,40.604 3.374013,40.604 l 41.251974,0 C 45.384235,40.604 46,39.988236 46,39.229987 l 0,-22.189519 -44,0 z m 6.206748,7.407035 28.190955,0 c 0.612683,0 1.105527,0.492845 1.105527,1.105528 l 0,3.821967 c 0,0.612683 -0.492844,1.105527 -1.105527,1.105527 l -28.190955,0 c -0.612683,0 -1.105528,-0.492844 -1.105528,-1.105527 l 0,-3.821967 c 0,-0.612683 0.492845,-1.105528 1.105528,-1.105528 z m 0.58435,1.058148 0,3.916727 2.163676,0 0,-3.916727 -2.163676,0 z" id="path-main"/>
    </g>
  </defs>
  <g id="acyl-visual">
    <use id="visible1" transform="translate(24,24) scale(1.00) translate(-24,-24)" style="fill:url(#acyl-gradient);filter:url(#filter)" xlink:href="#acyl-drawing"/>
  </g>
</svg>
