<svg xmlns="http://www.w3.org/2000/svg" xmlns:xlink="http://www.w3.org/1999/xlink" width="48" height="48">
  <defs id="acyl-settings">
    <linearGradient id="acyl-gradient" x1="0%" x2="0%" y1="0%" y2="100%">
      <stop offset="0%" style="stop-color:#00FAFF;stop-opacity:1.000000"/>
      <stop offset="74%" style="stop-color:#000BFF;stop-opacity:1.000000"/>
    </linearGradient>
    <g id="acyl-filter">
      <filter id="filter">
        <feTurbulence id="feTurbulence1" type="turbulence" numOctaves="5.0" baseFrequency="0.40 0.40"/>
        <feDisplacementMap id="feDisplacementMap1" xChannelSelector="R"/>
        <feBlend id="feBlend1" in2="SourceGraphic" mode="screen"/>
        <feColorMatrix id="feColorMatrix1" values="1 0 0 -1 0 1 0 1 -1 0 1 0 0 -1 0 -0.8 -1 0 4 -2.5 "/>
        <feGaussianBlur id="feGaussianBlur1" stdDeviation="3.0"/>
        <feSpecularLighting id="feSpecularLighting1" surfaceScale="16.0" specularConstant="0.4" specularExponent="5">
          <feDistantLight id="feDistantLight1" azimuth="225" elevation="35"/>
        </feSpecularLighting>
        <feComposite id="feComposite1" in2="SourceGraphic" k2=" 0.4" k3=" 2.0" operator="arithmetic"/>
        <feComposite id="feComposite2" in2="SourceGraphic" operator="in" result="result2"/>
      </filter>
    </g>
    <g id="acyl-drawing">
      <path d="M 19.784309,3.4424655 C 10.43801,4.6845955 9.258,5.340726 4.2861171,7.8169551 3.0483945,8.4333981 1.9140828,9.9055638 2.0051332,11.2853 l 0.968637,17.685437 c 0.2563891,2.181553 0.2535334,4.396591 3.1558818,5.093156 l 10.967471,3.749562 c 2.769659,0.664719 4.99551,0.822806 7.467878,-0.312463 l 1.687303,-0.781159 -2.905911,-3.780809 -1.843535,-2.405969 3.030897,0 4.874431,0 0,-11.811122 0,-1.499825 1.499825,0 8.499008,0 0.03125,0 0.312463,-4.874432 C 39.902728,10.037232 38.732923,8.7793188 36.751079,7.5669842 32.07812,4.7084418 27.180733,3.5002617 19.784309,3.4424655 z m 1.593564,3.5620844 c 3.956707,-0.040698 8.07489,0.5611194 12.029846,1.9372739 0,0 -6.304985,2.7811982 -9.24892,4.3744892 -1.078356,0.583617 -2.381804,1.245119 -2.593448,2.624694 L 20.7217,32.470329 19.909294,15.503558 C 19.851521,14.277693 17.414548,13.182588 16.253471,12.785125 10.809553,10.921558 7.8169551,10.097939 7.8169551,10.097939 11.506306,8.1602194 16.290678,7.0568758 21.377873,7.0045499 z m 9.530138,11.7173831 0,13.310947 -6.374256,0 L 35.282501,46 46,32.03288 l -6.592981,0 0,-13.310947 -8.499008,0 z" id="path-main"/>
    </g>
  </defs>
  <g id="acyl-visual">
    <use id="visible1" transform="translate(24,24) scale(1.00) translate(-24,-24)" style="fill:url(#acyl-gradient);filter:url(#filter)" xlink:href="#acyl-drawing"/>
  </g>
</svg>
