<svg xmlns="http://www.w3.org/2000/svg" xmlns:xlink="http://www.w3.org/1999/xlink" width="48" height="48">
  <defs id="acyl-settings">
    <linearGradient id="acyl-gradient" x1="0%" x2="0%" y1="0%" y2="100%">
      <stop offset="0%" style="stop-color:#00FAFF;stop-opacity:1.000000"/>
      <stop offset="74%" style="stop-color:#000BFF;stop-opacity:1.000000"/>
    </linearGradient>
    <g id="acyl-filter">
      <filter id="filter">
        <feTurbulence id="feTurbulence1" type="turbulence" numOctaves="5.0" baseFrequency="0.40 0.40"/>
        <feDisplacementMap id="feDisplacementMap1" xChannelSelector="R"/>
        <feBlend id="feBlend1" in2="SourceGraphic" mode="screen"/>
        <feColorMatrix id="feColorMatrix1" values="1 0 0 -1 0 1 0 1 -1 0 1 0 0 -1 0 -0.8 -1 0 4 -2.5 "/>
        <feGaussianBlur id="feGaussianBlur1" stdDeviation="3.0"/>
        <feSpecularLighting id="feSpecularLighting1" surfaceScale="16.0" specularConstant="0.4" specularExponent="5">
          <feDistantLight id="feDistantLight1" azimuth="225" elevation="35"/>
        </feSpecularLighting>
        <feComposite id="feComposite1" in2="SourceGraphic" k2=" 0.4" k3=" 2.0" operator="arithmetic"/>
        <feComposite id="feComposite2" in2="SourceGraphic" operator="in" result="result2"/>
      </filter>
    </g>
    <g id="acyl-drawing">
      <path d="m 2.000008,4.1903331 0,0.029236 0,1.3448505 0,0.029236 0,4.6777404 0,1.374086 0,23.681064 0,1.374086 1.3448505,0 8.2152825,0 0,6.431894 0,1.374086 1.374086,0 31.691695,0 1.374086,0 0,-1.374086 0,-29.762127 0,-1.374086 -0.02924,0 -1.34485,0 -0.02924,0 -8.244519,0 0,-0.350831 0,-1.374086 0,-4.6777404 0,-1.3740864 0,-0.029236 -1.34485,0 -31.6624585,0 -1.3448505,0 z m 2.689701,7.4551489 28.972757,0 0,0.350831 -0.02923,0 0,1.374086 0,4.706977 0,1.374086 0,14.500997 -28.943522,0 0,-22.306977 z m 31.691694,7.80598 6.870432,0 0,22.306977 -28.943521,0 0,-5.028571 20.699003,0 1.374086,0 0,-1.374087 0,-15.904319 z" id="path-main"/>
    </g>
  </defs>
  <g id="acyl-visual">
    <use id="visible1" transform="translate(24,24) scale(1.00) translate(-24,-24)" style="fill:url(#acyl-gradient);filter:url(#filter)" xlink:href="#acyl-drawing"/>
  </g>
</svg>
