<svg xmlns="http://www.w3.org/2000/svg" xmlns:xlink="http://www.w3.org/1999/xlink" width="48" height="48">
  <defs id="acyl-settings">
    <linearGradient id="acyl-gradient" x1="0%" x2="0%" y1="0%" y2="100%">
      <stop offset="0%" style="stop-color:#00FAFF;stop-opacity:1.000000"/>
      <stop offset="74%" style="stop-color:#000BFF;stop-opacity:1.000000"/>
    </linearGradient>
    <g id="acyl-filter">
      <filter id="filter">
        <feTurbulence id="feTurbulence1" type="turbulence" numOctaves="5.0" baseFrequency="0.40 0.40"/>
        <feDisplacementMap id="feDisplacementMap1" xChannelSelector="R"/>
        <feBlend id="feBlend1" in2="SourceGraphic" mode="screen"/>
        <feColorMatrix id="feColorMatrix1" values="1 0 0 -1 0 1 0 1 -1 0 1 0 0 -1 0 -0.8 -1 0 4 -2.5 "/>
        <feGaussianBlur id="feGaussianBlur1" stdDeviation="3.0"/>
        <feSpecularLighting id="feSpecularLighting1" surfaceScale="16.0" specularConstant="0.4" specularExponent="5">
          <feDistantLight id="feDistantLight1" azimuth="225" elevation="35"/>
        </feSpecularLighting>
        <feComposite id="feComposite1" in2="SourceGraphic" k2=" 0.4" k3=" 2.0" operator="arithmetic"/>
        <feComposite id="feComposite2" in2="SourceGraphic" operator="in" result="result2"/>
      </filter>
    </g>
    <g id="acyl-drawing">
      <path d="M 7.463576,3.654523 C 4.4686793,3.654523 2,6.123203 2,9.1181 L 2,38.53642 C 2,41.53132 4.4686793,44 7.463576,44 l 33.072848,0 C 43.531322,44 46,41.53132 46,38.53642 L 46,9.1181 C 46,6.123203 43.531322,3.654523 40.536424,3.654523 z m 0,3.88521 33.072848,0 c 0.909694,0 1.578366,0.668673 1.578366,1.578367 l 0,29.41832 c 0,0.90969 -0.668672,1.57837 -1.578366,1.57837 l -33.072848,0 c -0.909694,0 -1.578366,-0.66868 -1.578366,-1.57837 l 0,-29.41832 c 0,-0.909694 0.668672,-1.578367 1.578366,-1.578367 z m 1.809051,3.205298 0,11.412804 13.027594,0 0,-11.412804 z m 16.427152,0 0,11.412804 13.027594,0 0,-11.412804 z m -14.902299,1.626932 9.838473,0 0,7.818984 -9.838473,0 z m 0.631347,1.541942 0,5.742826 8.563639,0 0,-5.742826 z m -2.1562,11.594923 0,11.412802 13.027594,0 0,-11.412802 z m 16.427152,0 0,11.412802 13.027594,0 0,-11.412802 z" id="path-main"/>
    </g>
  </defs>
  <g id="acyl-visual">
    <use id="visible1" transform="translate(24,24) scale(1.00) translate(-24,-24)" style="fill:url(#acyl-gradient);filter:url(#filter)" xlink:href="#acyl-drawing"/>
  </g>
</svg>
