<svg xmlns="http://www.w3.org/2000/svg" xmlns:xlink="http://www.w3.org/1999/xlink" width="48" height="48">
  <defs id="acyl-settings">
    <linearGradient id="acyl-gradient" x1="0%" x2="0%" y1="0%" y2="100%">
      <stop offset="0%" style="stop-color:#00FAFF;stop-opacity:1.000000"/>
      <stop offset="74%" style="stop-color:#000BFF;stop-opacity:1.000000"/>
    </linearGradient>
    <g id="acyl-filter">
      <filter id="filter">
        <feTurbulence id="feTurbulence1" type="turbulence" numOctaves="5.0" baseFrequency="0.40 0.40"/>
        <feDisplacementMap id="feDisplacementMap1" xChannelSelector="R"/>
        <feBlend id="feBlend1" in2="SourceGraphic" mode="screen"/>
        <feColorMatrix id="feColorMatrix1" values="1 0 0 -1 0 1 0 1 -1 0 1 0 0 -1 0 -0.8 -1 0 4 -2.5 "/>
        <feGaussianBlur id="feGaussianBlur1" stdDeviation="3.0"/>
        <feSpecularLighting id="feSpecularLighting1" surfaceScale="16.0" specularConstant="0.4" specularExponent="5">
          <feDistantLight id="feDistantLight1" azimuth="225" elevation="35"/>
        </feSpecularLighting>
        <feComposite id="feComposite1" in2="SourceGraphic" k2=" 0.4" k3=" 2.0" operator="arithmetic"/>
        <feComposite id="feComposite2" in2="SourceGraphic" operator="in" result="result2"/>
      </filter>
    </g>
    <g id="acyl-drawing">
      <path id="path-main" d="m 22.375965,2.6168451 0,3.3515446 -3.117177,0 0,3.1691196 3.117177,0 0,3.2266947 c 0,0 -3.469197,0.201303 -3.469197,6.875814 C 14.947313,15.846202 6.2334259,9.9798173 3.0658617,16.541197 c -3.16756487,6.56138 1.0254055,14.456314 8.6049373,20.338941 0,4.072575 0.230461,8.600726 0.117339,8.487596 l 24.445843,0 0,-8.018236 c -10e-7,0 14.361791,-13.559723 8.252916,-20.573621 -6.108875,-7.0138917 -15.058639,2.464141 -15.058639,2.464141 2e-6,0 -0.422726,-6.083923 -3.590292,-6.875814 10e-7,-2.036285 0,-3.2266947 0,-3.2266947 l 2.947716,0 0,-3.1691196 -2.947716,0 0,-3.3515446 -3.462001,0 z m 16.71329,12.8682919 c 0.554313,-0.02195 1.13414,0.0075 1.720987,0.07823 -4.411962,1.131278 -11.386812,6.349017 -14.667505,10.365037 0,0 4.631827,-10.113907 12.946518,-10.443264 z m -27.45757,1.368967 c 6.674511,2.036292 6.534937,4.107517 7.666216,7.275083 -3.733204,-4.864477 -7.666216,-7.275083 -7.666216,-7.275083 z"/>
    </g>
  </defs>
  <g id="acyl-visual">
    <use id="visible1" transform="translate(24,24) scale(1.00) translate(-24,-24)" style="fill:url(#acyl-gradient);filter:url(#filter)" xlink:href="#acyl-drawing"/>
  </g>
</svg>
