<svg xmlns="http://www.w3.org/2000/svg" xmlns:xlink="http://www.w3.org/1999/xlink" width="48" height="48">
  <defs id="acyl-settings">
    <linearGradient id="acyl-gradient" x1="0%" x2="0%" y1="0%" y2="100%">
      <stop offset="0%" style="stop-color:#00FAFF;stop-opacity:1.000000"/>
      <stop offset="74%" style="stop-color:#000BFF;stop-opacity:1.000000"/>
    </linearGradient>
    <g id="acyl-filter">
      <filter id="filter">
        <feTurbulence id="feTurbulence1" type="turbulence" numOctaves="5.0" baseFrequency="0.40 0.40"/>
        <feDisplacementMap id="feDisplacementMap1" xChannelSelector="R"/>
        <feBlend id="feBlend1" in2="SourceGraphic" mode="screen"/>
        <feColorMatrix id="feColorMatrix1" values="1 0 0 -1 0 1 0 1 -1 0 1 0 0 -1 0 -0.8 -1 0 4 -2.5 "/>
        <feGaussianBlur id="feGaussianBlur1" stdDeviation="3.0"/>
        <feSpecularLighting id="feSpecularLighting1" surfaceScale="16.0" specularConstant="0.4" specularExponent="5">
          <feDistantLight id="feDistantLight1" azimuth="225" elevation="35"/>
        </feSpecularLighting>
        <feComposite id="feComposite1" in2="SourceGraphic" k2=" 0.4" k3=" 2.0" operator="arithmetic"/>
        <feComposite id="feComposite2" in2="SourceGraphic" operator="in" result="result2"/>
      </filter>
    </g>
    <g id="acyl-drawing">
      <path d="M 5.673834,3.5 C 3.6342794,3.5 2,5.1455013 2,7.1837374 L 2,40.816264 C 2,42.854495 3.6342794,44.5 5.673834,44.5 l 36.640045,0 C 44.353434,44.5 46,42.854495 46,40.816264 L 46,7.1837374 C 46,5.1455013 44.353434,3.5 42.313879,3.5 l -36.640045,0 z m 0.1720191,9.811021 4.9148279,0 0,6.31147 -4.9148279,0 0,-6.31147 z m 7.8514379,0 4.902541,0 0,6.31147 -4.902541,0 0,-6.31147 z m 7.83915,0 4.914829,0 0,6.31147 -4.914829,0 0,-6.31147 z m 7.851438,0 4.902541,0 0,6.31147 -4.902541,0 0,-6.31147 z m 7.839151,0 4.91483,0 0,6.31147 -4.91483,0 0,-6.31147 z m -31.3811769,8.82869 4.9148279,0 0,5.071279 -4.9148279,0 0,-5.071279 z m 7.8514379,0 4.902541,0 0,5.071279 -4.902541,0 0,-5.071279 z m 7.83915,0 4.914829,0 0,5.071279 -4.914829,0 0,-5.071279 z m 7.851438,0 4.902541,0 0,5.071279 -4.902541,0 0,-5.071279 z m 7.839151,0 4.91483,0 0,5.071279 -4.91483,0 0,-5.071279 z m -31.3811769,7.588497 4.9148279,0 0,4.027554 -4.9148279,0 0,-4.027554 z m 7.8514379,0 4.902541,0 0,4.027554 -4.902541,0 0,-4.027554 z m 7.83915,0 4.914829,0 0,4.027554 -4.914829,0 0,-4.027554 z m 7.851438,0 4.902541,0 0,4.027554 -4.902541,0 0,-4.027554 z m 7.839151,0 4.91483,0 0,4.027554 -4.91483,0 0,-4.027554 z m -31.3811769,6.544775 4.9148279,0 0,4.027554 -4.9148279,0 0,-4.027554 z m 7.8514379,0 4.902541,0 0,4.027554 -4.902541,0 0,-4.027554 z m 7.83915,0 4.914829,0 0,4.027554 -4.914829,0 0,-4.027554 z m 7.851438,0 4.902541,0 0,4.027554 -4.902541,0 0,-4.027554 z m 7.839151,0 4.91483,0 0,4.027554 -4.91483,0 0,-4.027554 z" id="path-main"/>
    </g>
  </defs>
  <g id="acyl-visual">
    <use id="visible1" transform="translate(24,24) scale(1.00) translate(-24,-24)" style="fill:url(#acyl-gradient);filter:url(#filter)" xlink:href="#acyl-drawing"/>
  </g>
</svg>
