<svg xmlns="http://www.w3.org/2000/svg" xmlns:xlink="http://www.w3.org/1999/xlink" width="48" height="48">
  <defs id="acyl-settings">
    <linearGradient id="acyl-gradient" x1="0%" x2="0%" y1="0%" y2="100%">
      <stop offset="0%" style="stop-color:#00FAFF;stop-opacity:1.000000"/>
      <stop offset="74%" style="stop-color:#000BFF;stop-opacity:1.000000"/>
    </linearGradient>
    <g id="acyl-filter">
      <filter id="filter">
        <feTurbulence id="feTurbulence1" type="turbulence" numOctaves="5.0" baseFrequency="0.40 0.40"/>
        <feDisplacementMap id="feDisplacementMap1" xChannelSelector="R"/>
        <feBlend id="feBlend1" in2="SourceGraphic" mode="screen"/>
        <feColorMatrix id="feColorMatrix1" values="1 0 0 -1 0 1 0 1 -1 0 1 0 0 -1 0 -0.8 -1 0 4 -2.5 "/>
        <feGaussianBlur id="feGaussianBlur1" stdDeviation="3.0"/>
        <feSpecularLighting id="feSpecularLighting1" surfaceScale="16.0" specularConstant="0.4" specularExponent="5">
          <feDistantLight id="feDistantLight1" azimuth="225" elevation="35"/>
        </feSpecularLighting>
        <feComposite id="feComposite1" in2="SourceGraphic" k2=" 0.4" k3=" 2.0" operator="arithmetic"/>
        <feComposite id="feComposite2" in2="SourceGraphic" operator="in" result="result2"/>
      </filter>
    </g>
    <g id="acyl-drawing">
      <path d="M 34.5,2.5 C 28.70665,2.5 23.999999,7.2066502 24,13 24,18.793349 28.706651,23.5 34.5,23.5 40.293349,23.5 45,18.793349 45,13 45,7.2066506 40.29335,2.4999999 34.5,2.5 z m -22,0.03125 c -5.7933498,0 -10.5,4.7066507 -10.5,10.5 -1e-7,5.793349 4.7066502,10.5 10.5,10.5 5.793349,0 10.5,-4.706651 10.5,-10.5 0,-5.7933495 -4.706651,-10.5000001 -10.5,-10.5 z m 0,1 c 5.252909,-10e-8 9.5,4.2470907 9.5,9.5 0,5.252909 -4.247091,9.5 -9.5,9.5 -5.2529096,0 -9.5000001,-4.247091 -9.5,-9.5 0,-5.2529091 4.2470904,-9.5 9.5,-9.5 z M 12.5,24.5 C 6.7066501,24.5 1.9999998,29.206652 2,35 c -1e-7,5.793349 4.7066499,10.500001 10.5,10.5 C 18.293349,45.5 23.000001,40.79335 23,35 23,29.206651 18.293349,24.499999 12.5,24.5 z m 22,0 C 28.70665,24.5 23.999999,29.206651 24,35 24,40.793349 28.706651,45.5 34.5,45.5 40.293349,45.5 45,40.793349 45,35 45,29.206651 40.29335,24.5 34.5,24.5 z" id="path-main"/>
    </g>
  </defs>
  <g id="acyl-visual">
    <use id="visible1" transform="translate(24,24) scale(1.00) translate(-24,-24)" style="fill:url(#acyl-gradient);filter:url(#filter)" xlink:href="#acyl-drawing"/>
  </g>
</svg>
