<svg xmlns="http://www.w3.org/2000/svg" xmlns:xlink="http://www.w3.org/1999/xlink" width="48" height="48">
  <defs id="acyl-settings">
    <linearGradient id="acyl-gradient" x1="0%" x2="0%" y1="0%" y2="100%">
      <stop offset="0%" style="stop-color:#00FAFF;stop-opacity:1.000000"/>
      <stop offset="74%" style="stop-color:#000BFF;stop-opacity:1.000000"/>
    </linearGradient>
    <g id="acyl-filter">
      <filter id="filter">
        <feTurbulence id="feTurbulence1" type="turbulence" numOctaves="5.0" baseFrequency="0.40 0.40"/>
        <feDisplacementMap id="feDisplacementMap1" xChannelSelector="R"/>
        <feBlend id="feBlend1" in2="SourceGraphic" mode="screen"/>
        <feColorMatrix id="feColorMatrix1" values="1 0 0 -1 0 1 0 1 -1 0 1 0 0 -1 0 -0.8 -1 0 4 -2.5 "/>
        <feGaussianBlur id="feGaussianBlur1" stdDeviation="3.0"/>
        <feSpecularLighting id="feSpecularLighting1" surfaceScale="16.0" specularConstant="0.4" specularExponent="5">
          <feDistantLight id="feDistantLight1" azimuth="225" elevation="35"/>
        </feSpecularLighting>
        <feComposite id="feComposite1" in2="SourceGraphic" k2=" 0.4" k3=" 2.0" operator="arithmetic"/>
        <feComposite id="feComposite2" in2="SourceGraphic" operator="in" result="result2"/>
      </filter>
    </g>
    <g id="acyl-drawing">
      <path d="M 13,2.5 C 7.2066511,2.4999999 2.5,7.2066506 2.5,13 2.4999999,18.793349 7.2066512,23.5 13,23.5 18.79335,23.5 23.5,18.793349 23.5,13 23.500001,7.2066502 18.79335,2.5 13,2.5 z m 22,0.03125 c -5.79335,-10e-8 -10.5,4.7066506 -10.5,10.5 0,5.793349 4.706651,10.5 10.5,10.5 5.793349,0 10.5,-4.706651 10.5,-10.5 -10e-7,-5.7933491 -4.70665,-10.5 -10.5,-10.5 z m 0,1 c 5.25291,0 9.499999,4.2470907 9.5,9.5 0,5.252909 -4.247091,9.5 -9.5,9.5 -5.252909,0 -9.5,-4.247091 -9.5,-9.5 0,-5.2529094 4.24709,-9.5000001 9.5,-9.5 z M 13,24.5 C 7.206651,24.5 2.5,29.206651 2.5,35 c -10e-8,5.793349 4.7066512,10.5 10.5,10.5 5.79335,0 10.5,-4.706651 10.5,-10.5 1e-6,-5.793349 -4.70665,-10.5 -10.5,-10.5 z m 22,0 c -5.793349,-1e-6 -10.5,4.706651 -10.5,10.5 -1e-6,5.79335 4.706651,10.5 10.5,10.5 5.79335,10e-7 10.5,-4.706651 10.5,-10.5 0,-5.793348 -4.70665,-10.5 -10.5,-10.5 z m -22,1 c 5.25291,0 9.500001,4.247091 9.5,9.5 0,5.252909 -4.24709,9.5 -9.5,9.5 -5.2529084,0 -9.5000001,-4.247091 -9.5,-9.5 0,-5.252909 4.2470914,-9.5 9.5,-9.5 z" id="path-main"/>
    </g>
  </defs>
  <g id="acyl-visual">
    <use id="visible1" transform="translate(24,24) scale(1.00) translate(-24,-24)" style="fill:url(#acyl-gradient);filter:url(#filter)" xlink:href="#acyl-drawing"/>
  </g>
</svg>
