<svg xmlns="http://www.w3.org/2000/svg" xmlns:xlink="http://www.w3.org/1999/xlink" width="48" height="48">
  <defs id="acyl-settings">
    <linearGradient id="acyl-gradient" x1="0%" x2="0%" y1="0%" y2="100%">
      <stop offset="0%" style="stop-color:#00FAFF;stop-opacity:1.000000"/>
      <stop offset="74%" style="stop-color:#000BFF;stop-opacity:1.000000"/>
    </linearGradient>
    <g id="acyl-filter">
      <filter id="filter">
        <feTurbulence id="feTurbulence1" type="turbulence" numOctaves="5.0" baseFrequency="0.40 0.40"/>
        <feDisplacementMap id="feDisplacementMap1" xChannelSelector="R"/>
        <feBlend id="feBlend1" in2="SourceGraphic" mode="screen"/>
        <feColorMatrix id="feColorMatrix1" values="1 0 0 -1 0 1 0 1 -1 0 1 0 0 -1 0 -0.8 -1 0 4 -2.5 "/>
        <feGaussianBlur id="feGaussianBlur1" stdDeviation="3.0"/>
        <feSpecularLighting id="feSpecularLighting1" surfaceScale="16.0" specularConstant="0.4" specularExponent="5">
          <feDistantLight id="feDistantLight1" azimuth="225" elevation="35"/>
        </feSpecularLighting>
        <feComposite id="feComposite1" in2="SourceGraphic" k2=" 0.4" k3=" 2.0" operator="arithmetic"/>
        <feComposite id="feComposite2" in2="SourceGraphic" operator="in" result="result2"/>
      </filter>
    </g>
    <g id="acyl-drawing">
      <path d="m 19.883026,2 c -1.171424,0 -2.093681,0.93861 -2.093681,2.110037 l 0,1.014126 -2.976951,0 c -1.171425,0 -2.126394,0.93861 -2.126394,2.110038 l 0,34.101319 20.282528,0 0,-34.101319 c 0,-1.171428 -0.95497,-2.110038 -2.126394,-2.110038 l -2.976952,0 0,-1.014126 C 27.865182,2.93861 26.942926,2 25.771502,2 z m -3.205948,6.673606 12.300372,0 c 0.896377,0 1.619331,0.722952 1.619331,1.619331 l 0,14.426766 -15.539034,0 0,-14.426766 c 0,-0.896379 0.722953,-1.619331 1.619331,-1.619331 z M 12.686,43.36654 l 0,0.50707 C 12.686,45.04503 13.640969,46 14.812394,46 l 16.02974,0 c 1.171424,0 2.126394,-0.95497 2.126394,-2.12639 l 0,-0.50707 z" id="path-main"/>
    </g>
  </defs>
  <g id="acyl-visual">
    <use id="visible1" transform="translate(24,24) scale(1.00) translate(-24,-24)" style="fill:url(#acyl-gradient);filter:url(#filter)" xlink:href="#acyl-drawing"/>
  </g>
</svg>
