<svg xmlns="http://www.w3.org/2000/svg" xmlns:xlink="http://www.w3.org/1999/xlink" width="48" height="48">
  <defs id="acyl-settings">
    <linearGradient id="acyl-gradient" x1="0%" x2="0%" y1="0%" y2="100%">
      <stop offset="0%" style="stop-color:#00FAFF;stop-opacity:1.000000"/>
      <stop offset="74%" style="stop-color:#000BFF;stop-opacity:1.000000"/>
    </linearGradient>
    <g id="acyl-filter">
      <filter id="filter">
        <feTurbulence id="feTurbulence1" type="turbulence" numOctaves="5.0" baseFrequency="0.40 0.40"/>
        <feDisplacementMap id="feDisplacementMap1" xChannelSelector="R"/>
        <feBlend id="feBlend1" in2="SourceGraphic" mode="screen"/>
        <feColorMatrix id="feColorMatrix1" values="1 0 0 -1 0 1 0 1 -1 0 1 0 0 -1 0 -0.8 -1 0 4 -2.5 "/>
        <feGaussianBlur id="feGaussianBlur1" stdDeviation="3.0"/>
        <feSpecularLighting id="feSpecularLighting1" surfaceScale="16.0" specularConstant="0.4" specularExponent="5">
          <feDistantLight id="feDistantLight1" azimuth="225" elevation="35"/>
        </feSpecularLighting>
        <feComposite id="feComposite1" in2="SourceGraphic" k2=" 0.4" k3=" 2.0" operator="arithmetic"/>
        <feComposite id="feComposite2" in2="SourceGraphic" operator="in" result="result2"/>
      </filter>
    </g>
    <g id="acyl-drawing">
      <path id="path-main" d="M 8.988 2 C 5.116 2 2 5.116 2 8.988 L 2 39.01 C 2 42.88 5.116 46 8.988 46 L 39.01 46 C 42.88 46 46 42.88 46 39.01 L 46 8.988 C 46 5.116 42.88 2 39.01 2 L 8.988 2 z M 12.4 5.75 L 35.6 5.75 C 39.26 5.75 42.25 8.738 42.25 12.4 L 42.25 35.6 C 42.25 39.26 39.26 42.25 35.6 42.25 L 12.4 42.25 C 8.738 42.25 5.75 39.26 5.75 35.6 L 5.75 12.4 C 5.75 8.738 8.738 5.75 12.4 5.75 z M 12.4 8.25 C 10.08 8.25 8.25 10.08 8.25 12.4 L 8.25 35.6 C 8.25 37.92 10.08 39.75 12.4 39.75 L 35.6 39.75 C 37.92 39.75 39.75 37.92 39.75 35.6 L 39.75 12.4 C 39.75 10.08 37.92 8.25 35.6 8.25 L 12.4 8.25 z M 21.77 13.05 L 26.27 13.05 L 33.77 34.94 L 29.33 34.94 L 27.84 30.22 L 20.16 30.22 L 18.67 34.94 L 14.24 34.94 L 21.77 13.05 z M 23.97 18.18 L 21.25 26.78 L 26.76 26.78 L 24.06 18.18 L 23.97 18.18 z"/>
    </g>
  </defs>
  <g id="acyl-visual">
    <use id="visible1" transform="translate(24,24) scale(1.00) translate(-24,-24)" style="fill:url(#acyl-gradient);filter:url(#filter)" xlink:href="#acyl-drawing"/>
  </g>
</svg>
