<svg xmlns="http://www.w3.org/2000/svg" xmlns:xlink="http://www.w3.org/1999/xlink" width="48" height="48">
  <defs id="acyl-settings">
    <linearGradient id="acyl-gradient" x1="0%" x2="0%" y1="0%" y2="100%">
      <stop offset="0%" style="stop-color:#00FAFF;stop-opacity:1.000000"/>
      <stop offset="74%" style="stop-color:#000BFF;stop-opacity:1.000000"/>
    </linearGradient>
    <g id="acyl-filter">
      <filter id="filter">
        <feTurbulence id="feTurbulence1" type="turbulence" numOctaves="5.0" baseFrequency="0.40 0.40"/>
        <feDisplacementMap id="feDisplacementMap1" xChannelSelector="R"/>
        <feBlend id="feBlend1" in2="SourceGraphic" mode="screen"/>
        <feColorMatrix id="feColorMatrix1" values="1 0 0 -1 0 1 0 1 -1 0 1 0 0 -1 0 -0.8 -1 0 4 -2.5 "/>
        <feGaussianBlur id="feGaussianBlur1" stdDeviation="3.0"/>
        <feSpecularLighting id="feSpecularLighting1" surfaceScale="16.0" specularConstant="0.4" specularExponent="5">
          <feDistantLight id="feDistantLight1" azimuth="225" elevation="35"/>
        </feSpecularLighting>
        <feComposite id="feComposite1" in2="SourceGraphic" k2=" 0.4" k3=" 2.0" operator="arithmetic"/>
        <feComposite id="feComposite2" in2="SourceGraphic" operator="in" result="result2"/>
      </filter>
    </g>
    <g id="acyl-drawing">
      <path d="m 36.790247,20.732626 1.97895,-0.505279 2.493905,0.338696 4.736898,3.11116 0,0.645596 -4.736898,3.111159 -2.493905,0.338695 -1.97895,-0.505278 -1.435654,3.466445 1.756379,1.041661 1.524129,2.003142 1.149491,5.549076 -0.456893,0.456893 -5.549077,-1.149491 -2.003141,-1.52413 -1.041661,-1.756378 -3.466445,1.435654 0.505278,1.97895 -0.338696,2.493905 L 24.322798,46 23.677202,46 20.566043,41.263102 20.227347,38.769197 20.732625,36.790247 17.26618,35.354593 16.224519,37.110972 14.221378,38.635101 8.6723012,39.784592 8.2154079,39.327699 9.3648988,33.778623 10.889029,31.775481 12.645407,30.73382 11.209753,27.267375 9.2308032,27.772653 6.7368979,27.433958 2,24.322799 2,23.677203 6.7368979,20.566043 9.2308032,20.227347 11.209753,20.732626 12.645407,17.266181 10.889029,16.22452 9.3648987,14.221379 8.2154079,8.672302 8.6723012,8.215408 l 5.5490768,1.149491 2.003141,1.52413 1.041661,1.756379 3.466445,-1.435655 -0.505278,-1.978949 0.338696,-2.493905 3.111159,-4.7368981 0.645596,0 3.111159,4.7368981 0.338696,2.493905 -0.505278,1.978949 3.466445,1.435655 1.041661,-1.756379 2.003141,-1.52413 5.549077,-1.149491 0.456893,0.456894 -1.149491,5.549076 -1.52413,2.003142 -1.756378,1.041661 z" id="path-main"/>
    </g>
  </defs>
  <g id="acyl-visual">
    <use id="visible1" transform="translate(24,24) scale(1.00) translate(-24,-24)" style="fill:url(#acyl-gradient);filter:url(#filter)" xlink:href="#acyl-drawing"/>
  </g>
</svg>
