<svg xmlns="http://www.w3.org/2000/svg" xmlns:xlink="http://www.w3.org/1999/xlink" width="48" height="48">
  <defs id="acyl-settings">
    <linearGradient id="acyl-gradient" x1="0%" x2="0%" y1="0%" y2="100%">
      <stop offset="0%" style="stop-color:#00FAFF;stop-opacity:1.000000"/>
      <stop offset="74%" style="stop-color:#000BFF;stop-opacity:1.000000"/>
    </linearGradient>
    <g id="acyl-filter">
      <filter id="filter">
        <feTurbulence id="feTurbulence1" type="turbulence" numOctaves="5.0" baseFrequency="0.40 0.40"/>
        <feDisplacementMap id="feDisplacementMap1" xChannelSelector="R"/>
        <feBlend id="feBlend1" in2="SourceGraphic" mode="screen"/>
        <feColorMatrix id="feColorMatrix1" values="1 0 0 -1 0 1 0 1 -1 0 1 0 0 -1 0 -0.8 -1 0 4 -2.5 "/>
        <feGaussianBlur id="feGaussianBlur1" stdDeviation="3.0"/>
        <feSpecularLighting id="feSpecularLighting1" surfaceScale="16.0" specularConstant="0.4" specularExponent="5">
          <feDistantLight id="feDistantLight1" azimuth="225" elevation="35"/>
        </feSpecularLighting>
        <feComposite id="feComposite1" in2="SourceGraphic" k2=" 0.4" k3=" 2.0" operator="arithmetic"/>
        <feComposite id="feComposite2" in2="SourceGraphic" operator="in" result="result2"/>
      </filter>
    </g>
    <g id="acyl-drawing">
      <path d="m 23.511071,2.6908044 c -7.907423,0 -14.3437496,6.4050773 -14.3437496,14.3124986 10e-8,3.531421 1.2810946,6.778908 3.4062496,9.28125 l -3.4062496,1.03125 -6.71875,6.25 c -0.4775011,0.445667 -0.8742225,2.688277 0.46875,4.03125 1.5827084,1.582709 3.5992856,0.931569 4.03125,0.46875 l 6.2499996,-6.71875 1.0625,-3.40625 c 2.499932,2.116298 5.726799,3.40625 9.25,3.40625 7.907423,1e-6 14.3125,-6.436327 14.3125,-14.34375 10e-7,-7.907421 -6.405077,-14.3124986 -14.3125,-14.3124986 z m 0,3.59375 c 5.930567,0 10.750001,4.7881816 10.75,10.7187486 0,5.930567 -4.819433,10.749999 -10.75,10.75 -5.930567,0 -10.75,-4.819433 -10.75,-10.75 0,-5.930567 4.819433,-10.7187485 10.75,-10.7187486 z" id="path-main"/>
    </g>
  </defs>
  <g id="acyl-visual">
    <use id="visible1" transform="translate(24,24) scale(1.00) translate(-24,-24)" style="fill:url(#acyl-gradient);filter:url(#filter)" xlink:href="#acyl-drawing"/>
  </g>
</svg>
