<svg xmlns="http://www.w3.org/2000/svg" xmlns:xlink="http://www.w3.org/1999/xlink" width="48" height="48">
  <defs id="acyl-settings">
    <linearGradient id="acyl-gradient" x1="0%" x2="0%" y1="0%" y2="100%">
      <stop offset="0%" style="stop-color:#00FAFF;stop-opacity:1.000000"/>
      <stop offset="74%" style="stop-color:#000BFF;stop-opacity:1.000000"/>
    </linearGradient>
    <g id="acyl-filter">
      <filter id="filter">
        <feTurbulence id="feTurbulence1" type="turbulence" numOctaves="5.0" baseFrequency="0.40 0.40"/>
        <feDisplacementMap id="feDisplacementMap1" xChannelSelector="R"/>
        <feBlend id="feBlend1" in2="SourceGraphic" mode="screen"/>
        <feColorMatrix id="feColorMatrix1" values="1 0 0 -1 0 1 0 1 -1 0 1 0 0 -1 0 -0.8 -1 0 4 -2.5 "/>
        <feGaussianBlur id="feGaussianBlur1" stdDeviation="3.0"/>
        <feSpecularLighting id="feSpecularLighting1" surfaceScale="16.0" specularConstant="0.4" specularExponent="5">
          <feDistantLight id="feDistantLight1" azimuth="225" elevation="35"/>
        </feSpecularLighting>
        <feComposite id="feComposite1" in2="SourceGraphic" k2=" 0.4" k3=" 2.0" operator="arithmetic"/>
        <feComposite id="feComposite2" in2="SourceGraphic" operator="in" result="result2"/>
      </filter>
    </g>
    <g id="acyl-drawing">
      <path id="path-main" d="M 5.9817708,2 C 3.7380238,2 2,3.9310423 2,6.125 l 0,35.75 C 2,44.068957 3.7380239,46 5.9817708,46 L 42.018229,46 C 44.261976,46 46,44.068958 46,41.875 L 46,6.125 C 46,3.9310423 44.261976,2 42.018229,2 L 5.9817708,2 z m -0.3151041,7.791667 36.6666663,0 0,15.010416 c -0.737881,-0.293758 -1.646642,-0.458333 -2.75,-0.458333 l -22,0 0,-5.84375 -10.9999997,10.541667 10.9999997,10.541666 0,-5.786458 22.143229,0 c 1.079447,0 1.915803,0.309956 2.606771,0.744792 l 0,7.333333 c 0,0.354567 -0.176763,0.458333 -0.315104,0.458333 l -36.0364582,0 c -0.1383408,0 -0.3151041,-0.103768 -0.3151041,-0.458333 l 0,-32.083333 z"/>
    </g>
  </defs>
  <g id="acyl-visual">
    <use id="visible1" transform="translate(24,24) scale(1.00) translate(-24,-24)" style="fill:url(#acyl-gradient);filter:url(#filter)" xlink:href="#acyl-drawing"/>
  </g>
</svg>
