<svg xmlns="http://www.w3.org/2000/svg" xmlns:xlink="http://www.w3.org/1999/xlink" width="48" height="48">
  <defs id="acyl-settings">
    <linearGradient id="acyl-gradient" x1="0%" x2="0%" y1="0%" y2="100%">
      <stop offset="0%" style="stop-color:#00FAFF;stop-opacity:1.000000"/>
      <stop offset="74%" style="stop-color:#000BFF;stop-opacity:1.000000"/>
    </linearGradient>
    <g id="acyl-filter">
      <filter id="filter">
        <feTurbulence id="feTurbulence1" type="turbulence" numOctaves="5.0" baseFrequency="0.40 0.40"/>
        <feDisplacementMap id="feDisplacementMap1" xChannelSelector="R"/>
        <feBlend id="feBlend1" in2="SourceGraphic" mode="screen"/>
        <feColorMatrix id="feColorMatrix1" values="1 0 0 -1 0 1 0 1 -1 0 1 0 0 -1 0 -0.8 -1 0 4 -2.5 "/>
        <feGaussianBlur id="feGaussianBlur1" stdDeviation="3.0"/>
        <feSpecularLighting id="feSpecularLighting1" surfaceScale="16.0" specularConstant="0.4" specularExponent="5">
          <feDistantLight id="feDistantLight1" azimuth="225" elevation="35"/>
        </feSpecularLighting>
        <feComposite id="feComposite1" in2="SourceGraphic" k2=" 0.4" k3=" 2.0" operator="arithmetic"/>
        <feComposite id="feComposite2" in2="SourceGraphic" operator="in" result="result2"/>
      </filter>
    </g>
    <g id="acyl-drawing">
      <path id="path-main" d="M 23.5 2.78125 L 23.5 8.4375 L 35.96875 8.4375 L 22.96875 21.96875 L 22.96875 27.5 L 45.0625 27.5 L 45.0625 21.84375 L 32.03125 21.84375 L 45.0625 8.3125 L 45.0625 2.78125 L 23.5 2.78125 z M 13.1875 26.34375 L 13.1875 30.3125 L 22.1875 30.3125 L 12.78125 39.8125 L 12.78125 43.65625 L 28.71875 43.65625 L 28.71875 39.71875 L 19.34375 39.71875 L 28.71875 30.21875 L 28.71875 28.875 L 21.125 28.875 L 21.125 26.34375 L 13.1875 26.34375 z M 3.15625 36.28125 L 3.15625 38.6875 L 7 38.6875 L 2.84375 43.21875 L 2.84375 45.53125 L 11.5 45.53125 L 11.5 43.09375 L 6.84375 43.09375 L 11.21875 38.34375 L 11.21875 36.28125 L 3.15625 36.28125 z "/>
    </g>
  </defs>
  <g id="acyl-visual">
    <use id="visible1" transform="translate(24,24) scale(1.00) translate(-24,-24)" style="fill:url(#acyl-gradient);filter:url(#filter)" xlink:href="#acyl-drawing"/>
  </g>
</svg>
