<svg xmlns="http://www.w3.org/2000/svg" xmlns:xlink="http://www.w3.org/1999/xlink" width="48" height="48">
  <defs id="acyl-settings">
    <linearGradient id="acyl-gradient" x1="0%" x2="0%" y1="0%" y2="100%">
      <stop offset="0%" style="stop-color:#00FAFF;stop-opacity:1.000000"/>
      <stop offset="74%" style="stop-color:#000BFF;stop-opacity:1.000000"/>
    </linearGradient>
    <g id="acyl-filter">
      <filter id="filter">
        <feTurbulence id="feTurbulence1" type="turbulence" numOctaves="5.0" baseFrequency="0.40 0.40"/>
        <feDisplacementMap id="feDisplacementMap1" xChannelSelector="R"/>
        <feBlend id="feBlend1" in2="SourceGraphic" mode="screen"/>
        <feColorMatrix id="feColorMatrix1" values="1 0 0 -1 0 1 0 1 -1 0 1 0 0 -1 0 -0.8 -1 0 4 -2.5 "/>
        <feGaussianBlur id="feGaussianBlur1" stdDeviation="3.0"/>
        <feSpecularLighting id="feSpecularLighting1" surfaceScale="16.0" specularConstant="0.4" specularExponent="5">
          <feDistantLight id="feDistantLight1" azimuth="225" elevation="35"/>
        </feSpecularLighting>
        <feComposite id="feComposite1" in2="SourceGraphic" k2=" 0.4" k3=" 2.0" operator="arithmetic"/>
        <feComposite id="feComposite2" in2="SourceGraphic" operator="in" result="result2"/>
      </filter>
    </g>
    <g id="acyl-drawing">
      <path d="M 5.2144541,2 C 3.4298977,2 2,3.4446354 2,5.2211838 L 2,32.018692 c 0,1.776548 1.4298973,3.255451 3.2144541,3.255451 l 37.5365279,0 C 44.535537,35.274143 46,33.79524 46,32.018692 L 46,5.2211838 C 46,3.4446353 44.535537,2 42.750982,2 L 5.2144541,2 z m 4.0439909,6.4766355 29.48311,0 c 0.44341,0 0.794973,0.337693 0.794973,0.788162 l 0,18.7445485 c 0,0.45047 -0.351562,0.788162 -0.794973,0.788162 l -29.48311,0 c -0.44341,0 -0.794973,-0.337692 -0.794973,-0.788162 l 0,-18.7445485 c 0,-0.450469 0.351563,-0.788162 0.794973,-0.788162 z m 9.36685,28.3738315 c -1.566093,0 -2.67571,1.198458 -2.972506,2.672897 l -2.384917,0 c -1.784558,0 -3.249019,1.444636 -3.249019,3.221184 0,1.776549 1.464461,3.255452 3.249019,3.255452 l 5.357423,0 10.714846,0 5.391987,0 c 1.784557,0 3.214455,-1.478902 3.214455,-3.255452 0,-1.776548 -1.429898,-3.221184 -3.214455,-3.221184 l -2.384917,0 c -0.296796,-1.474439 -1.440977,-2.672897 -3.00707,-2.672897 l -10.714846,0 z" id="path-main"/>
    </g>
  </defs>
  <g id="acyl-visual">
    <use id="visible1" transform="translate(24,24) scale(1.00) translate(-24,-24)" style="fill:url(#acyl-gradient);filter:url(#filter)" xlink:href="#acyl-drawing"/>
  </g>
</svg>
