<svg xmlns="http://www.w3.org/2000/svg" xmlns:xlink="http://www.w3.org/1999/xlink" width="48" height="48">
  <defs id="acyl-settings">
    <linearGradient id="acyl-gradient" x1="0%" x2="0%" y1="0%" y2="100%">
      <stop offset="0%" style="stop-color:#00FAFF;stop-opacity:1.000000"/>
      <stop offset="74%" style="stop-color:#000BFF;stop-opacity:1.000000"/>
    </linearGradient>
    <g id="acyl-filter">
      <filter id="filter">
        <feTurbulence id="feTurbulence1" type="turbulence" numOctaves="5.0" baseFrequency="0.40 0.40"/>
        <feDisplacementMap id="feDisplacementMap1" xChannelSelector="R"/>
        <feBlend id="feBlend1" in2="SourceGraphic" mode="screen"/>
        <feColorMatrix id="feColorMatrix1" values="1 0 0 -1 0 1 0 1 -1 0 1 0 0 -1 0 -0.8 -1 0 4 -2.5 "/>
        <feGaussianBlur id="feGaussianBlur1" stdDeviation="3.0"/>
        <feSpecularLighting id="feSpecularLighting1" surfaceScale="16.0" specularConstant="0.4" specularExponent="5">
          <feDistantLight id="feDistantLight1" azimuth="225" elevation="35"/>
        </feSpecularLighting>
        <feComposite id="feComposite1" in2="SourceGraphic" k2=" 0.4" k3=" 2.0" operator="arithmetic"/>
        <feComposite id="feComposite2" in2="SourceGraphic" operator="in" result="result2"/>
      </filter>
    </g>
    <g id="acyl-drawing">
      <path d="m 23.999836,45.99999 c -0.218676,0 -0.436435,-0.004 -0.653785,-0.0103 l 4.496035,-12.35643 h 6.187486 c 1.086044,0 2.278216,-0.83488 2.64967,-1.85492 l 4.877877,-13.39818 c 0.798007,-2.19357 -0.458434,-3.9882 -2.792568,-3.9882 h -8.583952 l -7.202437,19.7914 h -0.0026 L 18.892437,45.40262 C 9.2053265,43.09965 1.9999365,34.39165 1.9999365,24.00003 c 0,-10.09207 6.79564,-18.59607 16.0602705,-21.18789 l -4.21309,11.57982 h -0.001 l -7.0040305,19.2413 4.6625705,4.1e-4 5.95638,-16.35035 h 3.504099 l -5.956379,16.35035 4.66083,8.1e-4 5.55071,-15.25432 c 0.798517,-2.19357 -0.458027,-3.9882 -2.79002,-3.9882 h -3.91935 L 23.01134,2.0231 C 23.339404,2.0085 23.668689,2 24.000115,2 36.150402,2 46.000064,11.84966 46.000064,24.00005 46.000064,36.15013 36.150402,46 24.000115,46 Z M 37.311026,17.27162 H 33.80784 l -4.905887,13.46051 h 3.503289 z" id="path-main"/>
    </g>
  </defs>
  <g id="acyl-visual">
    <use id="visible1" transform="translate(24,24) scale(1.00) translate(-24,-24)" style="fill:url(#acyl-gradient);filter:url(#filter)" xlink:href="#acyl-drawing"/>
  </g>
</svg>
