<svg xmlns="http://www.w3.org/2000/svg" xmlns:xlink="http://www.w3.org/1999/xlink" width="48" height="48">
  <defs id="acyl-settings">
    <linearGradient id="acyl-gradient" x1="0%" x2="0%" y1="0%" y2="100%">
      <stop offset="0%" style="stop-color:#00FAFF;stop-opacity:1.000000"/>
      <stop offset="74%" style="stop-color:#000BFF;stop-opacity:1.000000"/>
    </linearGradient>
    <g id="acyl-filter">
      <filter id="filter">
        <feTurbulence id="feTurbulence1" type="turbulence" numOctaves="5.0" baseFrequency="0.40 0.40"/>
        <feDisplacementMap id="feDisplacementMap1" xChannelSelector="R"/>
        <feBlend id="feBlend1" in2="SourceGraphic" mode="screen"/>
        <feColorMatrix id="feColorMatrix1" values="1 0 0 -1 0 1 0 1 -1 0 1 0 0 -1 0 -0.8 -1 0 4 -2.5 "/>
        <feGaussianBlur id="feGaussianBlur1" stdDeviation="3.0"/>
        <feSpecularLighting id="feSpecularLighting1" surfaceScale="16.0" specularConstant="0.4" specularExponent="5">
          <feDistantLight id="feDistantLight1" azimuth="225" elevation="35"/>
        </feSpecularLighting>
        <feComposite id="feComposite1" in2="SourceGraphic" k2=" 0.4" k3=" 2.0" operator="arithmetic"/>
        <feComposite id="feComposite2" in2="SourceGraphic" operator="in" result="result2"/>
      </filter>
    </g>
    <g id="acyl-drawing">
      <path id="path-main" d="M 24,3.3571469 C 12.07744,3.3571468 1.9999998,11.153318 2,21.271433 c 10e-8,9.818944 9.620269,18.088053 22.971429,17.971428 1.54786,3.119341 5.067467,6.05544 10.342857,6.171429 L 39.142857,45.5 36.771429,42.442857 C 35.460923,40.763341 34.342618,39.710082 34.057143,37.01429 40.964585,34.080986 46,28.288488 46,21.271433 46.000002,11.153317 35.922561,3.357147 24,3.3571469 z m 0,3.6571428 c 10.343825,2e-7 18.342858,6.6193453 18.342857,14.2571433 0,5.65081 -4.327205,10.674212 -10.857143,12.971428 l -1.228571,0.428572 0.02857,1.314285 c 0.01884,1.9055 0.449886,3.369212 1,4.628572 -1.87304,-1.025439 -3.080565,-2.515698 -3.457143,-3.714286 l -0.4,-1.342857 L 26,35.61429 C 13.541639,36.200759 5.6571429,28.908363 5.6571429,21.271433 5.6571427,13.633636 13.656176,7.0142896 24,7.0142897 z m -8.228571,2.6571433 0,20.857142 5,0 0,-9.085714 11.342857,11.485714 0,-20.942857 -5.171429,0 0,9.2 L 15.771429,9.671433 z"/>
    </g>
  </defs>
  <g id="acyl-visual">
    <use id="visible1" transform="translate(24,24) scale(1.00) translate(-24,-24)" style="fill:url(#acyl-gradient);filter:url(#filter)" xlink:href="#acyl-drawing"/>
  </g>
</svg>
