<svg xmlns="http://www.w3.org/2000/svg" xmlns:xlink="http://www.w3.org/1999/xlink" width="48" height="48">
  <defs id="acyl-settings">
    <linearGradient id="acyl-gradient" x1="0%" x2="0%" y1="0%" y2="100%">
      <stop offset="0%" style="stop-color:#00FAFF;stop-opacity:1.000000"/>
      <stop offset="74%" style="stop-color:#000CFF;stop-opacity:1.000000"/>
    </linearGradient>
    <g id="acyl-filter">
      <filter id="filter">
        <feTurbulence id="feTurbulence1" type="turbulence" numOctaves="5.0" baseFrequency="0.40 0.40"/>
        <feDisplacementMap id="feDisplacementMap1" xChannelSelector="R"/>
        <feBlend id="feBlend1" in2="SourceGraphic" mode="screen"/>
        <feColorMatrix id="feColorMatrix1" values="1 0 0 -1 0 1 0 1 -1 0 1 0 0 -1 0 -0.8 -1 0 4 -2.5 "/>
        <feGaussianBlur id="feGaussianBlur1" stdDeviation="3.0"/>
        <feSpecularLighting id="feSpecularLighting1" surfaceScale="16.0" specularConstant="0.4" specularExponent="5">
          <feDistantLight id="feDistantLight1" azimuth="225" elevation="35"/>
        </feSpecularLighting>
        <feComposite id="feComposite1" in2="SourceGraphic" k2=" 0.4" k3=" 2.0" operator="arithmetic"/>
        <feComposite id="feComposite2" in2="SourceGraphic" operator="in" result="result2"/>
      </filter>
    </g>
    <g id="acyl-drawing">
      <path id="path-main" d="M 23.985668,2 C 11.837102,2 2,11.859342 2,24 2,36.140656 11.837101,46 23.985668,46 36.134235,46 45.999995,36.140657 46,24 46.000001,11.859341 36.134234,2 23.985668,2 z m -5.67557,9.166667 c 0.477997,-0.01777 0.950396,0.04259 1.433224,0.171875 1.674758,0.448458 3.005637,1.716717 3.468404,3.380208 l -2.637133,0.773437 c -0.218104,-0.78401 -0.727571,-1.269924 -1.547883,-1.489583 -1.167522,-0.312633 -2.285924,0.33623 -2.579804,1.432292 L 13.781107,14.71875 c 0.558684,-2.08368 2.457671,-3.475069 4.528991,-3.552083 z m 11.064495,0 c 0.477997,-0.01777 0.979061,0.04259 1.461889,0.171875 1.674758,0.448458 2.976973,1.716717 3.439739,3.380208 l -2.637133,0.773437 c -0.218104,-0.78401 -0.698905,-1.269924 -1.519218,-1.489583 -1.167522,-0.312633 -2.285924,0.33623 -2.579805,1.432292 L 24.874267,14.71875 c 0.558683,-2.08368 2.429006,-3.475069 4.500326,-3.552083 z M 5.9557003,21.565104 41.299023,21.622396 c 2.133242,10.35738 -5.356628,20.42448 -17.6,20.424479 -12.137776,0 -19.5820467,-11.446403 -17.7433227,-20.481771 z"/>
    </g>
  </defs>
  <g id="acyl-visual">
    <use id="visible1" transform="translate(24,24) scale(1.00) translate(-24,-24)" style="fill:url(#acyl-gradient);filter:url(#filter)" xlink:href="#acyl-drawing"/>
  </g>
</svg>
