<svg xmlns="http://www.w3.org/2000/svg" xmlns:xlink="http://www.w3.org/1999/xlink" width="48" height="48">
  <defs id="acyl-settings">
    <linearGradient id="acyl-gradient" x1="0%" x2="0%" y1="0%" y2="100%">
      <stop offset="0%" style="stop-color:#00FAFF;stop-opacity:1.000000"/>
      <stop offset="74%" style="stop-color:#000BFF;stop-opacity:1.000000"/>
    </linearGradient>
    <g id="acyl-filter">
      <filter id="filter">
        <feTurbulence id="feTurbulence1" type="turbulence" numOctaves="5.0" baseFrequency="0.40 0.40"/>
        <feDisplacementMap id="feDisplacementMap1" xChannelSelector="R"/>
        <feBlend id="feBlend1" in2="SourceGraphic" mode="screen"/>
        <feColorMatrix id="feColorMatrix1" values="1 0 0 -1 0 1 0 1 -1 0 1 0 0 -1 0 -0.8 -1 0 4 -2.5 "/>
        <feGaussianBlur id="feGaussianBlur1" stdDeviation="3.0"/>
        <feSpecularLighting id="feSpecularLighting1" surfaceScale="16.0" specularConstant="0.4" specularExponent="5">
          <feDistantLight id="feDistantLight1" azimuth="225" elevation="35"/>
        </feSpecularLighting>
        <feComposite id="feComposite1" in2="SourceGraphic" k2=" 0.4" k3=" 2.0" operator="arithmetic"/>
        <feComposite id="feComposite2" in2="SourceGraphic" operator="in" result="result2"/>
      </filter>
    </g>
    <g id="acyl-drawing">
      <path d="m 25.568045,2 c -2.067064,0 -3.744681,1.6776171 -3.744681,3.7446809 0,2.0670637 1.677617,3.7446811 3.744681,3.7446811 2.067064,0 3.74468,-1.6776173 3.744681,-3.7446811 C 29.312726,3.6776171 27.63511,2 25.568045,2 z m -3.744681,10.297872 0,17.787234 7.489362,0 0,-17.787234 -7.489362,0 z m -2.808511,1.31649 c -6.04718,2.559664 -10.2978718,8.559542 -10.2978719,15.534574 0,9.300043 7.5510209,16.851065 16.8510639,16.851064 9.300043,0 16.851064,-7.551021 16.851064,-16.851064 0,-6.975032 -4.250692,-12.97491 -10.297873,-15.534574 l 0,6.43617 c 2.832009,2.040629 4.680851,5.345106 4.680851,9.098404 10e-7,6.199448 -5.034594,11.234043 -11.234042,11.234043 -6.199448,2e-6 -11.234043,-5.034594 -11.234043,-11.234043 0,-3.753298 1.848843,-7.057775 4.680851,-9.098404 l 0,-6.43617 z" id="path-main"/>
    </g>
  </defs>
  <g id="acyl-visual">
    <use id="visible1" transform="translate(24,24) scale(1.00) translate(-24,-24)" style="fill:url(#acyl-gradient);filter:url(#filter)" xlink:href="#acyl-drawing"/>
  </g>
</svg>
