<svg xmlns="http://www.w3.org/2000/svg" xmlns:xlink="http://www.w3.org/1999/xlink" width="48" height="48" viewBox="0 0 12.699998 12.699998">
  <defs id="acyl-settings">
    <linearGradient id="acyl-gradient" x1="0%" x2="0%" y1="0%" y2="100%">
      <stop offset="0%" style="stop-color:#00FAFF;stop-opacity:1.000000"/>
      <stop offset="74%" style="stop-color:#000CFF;stop-opacity:1.000000"/>
    </linearGradient>
    <g id="acyl-filter">
      <filter id="filter">
        <feTurbulence id="feTurbulence1" type="turbulence" numOctaves="5.0" baseFrequency="0.40 0.40"/>
        <feDisplacementMap id="feDisplacementMap1" xChannelSelector="R"/>
        <feBlend id="feBlend1" in2="SourceGraphic" mode="screen"/>
        <feColorMatrix id="feColorMatrix1" values="1 0 0 -1 0 1 0 1 -1 0 1 0 0 -1 0 -0.8 -1 0 4 -2.5 "/>
        <feGaussianBlur id="feGaussianBlur1" stdDeviation="3.0"/>
        <feSpecularLighting id="feSpecularLighting1" surfaceScale="16.0" specularConstant="0.4" specularExponent="5">
          <feDistantLight id="feDistantLight1" azimuth="225" elevation="35"/>
        </feSpecularLighting>
        <feComposite id="feComposite1" in2="SourceGraphic" k2=" 0.4" k3=" 2.0" operator="arithmetic"/>
        <feComposite id="feComposite2" in2="SourceGraphic" operator="in" result="result2"/>
      </filter>
    </g>
    <g id="acyl-drawing" transform="translate(0,-284.30002)">
      <path d="m 0.59065064,296.242 c -0.05692,-0.14831 -0.0782,-2.77686 -0.04729,-5.84123 l 0.05618,-5.57158 H 6.3851866 12.170833 v 5.78525 5.78523 l -5.7383514,0.056 c -4.513325,0.044 -5.76044196,-0.002 -5.84183296,-0.21367 z m 5.26856896,-1.63049 c 0,-0.25832 -0.362013,-0.31556 -1.995796,-0.31556 -1.749308,0 -2.00474,0.0465 -2.068208,0.37598 -0.06619,0.34367 0.10527,0.37078 1.995797,0.31555 1.671295,-0.0488 2.068207,-0.12097 2.068207,-0.37597 z m 2.465391,-3.93347 c 0.335989,-0.30403 0.380971,-0.6269 0.329386,-2.36419 -0.05499,-1.85189 -0.09324,-2.01205 -0.480518,-2.01205 -0.380494,0 -0.426746,0.16104 -0.483154,1.68224 -0.03431,0.92523 -0.153042,1.7729 -0.263849,1.8837 -0.110808,0.1108 -0.53244,0.17917 -0.936959,0.15193 -0.618785,-0.0417 -0.735491,0.0193 -0.735491,0.38458 0,0.85029 1.729912,1.03454 2.570585,0.27379 z m -3.62252,0.0673 c 0,-0.15939 -0.142012,-0.40765 -0.31558,-0.55169 -0.446671,-0.37068 -0.428642,-2.4716 0.02551,-2.97341 0.506883,-0.56006 0.220263,-1.02367 -0.632868,-1.02367 -0.399163,0 -0.875505,0.0575 -1.058539,0.1277 -0.421375,0.16168 -0.431596,0.63086 -0.01721,0.78987 0.235092,0.0902 0.315581,0.46497 0.315581,1.46935 0,0.94181 -0.09514,1.42721 -0.315581,1.61016 -0.660359,0.54801 -0.366859,0.84149 0.841549,0.84149 0.842589,0 1.157128,-0.0788 1.157128,-0.2898 z" id="path-main"/>
    </g>
  </defs>
  <g id="acyl-visual">
    <use id="visible1" transform="translate(24,24) scale(1.00) translate(-24,-24)" style="fill:url(#acyl-gradient);filter:url(#filter)" xlink:href="#acyl-drawing"/>
  </g>
</svg>
