<svg xmlns="http://www.w3.org/2000/svg" xmlns:xlink="http://www.w3.org/1999/xlink" width="48" height="48">
  <defs id="acyl-settings">
    <linearGradient id="acyl-gradient" x1="0%" x2="0%" y1="0%" y2="100%">
      <stop offset="0%" style="stop-color:#00FAFF;stop-opacity:1.000000"/>
      <stop offset="74%" style="stop-color:#000BFF;stop-opacity:1.000000"/>
    </linearGradient>
    <g id="acyl-filter">
      <filter id="filter">
        <feTurbulence id="feTurbulence1" type="turbulence" numOctaves="5.0" baseFrequency="0.40 0.40"/>
        <feDisplacementMap id="feDisplacementMap1" xChannelSelector="R"/>
        <feBlend id="feBlend1" in2="SourceGraphic" mode="screen"/>
        <feColorMatrix id="feColorMatrix1" values="1 0 0 -1 0 1 0 1 -1 0 1 0 0 -1 0 -0.8 -1 0 4 -2.5 "/>
        <feGaussianBlur id="feGaussianBlur1" stdDeviation="3.0"/>
        <feSpecularLighting id="feSpecularLighting1" surfaceScale="16.0" specularConstant="0.4" specularExponent="5">
          <feDistantLight id="feDistantLight1" azimuth="225" elevation="35"/>
        </feSpecularLighting>
        <feComposite id="feComposite1" in2="SourceGraphic" k2=" 0.4" k3=" 2.0" operator="arithmetic"/>
        <feComposite id="feComposite2" in2="SourceGraphic" operator="in" result="result2"/>
      </filter>
    </g>
    <g id="acyl-drawing">
      <path d="m 18.924846,2.0000001 -1.17303,0.5421794 7.331439,28.1516215 c -1.079782,-0.0755 -3.73754,-0.219632 -6.954394,0.375355 -1.977203,0.365701 -4.0191,1.031833 -5.571894,2.210423 -1.552795,1.178591 -2.6012149,2.93167 -2.555531,5.296675 0.04409,2.282544 0.668007,3.979085 1.675759,5.129851 1.00775,1.150767 2.376841,1.75204 3.72856,2.043599 1.35172,0.29156 2.723886,0.278122 3.896137,0.208531 1.172249,-0.06959 2.164519,-0.208531 2.597423,-0.208531 1.329864,0 3.550957,-0.616588 5.571894,-1.876774 2.020937,-1.260187 3.833962,-3.274745 3.644773,-6.005679 -0.181184,-2.615387 -1.715426,-8.72898 -3.18394,-14.305194 -1.112598,-4.224739 -1.716347,-6.33522 -2.178484,-7.965867 0.723526,0.704105 1.500739,1.467396 2.513636,2.0436 2.3192,1.319316 6.232446,3.782035 8.295,7.256862 l 0.921667,1.543126 0.335151,-1.751656 C 38.715167,19.870585 36.113177,15.218862 33.7553,13.052118 32.491912,11.891142 29.565658,10.306733 26.507649,8.3393283 23.449639,6.3719236 20.30803,4.0654733 18.924846,2.0000001 z" id="path-main"/>
    </g>
  </defs>
  <g id="acyl-visual">
    <use id="visible1" transform="translate(24,24) scale(1.00) translate(-24,-24)" style="fill:url(#acyl-gradient);filter:url(#filter)" xlink:href="#acyl-drawing"/>
  </g>
</svg>
