<svg xmlns="http://www.w3.org/2000/svg" xmlns:xlink="http://www.w3.org/1999/xlink" width="48" height="48">
  <defs id="acyl-settings">
    <linearGradient id="acyl-gradient" x1="0%" x2="0%" y1="0%" y2="100%">
      <stop offset="0%" style="stop-color:#00FAFF;stop-opacity:1.000000"/>
      <stop offset="74%" style="stop-color:#000BFF;stop-opacity:1.000000"/>
    </linearGradient>
    <g id="acyl-filter">
      <filter id="filter">
        <feTurbulence id="feTurbulence1" type="turbulence" numOctaves="5.0" baseFrequency="0.40 0.40"/>
        <feDisplacementMap id="feDisplacementMap1" xChannelSelector="R"/>
        <feBlend id="feBlend1" in2="SourceGraphic" mode="screen"/>
        <feColorMatrix id="feColorMatrix1" values="1 0 0 -1 0 1 0 1 -1 0 1 0 0 -1 0 -0.8 -1 0 4 -2.5 "/>
        <feGaussianBlur id="feGaussianBlur1" stdDeviation="3.0"/>
        <feSpecularLighting id="feSpecularLighting1" surfaceScale="16.0" specularConstant="0.4" specularExponent="5">
          <feDistantLight id="feDistantLight1" azimuth="225" elevation="35"/>
        </feSpecularLighting>
        <feComposite id="feComposite1" in2="SourceGraphic" k2=" 0.4" k3=" 2.0" operator="arithmetic"/>
        <feComposite id="feComposite2" in2="SourceGraphic" operator="in" result="result2"/>
      </filter>
    </g>
    <g id="acyl-drawing">
      <path d="M 24 2 A 22 22 0 0 0 2 24 A 22 22 0 0 0 24 46 A 22 22 0 0 0 46 24 A 22 22 0 0 0 24 2 z M 21.502 8.25781 A 7.5667 11.6975 44.3381 0 1 25.6836 9.8457 A 7.5667 11.6975 44.3381 0 1 24.2324 21.8613 L 30.6387 28.2695 L 32.4648 26.4141 L 30.2207 24.168 L 32.2168 22.1719 L 38.6367 28.5898 L 36.6406 30.5879 L 34.2832 28.2324 L 32.459 30.0879 L 37.1738 34.8027 C 36.9747 36.7188 35.9498 37.6442 34.2344 37.7422 L 21.3262 24.834 A 7.5667 11.6975 44.3381 0 1 9.2207 26.4648 A 7.5667 11.6975 44.3381 0 1 12.127 12.7793 A 7.5667 11.6975 44.3381 0 1 21.502 8.25781 z M 19.7812 12.5547 A 3.58036 3.58036 0 0 0 16.1992 16.1348 A 3.58036 3.58036 0 0 0 16.2773 16.8555 A 3.58036 3.58036 0 0 0 15.4258 16.75 A 3.58036 3.58036 0 0 0 11.8457 20.3301 A 3.58036 3.58036 0 0 0 15.4258 23.9102 A 3.58036 3.58036 0 0 0 19.0078 20.3301 A 3.58036 3.58036 0 0 0 18.9297 19.6094 A 3.58036 3.58036 0 0 0 19.7812 19.7148 A 3.58036 3.58036 0 0 0 23.3613 16.1348 A 3.58036 3.58036 0 0 0 19.7812 12.5547 z" id="path-main"/>
    </g>
  </defs>
  <g id="acyl-visual">
    <use id="visible1" transform="translate(24,24) scale(1.00) translate(-24,-24)" style="fill:url(#acyl-gradient);filter:url(#filter)" xlink:href="#acyl-drawing"/>
  </g>
</svg>
