<svg xmlns="http://www.w3.org/2000/svg" xmlns:xlink="http://www.w3.org/1999/xlink" width="48" height="48">
  <defs id="acyl-settings">
    <linearGradient id="acyl-gradient" x1="0%" x2="0%" y1="0%" y2="100%">
      <stop offset="0%" style="stop-color:#00FAFF;stop-opacity:1.000000"/>
      <stop offset="74%" style="stop-color:#000CFF;stop-opacity:1.000000"/>
    </linearGradient>
    <g id="acyl-filter">
      <filter id="filter">
        <feTurbulence id="feTurbulence1" type="turbulence" numOctaves="5.0" baseFrequency="0.40 0.40"/>
        <feDisplacementMap id="feDisplacementMap1" xChannelSelector="R"/>
        <feBlend id="feBlend1" in2="SourceGraphic" mode="screen"/>
        <feColorMatrix id="feColorMatrix1" values="1 0 0 -1 0 1 0 1 -1 0 1 0 0 -1 0 -0.8 -1 0 4 -2.5 "/>
        <feGaussianBlur id="feGaussianBlur1" stdDeviation="3.0"/>
        <feSpecularLighting id="feSpecularLighting1" surfaceScale="16.0" specularConstant="0.4" specularExponent="5">
          <feDistantLight id="feDistantLight1" azimuth="225" elevation="35"/>
        </feSpecularLighting>
        <feComposite id="feComposite1" in2="SourceGraphic" k2=" 0.4" k3=" 2.0" operator="arithmetic"/>
        <feComposite id="feComposite2" in2="SourceGraphic" operator="in" result="result2"/>
      </filter>
    </g>
    <g id="acyl-drawing">
      <path d="m 4.747,5.668 c -1.521,0 -2.749,1.234 -2.749,2.754 V 39.58 c 0,1.52 1.228,2.75 2.749,2.75 H 43.25 C 44.77,42.33 46,41.1 46,39.58 V 8.422 C 46,6.902 44.77,5.668 43.25,5.668 Z M 7.524,9.432 H 19.44 v 2.008 l -2.83,0.21 -0.57,0.61 -2.11,11.26 H 15.2 L 25.97,12.41 25.71,11.73 23.05,11.52 V 9.432 H 33.8 v 2.088 l -3.43,0.33 -10.06,10.19 5.5,11 c 0.67,1.32 1.24,2.19 2.16,2.68 0.1,-0.1 0.1,-0.16 0.1,-0.26 l 1.41,-7.75 c 0.46,-2.49 0.66,-4.11 0.46,-4.86 l -2.89,-0.46 0.33,-1.18 6.27,-1.37 c 1.4,0.44 1.26,1.59 0.84,3.76 l -2.01,10.56 c 3.05,-2.79 5.55,-5.47 7.44,-7.93 l 0.69,-5.5 c 0.96,-0.64 1.81,-0.95 2.55,-0.95 1.53,0 2.25,0.98 1.8,2.59 -0.74,2.64 -5.44,8.49 -14.63,16.17 -2.67,0.1 -3.06,0 -4.05,0 -3.44,0 -4.55,-1.45 -6.14,-4.72 l -3.9,-8.18 h -2.71 l -1.76,9.64 0.46,0.67 2.66,0.18 v 2.09 H 2.915 v -2.1 l 2.74,-0.2 0.668,-0.64 4.317,-23.01 -0.43,-0.62 -2.686,-0.21 z" id="path-main"/>
    </g>
  </defs>
  <g id="acyl-visual">
    <use id="visible1" transform="translate(24,24) scale(1.00) translate(-24,-24)" style="fill:url(#acyl-gradient);filter:url(#filter)" xlink:href="#acyl-drawing"/>
  </g>
</svg>
