<svg xmlns="http://www.w3.org/2000/svg" xmlns:xlink="http://www.w3.org/1999/xlink" width="48" height="48">
  <defs id="acyl-settings">
    <linearGradient id="acyl-gradient" x1="0%" x2="0%" y1="0%" y2="100%">
      <stop offset="0%" style="stop-color:#00FAFF;stop-opacity:1.000000"/>
      <stop offset="74%" style="stop-color:#000BFF;stop-opacity:1.000000"/>
    </linearGradient>
    <g id="acyl-filter">
      <filter id="filter">
        <feTurbulence id="feTurbulence1" type="turbulence" numOctaves="5.0" baseFrequency="0.40 0.40"/>
        <feDisplacementMap id="feDisplacementMap1" xChannelSelector="R"/>
        <feBlend id="feBlend1" in2="SourceGraphic" mode="screen"/>
        <feColorMatrix id="feColorMatrix1" values="1 0 0 -1 0 1 0 1 -1 0 1 0 0 -1 0 -0.8 -1 0 4 -2.5 "/>
        <feGaussianBlur id="feGaussianBlur1" stdDeviation="3.0"/>
        <feSpecularLighting id="feSpecularLighting1" surfaceScale="16.0" specularConstant="0.4" specularExponent="5">
          <feDistantLight id="feDistantLight1" azimuth="225" elevation="35"/>
        </feSpecularLighting>
        <feComposite id="feComposite1" in2="SourceGraphic" k2=" 0.4" k3=" 2.0" operator="arithmetic"/>
        <feComposite id="feComposite2" in2="SourceGraphic" operator="in" result="result2"/>
      </filter>
    </g>
    <g id="acyl-drawing">
      <path d="M 9 2 C 7.3316193 2 6 3.3484075 6 5.03125 L 6 42.96875 C 6 44.651592 7.3316193 46 9 46 L 39 46 C 40.66838 46 42 44.651592 42 42.96875 L 42 19.40625 L 24.75 2 L 9 2 z M 29.5 2 L 42 14.5625 L 42 5.03125 C 42 3.3484075 40.66838 2 39 2 L 29.5 2 z M 11.6875 18.0625 L 33.6875 18.0625 L 33.6875 29.09375 L 35.65625 29.09375 L 35.65625 40.09375 L 24.65625 40.09375 L 24.65625 39.0625 L 11.6875 39.0625 L 11.6875 18.0625 z M 12.6875 19.0625 L 12.6875 22.125 L 18.71875 22.125 L 18.71875 19.0625 L 12.6875 19.0625 z M 19.625 19.0625 L 19.625 22.09375 L 25.6875 22.09375 L 25.6875 19.0625 L 19.625 19.0625 z M 26.65625 19.0625 L 26.65625 22.125 L 32.6875 22.125 L 32.6875 19.0625 L 26.65625 19.0625 z M 19.625 23.09375 L 19.625 26.15625 L 25.6875 26.15625 L 25.6875 23.09375 L 19.625 23.09375 z M 12.6875 23.125 L 12.6875 26.1875 L 18.71875 26.1875 L 18.71875 23.125 L 12.6875 23.125 z M 26.65625 23.125 L 26.65625 26.1875 L 32.6875 26.1875 L 32.6875 23.125 L 26.65625 23.125 z M 19.625 27.0625 L 19.625 30.125 L 24.65625 30.125 L 24.65625 29.09375 L 25.6875 29.09375 L 25.6875 27.0625 L 19.625 27.0625 z M 12.6875 27.09375 L 12.6875 30.15625 L 18.71875 30.15625 L 18.71875 27.09375 L 12.6875 27.09375 z M 26.65625 27.09375 L 26.65625 29.09375 L 32.6875 29.09375 L 32.6875 27.09375 L 26.65625 27.09375 z M 19.625 31.03125 L 19.625 34.09375 L 24.65625 34.09375 L 24.65625 31.03125 L 19.625 31.03125 z M 12.6875 31.0625 L 12.6875 34.125 L 18.71875 34.125 L 18.71875 31.0625 L 12.6875 31.0625 z M 28.6875 31.125 L 28.6875 34.125 L 28.6875 39.09375 L 28.71875 39.09375 L 31.6875 39.09375 L 31.6875 36.09375 L 31.6875 31.125 L 28.6875 31.125 z M 25.6875 34.125 L 25.6875 39.09375 L 28.1875 39.09375 L 28.1875 34.125 L 25.6875 34.125 z M 19.625 35.0625 L 19.625 38.125 L 24.65625 38.125 L 24.65625 35.0625 L 19.625 35.0625 z M 12.6875 35.09375 L 12.6875 38.15625 L 18.71875 38.15625 L 18.71875 35.09375 L 12.6875 35.09375 z M 32.1875 36.09375 L 32.1875 39.09375 L 34.6875 39.09375 L 34.6875 36.09375 L 32.1875 36.09375 z " id="path-main"/>
    </g>
  </defs>
  <g id="acyl-visual">
    <use id="visible1" transform="translate(24,24) scale(1.00) translate(-24,-24)" style="fill:url(#acyl-gradient);filter:url(#filter)" xlink:href="#acyl-drawing"/>
  </g>
</svg>
