<svg xmlns="http://www.w3.org/2000/svg" xmlns:xlink="http://www.w3.org/1999/xlink" width="48" height="48">
  <defs id="acyl-settings">
    <linearGradient id="acyl-gradient" x1="0%" x2="0%" y1="0%" y2="100%">
      <stop offset="0%" style="stop-color:#00FAFF;stop-opacity:1.000000"/>
      <stop offset="74%" style="stop-color:#000BFF;stop-opacity:1.000000"/>
    </linearGradient>
    <g id="acyl-filter">
      <filter id="filter">
        <feTurbulence id="feTurbulence1" type="turbulence" numOctaves="5.0" baseFrequency="0.40 0.40"/>
        <feDisplacementMap id="feDisplacementMap1" xChannelSelector="R"/>
        <feBlend id="feBlend1" in2="SourceGraphic" mode="screen"/>
        <feColorMatrix id="feColorMatrix1" values="1 0 0 -1 0 1 0 1 -1 0 1 0 0 -1 0 -0.8 -1 0 4 -2.5 "/>
        <feGaussianBlur id="feGaussianBlur1" stdDeviation="3.0"/>
        <feSpecularLighting id="feSpecularLighting1" surfaceScale="16.0" specularConstant="0.4" specularExponent="5">
          <feDistantLight id="feDistantLight1" azimuth="225" elevation="35"/>
        </feSpecularLighting>
        <feComposite id="feComposite1" in2="SourceGraphic" k2=" 0.4" k3=" 2.0" operator="arithmetic"/>
        <feComposite id="feComposite2" in2="SourceGraphic" operator="in" result="result2"/>
      </filter>
    </g>
    <g id="acyl-drawing">
      <path d="M 9 2 C 7.3316193 2 6 3.3484075 6 5.03125 L 6 42.96875 C 6 44.651592 7.3316193 46 9 46 L 39 46 C 40.66838 46 42 44.651592 42 42.96875 L 42 19.40625 L 24.75 2 L 9 2 z M 29.5 2 L 42 14.5625 L 42 5.03125 C 42 3.3484075 40.66838 2 39 2 L 29.5 2 z M 21.96875 17.75 L 35.90625 17.75 L 35.90625 27.8125 L 21.96875 27.8125 L 21.96875 17.75 z M 12.03125 17.8125 L 20.03125 17.8125 L 20.03125 19.8125 L 12.03125 19.8125 L 12.03125 17.8125 z M 12.03125 21.78125 L 20.03125 21.78125 L 20.03125 23.78125 L 12.03125 23.78125 L 12.03125 21.78125 z M 12.03125 25.75 L 20.03125 25.75 L 20.03125 27.75 L 12.03125 27.75 L 12.03125 25.75 z M 12.03125 29.71875 L 35.90625 29.71875 L 35.90625 31.71875 L 12.03125 31.71875 L 12.03125 29.71875 z M 12.03125 33.8125 L 35.90625 33.8125 L 35.90625 35.8125 L 12.03125 35.8125 L 12.03125 33.8125 z M 12.03125 37.78125 L 30.15625 37.78125 L 30.15625 39.78125 L 12.03125 39.78125 L 12.03125 37.78125 z " id="path-main"/>
    </g>
  </defs>
  <g id="acyl-visual">
    <use id="visible1" transform="translate(24,24) scale(1.00) translate(-24,-24)" style="fill:url(#acyl-gradient);filter:url(#filter)" xlink:href="#acyl-drawing"/>
  </g>
</svg>
