<svg xmlns="http://www.w3.org/2000/svg" xmlns:xlink="http://www.w3.org/1999/xlink" width="48" height="48">
  <defs id="acyl-settings">
    <linearGradient id="acyl-gradient" x1="0%" x2="0%" y1="0%" y2="100%">
      <stop offset="0%" style="stop-color:#00FAFF;stop-opacity:1.000000"/>
      <stop offset="74%" style="stop-color:#000BFF;stop-opacity:1.000000"/>
    </linearGradient>
    <g id="acyl-filter">
      <filter id="filter">
        <feTurbulence id="feTurbulence1" type="turbulence" numOctaves="5.0" baseFrequency="0.40 0.40"/>
        <feDisplacementMap id="feDisplacementMap1" xChannelSelector="R"/>
        <feBlend id="feBlend1" in2="SourceGraphic" mode="screen"/>
        <feColorMatrix id="feColorMatrix1" values="1 0 0 -1 0 1 0 1 -1 0 1 0 0 -1 0 -0.8 -1 0 4 -2.5 "/>
        <feGaussianBlur id="feGaussianBlur1" stdDeviation="3.0"/>
        <feSpecularLighting id="feSpecularLighting1" surfaceScale="16.0" specularConstant="0.4" specularExponent="5">
          <feDistantLight id="feDistantLight1" azimuth="225" elevation="35"/>
        </feSpecularLighting>
        <feComposite id="feComposite1" in2="SourceGraphic" k2=" 0.4" k3=" 2.0" operator="arithmetic"/>
        <feComposite id="feComposite2" in2="SourceGraphic" operator="in" result="result2"/>
      </filter>
    </g>
    <g id="acyl-drawing">
      <path d="M 9 2 C 7.3316193 2 6 3.3484075 6 5.03125 L 6 42.96875 C 6 44.651592 7.3316193 46 9 46 L 39 46 C 40.66838 46 42 44.651592 42 42.96875 L 42 19.40625 L 24.75 2 L 9 2 z M 29.5 2 L 42 14.5625 L 42 5.03125 C 42 3.3484075 40.66838 2 39 2 L 29.5 2 z M 24.65625 18.34375 C 30.722642 18.34375 35.625 19.529575 35.625 21 C 35.625 22.470424 30.722642 23.65625 24.65625 23.65625 C 18.589859 23.65625 13.65625 22.470424 13.65625 21 C 13.65625 19.529575 18.589859 18.34375 24.65625 18.34375 z M 13.625 23.21875 L 13.65625 23.21875 C 14.03844 24.605159 18.808401 25.6875 24.625 25.6875 C 30.441599 25.6875 35.18031 24.605159 35.5625 23.21875 L 35.59375 23.21875 L 35.59375 25.90625 C 35.59375 27.376675 30.691391 28.5625 24.625 28.5625 C 18.558608 28.5625 13.625 27.376675 13.625 25.90625 L 13.625 23.21875 z M 13.625 27.96875 L 13.65625 27.96875 C 14.03844 29.35516 18.808401 30.4375 24.625 30.4375 C 30.441599 30.4375 35.18031 29.35516 35.5625 27.96875 L 35.59375 27.96875 L 35.59375 30.65625 C 35.59375 32.126675 30.691391 33.3125 24.625 33.3125 C 18.558608 33.3125 13.625 32.126675 13.625 30.65625 L 13.625 27.96875 z M 13.625 32.96875 L 13.65625 32.96875 C 14.03844 34.35516 18.808401 35.4375 24.625 35.4375 C 30.441599 35.4375 35.18031 34.35516 35.5625 32.96875 L 35.59375 32.96875 L 35.59375 35.65625 C 35.59375 37.126675 30.691391 38.34375 24.625 38.34375 C 18.558608 38.34375 13.625 37.126675 13.625 35.65625 L 13.625 32.96875 z " id="path-main"/>
    </g>
  </defs>
  <g id="acyl-visual">
    <use id="visible1" transform="translate(24,24) scale(1.00) translate(-24,-24)" style="fill:url(#acyl-gradient);filter:url(#filter)" xlink:href="#acyl-drawing"/>
  </g>
</svg>
