<svg xmlns="http://www.w3.org/2000/svg" xmlns:xlink="http://www.w3.org/1999/xlink" width="48" height="48">
  <defs id="acyl-settings">
    <linearGradient id="acyl-gradient" x1="0%" x2="0%" y1="0%" y2="100%">
      <stop offset="0%" style="stop-color:#00FAFF;stop-opacity:1.000000"/>
      <stop offset="74%" style="stop-color:#000BFF;stop-opacity:1.000000"/>
    </linearGradient>
    <g id="acyl-filter">
      <filter id="filter">
        <feTurbulence id="feTurbulence1" type="turbulence" numOctaves="5.0" baseFrequency="0.40 0.40"/>
        <feDisplacementMap id="feDisplacementMap1" xChannelSelector="R"/>
        <feBlend id="feBlend1" in2="SourceGraphic" mode="screen"/>
        <feColorMatrix id="feColorMatrix1" values="1 0 0 -1 0 1 0 1 -1 0 1 0 0 -1 0 -0.8 -1 0 4 -2.5 "/>
        <feGaussianBlur id="feGaussianBlur1" stdDeviation="3.0"/>
        <feSpecularLighting id="feSpecularLighting1" surfaceScale="16.0" specularConstant="0.4" specularExponent="5">
          <feDistantLight id="feDistantLight1" azimuth="225" elevation="35"/>
        </feSpecularLighting>
        <feComposite id="feComposite1" in2="SourceGraphic" k2=" 0.4" k3=" 2.0" operator="arithmetic"/>
        <feComposite id="feComposite2" in2="SourceGraphic" operator="in" result="result2"/>
      </filter>
    </g>
    <g id="acyl-drawing">
      <path d="M 22.790124,3.5088733 C 11.834197,4.0671203 3.0401236,13.200509 3.0401236,24.290124 c 0,11.447346 9.3651554,20.78125 20.8125004,20.78125 11.447343,-10e-7 20.781252,-9.333902 20.78125,-20.78125 -2e-6,-11.447345 -9.333905,-20.7812507 -20.78125,-20.7812507 -0.35773,0 -0.709083,-0.01801 -1.0625,0 z m 1.0625,5.5625 c 8.425051,0 15.1875,6.7936977 15.1875,15.2187507 1e-6,8.425053 -6.762447,15.1875 -15.1875,15.1875 -8.425055,1e-6 -15.2187504,-6.762446 -15.2187504,-15.1875 -10e-7,-8.425053 6.7936974,-15.2187507 15.2187504,-15.2187507 z m -2.9375,3.8750007 0,20.09375 5.5625,0 0,-20.09375 -5.5625,0 z m 7.9375,8.03125 0,11.84375 5.625,0 0,-11.84375 -5.625,0 z m -16.0625,0.0625 0,11.78125 5.84375,0 0,-11.78125 -5.84375,0 z" id="path-main"/>
    </g>
  </defs>
  <g id="acyl-visual">
    <use id="visible1" transform="translate(24,24) scale(1.00) translate(-24,-24)" style="fill:url(#acyl-gradient);filter:url(#filter)" xlink:href="#acyl-drawing"/>
  </g>
</svg>
