<svg xmlns="http://www.w3.org/2000/svg" xmlns:xlink="http://www.w3.org/1999/xlink" width="48" height="48">
  <defs id="acyl-settings">
    <linearGradient id="acyl-gradient" x1="0%" x2="0%" y1="0%" y2="100%">
      <stop offset="0%" style="stop-color:#00FAFF;stop-opacity:1.000000"/>
      <stop offset="74%" style="stop-color:#000BFF;stop-opacity:1.000000"/>
    </linearGradient>
    <g id="acyl-filter">
      <filter id="filter">
        <feTurbulence id="feTurbulence1" type="turbulence" numOctaves="5.0" baseFrequency="0.40 0.40"/>
        <feDisplacementMap id="feDisplacementMap1" xChannelSelector="R"/>
        <feBlend id="feBlend1" in2="SourceGraphic" mode="screen"/>
        <feColorMatrix id="feColorMatrix1" values="1 0 0 -1 0 1 0 1 -1 0 1 0 0 -1 0 -0.8 -1 0 4 -2.5 "/>
        <feGaussianBlur id="feGaussianBlur1" stdDeviation="3.0"/>
        <feSpecularLighting id="feSpecularLighting1" surfaceScale="16.0" specularConstant="0.4" specularExponent="5">
          <feDistantLight id="feDistantLight1" azimuth="225" elevation="35"/>
        </feSpecularLighting>
        <feComposite id="feComposite1" in2="SourceGraphic" k2=" 0.4" k3=" 2.0" operator="arithmetic"/>
        <feComposite id="feComposite2" in2="SourceGraphic" operator="in" result="result2"/>
      </filter>
    </g>
    <g id="acyl-drawing">
      <path d="M 5.175817,10.057744 C 3.411097,10.057744 2,11.482413 2,13.247133 L 2,36.753611 C 2,38.518331 3.411097,39.943 5.175817,39.943 l 37.648366,0 C 44.588903,39.943 46,38.518331 46,36.753611 l 0,-23.506478 c 0,-1.76472 -1.411097,-3.189389 -3.175817,-3.189389 l -37.648366,0 z m 32.531771,2.863664 c 1.921807,0 3.48797,1.552593 3.48797,3.474399 0,1.921806 -1.566163,3.48797 -3.48797,3.48797 -1.921806,0 -3.474399,-1.566164 -3.474399,-3.48797 0,-1.921806 1.552593,-3.474399 3.474399,-3.474399 z m -30.889574,0.108575 20.846391,0 c 0.97093,0 1.764343,0.779841 1.764343,1.750771 l 0,20.439236 c 0,0.97093 -0.793413,1.750771 -1.764343,1.750771 l -20.846391,0 c -0.970931,0 -1.750772,-0.779841 -1.750772,-1.750771 l 0,-20.439236 c 0,-0.97093 0.779841,-1.750771 1.750772,-1.750771 z m 30.889574,2.144356 c -0.678285,0 -1.221468,0.543183 -1.221468,1.221468 0,0.678285 0.543183,1.23504 1.221468,1.23504 0.678285,0 1.23504,-0.556755 1.23504,-1.23504 0,-0.678285 -0.556755,-1.221468 -1.23504,-1.221468 z m 0,6.758791 c 1.921807,0 3.48797,1.552592 3.48797,3.474398 0,1.921806 -1.566163,3.474399 -3.48797,3.474399 -1.921806,0 -3.474399,-1.552593 -3.474399,-3.474399 0,-1.921806 1.552593,-3.474398 3.474399,-3.474398 z m 0,2.25293 c -0.678285,0 -1.221468,0.543183 -1.221468,1.221468 0,0.678285 0.543183,1.23504 1.221468,1.23504 0.678285,0 1.23504,-0.556755 1.23504,-1.23504 0,-0.678285 -0.556755,-1.221468 -1.23504,-1.221468 z m -5.415176,10.938926 10.843924,0 0,1.845775 -10.843924,0 0,-1.845775 z" id="path-main"/>
    </g>
  </defs>
  <g id="acyl-visual">
    <use id="visible1" transform="translate(24,24) scale(1.00) translate(-24,-24)" style="fill:url(#acyl-gradient);filter:url(#filter)" xlink:href="#acyl-drawing"/>
  </g>
</svg>
