<svg xmlns="http://www.w3.org/2000/svg" xmlns:xlink="http://www.w3.org/1999/xlink" width="48" height="48">
  <defs id="acyl-settings">
    <linearGradient id="acyl-gradient" x1="0%" x2="0%" y1="0%" y2="100%">
      <stop offset="0%" style="stop-color:#00FAFF;stop-opacity:1.000000"/>
      <stop offset="74%" style="stop-color:#000BFF;stop-opacity:1.000000"/>
    </linearGradient>
    <g id="acyl-filter">
      <filter id="filter">
        <feTurbulence id="feTurbulence1" type="turbulence" numOctaves="5.0" baseFrequency="0.40 0.40"/>
        <feDisplacementMap id="feDisplacementMap1" xChannelSelector="R"/>
        <feBlend id="feBlend1" in2="SourceGraphic" mode="screen"/>
        <feColorMatrix id="feColorMatrix1" values="1 0 0 -1 0 1 0 1 -1 0 1 0 0 -1 0 -0.8 -1 0 4 -2.5 "/>
        <feGaussianBlur id="feGaussianBlur1" stdDeviation="3.0"/>
        <feSpecularLighting id="feSpecularLighting1" surfaceScale="16.0" specularConstant="0.4" specularExponent="5">
          <feDistantLight id="feDistantLight1" azimuth="225" elevation="35"/>
        </feSpecularLighting>
        <feComposite id="feComposite1" in2="SourceGraphic" k2=" 0.4" k3=" 2.0" operator="arithmetic"/>
        <feComposite id="feComposite2" in2="SourceGraphic" operator="in" result="result2"/>
      </filter>
    </g>
    <g id="acyl-drawing">
      <path d="M 24.018858,2.5143065 C 2.3553384,2.6987529 2.5440607,20.686604 2.5440607,20.686604 c 2.0721629,1.66002 7.5273063,-7.472898 9.9762253,-7.104005 3.00219,0.452235 0.739834,11.079972 2.623617,11.448864 1.261067,0.24695 3.879369,-3.951635 6.316117,-6.628289 l 0,18.901725 C 3.1787807,37.825012 2.5440607,45.487191 2.5440607,45.487191 L 45.299312,45.201762 c 0,0 -0.185573,-6.797759 -17.523175,-7.801718 l 0,-17.9503 c 1.977624,2.666596 4.166839,5.935714 4.793771,5.296292 2.260534,-2.305584 0.286372,-10.423132 2.170153,-12.083152 1.88378,-1.66002 9.2802,10.04647 10.170567,8.309148 C 45.800996,19.23471 45.682379,2.3298601 24.018858,2.5143065 z" id="path-main"/>
    </g>
  </defs>
  <g id="acyl-visual">
    <use id="visible1" transform="translate(24,24) scale(1.00) translate(-24,-24)" style="fill:url(#acyl-gradient);filter:url(#filter)" xlink:href="#acyl-drawing"/>
  </g>
</svg>
