<svg xmlns="http://www.w3.org/2000/svg" xmlns:xlink="http://www.w3.org/1999/xlink" width="48" height="48">
  <defs id="acyl-settings">
    <linearGradient id="acyl-gradient" x1="0%" x2="0%" y1="0%" y2="100%">
      <stop offset="0%" style="stop-color:#00FAFF;stop-opacity:1.000000"/>
      <stop offset="74%" style="stop-color:#000BFF;stop-opacity:1.000000"/>
    </linearGradient>
    <g id="acyl-filter">
      <filter id="filter">
        <feTurbulence id="feTurbulence1" type="turbulence" numOctaves="5.0" baseFrequency="0.40 0.40"/>
        <feDisplacementMap id="feDisplacementMap1" xChannelSelector="R"/>
        <feBlend id="feBlend1" in2="SourceGraphic" mode="screen"/>
        <feColorMatrix id="feColorMatrix1" values="1 0 0 -1 0 1 0 1 -1 0 1 0 0 -1 0 -0.8 -1 0 4 -2.5 "/>
        <feGaussianBlur id="feGaussianBlur1" stdDeviation="3.0"/>
        <feSpecularLighting id="feSpecularLighting1" surfaceScale="16.0" specularConstant="0.4" specularExponent="5">
          <feDistantLight id="feDistantLight1" azimuth="225" elevation="35"/>
        </feSpecularLighting>
        <feComposite id="feComposite1" in2="SourceGraphic" k2=" 0.4" k3=" 2.0" operator="arithmetic"/>
        <feComposite id="feComposite2" in2="SourceGraphic" operator="in" result="result2"/>
      </filter>
    </g>
    <g id="acyl-drawing">
      <path d="M 24,2 C 11.856001,2 2,11.856001 2,24 2,36.144 11.856,46.000002 24,46 36.143999,46 46,36.144 46,24 46,11.856 36.143999,2 24,2 z m 0,4.5833333 c 9.613998,2e-7 17.416667,7.8026677 17.416667,17.4166667 -10e-7,5.561681 -2.611921,10.503312 -6.67448,13.692708 L 32.364583,14.661458 28.783854,14.375 24.200521,32.278646 20.5625,14.460938 16.953125,14.546875 13.401042,37.807292 C 9.2560669,34.622596 6.5833333,29.627298 6.5833333,24 6.5833332,14.386002 14.386002,6.5833333 24,6.5833333 z m -4.984375,18.7057297 3.179687,15.583333 3.58073,0.08594 4.010416,-15.640625 1.460938,14.494792 C 29.039521,40.82562 26.586876,41.416667 24,41.416667 c -2.573228,0 -5.019925,-0.572453 -7.21875,-1.575521 l 2.234375,-14.552083 z" id="path-main"/>
    </g>
  </defs>
  <g id="acyl-visual">
    <use id="visible1" transform="translate(24,24) scale(1.00) translate(-24,-24)" style="fill:url(#acyl-gradient);filter:url(#filter)" xlink:href="#acyl-drawing"/>
  </g>
</svg>
