<svg xmlns="http://www.w3.org/2000/svg" xmlns:xlink="http://www.w3.org/1999/xlink" width="48" height="48">
  <defs id="acyl-settings">
    <linearGradient id="acyl-gradient" x1="0%" x2="0%" y1="0%" y2="100%">
      <stop offset="0%" style="stop-color:#00FAFF;stop-opacity:1.000000"/>
      <stop offset="74%" style="stop-color:#000BFF;stop-opacity:1.000000"/>
    </linearGradient>
    <g id="acyl-filter">
      <filter id="filter">
        <feTurbulence id="feTurbulence1" type="turbulence" numOctaves="5.0" baseFrequency="0.40 0.40"/>
        <feDisplacementMap id="feDisplacementMap1" xChannelSelector="R"/>
        <feBlend id="feBlend1" in2="SourceGraphic" mode="screen"/>
        <feColorMatrix id="feColorMatrix1" values="1 0 0 -1 0 1 0 1 -1 0 1 0 0 -1 0 -0.8 -1 0 4 -2.5 "/>
        <feGaussianBlur id="feGaussianBlur1" stdDeviation="3.0"/>
        <feSpecularLighting id="feSpecularLighting1" surfaceScale="16.0" specularConstant="0.4" specularExponent="5">
          <feDistantLight id="feDistantLight1" azimuth="225" elevation="35"/>
        </feSpecularLighting>
        <feComposite id="feComposite1" in2="SourceGraphic" k2=" 0.4" k3=" 2.0" operator="arithmetic"/>
        <feComposite id="feComposite2" in2="SourceGraphic" operator="in" result="result2"/>
      </filter>
    </g>
    <g id="acyl-drawing">
      <path id="path-main" d="m 35.493287,23.11117 c -4.074895,0 -6.985535,2.383453 -6.985535,6.281404 l 0,3.42622 -1.164256,0 c -1.164255,0 -1.746384,0.571038 -1.746384,1.713111 l 0,9.707622 c 0,0.559802 0.582129,1.71311 1.746384,1.71311 l 17.105257,0 c 0.940708,-0.0054 1.522837,-1.15331 1.522837,-1.71311 l 0,-9.707622 c 0,-1.142073 -0.582129,-1.71851 -1.746384,-1.71851 l -1.164255,0.0054 0,-3.426221 c 0,-3.997264 -2.910639,-6.281411 -6.985536,-6.281411 l -0.582128,0 z m 0,2.855183 0.582128,0 c 4.074897,0 4.074897,3.426221 4.074897,4.568295 l 0,2.284146 -8.73192,0 0,-2.284146 c 0,-1.142074 0,-4.568295 4.074895,-4.568295 z"/>
    </g>
  </defs>
  <g id="acyl-visual">
    <use id="visible1" transform="translate(24,24) scale(1.00) translate(-24,-24)" style="fill:url(#acyl-gradient);filter:url(#filter)" xlink:href="#acyl-drawing"/>
  </g>
</svg>
