<svg xmlns="http://www.w3.org/2000/svg" xmlns:xlink="http://www.w3.org/1999/xlink" width="48" height="48">
  <defs id="acyl-settings">
    <linearGradient id="acyl-gradient" x1="0%" x2="0%" y1="0%" y2="100%">
      <stop offset="0%" style="stop-color:#00FAFF;stop-opacity:1.000000"/>
      <stop offset="74%" style="stop-color:#000BFF;stop-opacity:1.000000"/>
    </linearGradient>
    <g id="acyl-filter">
      <filter id="filter">
        <feTurbulence id="feTurbulence1" type="turbulence" numOctaves="5.0" baseFrequency="0.40 0.40"/>
        <feDisplacementMap id="feDisplacementMap1" xChannelSelector="R"/>
        <feBlend id="feBlend1" in2="SourceGraphic" mode="screen"/>
        <feColorMatrix id="feColorMatrix1" values="1 0 0 -1 0 1 0 1 -1 0 1 0 0 -1 0 -0.8 -1 0 4 -2.5 "/>
        <feGaussianBlur id="feGaussianBlur1" stdDeviation="3.0"/>
        <feSpecularLighting id="feSpecularLighting1" surfaceScale="16.0" specularConstant="0.4" specularExponent="5">
          <feDistantLight id="feDistantLight1" azimuth="225" elevation="35"/>
        </feSpecularLighting>
        <feComposite id="feComposite1" in2="SourceGraphic" k2=" 0.4" k3=" 2.0" operator="arithmetic"/>
        <feComposite id="feComposite2" in2="SourceGraphic" operator="in" result="result2"/>
      </filter>
    </g>
    <g id="acyl-drawing">
      <path d="m 18.29375,9.3390247 0,3.8156253 c 5.109265,-0.381613 11.00099,1.566418 17.39375,8.490625 -2.600741,2.616492 -10.236702,10.332919 -17.39375,8.971875 l 0,2.646875 c 4.609804,0.698101 10.839131,-1.129523 19.284375,-8.284375 3.371119,1.946997 4.973169,3.078138 4.984375,3.09375 0,0 -12.31612,8.758906 -24.26875,6.978125 l 0,3.609375 27.70625,0 0,-29.3218753 -27.70625,0 z m 0,25.7125003 0,-1.7875 C 11.249475,32.197252 7.9781339,25.181515 6.46875,21.95465 c 4.348776,-4.524265 8.31646,-6.356804 11.825,-6.6 l 0,-2.2 C 11.029214,13.697241 5.3431889,18.96921 2,21.576525 c 4.2144279,8.929367 10.208651,12.568402 16.29375,13.475 z m 0,-19.696875 0,2.784375 c 2.482229,-0.17632 5.322949,0.638934 8.6625,3.36875 -2.247418,2.198222 -3.575,3.471875 -3.575,3.471875 0,0 -1.800669,-4.356188 -5.0875,-4.60625 l 0,7.975 c 2.926166,1.148581 7.029407,0.05966 12.58125,-6.4625 -2.739038,-3.285558 -6.633608,-6.475384 -11.48125,-6.6 -0.359394,-0.0092 -0.730328,0.04313 -1.1,0.06875 z m 0,12.99375 c -2.371308,-0.930788 -3.959073,-3.307108 -4.88125,-5.5 1.882912,-1.987173 3.501289,-2.579987 4.88125,-2.475 l 0,-2.234375 c -3.457211,0.245576 -6.225887,2.43896 -8.696875,4.19375 2.49982,5.337088 5.546042,7.685186 8.696875,8.284375 l 0,-2.26875 z" id="path-main"/>
    </g>
  </defs>
  <g id="acyl-visual">
    <use id="visible1" transform="translate(24,24) scale(1.00) translate(-24,-24)" style="fill:url(#acyl-gradient);filter:url(#filter)" xlink:href="#acyl-drawing"/>
  </g>
</svg>
