<svg xmlns="http://www.w3.org/2000/svg" xmlns:xlink="http://www.w3.org/1999/xlink" width="48" height="48" viewBox="0 0 12.7 12.7">
  <defs id="acyl-settings">
    <linearGradient id="acyl-gradient" x1="0%" x2="0%" y1="0%" y2="100%">
      <stop offset="0%" style="stop-color:#00FAFF;stop-opacity:1.000000"/>
      <stop offset="74%" style="stop-color:#000BFF;stop-opacity:1.000000"/>
    </linearGradient>
    <g id="acyl-filter">
      <filter id="filter">
        <feTurbulence id="feTurbulence1" type="turbulence" numOctaves="5.0" baseFrequency="0.40 0.40"/>
        <feDisplacementMap id="feDisplacementMap1" xChannelSelector="R"/>
        <feBlend id="feBlend1" in2="SourceGraphic" mode="screen"/>
        <feColorMatrix id="feColorMatrix1" values="1 0 0 -1 0 1 0 1 -1 0 1 0 0 -1 0 -0.8 -1 0 4 -2.5 "/>
        <feGaussianBlur id="feGaussianBlur1" stdDeviation="3.0"/>
        <feSpecularLighting id="feSpecularLighting1" surfaceScale="16.0" specularConstant="0.4" specularExponent="5">
          <feDistantLight id="feDistantLight1" azimuth="225" elevation="35"/>
        </feSpecularLighting>
        <feComposite id="feComposite1" in2="SourceGraphic" k2=" 0.4" k3=" 2.0" operator="arithmetic"/>
        <feComposite id="feComposite2" in2="SourceGraphic" operator="in" result="result2"/>
      </filter>
    </g>
    <g id="acyl-drawing" transform="translate(0,-284.29998)">
      <path d="m 6.089675,296.45665 c -0.0979,-0.0141 -0.2361,-0.0461 -0.30708,-0.0711 -0.28476,-0.10045 -5.04742,-2.50868 -5.13117,-2.59456 -0.11521,-0.11816 -0.11784,-0.26754 -0.007,-0.39189 0.0476,-0.0533 0.45433,-0.2783 0.96894,-0.53593 l 0.88695,-0.44402 1.60464,0.80439 c 0.91636,0.45936 1.68965,0.82592 1.80283,0.85458 0.109,0.0276 0.30728,0.0502 0.44061,0.0502 0.13334,0 0.33161,-0.0226 0.44061,-0.0502 0.11318,-0.0287 0.88647,-0.39522 1.80283,-0.85458 l 1.60465,-0.80439 0.88694,0.44402 c 0.51461,0.25763 0.92136,0.48261 0.96894,0.53593 0.11095,0.12435 0.10832,0.27373 -0.007,0.39189 -0.10215,0.10475 -4.92877,2.53121 -5.18852,2.60839 -0.21969,0.0653 -0.5435,0.0894 -0.76739,0.0573 z m -0.11289,-2.93323 c -0.18248,-0.0357 -0.71729,-0.29018 -2.76369,-1.31501 -1.69337,-0.84804 -2.56162,-1.30052 -2.61015,-1.36025 -0.1042,-0.12824 -0.0974,-0.30788 0.0162,-0.4278 0.0857,-0.0905 1.73793,-0.94208 1.8278,-0.94208 0.0243,0 0.76298,0.36038 1.64155,0.80086 0.87858,0.44047 1.67683,0.82314 1.7739,0.85037 0.0971,0.0272 0.31584,0.0495 0.48615,0.0495 0.17031,0 0.38908,-0.0223 0.48615,-0.0495 0.0971,-0.0272 0.89532,-0.4099 1.7739,-0.85037 0.87857,-0.44048 1.61727,-0.80086 1.64155,-0.80086 0.0899,0 1.74208,0.85158 1.8278,0.94208 0.11358,0.11992 0.12036,0.29956 0.0162,0.4278 -0.0485,0.0597 -0.91648,0.51201 -2.6098,1.35993 -2.14757,1.07538 -2.57434,1.27756 -2.77985,1.31694 -0.29453,0.0564 -0.43261,0.0561 -0.72763,-0.002 z m -0.0808,-2.90654 c -0.11924,-0.0279 -4.16971,-2.02672 -4.96171,-2.44845 -0.30887,-0.16447 -0.40405,-0.26556 -0.40405,-0.42917 0,-0.0984 0.0229,-0.15262 0.0956,-0.22628 0.11588,-0.11744 4.97527,-2.5594 5.24251,-2.63448 0.23428,-0.0658 0.7261,-0.0658 0.96038,0 0.26724,0.0751 5.12663,2.51704 5.24251,2.63448 0.13023,0.13199 0.13303,0.31793 0.007,0.44533 -0.11645,0.11743 -0.15825,0.1392 -2.83642,1.47702 -1.31159,0.65518 -2.36839,1.16284 -2.46628,1.18474 -0.20518,0.0459 -0.677,0.0442 -0.87923,-0.003 z"/>
    </g>
  </defs>
  <g id="acyl-visual">
    <use id="visible1" transform="translate(24,24) scale(1.00) translate(-24,-24)" style="fill:url(#acyl-gradient);filter:url(#filter)" xlink:href="#acyl-drawing"/>
  </g>
</svg>
