<svg xmlns="http://www.w3.org/2000/svg" xmlns:xlink="http://www.w3.org/1999/xlink" width="48" height="48">
  <defs id="acyl-settings">
    <linearGradient id="acyl-gradient" x1="0%" x2="0%" y1="0%" y2="100%">
      <stop offset="0%" style="stop-color:#00FAFF;stop-opacity:1.000000"/>
      <stop offset="74%" style="stop-color:#000BFF;stop-opacity:1.000000"/>
    </linearGradient>
    <g id="acyl-filter">
      <filter id="filter">
        <feTurbulence id="feTurbulence1" type="turbulence" numOctaves="5.0" baseFrequency="0.40 0.40"/>
        <feDisplacementMap id="feDisplacementMap1" xChannelSelector="R"/>
        <feBlend id="feBlend1" in2="SourceGraphic" mode="screen"/>
        <feColorMatrix id="feColorMatrix1" values="1 0 0 -1 0 1 0 1 -1 0 1 0 0 -1 0 -0.8 -1 0 4 -2.5 "/>
        <feGaussianBlur id="feGaussianBlur1" stdDeviation="3.0"/>
        <feSpecularLighting id="feSpecularLighting1" surfaceScale="16.0" specularConstant="0.4" specularExponent="5">
          <feDistantLight id="feDistantLight1" azimuth="225" elevation="35"/>
        </feSpecularLighting>
        <feComposite id="feComposite1" in2="SourceGraphic" k2=" 0.4" k3=" 2.0" operator="arithmetic"/>
        <feComposite id="feComposite2" in2="SourceGraphic" operator="in" result="result2"/>
      </filter>
    </g>
    <g id="acyl-drawing">
      <path d="m 28.6582,3.862864 -6.6645,3.248974 0,33.308922 C 14.3886,39.46732 8.6646,35.32217 8.6646,30.340614 c 0,-4.722259 5.1492,-8.699545 12.1628,-9.913536 l 0,-4.234774 C 10.0995,17.488977 2,23.33116 2,30.340614 2,37.6027 10.69,43.60053 21.9937,44.6 l 6.6645,-3.1379 0,-37.599236 z m 1.1663,12.32944 0,4.234774 c 2.6088,0.451509 4.9637,1.275533 6.8868,2.388134 l -3.61,2.041022 L 46,27.660904 45.0697,18.108365 41.6403,20.038311 C 38.4544,18.111083 34.3741,16.74219 29.8245,16.192304 z" id="path-main"/>
    </g>
  </defs>
  <g id="acyl-visual">
    <use id="visible1" transform="translate(24,24) scale(1.00) translate(-24,-24)" style="fill:url(#acyl-gradient);filter:url(#filter)" xlink:href="#acyl-drawing"/>
  </g>
</svg>
