<svg xmlns="http://www.w3.org/2000/svg" xmlns:xlink="http://www.w3.org/1999/xlink" width="48" height="48">
  <defs id="acyl-settings">
    <linearGradient id="acyl-gradient" x1="0%" x2="0%" y1="0%" y2="100%">
      <stop offset="0%" style="stop-color:#00FAFF;stop-opacity:1.000000"/>
      <stop offset="74%" style="stop-color:#000BFF;stop-opacity:1.000000"/>
    </linearGradient>
    <g id="acyl-filter">
      <filter id="filter">
        <feTurbulence id="feTurbulence1" type="turbulence" numOctaves="5.0" baseFrequency="0.40 0.40"/>
        <feDisplacementMap id="feDisplacementMap1" xChannelSelector="R"/>
        <feBlend id="feBlend1" in2="SourceGraphic" mode="screen"/>
        <feColorMatrix id="feColorMatrix1" values="1 0 0 -1 0 1 0 1 -1 0 1 0 0 -1 0 -0.8 -1 0 4 -2.5 "/>
        <feGaussianBlur id="feGaussianBlur1" stdDeviation="3.0"/>
        <feSpecularLighting id="feSpecularLighting1" surfaceScale="16.0" specularConstant="0.4" specularExponent="5">
          <feDistantLight id="feDistantLight1" azimuth="225" elevation="35"/>
        </feSpecularLighting>
        <feComposite id="feComposite1" in2="SourceGraphic" k2=" 0.4" k3=" 2.0" operator="arithmetic"/>
        <feComposite id="feComposite2" in2="SourceGraphic" operator="in" result="result2"/>
      </filter>
    </g>
    <g id="acyl-drawing">
      <path d="m 4.2601,2.36743 c -1.2494,0 -2.2557,0.886 -2.2557,1.9864 l 0,28.31847 0,0.3696 c 0.012,3.5157 -0.031,7.0337 0.026,10.5477 0.5711,1.411 2.1433,2.196 3.6257,2.018 l 37.4094,0 c 1.4402,-0.05 3.1181,-1.282 2.9182,-2.851 l 0,-9.7147 0,-0.3696 0,-28.31847 c 0,-1.1004 -1.0064,-1.9864 -2.2559,-1.9864 l -39.4677,0 z m 18.9947,5.3068 c 5.9508,0 10.7912,4.83467 10.7912,10.78037 0,5.9457 -4.8404,10.7804 -10.7912,10.7804 -5.9508,0 -10.7912,-4.8347 -10.7912,-10.7804 0,-5.9457 4.8404,-10.78037 10.7912,-10.78037 z m 0,1.4783 c -5.1527,0 -9.3129,4.15617 -9.3129,9.30207 0,5.1459 4.1602,9.3021 9.3129,9.3021 5.1527,0 9.3129,-4.1562 9.3129,-9.3021 0,-5.1459 -4.1602,-9.30207 -9.3129,-9.30207 z m -3.7152,4.34167 9.9221,4.9669 -9.9315,4.9539 0.01,-9.9208 z m -16.0569,20.6564 41.0227,0 0,9.005 c -0.6194,1.278 -2.1265,0.927 -3.2733,0.973 l -36.3094,0 c -1.1411,-0.04 -1.6418,-1.085 -1.44,-2.072 l 0,-7.906 z m 2.4022,3.511 0,2.957 36.2183,0 0,-2.957 -36.2183,0 z m 13.6742,0.739 21.8049,0 0,1.478 -21.8049,0 0,-1.478 z" id="path-main"/>
    </g>
  </defs>
  <g id="acyl-visual">
    <use id="visible1" transform="translate(24,24) scale(1.00) translate(-24,-24)" style="fill:url(#acyl-gradient);filter:url(#filter)" xlink:href="#acyl-drawing"/>
  </g>
</svg>
