<svg xmlns="http://www.w3.org/2000/svg" xmlns:xlink="http://www.w3.org/1999/xlink" width="48" height="48" viewBox="0 0 12.7 12.7">
  <defs id="acyl-settings">
    <linearGradient id="acyl-gradient" x1="0%" x2="0%" y1="0%" y2="100%">
      <stop offset="0%" style="stop-color:#00FAFF;stop-opacity:1.000000"/>
      <stop offset="74%" style="stop-color:#000BFF;stop-opacity:1.000000"/>
    </linearGradient>
    <g id="acyl-filter">
      <filter id="filter">
        <feTurbulence id="feTurbulence1" type="turbulence" numOctaves="5.0" baseFrequency="0.40 0.40"/>
        <feDisplacementMap id="feDisplacementMap1" xChannelSelector="R"/>
        <feBlend id="feBlend1" in2="SourceGraphic" mode="screen"/>
        <feColorMatrix id="feColorMatrix1" values="1 0 0 -1 0 1 0 1 -1 0 1 0 0 -1 0 -0.8 -1 0 4 -2.5 "/>
        <feGaussianBlur id="feGaussianBlur1" stdDeviation="3.0"/>
        <feSpecularLighting id="feSpecularLighting1" surfaceScale="16.0" specularConstant="0.4" specularExponent="5">
          <feDistantLight id="feDistantLight1" azimuth="225" elevation="35"/>
        </feSpecularLighting>
        <feComposite id="feComposite1" in2="SourceGraphic" k2=" 0.4" k3=" 2.0" operator="arithmetic"/>
        <feComposite id="feComposite2" in2="SourceGraphic" operator="in" result="result2"/>
      </filter>
    </g>
    <g id="acyl-drawing" transform="translate(0,-284.29998)">
      <path d="m 0.60180571,296.4362 c -0.10868,-0.0991 -0.0898,-11.5447 0.0192,-11.60606 0.097,-0.0547 10.92593029,2.18908 11.32030029,2.34555 l 0.22954,0.0911 -0.0271,2.19182 -0.0271,2.19181 -1.46742,0.0461 -1.4674303,0.0461 -0.0277,1.54199 -0.0278,1.54199 -0.37707,0.0894 c -0.2074,0.0492 -2.01654,0.40548 -4.02034,0.79183 -2.00378,0.38635 -3.73569999,0.72323 -3.84869999,0.74862 -0.113,0.0254 -0.23823,0.0163 -0.2783,-0.0203 z m 3.20642999,-1.32701 c 1.21281,-0.25368 2.24628,-0.48442 2.29657,-0.51274 0.1111,-0.0626 0.12174,-7.69441 0.0109,-7.85329 -0.0795,-0.11397 -4.05654,-0.94973 -4.51939,-0.94973 h -0.25777 v 4.7426 c 0,2.60843 0.0277,4.80825 0.0614,4.88849 0.0338,0.0802 0.0933,0.1459 0.13227,0.1459 0.039,0 1.06315,-0.20755 2.27597,-0.46123 z m 4.03253,-0.83492 0.3795,-0.0961 v -1.51211 c 0,-1.10947 0.0337,-1.53145 0.1265,-1.58472 0.0696,-0.0399 0.74462,-0.0977 1.50011,-0.12827 0.7554803,-0.0306 1.4272103,-0.0858 1.4927203,-0.12274 0.0831,-0.0468 0.11912,-0.49899 0.11912,-1.49328 0,-1.39069 -0.005,-1.42845 -0.22771,-1.51674 -0.40653,-0.16167 -4.0573803,-0.92772 -4.1938503,-0.87999 -0.1061,0.0371 -0.13251,0.76997 -0.13251,3.67718 0,1.99696 0.0303,3.6585 0.0675,3.69233 0.0972,0.0886 0.43217,0.0749 0.86865,-0.0356 z m 0.54817,-4.11501 c -0.0946,-0.0862 -0.0847,-2.22379 0.0104,-2.27744 0.14671,-0.0826 1.8952603,0.3282 2.0219703,0.47508 0.16693,0.19348 0.17099,1.60193 0.006,1.75316 -0.12926,0.11781 -1.9149403,0.16092 -2.0375203,0.0492 z m 1.53129,-0.97065 c -0.0297,-0.56316 -0.0348,-0.57206 -0.37138,-0.65121 -0.5371,-0.12629 -0.62016,-0.0515 -0.62016,0.55825 0,0.29751 0.0303,0.56861 0.0675,0.60243 0.0371,0.0338 0.26698,0.0615 0.51083,0.0615 h 0.44338 z" id="path-main"/>
    </g>
  </defs>
  <g id="acyl-visual">
    <use id="visible1" transform="translate(24,24) scale(1.00) translate(-24,-24)" style="fill:url(#acyl-gradient);filter:url(#filter)" xlink:href="#acyl-drawing"/>
  </g>
</svg>
