<svg xmlns="http://www.w3.org/2000/svg" xmlns:xlink="http://www.w3.org/1999/xlink" width="48" height="48">
  <defs id="acyl-settings">
    <linearGradient id="acyl-gradient" x1="0%" x2="0%" y1="0%" y2="100%">
      <stop offset="0%" style="stop-color:#00FAFF;stop-opacity:1.000000"/>
      <stop offset="74%" style="stop-color:#000BFF;stop-opacity:1.000000"/>
    </linearGradient>
    <g id="acyl-filter">
      <filter id="filter">
        <feTurbulence id="feTurbulence1" type="turbulence" numOctaves="5.0" baseFrequency="0.40 0.40"/>
        <feDisplacementMap id="feDisplacementMap1" xChannelSelector="R"/>
        <feBlend id="feBlend1" in2="SourceGraphic" mode="screen"/>
        <feColorMatrix id="feColorMatrix1" values="1 0 0 -1 0 1 0 1 -1 0 1 0 0 -1 0 -0.8 -1 0 4 -2.5 "/>
        <feGaussianBlur id="feGaussianBlur1" stdDeviation="3.0"/>
        <feSpecularLighting id="feSpecularLighting1" surfaceScale="16.0" specularConstant="0.4" specularExponent="5">
          <feDistantLight id="feDistantLight1" azimuth="225" elevation="35"/>
        </feSpecularLighting>
        <feComposite id="feComposite1" in2="SourceGraphic" k2=" 0.4" k3=" 2.0" operator="arithmetic"/>
        <feComposite id="feComposite2" in2="SourceGraphic" operator="in" result="result2"/>
      </filter>
    </g>
    <g id="acyl-drawing">
      <path d="m 37.760745,2 a 8.1960784,8.1960784 0 0 0 -8.19608,8.196078 8.1960784,8.1960784 0 0 0 0.0971,1.218627 l -13.76618,6.670099 A 8.1960784,8.1960784 0 0 0 10.239212,15.803922 8.1960784,8.1960784 0 0 0 2.0431345,24 a 8.1960784,8.1960784 0 0 0 8.1960775,8.196078 8.1960784,8.1960784 0 0 0 5.688726,-2.30245 l 13.706867,6.918137 a 8.1960784,8.1960784 0 0 0 -0.0701,0.992157 8.1960784,8.1960784 0 0 0 8.19608,8.196078 8.1960784,8.1960784 0 0 0 8.19608,-8.196078 8.1960784,8.1960784 0 0 0 -8.19608,-8.196079 8.1960784,8.1960784 0 0 0 -5.59167,2.210784 L 18.392113,24.851961 A 8.1960784,8.1960784 0 0 0 18.435263,24 a 8.1960784,8.1960784 0 0 0 -0.0701,-0.975981 l 13.895592,-6.761763 a 8.1960784,8.1960784 0 0 0 5.5,2.129901 8.1960784,8.1960784 0 0 0 8.19608,-8.196079 A 8.1960784,8.1960784 0 0 0 37.760755,2 Z" id="path-main"/>
    </g>
  </defs>
  <g id="acyl-visual">
    <use id="visible1" transform="translate(24,24) scale(1.00) translate(-24,-24)" style="fill:url(#acyl-gradient);filter:url(#filter)" xlink:href="#acyl-drawing"/>
  </g>
</svg>
