<svg xmlns="http://www.w3.org/2000/svg" xmlns:xlink="http://www.w3.org/1999/xlink" width="48" height="48" viewBox="0 0 48 48">
  <defs id="acyl-settings">
    <linearGradient id="acyl-gradient" x1="0%" x2="0%" y1="0%" y2="100%">
      <stop offset="0%" style="stop-color:#00FAFF;stop-opacity:1.000000"/>
      <stop offset="74%" style="stop-color:#000BFF;stop-opacity:1.000000"/>
    </linearGradient>
    <g id="acyl-filter">
      <filter id="filter">
        <feTurbulence id="feTurbulence1" type="turbulence" numOctaves="5.0" baseFrequency="0.40 0.40"/>
        <feDisplacementMap id="feDisplacementMap1" xChannelSelector="R"/>
        <feBlend id="feBlend1" in2="SourceGraphic" mode="screen"/>
        <feColorMatrix id="feColorMatrix1" values="1 0 0 -1 0 1 0 1 -1 0 1 0 0 -1 0 -0.8 -1 0 4 -2.5 "/>
        <feGaussianBlur id="feGaussianBlur1" stdDeviation="3.0"/>
        <feSpecularLighting id="feSpecularLighting1" surfaceScale="16.0" specularConstant="0.4" specularExponent="5">
          <feDistantLight id="feDistantLight1" azimuth="225" elevation="35"/>
        </feSpecularLighting>
        <feComposite id="feComposite1" in2="SourceGraphic" k2=" 0.4" k3=" 2.0" operator="arithmetic"/>
        <feComposite id="feComposite2" in2="SourceGraphic" operator="in" result="result2"/>
      </filter>
    </g>
    <g id="acyl-drawing">
      <path d="m 9.690128,41.642455 c -6.602959,-3.85277 -7.463554,-4.36938 -7.463554,-4.48029 0,-0.069 -0.05098,-0.16973 -0.113287,-0.22397 L 2,36.839595 3.326318,22.905825 C 4.689531,8.584445 4.657169,8.878805 4.868727,8.876235 c 0.04379,-5.3e-4 0.05599,-0.0437 0.03551,-0.12568 -0.01967,-0.0788 -0.0055,-0.13553 0.03842,-0.15373 0.03829,-0.0159 3.629253,-1.51708 7.979927,-3.336 6.225737,-2.60286 7.932703,-3.29697 8.015437,-3.25936 0.05782,0.0263 1.808072,1.17076 3.889458,2.54329 2.081386,1.37252 3.810707,2.50571 3.842935,2.51819 0.03223,0.0125 1.317829,-1.09561 2.85689,-2.46241 1.539061,-1.3668 2.828401,-2.48509 2.865201,-2.48509 0.0368,0 0.09635,0.0356 0.132339,0.0792 0.03599,0.0436 0.131898,0.0792 0.213135,0.0792 0.09515,0 0.157486,0.0329 0.175199,0.0924 0.01512,0.0508 0.278236,1.87484 0.584695,4.05336 0.306459,2.17851 0.578998,4.0144 0.605641,4.07975 0.04583,0.11241 0.07774,0.11883 0.590941,0.11883 0.351862,0 0.564661,0.0223 0.60557,0.0634 0.04517,0.0454 0.06307,0.38802 0.06307,1.20742 v 1.14404 l 4.074314,3.18398 4.074313,3.18397 -0.03165,0.1695 c -0.02362,0.12653 -0.01052,0.17765 0.05167,0.20163 0.04582,0.0177 0.08331,0.0586 0.08331,0.0908 0,0.0323 -0.76866,1.56122 -1.708135,3.39761 l -1.708134,3.33889 1.925701,7.30176 c 1.255245,4.75956 1.9078,7.31974 1.874285,7.35342 -0.02828,0.0284 -3.052712,1.07493 -6.720961,2.32559 -5.746544,1.95923 -6.683891,2.26492 -6.773214,2.20887 -0.07577,-0.0476 -0.109026,-0.0489 -0.123576,-0.005 -0.01095,0.033 -0.05933,0.0593 -0.107508,0.0585 -0.04818,-8.4e-4 -2.772115,-0.75827 -6.053188,-1.68319 -3.281073,-0.92492 -5.993244,-1.66691 -6.027046,-1.64887 -0.0338,0.018 -0.645439,0.74576 -1.359193,1.61717 -1.428511,1.74403 -1.543038,1.87602 -1.624536,1.87225 -0.03073,-10e-4 -3.414466,-1.96229 -7.519421,-4.3575 z m 29.100327,1.44902 c 3.50781,-1.19444 6.407373,-2.19935 6.443474,-2.23315 0.05198,-0.0487 -0.470495,-2.09396 -2.511066,-9.82992 -1.417186,-5.37266 -2.58953,-9.81006 -2.60521,-9.86089 -0.01568,-0.0508 -0.05691,-0.0924 -0.09163,-0.0924 -0.102631,0 -2.507092,0.88641 -2.588415,0.95423 -0.06368,0.0531 -0.07451,1.17069 -0.07451,7.68706 v 7.62493 h -10.74547 c -6.872816,0 -10.756804,0.0184 -10.776923,0.0511 -0.05629,0.0915 -0.610082,2.82176 -0.594412,2.93051 0.01345,0.0933 1.012312,0.38663 8.582541,2.52 4.712025,1.32791 8.571023,2.41568 8.575552,2.41729 0.0045,0.002 2.878259,-0.97435 6.386069,-2.16878 z m -21.40944,1.81521 c 0.143457,-0.16702 0.678149,-0.81429 1.188205,-1.43838 0.757172,-0.92646 0.913356,-1.14502 0.851,-1.19083 -0.04201,-0.0309 -1.07768,-0.33688 -2.301501,-0.68003 -1.22382,-0.34316 -2.255226,-0.64838 -2.292014,-0.67827 -0.03679,-0.0299 -0.05299,-0.0983 -0.03601,-0.15209 0.02224,-0.0704 -0.0068,-0.11501 -0.103934,-0.15946 -0.07414,-0.0339 -0.134807,-0.0911 -0.134807,-0.12693 0,-0.0359 0.128295,-0.67967 0.2851,-1.43066 0.156806,-0.751 0.292805,-1.43674 0.302221,-1.52388 l 0.01712,-0.15844 -2.26009,-0.0264 -2.260091,-0.0264 -0.01336,-6.01174 c -0.0089,-4.00074 -0.03104,-6.00581 -0.06622,-5.99403 -0.02907,0.01 -1.791478,2.60679 -3.916462,5.77124 -3.112478,4.63499 -3.85065,5.76644 -3.796959,5.81987 0.07595,0.0756 14.186256,8.30884 14.241164,8.30961 0.0197,2.7e-4 0.153185,-0.13615 0.296642,-0.30317 z M 6.615354,30.000385 c 3.124983,-4.65549 3.777659,-5.59811 3.876148,-5.59811 h 0.11843 v -6.89202 c 0,-5.47288 0.01353,-6.89415 0.0657,-6.90238 0.03613,-0.006 3.224306,-0.0116 7.084825,-0.0132 l 7.019125,-0.003 1.574475,-1.39411 c 2.054879,-1.81948 1.857383,-1.62096 1.730828,-1.73978 -0.101601,-0.0954 -6.991,-4.63959 -7.200777,-4.74958 -0.0888,-0.0466 -1.383179,0.47747 -7.799914,3.15782 -4.231393,1.76751 -7.724213,3.2449 -7.761821,3.28309 -0.04829,0.049 -0.432157,3.90252 -1.306379,13.1141 -0.680899,7.17457 -1.237895,13.11002 -1.237769,13.1899 1.06e-4,0.0799 0.01805,0.14523 0.03982,0.14523 0.02177,0 1.730562,-2.51915 3.797307,-5.59811 z m 16.044014,3.9791 0.512462,-0.0341 v -0.78449 -0.78449 l -4.980083,0.0135 -4.980083,0.0135 -0.01469,0.73683 c -0.0081,0.40525 -0.0029,0.76768 0.01149,0.80539 0.02118,0.0555 0.877541,0.0685 4.482314,0.0683 2.450871,-1.6e-4 4.686738,-0.0156 4.968592,-0.0344 z m 20.8094,-11.2276 c 0.790197,-1.54674 1.436723,-2.86313 1.436723,-2.9253 0,-0.0871 -0.855797,-0.78182 -3.72437,-3.02351 -2.048404,-1.60076 -3.745443,-2.91047 -3.771198,-2.91047 -0.02695,0 -0.04683,1.56924 -0.04683,3.69687 0,3.56048 0.0036,3.69687 0.09715,3.69687 0.05343,0 0.745253,-0.23569 1.537387,-0.52375 1.091628,-0.39696 1.454637,-0.50882 1.499706,-0.4621 0.03271,0.0339 0.358704,1.20238 0.724439,2.59662 0.753869,2.87387 0.694887,2.66703 0.76052,2.66703 0.02736,0 0.696277,-1.26552 1.486475,-2.81226 z m -28.105555,2.44388 0.134822,-0.0515 5.78e-4,-1.38764 c 3.15e-4,-0.7632 0.01453,-1.47239 0.03159,-1.57598 l 0.03101,-0.18835 1.426954,-0.0582 c 1.265617,-0.0516 1.482589,-0.0737 1.919003,-0.1951 1.355245,-0.377 2.290087,-1.20629 2.705989,-2.40047 0.135367,-0.38868 0.161839,-0.55252 0.181325,-1.12223 0.04423,-1.29324 -0.247647,-2.11116 -1.034199,-2.89808 -0.529264,-0.52951 -1.047001,-0.81815 -1.81956,-1.01443 -0.461118,-0.11715 -0.539949,-0.12018 -3.127334,-0.12043 l -2.654292,-2.7e-4 -0.01338,5.4809 -0.01338,5.4809 0.118506,0.0479 c 0.160757,0.0649 1.943688,0.0675 2.112372,0.003 z m 0.191832,-5.59107 c -0.06169,-0.11581 -0.08142,-2.73121 -0.02327,-3.08467 l 0.03258,-0.19805 1.110028,8.2e-4 c 1.215813,9.1e-4 1.546864,0.0489 1.941733,0.2814 0.480365,0.28287 0.718823,0.73229 0.718823,1.35479 0,0.74195 -0.292832,1.22548 -0.93446,1.543 l -0.350764,0.17358 -1.218826,0.0181 c -1.179832,0.0175 -1.220651,0.0147 -1.275838,-0.089 z m 15.684783,5.59723 0.315361,-0.0339 v -1.02984 -1.02985 l -2.938819,-0.0394 c -1.61635,-0.0217 -2.952694,-0.0533 -2.969653,-0.0703 -0.05704,-0.0571 -0.06528,-2.00072 -0.0091,-2.14915 l 0.05414,-0.14307 2.537525,-0.0137 2.537525,-0.0137 v -1.05624 -1.05625 l -2.544401,-0.0137 c -1.795646,-0.01 -2.565458,-0.0313 -2.615959,-0.0734 -0.05684,-0.0474 -0.06863,-0.27262 -0.05733,-1.09534 l 0.01423,-1.03567 2.890814,-0.0278 c 1.589947,-0.0153 2.920378,-0.0464 2.956513,-0.0691 0.04857,-0.0306 0.0657,-0.28726 0.0657,-0.98454 0,-0.51876 -0.01436,-0.98078 -0.0319,-1.02673 -0.02872,-0.0752 -0.443541,-0.0835 -4.152502,-0.0835 h -4.120599 l 0.01338,5.50569 0.01338,5.5057 0.262801,0.0313 c 0.357848,0.0426 7.384322,0.045 7.778916,0.003 z m 4.197443,-14.62451 c 0.01381,-0.0225 -0.216732,-1.72763 -0.512313,-3.78929 -0.451633,-3.15011 -0.550653,-3.74847 -0.62032,-3.74847 -0.110434,0 -8.515446,7.46573 -8.476429,7.52916 0.03694,0.0601 9.572163,0.0686 9.609062,0.009 z"/>
    </g>
  </defs>
  <g id="acyl-visual">
    <use id="visible1" transform="translate(24,24) scale(1.00) translate(-24,-24)" style="fill:url(#acyl-gradient);filter:url(#filter)" xlink:href="#acyl-drawing"/>
  </g>
</svg>
