<svg xmlns="http://www.w3.org/2000/svg" xmlns:xlink="http://www.w3.org/1999/xlink" width="48" height="48" viewBox="0 0 12.7 12.7">
  <defs id="acyl-settings">
    <linearGradient id="acyl-gradient" x1="0%" x2="0%" y1="0%" y2="100%">
      <stop offset="0%" style="stop-color:#00FAFF;stop-opacity:1.000000"/>
      <stop offset="74%" style="stop-color:#000BFF;stop-opacity:1.000000"/>
    </linearGradient>
    <g id="acyl-filter">
      <filter id="filter">
        <feTurbulence id="feTurbulence1" type="turbulence" numOctaves="5.0" baseFrequency="0.40 0.40"/>
        <feDisplacementMap id="feDisplacementMap1" xChannelSelector="R"/>
        <feBlend id="feBlend1" in2="SourceGraphic" mode="screen"/>
        <feColorMatrix id="feColorMatrix1" values="1 0 0 -1 0 1 0 1 -1 0 1 0 0 -1 0 -0.8 -1 0 4 -2.5 "/>
        <feGaussianBlur id="feGaussianBlur1" stdDeviation="3.0"/>
        <feSpecularLighting id="feSpecularLighting1" surfaceScale="16.0" specularConstant="0.4" specularExponent="5">
          <feDistantLight id="feDistantLight1" azimuth="225" elevation="35"/>
        </feSpecularLighting>
        <feComposite id="feComposite1" in2="SourceGraphic" k2=" 0.4" k3=" 2.0" operator="arithmetic"/>
        <feComposite id="feComposite2" in2="SourceGraphic" operator="in" result="result2"/>
      </filter>
    </g>
    <g id="acyl-drawing" transform="translate(0,-284.29998)">
      <path d="m 0.52916667,290.64998 v -5.82084 H 6.3500667 12.170867 v 5.82084 5.82083 H 6.3500667 0.52916667 Z m 5.45350003,4.34104 c 0.033,-0.0326 0.045,-0.57421 0.015,-0.6524 -0.014,-0.0369 -0.2308,-0.0409 -2.186,-0.0409 h -2.1704 v 0.34494 c 0,0.18971 0.01,0.3527 0.017,0.36218 0.01,0.009 0.9793,0.0172 2.155,0.0172 1.6282,0 2.1452,-0.007 2.1688,-0.031 z m 3.0191,-3.78361 c 0.4196,-0.10561 0.7714,-0.30503 1.1318003,-0.64145 0.068,-0.0631 0.1229,-0.13098 0.1229,-0.15086 0,-0.0397 -0.6056003,-0.64472 -0.6453003,-0.64472 -0.014,0 -0.1021,0.0587 -0.1969,0.13045 -0.2193,0.16595 -0.4839,0.29933 -0.6905,0.34805 -0.1874,0.0442 -0.5495,0.0496 -0.718,0.0108 -0.3064,-0.0706 -0.6783,-0.34851 -0.841,-0.62852 -0.1443,-0.24845 -0.1988,-0.44498 -0.2125,-0.76627 -0.022,-0.51003 0.1101,-0.87489 0.4295,-1.18996 0.2798,-0.27603 0.5534,-0.38813 0.9474,-0.38813 0.3688,0 0.7252,0.13319 1.0417,0.38927 0.087,0.0705 0.1689,0.12814 0.1818,0.12814 0.029,0 0.6362003,-0.71453 0.6469003,-0.76133 0.02,-0.0875 -0.5045003,-0.45969 -0.8177003,-0.58045 -0.332,-0.12802 -0.5878,-0.16931 -1.0527,-0.16989 -0.3509,-3.9e-4 -0.4472,0.008 -0.6321,0.0585 -0.7415,0.20052 -1.3007,0.65308 -1.6198,1.31091 -0.1985,0.40924 -0.2319,0.57253 -0.2303,1.12536 0,0.44456 0.01,0.49476 0.071,0.70579 0.2945,0.95738 1.0811,1.64145 2.0447,1.77816 0.2708,0.0384 0.7494,0.009 1.0388,-0.0638 z m -6.3451,-0.7838 0.01,-0.7179 0.595,-0.0155 c 0.3273,-0.009 0.6549,-0.0284 0.7282,-0.0441 0.7516,-0.16135 1.2595,-0.62441 1.3959,-1.27272 0.063,-0.2984 0.039,-0.6774 -0.059,-0.96147 -0.2155,-0.61979 -0.7176,-0.97667 -1.4848,-1.0554 -0.2774,-0.0285 -2.1122,-0.0379 -2.1818,-0.0112 -0.037,0.0142 -0.041,0.25022 -0.041,2.40594 v 2.39024 h 0.517 0.517 z m 0.01,-1.64058 c -0.01,-0.0194 -0.01,-0.34945 -0.01,-0.73341 l 0.01,-0.69812 0.4886,-0.007 c 0.3736,-0.005 0.5259,0.002 0.6468,0.0328 0.3284,0.0829 0.5064,0.29143 0.5274,0.61792 0.022,0.34296 -0.1142,0.59081 -0.4023,0.73231 -0.1459,0.0717 -0.1562,0.0728 -0.6977,0.0817 -0.4465,0.007 -0.5521,0.002 -0.5631,-0.0263 z"/>
    </g>
  </defs>
  <g id="acyl-visual">
    <use id="visible1" transform="translate(24,24) scale(1.00) translate(-24,-24)" style="fill:url(#acyl-gradient);filter:url(#filter)" xlink:href="#acyl-drawing"/>
  </g>
</svg>
