<svg xmlns="http://www.w3.org/2000/svg" xmlns:xlink="http://www.w3.org/1999/xlink" width="48" height="48">
  <defs id="acyl-settings">
    <linearGradient id="acyl-gradient" x1="0%" x2="0%" y1="0%" y2="100%">
      <stop offset="0%" style="stop-color:#00FAFF;stop-opacity:1.000000"/>
      <stop offset="74%" style="stop-color:#000BFF;stop-opacity:1.000000"/>
    </linearGradient>
    <g id="acyl-filter">
      <filter id="filter">
        <feTurbulence id="feTurbulence1" type="turbulence" numOctaves="5.0" baseFrequency="0.40 0.40"/>
        <feDisplacementMap id="feDisplacementMap1" xChannelSelector="R"/>
        <feBlend id="feBlend1" in2="SourceGraphic" mode="screen"/>
        <feColorMatrix id="feColorMatrix1" values="1 0 0 -1 0 1 0 1 -1 0 1 0 0 -1 0 -0.8 -1 0 4 -2.5 "/>
        <feGaussianBlur id="feGaussianBlur1" stdDeviation="3.0"/>
        <feSpecularLighting id="feSpecularLighting1" surfaceScale="16.0" specularConstant="0.4" specularExponent="5">
          <feDistantLight id="feDistantLight1" azimuth="225" elevation="35"/>
        </feSpecularLighting>
        <feComposite id="feComposite1" in2="SourceGraphic" k2=" 0.4" k3=" 2.0" operator="arithmetic"/>
        <feComposite id="feComposite2" in2="SourceGraphic" operator="in" result="result2"/>
      </filter>
    </g>
    <g id="acyl-drawing">
      <path d="M 24,2.6565217 22.086957,23.7 24,45.7 25.913043,23.7 24,2.6565217 z M 13.836957,13.028804 C 6.8066873,14.060185 2,16.089028 2,18.469022 c 0,2.687294 6.1655459,4.9474 14.706522,5.798913 l 2.510869,16.649456 0,-16.410326 0,-2.899456 C 11.507623,21.053913 5.826087,19.207997 5.826087,17.004348 c 0,-1.650001 3.1763248,-3.115795 8.01087,-3.975544 z m 20.326086,0 c 4.834545,0.859749 8.01087,2.325544 8.01087,3.975544 -10e-7,2.203648 -5.681536,4.049565 -13.391304,4.603261 l 0,0.179348 0,2.720108 0,16.410326 2.510869,-16.649456 C 39.834454,23.416422 46.000001,21.156316 46,18.469022 46,16.089029 41.193313,14.060186 34.163043,13.028804 z" id="path-main"/>
    </g>
  </defs>
  <g id="acyl-visual">
    <use id="visible1" transform="translate(24,24) scale(1.00) translate(-24,-24)" style="fill:url(#acyl-gradient);filter:url(#filter)" xlink:href="#acyl-drawing"/>
  </g>
</svg>
