<svg xmlns="http://www.w3.org/2000/svg" xmlns:xlink="http://www.w3.org/1999/xlink" width="48" height="48" 
   viewBox="0 0 12.7 12.7">
  <defs id="acyl-settings">
    <linearGradient id="acyl-gradient" x1="0%" x2="0%" y1="0%" y2="100%">
      <stop offset="0%" style="stop-color:#00FAFF;stop-opacity:1.000000"/>
      <stop offset="74%" style="stop-color:#000BFF;stop-opacity:1.000000"/>
    </linearGradient>
    <g id="acyl-filter">
      <filter id="filter">
        <feTurbulence id="feTurbulence1" type="turbulence" numOctaves="5.0" baseFrequency="0.40 0.40"/>
        <feDisplacementMap id="feDisplacementMap1" xChannelSelector="R"/>
        <feBlend id="feBlend1" in2="SourceGraphic" mode="screen"/>
        <feColorMatrix id="feColorMatrix1" values="1 0 0 -1 0 1 0 1 -1 0 1 0 0 -1 0 -0.8 -1 0 4 -2.5 "/>
        <feGaussianBlur id="feGaussianBlur1" stdDeviation="3.0"/>
        <feSpecularLighting id="feSpecularLighting1" surfaceScale="16.0" specularConstant="0.4" specularExponent="5">
          <feDistantLight id="feDistantLight1" azimuth="225" elevation="35"/>
        </feSpecularLighting>
        <feComposite id="feComposite1" in2="SourceGraphic" k2=" 0.4" k3=" 2.0" operator="arithmetic"/>
        <feComposite id="feComposite2" in2="SourceGraphic" operator="in" result="result2"/>
      </filter>
    </g>
    <g id="acyl-drawing"
     transform="translate(0,-284.29998)">
      <path d="m 5.2881153,295.90759 c -1.957101,-0.26112 -3.579554,-1.84063 -4.096356,-3.98792 -0.23547702,-0.97841 -0.154132,-2.27535 0.203464,-3.24396 0.116147,-0.31461 0.143999,-0.49686 0.143999,-0.94227 0,-0.9909 0.308121,-1.57142 1.044781,-1.96843 0.496775,-0.26773 1.037143,-0.36613 1.530425,-0.2787 0.260427,0.0462 0.442113,0.0377 0.764421,-0.0356 0.531374,-0.12081 1.37274,-0.12336 1.930706,-0.006 1.980008,0.41696 3.5365417,2.21814 3.8263637,4.42775 l 0.06961,0.53075 0.270433,0.0985 c 0.212544,0.0774 0.312803,0.16474 0.468366,0.40797 0.108862,0.17021 0.197663,0.38223 0.197335,0.47117 -10e-4,0.27261 -0.503175,3.2256 -0.555307,3.26547 -0.0269,0.0206 -0.167894,0.12929 -0.313313,0.24158 -0.312766,0.24153 -0.367094,0.24455 -1.2390817,0.069 l -0.671422,-0.13516 -0.265775,0.20126 c -0.910764,0.68968 -2.195097,1.03299 -3.308654,0.88441 z m 1.905734,-3.6032 c 0.09589,-0.57926 0.166382,-1.11103 0.156639,-1.18171 -0.01405,-0.10195 -0.145656,-0.17797 -0.636793,-0.36789 -1.315,-0.50847 -2.975111,-1.57505 -3.571323,-2.29448 -0.306116,-0.36938 -0.597585,-0.94769 -0.665037,-1.31953 -0.03143,-0.17325 -0.0037,-0.22415 0.274123,-0.50258 0.170002,-0.1704 0.468315,-0.40876 0.662918,-0.52969 0.586637,-0.36457 0.592281,-0.37266 0.261411,-0.37495 -0.826915,-0.006 -1.575797,0.52681 -1.825829,1.29832 -0.09493,0.29294 -0.104467,0.99174 -0.01895,1.38898 0.09127,0.42395 0.63495,1.65653 0.934418,2.11843 0.667643,1.02977 2.163062,2.1472 3.624328,2.70821 0.297573,0.11425 0.560999,0.18576 0.585391,0.15891 0.02439,-0.0268 0.122808,-0.52275 0.218704,-1.10202 z" id="path-main"/>
    </g>
  </defs>
  <g id="acyl-visual">
    <use id="visible1" transform="translate(24,24) scale(1.00) translate(-24,-24)" style="fill:url(#acyl-gradient);filter:url(#filter)" xlink:href="#acyl-drawing"/>
  </g>
</svg>
