<svg xmlns="http://www.w3.org/2000/svg" xmlns:xlink="http://www.w3.org/1999/xlink" width="48" height="48">
  <defs id="acyl-settings">
    <linearGradient id="acyl-gradient" x1="0%" x2="0%" y1="0%" y2="100%">
      <stop offset="0%" style="stop-color:#00FAFF;stop-opacity:1.000000"/>
      <stop offset="74%" style="stop-color:#000BFF;stop-opacity:1.000000"/>
    </linearGradient>
    <g id="acyl-filter">
      <filter id="filter">
        <feTurbulence id="feTurbulence1" type="turbulence" numOctaves="5.0" baseFrequency="0.40 0.40"/>
        <feDisplacementMap id="feDisplacementMap1" xChannelSelector="R"/>
        <feBlend id="feBlend1" in2="SourceGraphic" mode="screen"/>
        <feColorMatrix id="feColorMatrix1" values="1 0 0 -1 0 1 0 1 -1 0 1 0 0 -1 0 -0.8 -1 0 4 -2.5 "/>
        <feGaussianBlur id="feGaussianBlur1" stdDeviation="3.0"/>
        <feSpecularLighting id="feSpecularLighting1" surfaceScale="16.0" specularConstant="0.4" specularExponent="5">
          <feDistantLight id="feDistantLight1" azimuth="225" elevation="35"/>
        </feSpecularLighting>
        <feComposite id="feComposite1" in2="SourceGraphic" k2=" 0.4" k3=" 2.0" operator="arithmetic"/>
        <feComposite id="feComposite2" in2="SourceGraphic" operator="in" result="result2"/>
      </filter>
    </g>
    <g id="acyl-drawing">
      <path d="M 23.987407,2 C 11.841307,2 2,11.860535 2,24.012472 2,36.16441 11.841307,46 23.987407,46 36.133506,46 46,36.16441 46,24.012472 46,11.860535 36.133506,2 23.987407,2 z m 0.818546,5.612245 c 2.207906,3.3e-5 4.089755,0.573333 5.666858,1.73356 1.757304,1.27929 2.644512,2.986265 2.644532,5.113379 -2e-5,1.933789 -0.703778,3.602894 -2.115626,5.001133 -1.321765,1.011528 -2.645067,2.019123 -3.9668,3.030613 -1.426901,1.11565 -2.140825,2.304927 -2.140813,3.554421 -1.2e-5,0.357017 0.07403,0.874719 0.239268,1.558959 0.165206,0.68427 0.251847,1.20196 0.25186,1.55896 -1.3e-5,1.77014 -0.856723,2.65647 -2.568976,2.65646 -0.826102,10e-6 -1.550192,-0.34848 -2.165998,-1.04762 -0.615823,-0.69912 -0.919298,-1.46177 -0.91929,-2.29479 -8e-6,-1.30899 0.685845,-2.781087 2.052661,-4.40249 1.261658,-1.413119 2.516224,-2.824804 3.777905,-4.252835 1.366794,-1.784992 2.052647,-3.547568 2.052662,-5.287981 -1.5e-5,-1.145358 -0.362061,-2.13522 -1.082999,-2.968254 -0.766028,-0.877603 -1.717118,-1.321966 -2.858615,-1.321996 -1.742314,3e-5 -3.045284,0.724807 -3.916429,2.18254 1.156522,1.071035 1.737828,2.023028 1.737836,2.856009 -8e-6,0.907406 -0.323816,1.644655 -0.969662,2.195011 -0.630841,0.550402 -1.411075,0.823151 -2.342301,0.82313 -0.886177,2.1e-5 -1.679004,-0.414137 -2.354893,-1.247166 -0.630838,-0.788357 -0.94448,-1.626742 -0.944478,-2.519274 -2e-6,-2.231241 1.142278,-3.993817 3.425302,-5.287982 1.892495,-1.085852 4.064768,-1.633754 6.497996,-1.633787 z M 22.765885,33.89002 c 0.94624,1e-5 1.756972,0.28523 2.417858,0.8356 0.720941,0.58014 1.082986,1.32265 1.083,2.2449 -1.4e-5,0.99664 -0.323822,1.81729 -0.969663,2.45692 -0.630846,0.63963 -1.439151,0.96032 -2.430452,0.96032 -0.841122,0 -1.583118,-0.31062 -2.228963,-0.93538 -0.645863,-0.62475 -0.96967,-1.34953 -0.969663,-2.18254 -7e-6,-0.8925 0.283136,-1.67528 0.868919,-2.34467 0.600786,-0.68425 1.342781,-1.03514 2.228964,-1.03515 z" id="path-main"/>
    </g>
  </defs>
  <g id="acyl-visual">
    <use id="visible1" transform="translate(24,24) scale(1.00) translate(-24,-24)" style="fill:url(#acyl-gradient);filter:url(#filter)" xlink:href="#acyl-drawing"/>
  </g>
</svg>
