<svg xmlns="http://www.w3.org/2000/svg" xmlns:xlink="http://www.w3.org/1999/xlink" width="48" height="48">
  <defs id="acyl-settings">
    <linearGradient id="acyl-gradient" x1="0%" x2="0%" y1="0%" y2="100%">
      <stop offset="0%" style="stop-color:#00FAFF;stop-opacity:1.000000"/>
      <stop offset="74%" style="stop-color:#000BFF;stop-opacity:1.000000"/>
    </linearGradient>
    <g id="acyl-filter">
      <filter id="filter">
        <feTurbulence id="feTurbulence1" type="turbulence" numOctaves="5.0" baseFrequency="0.40 0.40"/>
        <feDisplacementMap id="feDisplacementMap1" xChannelSelector="R"/>
        <feBlend id="feBlend1" in2="SourceGraphic" mode="screen"/>
        <feColorMatrix id="feColorMatrix1" values="1 0 0 -1 0 1 0 1 -1 0 1 0 0 -1 0 -0.8 -1 0 4 -2.5 "/>
        <feGaussianBlur id="feGaussianBlur1" stdDeviation="3.0"/>
        <feSpecularLighting id="feSpecularLighting1" surfaceScale="16.0" specularConstant="0.4" specularExponent="5">
          <feDistantLight id="feDistantLight1" azimuth="225" elevation="35"/>
        </feSpecularLighting>
        <feComposite id="feComposite1" in2="SourceGraphic" k2=" 0.4" k3=" 2.0" operator="arithmetic"/>
        <feComposite id="feComposite2" in2="SourceGraphic" operator="in" result="result2"/>
      </filter>
    </g>
    <g id="acyl-drawing">
      <path d="M 5.668 3.002 C 3.631 3.002 1.99 4.641 1.99 6.678 L 1.99 35.33 C 1.99 37.37 3.631 39.01 5.668 39.01 L 42.32 39.01 C 44.36 39.01 46 37.37 46 35.33 L 46 6.678 C 46 4.641 44.36 3.002 42.32 3.002 L 5.668 3.002 z M 10.45 9 L 37.54 9 C 38.9 9 39.99 10.09 39.99 11.45 L 39.99 30.56 C 39.99 31.92 38.9 33.01 37.54 33.01 L 10.45 33.01 C 9.091 33.01 8 31.92 8 30.56 L 8 11.45 C 8 10.09 9.091 9 10.45 9 z M 24 12.51 A 8.5 8.5 0 0 0 15.5 21.01 A 8.5 8.5 0 0 0 24 29.51 A 8.5 8.5 0 0 0 32.5 21.01 A 8.5 8.5 0 0 0 24 12.51 z M 27.37 16.96 L 29.05 18.06 L 23.8 26.06 L 18.94 21.19 L 20.35 19.77 L 23.48 22.9 L 27.37 16.96 z M 5.438 40.2 L 5.438 44.81 L 14.66 44.81 L 14.66 40.2 L 5.438 40.2 z M 33.11 40.2 L 33.11 44.81 L 42.33 44.81 L 42.33 40.2 L 33.11 40.2 z" id="path-main"/>
    </g>
  </defs>
  <g id="acyl-visual">
    <use id="visible1" transform="translate(24,24) scale(1.00) translate(-24,-24)" style="fill:url(#acyl-gradient);filter:url(#filter)" xlink:href="#acyl-drawing"/>
  </g>
</svg>
