<svg xmlns="http://www.w3.org/2000/svg" xmlns:xlink="http://www.w3.org/1999/xlink" width="48" height="48">
  <defs id="acyl-settings">
    <linearGradient id="acyl-gradient" x1="0%" x2="0%" y1="0%" y2="100%">
      <stop offset="0%" style="stop-color:#00FAFF;stop-opacity:1.000000"/>
      <stop offset="74%" style="stop-color:#000BFF;stop-opacity:1.000000"/>
    </linearGradient>
    <g id="acyl-filter">
      <filter id="filter">
        <feTurbulence id="feTurbulence1" type="turbulence" numOctaves="5.0" baseFrequency="0.40 0.40"/>
        <feDisplacementMap id="feDisplacementMap1" xChannelSelector="R"/>
        <feBlend id="feBlend1" in2="SourceGraphic" mode="screen"/>
        <feColorMatrix id="feColorMatrix1" values="1 0 0 -1 0 1 0 1 -1 0 1 0 0 -1 0 -0.8 -1 0 4 -2.5 "/>
        <feGaussianBlur id="feGaussianBlur1" stdDeviation="3.0"/>
        <feSpecularLighting id="feSpecularLighting1" surfaceScale="16.0" specularConstant="0.4" specularExponent="5">
          <feDistantLight id="feDistantLight1" azimuth="225" elevation="35"/>
        </feSpecularLighting>
        <feComposite id="feComposite1" in2="SourceGraphic" k2=" 0.4" k3=" 2.0" operator="arithmetic"/>
        <feComposite id="feComposite2" in2="SourceGraphic" operator="in" result="result2"/>
      </filter>
    </g>
    <g id="acyl-drawing">
      <path d="M 13.09375 2 C 10.8085 2 8.96875 3.83975 8.96875 6.125 L 8.96875 41.875 C 8.96875 44.16025 10.8085 46 13.09375 46 L 35.09375 46 C 37.379 46 39.21875 44.16025 39.21875 41.875 L 39.21875 6.125 C 39.21875 3.83975 37.379 2 35.09375 2 L 13.09375 2 z M 24.09375 7.5 C 29.410528 7.5 33.72002 11.809632 33.71875 17.125 C 33.71995 22.44037 29.410528 26.75 24.09375 26.75 C 18.776971 26.75 14.46748 22.44037 14.46875 17.125 C 14.46755 11.809632 18.776971 7.5 24.09375 7.5 z M 24.09375 13 C 21.815576 13 19.96875 14.846826 19.96875 17.125 C 19.96875 19.403171 21.815576 21.25 24.09375 21.25 C 26.371924 21.25 28.21875 19.403171 28.21875 17.125 C 28.21875 14.846826 26.371924 13 24.09375 13 z M 17.21875 35 C 18.737927 35 19.969305 36.231381 19.96875 37.75 C 19.969305 39.268619 18.737927 40.5 17.21875 40.5 C 15.699574 40.5 14.468195 39.268619 14.46875 37.75 C 14.468195 36.231381 15.699575 35 17.21875 35 z M 30.96875 35 C 32.487927 35 33.719305 36.231381 33.71875 37.75 C 33.719305 39.268619 32.487927 40.5 30.96875 40.5 C 29.449573 40.5 28.218194 39.268619 28.21875 37.75 C 28.218194 36.231381 29.449573 35 30.96875 35 z " id="path-main"/>
    </g>
  </defs>
  <g id="acyl-visual">
    <use id="visible1" transform="translate(24,24) scale(1.00) translate(-24,-24)" style="fill:url(#acyl-gradient);filter:url(#filter)" xlink:href="#acyl-drawing"/>
  </g>
</svg>
