<svg xmlns="http://www.w3.org/2000/svg" xmlns:xlink="http://www.w3.org/1999/xlink" width="48" height="48" viewBox="0 0 47.999999 47.999999">
  <defs id="acyl-settings">
    <linearGradient id="acyl-gradient" x1="0%" x2="0%" y1="0%" y2="100%">
      <stop offset="0%" style="stop-color:#00FAFF;stop-opacity:1.000000"/>
      <stop offset="74%" style="stop-color:#000BFF;stop-opacity:1.000000"/>
    </linearGradient>
    <g id="acyl-filter">
      <filter id="filter">
        <feTurbulence id="feTurbulence1" type="turbulence" numOctaves="5.0" baseFrequency="0.40 0.40"/>
        <feDisplacementMap id="feDisplacementMap1" xChannelSelector="R"/>
        <feBlend id="feBlend1" in2="SourceGraphic" mode="screen"/>
        <feColorMatrix id="feColorMatrix1" values="1 0 0 -1 0 1 0 1 -1 0 1 0 0 -1 0 -0.8 -1 0 4 -2.5 "/>
        <feGaussianBlur id="feGaussianBlur1" stdDeviation="3.0"/>
        <feSpecularLighting id="feSpecularLighting1" surfaceScale="16.0" specularConstant="0.4" specularExponent="5">
          <feDistantLight id="feDistantLight1" azimuth="225" elevation="35"/>
        </feSpecularLighting>
        <feComposite id="feComposite1" in2="SourceGraphic" k2=" 0.4" k3=" 2.0" operator="arithmetic"/>
        <feComposite id="feComposite2" in2="SourceGraphic" operator="in" result="result2"/>
      </filter>
    </g>
    <g id="acyl-drawing">
      <path d="M 2,24 V 2 H 24 46 V 24 46 H 24 2 Z m 20.637313,15.188684 c 0.01653,-1.100422 0.0049,-1.262431 -0.09695,-1.346938 -0.09737,-0.08082 -1.390382,-0.09606 -8.148764,-0.09606 -5.887318,0 -8.053913,0.02088 -8.111221,0.07818 -0.08287,0.08286 -0.111803,2.452586 -0.03153,2.582477 0.02755,0.04458 2.879025,0.06222 8.205947,0.05077 l 8.163723,-0.01755 z M 9.901558,25.790269 c 0.02306,-0.06009 0.04193,-1.268531 0.04193,-2.685419 0,-2.101603 0.0175,-2.590681 0.09498,-2.654986 0.06665,-0.05531 0.576147,-0.07328 1.707874,-0.06026 l 1.612893,0.01856 1.835618,2.728415 1.835619,2.728414 2.10329,0.01933 c 1.15681,0.01064 2.173228,0.0023 2.258707,-0.01858 0.08548,-0.02085 0.155416,-0.07906 0.155416,-0.129352 0,-0.05029 -0.517216,-0.850091 -1.149368,-1.777335 -2.179305,-3.196614 -2.934165,-4.355362 -2.912058,-4.470155 0.0122,-0.06333 0.279767,-0.255401 0.594601,-0.426825 1.442866,-0.785626 2.465839,-1.994765 2.925173,-3.457512 0.146844,-0.467622 0.161573,-0.639178 0.159862,-1.862018 -0.0012,-0.891432 -0.03343,-1.475413 -0.09518,-1.726843 C 20.644674,10.28 19.343395,8.844909 17.628157,8.218925 16.383325,7.764618 16.428231,7.767665 10.979595,7.767665 H 6.040819 l -0.01752,9.026283 c -0.01661,8.554086 -0.01119,9.027938 0.103611,9.057922 0.06662,0.0174 0.933744,0.03524 1.926932,0.03965 1.587704,0.007 1.81086,-0.0052 1.847724,-0.101248 z m 0.387296,-9.353848 c -0.132777,-0.132777 -0.138148,-0.230246 -0.138148,-2.507378 0,-1.750637 0.02164,-2.390873 0.08289,-2.45212 0.106958,-0.106957 4.238249,-0.114725 4.890424,-0.0092 0.980894,0.158722 1.718076,0.704564 1.978882,1.465252 0.161322,0.470524 0.162467,1.406258 0.0023,1.880204 -0.234877,0.695026 -0.934475,1.38391 -1.582692,1.558457 -0.528949,0.142431 -1.473505,0.200474 -3.28232,0.201698 -1.721969,0.0012 -1.820138,-0.0057 -1.951335,-0.13692 z m 17.177684,9.4089 c 0.06141,-0.03905 0.09439,-1.466025 0.131727,-5.700157 0.02739,-3.106436 0.07523,-5.66378 0.106306,-5.682985 0.03107,-0.01921 1.096583,1.528367 2.367795,3.43905 1.271212,1.910682 2.371465,3.548756 2.445005,3.640165 0.08686,0.107959 0.173926,0.150766 0.248471,0.122161 0.06312,-0.02422 0.971953,-1.342337 2.019635,-2.929149 2.893785,-4.382906 2.947863,-4.461239 3.011013,-4.361387 0.0089,0.01415 0.03226,2.605631 0.05181,5.758849 l 0.03554,5.733124 h 2.00314 2.00314 V 16.816326 7.767661 l -2.037677,-0.01935 c -1.120722,-0.01065 -2.104431,-0.0031 -2.186021,0.01681 -0.169412,0.0413 -0.440753,0.455174 -2.786065,4.249621 -1.747744,2.827653 -2.004012,3.212887 -2.1373,3.212887 -0.04893,0 -0.563857,-0.761539 -1.144292,-1.692307 C 31.018331,12.604553 29.972573,10.92606 29.27486,9.805337 l -1.268571,-2.037676 -2.10675,-0.01678 c -1.253333,-0.01002 -2.148722,0.01002 -2.210361,0.04929 -0.09122,0.05816 -0.103611,1.132429 -0.103611,8.984669 0,8.748724 0.0026,8.920473 0.134081,9.016646 0.107614,0.07869 0.482578,0.09783 1.89953,0.09698 0.970996,-5.53e-4 1.802313,-0.0245 1.84737,-0.05315 z"/>
    </g>
  </defs>
  <g id="acyl-visual">
    <use id="visible1" transform="translate(24,24) scale(1.00) translate(-24,-24)" style="fill:url(#acyl-gradient);filter:url(#filter)" xlink:href="#acyl-drawing"/>
  </g>
</svg>
