<svg xmlns="http://www.w3.org/2000/svg" xmlns:xlink="http://www.w3.org/1999/xlink" width="48" height="48" viewBox="0 0 12.7 12.7">
  <defs id="acyl-settings">
    <linearGradient id="acyl-gradient" x1="0%" x2="0%" y1="0%" y2="100%">
      <stop offset="0%" style="stop-color:#00FAFF;stop-opacity:1.000000"/>
      <stop offset="74%" style="stop-color:#000BFF;stop-opacity:1.000000"/>
    </linearGradient>
    <g id="acyl-filter">
      <filter id="filter">
        <feTurbulence id="feTurbulence1" type="turbulence" numOctaves="5.0" baseFrequency="0.40 0.40"/>
        <feDisplacementMap id="feDisplacementMap1" xChannelSelector="R"/>
        <feBlend id="feBlend1" in2="SourceGraphic" mode="screen"/>
        <feColorMatrix id="feColorMatrix1" values="1 0 0 -1 0 1 0 1 -1 0 1 0 0 -1 0 -0.8 -1 0 4 -2.5 "/>
        <feGaussianBlur id="feGaussianBlur1" stdDeviation="3.0"/>
        <feSpecularLighting id="feSpecularLighting1" surfaceScale="16.0" specularConstant="0.4" specularExponent="5">
          <feDistantLight id="feDistantLight1" azimuth="225" elevation="35"/>
        </feSpecularLighting>
        <feComposite id="feComposite1" in2="SourceGraphic" k2=" 0.4" k3=" 2.0" operator="arithmetic"/>
        <feComposite id="feComposite2" in2="SourceGraphic" operator="in" result="result2"/>
      </filter>
    </g>
    <g id="acyl-drawing" transform="translate(0,-284.29998)">
      <path d="m 5.939683,296.46081 c -2.38405,-0.19766 -4.3505899,-1.71351 -5.11057997,-3.93934 -0.22795,-0.66762 -0.29985,-1.12568 -0.29992,-1.91081 -5e-5,-0.54492 0.0307,-0.81535 0.14954,-1.31295 0.51336007,-2.1505 2.21217007,-3.83756 4.35433997,-4.32423 0.69878,-0.15875 1.51912,-0.18843 2.20416,-0.0797 1.75719,0.2788 3.24014,1.29192 4.14658,2.83285 0.39324,0.66851 0.64349,1.41258 0.75598,2.24771 0.0421,0.31274 0.0413,1.0182 -0.002,1.33247 -0.19024,1.39367 -0.72065,2.49412 -1.65265,3.42875 -0.9746,0.97736 -2.10946,1.52704 -3.51171,1.70094 -0.26153,0.0324 -0.78726,0.0448 -1.03409,0.0243 z m 2.9544,-3.14116 c 0.10073,-0.0665 0.1665,-0.18538 0.1665,-0.30084 0,-0.19396 -0.1191,-0.30565 -0.56263,-0.52762 -1.29354,-0.64738 -2.72396,-0.83582 -4.42811,-0.58334 -0.43201,0.064 -0.79269,0.13987 -0.90153,0.18961 -0.1402799,0.0641 -0.1944299,0.15354 -0.1944299,0.32108 0,0.11609 0.005,0.13345 0.0546,0.19515 0.0911,0.11299 0.1558899,0.14703 0.2798699,0.14703 0.0597,0 0.25828,-0.0278 0.44124,-0.0617 0.73203,-0.13581 1.19781,-0.17626 1.86351,-0.16182 0.48116,0.0104 0.7602,0.039 1.14748,0.1174 0.5242,0.10614 1.0597,0.29623 1.50056,0.53266 0.38696,0.20753 0.35371,0.1941 0.46181,0.1865 0.0703,-0.005 0.12105,-0.021 0.17114,-0.0541 z m 0.62647,-1.52532 c 0.17807,-0.079 0.26416,-0.2124 0.26294,-0.40741 -0.002,-0.26155 -0.15373,-0.39636 -0.78479,-0.69563 -0.62403,-0.29593 -1.18239,-0.47712 -1.92919,-0.62604 -0.63867,-0.12735 -0.70561,-0.1326 -1.68592,-0.13211 -0.72192,3.6e-4 -0.91529,0.006 -1.11218,0.0309 -0.46573,0.0594 -1.11387,0.2131 -1.3045999,0.30928 -0.23884,0.12044 -0.31926,0.41424 -0.17288,0.63157 0.0313,0.0464 0.0945,0.10714 0.14209,0.13635 0.13321,0.0818 0.2388999,0.0809 0.6027699,-0.005 0.66627,-0.1576 0.97799,-0.1967 1.66535,-0.20885 0.5651,-0.01 0.83971,0.004 1.2828,0.0667 0.87864,0.12375 1.6031,0.35198 2.39206,0.75357 0.17963,0.0914 0.34645,0.17284 0.37073,0.18092 0.0609,0.0203 0.183,0.005 0.27082,-0.0341 z m 0.72652,-1.78435 c 0.20293,-0.0758 0.30735,-0.20015 0.34689,-0.41309 0.0378,-0.20361 -0.0422,-0.40525 -0.20907,-0.52659 -0.10708,-0.0779 -0.53653,-0.29904 -0.79092,-0.40729 -0.82476,-0.35097 -1.64361,-0.55392 -2.85105,-0.70662 -0.2965,-0.0375 -1.65535,-0.0541 -2.10464,-0.0257 -0.52732,0.0333 -1.05177,0.11161 -1.5453799,0.23067 -0.4705,0.11348 -0.60917,0.18884 -0.71275,0.38735 -0.0339,0.0649 -0.0414,0.10655 -0.0416,0.22911 -2.1e-4,0.12852 0.007,0.16402 0.049,0.24993 0.0905,0.18403 0.25631,0.28796 0.45387,0.28454 0.0649,-0.001 0.24927,-0.0332 0.4246599,-0.0739 0.87374,-0.20275 1.71317,-0.27603 2.67853,-0.23383 1.49456,0.0653 2.45129,0.29194 3.64931,0.86438 0.41636,0.19894 0.46814,0.21012 0.6531,0.14104 z" id="path-main"/>
    </g>
  </defs>
  <g id="acyl-visual">
    <use id="visible1" transform="translate(24,24) scale(1.00) translate(-24,-24)" style="fill:url(#acyl-gradient);filter:url(#filter)" xlink:href="#acyl-drawing"/>
  </g>
</svg>
