<svg xmlns="http://www.w3.org/2000/svg" xmlns:xlink="http://www.w3.org/1999/xlink" width="48" height="48">
  <defs id="acyl-settings">
    <linearGradient id="acyl-gradient" x1="0%" x2="0%" y1="0%" y2="100%">
      <stop offset="0%" style="stop-color:#00FAFF;stop-opacity:1.000000"/>
      <stop offset="74%" style="stop-color:#000BFF;stop-opacity:1.000000"/>
    </linearGradient>
    <g id="acyl-filter">
      <filter id="filter">
        <feTurbulence id="feTurbulence1" type="turbulence" numOctaves="5.0" baseFrequency="0.40 0.40"/>
        <feDisplacementMap id="feDisplacementMap1" xChannelSelector="R"/>
        <feBlend id="feBlend1" in2="SourceGraphic" mode="screen"/>
        <feColorMatrix id="feColorMatrix1" values="1 0 0 -1 0 1 0 1 -1 0 1 0 0 -1 0 -0.8 -1 0 4 -2.5 "/>
        <feGaussianBlur id="feGaussianBlur1" stdDeviation="3.0"/>
        <feSpecularLighting id="feSpecularLighting1" surfaceScale="16.0" specularConstant="0.4" specularExponent="5">
          <feDistantLight id="feDistantLight1" azimuth="225" elevation="35"/>
        </feSpecularLighting>
        <feComposite id="feComposite1" in2="SourceGraphic" k2=" 0.4" k3=" 2.0" operator="arithmetic"/>
        <feComposite id="feComposite2" in2="SourceGraphic" operator="in" result="result2"/>
      </filter>
    </g>
    <g id="acyl-drawing">
      <path id="path-main" d="M 11.753553,2 C 6.3501608,2 2,6.3679167 2,11.793364 L 2,36.206636 C 2,41.632083 6.3501608,46 11.753553,46 l 24.492894,0 C 41.649839,46 46,41.632083 46,36.206636 L 46,11.793364 C 46,6.3679167 41.649839,2 36.246447,2 L 11.753553,2 z M 9.7693092,8.555102 C 38.912599,9.542856 39.225613,38.277551 39.225613,38.277551 c 0,0 -2.436995,0 -5.745941,0 C 31.333333,13.583669 9.6910533,14.302042 9.6910533,14.302042 c 0,0.0449 0.089439,-2.424491 0.078256,-5.74694 z M 9.7357683,18.612246 C 29.142271,19.195915 29.23171,38.187754 29.23171,38.187754 c 0,0 -2.414638,-0.0898 -5.768299,-0.0449 C 22.613826,24.089797 9.7357683,24.314288 9.7357683,24.314288 c 0,-0.0449 0.044724,-3.54694 0,-5.702042 z M 13.670734,30.19872 c 2.195013,0 3.976876,1.789141 3.976876,3.993119 0,2.203969 -1.781863,3.99311 -3.976876,3.99311 -2.195022,0 -3.9768848,-1.789141 -3.9768848,-3.99311 0,-2.203978 1.7818628,-3.993119 3.9768848,-3.993119 z"/>
    </g>
  </defs>
  <g id="acyl-visual">
    <use id="visible1" transform="translate(24,24) scale(1.00) translate(-24,-24)" style="fill:url(#acyl-gradient);filter:url(#filter)" xlink:href="#acyl-drawing"/>
  </g>
</svg>
