<svg xmlns="http://www.w3.org/2000/svg" xmlns:xlink="http://www.w3.org/1999/xlink" width="48" height="48">
  <defs id="acyl-settings">
    <linearGradient id="acyl-gradient" x1="0%" x2="0%" y1="0%" y2="100%">
      <stop offset="0%" style="stop-color:#00FAFF;stop-opacity:1.000000"/>
      <stop offset="74%" style="stop-color:#000BFF;stop-opacity:1.000000"/>
    </linearGradient>
    <g id="acyl-filter">
      <filter id="filter">
        <feTurbulence id="feTurbulence1" type="turbulence" numOctaves="5.0" baseFrequency="0.40 0.40"/>
        <feDisplacementMap id="feDisplacementMap1" xChannelSelector="R"/>
        <feBlend id="feBlend1" in2="SourceGraphic" mode="screen"/>
        <feColorMatrix id="feColorMatrix1" values="1 0 0 -1 0 1 0 1 -1 0 1 0 0 -1 0 -0.8 -1 0 4 -2.5 "/>
        <feGaussianBlur id="feGaussianBlur1" stdDeviation="3.0"/>
        <feSpecularLighting id="feSpecularLighting1" surfaceScale="16.0" specularConstant="0.4" specularExponent="5">
          <feDistantLight id="feDistantLight1" azimuth="225" elevation="35"/>
        </feSpecularLighting>
        <feComposite id="feComposite1" in2="SourceGraphic" k2=" 0.4" k3=" 2.0" operator="arithmetic"/>
        <feComposite id="feComposite2" in2="SourceGraphic" operator="in" result="result2"/>
      </filter>
    </g>
    <g id="acyl-drawing">
      <path d="m 20.154559,2.0000038 c -5.565826,3.047358 -7.622513,7.497378 -9.766561,13.3249202 -0.2994,1.652463 0.08957,3.306528 0.466877,4.958991 -0.156279,2.185164 -0.03618,4.55088 0.151419,6.965299 1.727292,-1.316475 3.106204,-2.083671 3.722397,-2.637224 0.714818,-0.642151 2.714448,-0.01491 6.81388,-4.176656 2.978596,-0.297656 6.824152,0.190753 8.063091,1.009464 1.787583,1.181263 3.551899,6.49927 -1.716089,10.61199 1.962302,0.18974 3.930445,0.10651 5.892745,-0.93376 -0.344473,6.12778 -1.964481,11.61995 -8.050472,14.87697 7.519676,0.004 16.944712,-5.51812 18.271293,-14.72555 C 45.489231,20.959886 43.601461,15.319159 36.570962,10.668773 30.472049,6.6345928 26.657632,6.9541178 20.305978,7.7287098 18.67132,6.7164298 18.902802,4.6503568 20.154559,2.0000038 z M 8.129323,13.167196 c -5.835869,4.063491 -5.621158,10.115435 -4.59306,15.356462 1.833011,9.34432 7.502413,11.62839 11.533122,13.62776 -0.952659,-1.77673 -3.08276,-3.72809 -2.599369,-5.29968 l 4.946373,0.69401 c -1.970738,-2.43761 -4.804897,-4.3835 -4.858044,-7.88644 l -1.993691,2.33439 C 4.750969,23.975847 8.909881,19.43439 8.129323,13.167196 z" id="path-main"/>
    </g>
  </defs>
  <g id="acyl-visual">
    <use id="visible1" transform="translate(24,24) scale(1.00) translate(-24,-24)" style="fill:url(#acyl-gradient);filter:url(#filter)" xlink:href="#acyl-drawing"/>
  </g>
</svg>
