<svg xmlns="http://www.w3.org/2000/svg" xmlns:xlink="http://www.w3.org/1999/xlink" width="48" height="48">
  <defs id="acyl-settings">
    <linearGradient id="acyl-gradient" x1="0%" x2="0%" y1="0%" y2="100%">
      <stop offset="0%" style="stop-color:#00FAFF;stop-opacity:1.000000"/>
      <stop offset="74%" style="stop-color:#000BFF;stop-opacity:1.000000"/>
    </linearGradient>
    <g id="acyl-filter">
      <filter id="filter">
        <feTurbulence id="feTurbulence1" type="turbulence" numOctaves="5.0" baseFrequency="0.40 0.40"/>
        <feDisplacementMap id="feDisplacementMap1" xChannelSelector="R"/>
        <feBlend id="feBlend1" in2="SourceGraphic" mode="screen"/>
        <feColorMatrix id="feColorMatrix1" values="1 0 0 -1 0 1 0 1 -1 0 1 0 0 -1 0 -0.8 -1 0 4 -2.5 "/>
        <feGaussianBlur id="feGaussianBlur1" stdDeviation="3.0"/>
        <feSpecularLighting id="feSpecularLighting1" surfaceScale="16.0" specularConstant="0.4" specularExponent="5">
          <feDistantLight id="feDistantLight1" azimuth="225" elevation="35"/>
        </feSpecularLighting>
        <feComposite id="feComposite1" in2="SourceGraphic" k2=" 0.4" k3=" 2.0" operator="arithmetic"/>
        <feComposite id="feComposite2" in2="SourceGraphic" operator="in" result="result2"/>
      </filter>
    </g>
    <g id="acyl-drawing">
      <path id="path-main" d="M 6.3513032,9.2193327 C 5.3241293,10.323423 5.2662162,12.614536 6.2670192,13.742585 7.3403825,14.952421 12.335398,13.369237 14.859872,13.426936 8.5335608,19.39387 2.5541163,26.54599 2.7832718,28.211375 3.0216122,29.943511 5.3420237,31.391861 7.0817664,31.217512 8.0230253,31.123181 12.267753,23.60195 21.113431,13.544275 24.60804,13.318988 30.717005,13.891007 31.552281,12.618796 32.48943,11.191424 33.004259,9.0237033 32.170366,7.5336491 31.467336,6.2774297 7.2962647,8.2036109 6.3513032,9.2193327 z M 36.440766,16.074449 c -6.04988,0.09603 -16.82314,1.700479 -17.755873,2.921852 -0.987687,1.293334 0.191146,3.695475 1.01141,4.136533 0.883705,0.47517 5.486728,-0.884974 5.486728,-0.884974 -5.408925,5.120556 -13.78026,14.332334 -13.493728,15.965242 0.306914,1.749057 2.448187,3.444889 4.214211,3.258989 1.258608,-0.132488 4.550928,-6.089499 7.220346,-8.990316 0,0 10.539815,10.10626 12.249306,9.55221 1.781472,-0.57738 2.166397,-2.457005 1.746009,-3.537448 -0.41746,-1.072916 -6.606399,-5.986668 -6.606399,-5.986668 18.511348,-1.878785 19.372273,-15.591986 5.92799,-16.43542 z m -2.753285,4.2704 c 13.658923,-0.230585 4.617042,7.865691 -5.956084,6.658452 2.53544,-3.2814 5.956084,-6.658452 5.956084,-6.658452 z"/>
    </g>
  </defs>
  <g id="acyl-visual">
    <use id="visible1" transform="translate(24,24) scale(1.00) translate(-24,-24)" style="fill:url(#acyl-gradient);filter:url(#filter)" xlink:href="#acyl-drawing"/>
  </g>
</svg>
