<svg xmlns="http://www.w3.org/2000/svg" xmlns:xlink="http://www.w3.org/1999/xlink" width="48" height="48">
  <defs id="acyl-settings">
    <linearGradient id="acyl-gradient" x1="0%" x2="0%" y1="0%" y2="100%">
      <stop offset="0%" style="stop-color:#00FAFF;stop-opacity:1.000000"/>
      <stop offset="74%" style="stop-color:#000BFF;stop-opacity:1.000000"/>
    </linearGradient>
    <g id="acyl-filter">
      <filter id="filter">
        <feTurbulence id="feTurbulence1" type="turbulence" numOctaves="5.0" baseFrequency="0.40 0.40"/>
        <feDisplacementMap id="feDisplacementMap1" xChannelSelector="R"/>
        <feBlend id="feBlend1" in2="SourceGraphic" mode="screen"/>
        <feColorMatrix id="feColorMatrix1" values="1 0 0 -1 0 1 0 1 -1 0 1 0 0 -1 0 -0.8 -1 0 4 -2.5 "/>
        <feGaussianBlur id="feGaussianBlur1" stdDeviation="3.0"/>
        <feSpecularLighting id="feSpecularLighting1" surfaceScale="16.0" specularConstant="0.4" specularExponent="5">
          <feDistantLight id="feDistantLight1" azimuth="225" elevation="35"/>
        </feSpecularLighting>
        <feComposite id="feComposite1" in2="SourceGraphic" k2=" 0.4" k3=" 2.0" operator="arithmetic"/>
        <feComposite id="feComposite2" in2="SourceGraphic" operator="in" result="result2"/>
      </filter>
    </g>
    <g id="acyl-drawing">
      <path d="m 24.0011,2.0015 c -12.132,0 -22.00105,9.869 -22.00105,21.999 0,12.13 9.86905,21.998 22.00105,21.998 C 36.1309,45.9985 46,36.1305 46,24.0005 46,11.8705 36.1308,2.0015 24.0011,2.0015 Z m 9.2052,36.541 0,-25.053 -5.2492,0 0,8.501 -11.848,-8.384 c -0.449,-0.274 -0.979,0.05 -0.988,0.51 l 0,19.652 c 0.04,0.521 0.598,0.76 0.988,0.513 l 11.848,-8.384 0,14.857 c -1.272,0.302 -2.594,0.471 -3.956,0.471 -9.5,0 -17.22605,-7.728 -17.22605,-17.225 0,-9.497 7.72505,-17.223 17.22605,-17.223 9.4975,0 17.2259,7.725 17.2259,17.223 0,6.115 -3.2068,11.484 -8.0208,14.542 z" id="path-main"/>
    </g>
  </defs>
  <g id="acyl-visual">
    <use id="visible1" transform="translate(24,24) scale(1.00) translate(-24,-24)" style="fill:url(#acyl-gradient);filter:url(#filter)" xlink:href="#acyl-drawing"/>
  </g>
</svg>
