<svg xmlns="http://www.w3.org/2000/svg" xmlns:xlink="http://www.w3.org/1999/xlink" width="48" height="48">
  <defs id="acyl-settings">
    <linearGradient id="acyl-gradient" x1="0%" x2="0%" y1="0%" y2="100%">
      <stop offset="0%" style="stop-color:#00FAFF;stop-opacity:1.000000"/>
      <stop offset="74%" style="stop-color:#000BFF;stop-opacity:1.000000"/>
    </linearGradient>
    <g id="acyl-filter">
      <filter id="filter">
        <feTurbulence id="feTurbulence1" type="turbulence" numOctaves="5.0" baseFrequency="0.40 0.40"/>
        <feDisplacementMap id="feDisplacementMap1" xChannelSelector="R"/>
        <feBlend id="feBlend1" in2="SourceGraphic" mode="screen"/>
        <feColorMatrix id="feColorMatrix1" values="1 0 0 -1 0 1 0 1 -1 0 1 0 0 -1 0 -0.8 -1 0 4 -2.5 "/>
        <feGaussianBlur id="feGaussianBlur1" stdDeviation="3.0"/>
        <feSpecularLighting id="feSpecularLighting1" surfaceScale="16.0" specularConstant="0.4" specularExponent="5">
          <feDistantLight id="feDistantLight1" azimuth="225" elevation="35"/>
        </feSpecularLighting>
        <feComposite id="feComposite1" in2="SourceGraphic" k2=" 0.4" k3=" 2.0" operator="arithmetic"/>
        <feComposite id="feComposite2" in2="SourceGraphic" operator="in" result="result2"/>
      </filter>
    </g>
    <g id="acyl-drawing">
      <path id="path-main" d="M 22.159477,2 C 11.435739,2.8846059 2.8887391,11.43609 2,22.159477 l 6.4705882,0 C 9.3080788,14.986234 14.986234,9.308079 22.159477,8.470588 l 0,-6.470588 z m 3.681046,0 0,6.470588 c 7.173242,0.837491 12.851398,6.515646 13.688889,13.688889 l 6.470588,0 C 45.111261,11.43609 36.564262,2.884606 25.840523,2 z m -7.362092,12.797386 0,17.484967 15.644445,-8.224837 -15.644445,-9.26013 z M 2,25.840523 C 2.8887392,36.563911 11.435739,45.115394 22.159477,46 l 0,-6.470588 C 14.986233,38.691921 9.3080787,33.013766 8.4705882,25.840523 L 2,25.840523 z m 37.529412,0 C 38.69192,33.013767 33.013766,38.691921 25.840523,39.529412 l 0,6.470588 C 36.564261,45.115394 45.111261,36.56391 46,25.840523 l -6.470588,0 z"/>
    </g>
  </defs>
  <g id="acyl-visual">
    <use id="visible1" transform="translate(24,24) scale(1.00) translate(-24,-24)" style="fill:url(#acyl-gradient);filter:url(#filter)" xlink:href="#acyl-drawing"/>
  </g>
</svg>
