<svg xmlns="http://www.w3.org/2000/svg" xmlns:xlink="http://www.w3.org/1999/xlink" width="48" height="48" viewBox="0 0 12.7 12.7">
  <defs id="acyl-settings">
    <linearGradient id="acyl-gradient" x1="0%" x2="0%" y1="0%" y2="100%">
      <stop offset="0%" style="stop-color:#00FAFF;stop-opacity:1.000000"/>
      <stop offset="74%" style="stop-color:#000BFF;stop-opacity:1.000000"/>
    </linearGradient>
    <g id="acyl-filter">
      <filter id="filter">
        <feTurbulence id="feTurbulence1" type="turbulence" numOctaves="5.0" baseFrequency="0.40 0.40"/>
        <feDisplacementMap id="feDisplacementMap1" xChannelSelector="R"/>
        <feBlend id="feBlend1" in2="SourceGraphic" mode="screen"/>
        <feColorMatrix id="feColorMatrix1" values="1 0 0 -1 0 1 0 1 -1 0 1 0 0 -1 0 -0.8 -1 0 4 -2.5 "/>
        <feGaussianBlur id="feGaussianBlur1" stdDeviation="3.0"/>
        <feSpecularLighting id="feSpecularLighting1" surfaceScale="16.0" specularConstant="0.4" specularExponent="5">
          <feDistantLight id="feDistantLight1" azimuth="225" elevation="35"/>
        </feSpecularLighting>
        <feComposite id="feComposite1" in2="SourceGraphic" k2=" 0.4" k3=" 2.0" operator="arithmetic"/>
        <feComposite id="feComposite2" in2="SourceGraphic" operator="in" result="result2"/>
      </filter>
    </g>
    <g id="acyl-drawing" transform="translate(0,-284.29998)">
      <path d="m 1.62587,296.45659 c -0.26859,-0.041 -0.52166,-0.17038 -0.71879,-0.36746 -0.18773,-0.18768 -0.30724,-0.41066 -0.3607,-0.67292 -0.0163,-0.0803 -0.0172,-0.32084 -0.0172,-4.76625 0,-4.44541 8.7e-4,-4.68599 0.0172,-4.76624 0.0535,-0.26226 0.17297,-0.48524 0.3607,-0.67292 0.18189,-0.18185 0.38786,-0.29478 0.65086,-0.35688 l 0.0873,-0.0206 4.65376,-0.003 c 4.20652,-0.003 4.66395,-10e-4 4.7598,0.0125 0.27814,0.0403 0.52749,0.16611 0.72921,0.36778 0.2005,0.20045 0.32652,0.44907 0.36751,0.72504 0.0137,0.0924 0.0153,0.56987 0.0153,4.71412 0,4.14426 -0.002,4.62173 -0.0153,4.71413 -0.0411,0.27687 -0.16635,0.52393 -0.36751,0.72504 -0.20049,0.20044 -0.44917,0.32643 -0.72521,0.36741 -0.0925,0.0137 -0.56785,0.0152 -4.72622,0.0143 -3.86938,-7.8e-4 -4.63764,-0.003 -4.71075,-0.0143 z m 3.4913,-1.93914 c 0.25648,-0.0491 0.46637,-0.23733 0.55261,-0.49567 l 0.0227,-0.0679 v -3.62895 -3.62895 l -0.0264,-0.0776 c -0.078,-0.22887 -0.25634,-0.39937 -0.49437,-0.47254 l -0.0712,-0.0219 -1.28597,-0.003 c -0.89106,-0.002 -1.31077,1.7e-4 -1.36671,0.008 -0.15965,0.021 -0.28874,0.0837 -0.40778,0.19832 -0.12115,0.11661 -0.19357,0.25956 -0.21502,0.42443 -0.007,0.057 -0.01,1.12404 -0.008,3.62719 0.003,3.35311 0.004,3.54991 0.0201,3.60954 0.0742,0.27337 0.30619,0.48775 0.57709,0.53335 0.0253,0.004 0.62755,0.008 1.33837,0.009 1.078,9.5e-4 1.30431,-0.001 1.36423,-0.0126 z m 5.263,-3.57857 c 0.22888,-0.0779 0.39918,-0.25596 0.47275,-0.49425 l 0.022,-0.0712 0.003,-1.77081 c 0.002,-1.23659 -2.2e-4,-1.79517 -0.008,-1.85153 -0.0209,-0.15951 -0.0837,-0.28864 -0.19832,-0.40768 -0.11657,-0.12105 -0.25935,-0.19338 -0.42453,-0.21507 -0.0559,-0.007 -0.47565,-0.01 -1.36671,-0.008 l -1.28597,0.003 -0.0712,0.0219 c -0.23802,0.0732 -0.4164,0.24367 -0.49436,0.47254 l -0.0265,0.0776 -0.003,1.82885 c -0.002,1.78788 -0.002,1.83052 0.0164,1.90393 0.0638,0.25235 0.26586,0.45573 0.51893,0.52238 0.0659,0.0174 0.12753,0.0181 1.41797,0.0162 l 1.34905,-0.002 z" id="path-main"/>
    </g>
  </defs>
  <g id="acyl-visual">
    <use id="visible1" transform="translate(24,24) scale(1.00) translate(-24,-24)" style="fill:url(#acyl-gradient);filter:url(#filter)" xlink:href="#acyl-drawing"/>
  </g>
</svg>
