<svg xmlns="http://www.w3.org/2000/svg" xmlns:xlink="http://www.w3.org/1999/xlink" width="48" height="48">
  <defs id="acyl-settings">
    <linearGradient id="acyl-gradient" x1="0%" x2="0%" y1="0%" y2="100%">
      <stop offset="0%" style="stop-color:#00FAFF;stop-opacity:1.000000"/>
      <stop offset="74%" style="stop-color:#000BFF;stop-opacity:1.000000"/>
    </linearGradient>
    <g id="acyl-filter">
      <filter id="filter">
        <feTurbulence id="feTurbulence1" type="turbulence" numOctaves="5.0" baseFrequency="0.40 0.40"/>
        <feDisplacementMap id="feDisplacementMap1" xChannelSelector="R"/>
        <feBlend id="feBlend1" in2="SourceGraphic" mode="screen"/>
        <feColorMatrix id="feColorMatrix1" values="1 0 0 -1 0 1 0 1 -1 0 1 0 0 -1 0 -0.8 -1 0 4 -2.5 "/>
        <feGaussianBlur id="feGaussianBlur1" stdDeviation="3.0"/>
        <feSpecularLighting id="feSpecularLighting1" surfaceScale="16.0" specularConstant="0.4" specularExponent="5">
          <feDistantLight id="feDistantLight1" azimuth="225" elevation="35"/>
        </feSpecularLighting>
        <feComposite id="feComposite1" in2="SourceGraphic" k2=" 0.4" k3=" 2.0" operator="arithmetic"/>
        <feComposite id="feComposite2" in2="SourceGraphic" operator="in" result="result2"/>
      </filter>
    </g>
    <g id="acyl-drawing">
      <path d="m 7.2727273,2 0,44 32.8866047,0 0,-44 -32.8866047,0 z m 8.6185567,3.402063 4.536084,0 0,4.536083 -4.536084,0 0,-4.536083 z m 5.443303,0 4.536083,0 0,4.536083 -4.536083,0 0,-4.536083 z m 5.443302,0 4.536084,0 0,4.536083 -4.536084,0 0,-4.536083 z m -16.329901,5.443302 4.536083,0 0,4.536083 -4.536083,0 0,-4.536083 z m 21.773198,0 4.536083,0 0,4.536083 -4.536083,0 0,-4.536083 z m -16.329902,5.443297 4.536084,0 0,4.536083 -4.536084,0 0,-4.536083 z m 5.443303,0 4.536083,0 0,4.536083 -4.536083,0 0,-4.536083 z m 5.443302,0 4.536084,0 0,4.536083 -4.536084,0 0,-4.536083 z m -5.443302,5.443302 4.536083,0 0,4.536083 -4.536083,0 0,-4.536083 z m 0,5.443302 4.536083,0 0,4.536084 -4.536083,0 0,-4.536084 z m 0,5.443297 4.536083,0 0,4.536078 -4.536083,0 0,-4.536078 z m -5.443303,5.443291 4.536084,0 0,4.536083 -4.536084,0 0,-4.536083 z m 5.443303,0 4.536083,0 0,4.536083 -4.536083,0 0,-4.536083 z" id="path-main"/>
    </g>
  </defs>
  <g id="acyl-visual">
    <use id="visible1" transform="translate(24,24) scale(1.00) translate(-24,-24)" style="fill:url(#acyl-gradient);filter:url(#filter)" xlink:href="#acyl-drawing"/>
  </g>
</svg>
