<svg xmlns="http://www.w3.org/2000/svg" xmlns:xlink="http://www.w3.org/1999/xlink" width="48" height="48">
  <defs id="acyl-settings">
    <linearGradient id="acyl-gradient" x1="0%" x2="0%" y1="0%" y2="100%">
      <stop offset="0%" style="stop-color:#00FAFF;stop-opacity:1.000000"/>
      <stop offset="74%" style="stop-color:#000BFF;stop-opacity:1.000000"/>
    </linearGradient>
    <g id="acyl-filter">
      <filter id="filter">
        <feTurbulence id="feTurbulence1" type="turbulence" numOctaves="5.0" baseFrequency="0.40 0.40"/>
        <feDisplacementMap id="feDisplacementMap1" xChannelSelector="R"/>
        <feBlend id="feBlend1" in2="SourceGraphic" mode="screen"/>
        <feColorMatrix id="feColorMatrix1" values="1 0 0 -1 0 1 0 1 -1 0 1 0 0 -1 0 -0.8 -1 0 4 -2.5 "/>
        <feGaussianBlur id="feGaussianBlur1" stdDeviation="3.0"/>
        <feSpecularLighting id="feSpecularLighting1" surfaceScale="16.0" specularConstant="0.4" specularExponent="5">
          <feDistantLight id="feDistantLight1" azimuth="225" elevation="35"/>
        </feSpecularLighting>
        <feComposite id="feComposite1" in2="SourceGraphic" k2=" 0.4" k3=" 2.0" operator="arithmetic"/>
        <feComposite id="feComposite2" in2="SourceGraphic" operator="in" result="result2"/>
      </filter>
    </g>
    <g id="acyl-drawing">
      <path d="M 5.661547,3.5 C 3.6219924,3.5 2,5.145009 2,7.182635 L 2,40.81737 C 2,42.85499 3.6219924,44.5 5.661547,44.5 l 36.652332,0 C 44.353434,44.5 46,42.85499 46,40.81737 L 46,7.182635 C 46,5.145009 44.353434,3.5 42.313879,3.5 l -36.652332,0 z m 0.172019,9.820359 4.914828,0 0,6.309581 -4.914828,0 0,-6.309581 z m 7.863725,0 25.409662,0 3.034907,0 0,6.309581 -3.034907,0 -25.409662,0 0,-6.309581 z m -7.863725,8.813773 4.914828,0 0,5.082036 -4.914828,0 0,-5.082036 z m 7.863725,0 26.282044,0 2.162525,0 0,5.082036 -2.162525,0 -26.282044,0 0,-5.082036 z m -7.863725,7.586228 4.914828,0 0,4.02635 -4.914828,0 0,-4.02635 z m 7.863725,0 26.110025,0 2.334544,0 0,4.02635 -2.334544,0 -26.110025,0 0,-4.02635 z m -7.863725,6.55509 4.914828,0 0,4.02635 -4.914828,0 0,-4.02635 z m 7.863725,0 3.366658,0 1.523596,0 23.554315,0 0,4.02635 -23.554315,0 -1.523596,0 -3.366658,0 0,-4.02635 z" id="path-main"/>
    </g>
  </defs>
  <g id="acyl-visual">
    <use id="visible1" transform="translate(24,24) scale(1.00) translate(-24,-24)" style="fill:url(#acyl-gradient);filter:url(#filter)" xlink:href="#acyl-drawing"/>
  </g>
</svg>
