<svg xmlns="http://www.w3.org/2000/svg" xmlns:xlink="http://www.w3.org/1999/xlink" width="48" height="48">
  <defs id="acyl-settings">
    <linearGradient id="acyl-gradient" x1="0%" x2="0%" y1="0%" y2="100%">
      <stop offset="0%" style="stop-color:#00FAFF;stop-opacity:1.000000"/>
      <stop offset="74%" style="stop-color:#000CFF;stop-opacity:1.000000"/>
    </linearGradient>
    <g id="acyl-filter">
      <filter id="filter">
        <feTurbulence id="feTurbulence1" type="turbulence" numOctaves="5.0" baseFrequency="0.40 0.40"/>
        <feDisplacementMap id="feDisplacementMap1" xChannelSelector="R"/>
        <feBlend id="feBlend1" in2="SourceGraphic" mode="screen"/>
        <feColorMatrix id="feColorMatrix1" values="1 0 0 -1 0 1 0 1 -1 0 1 0 0 -1 0 -0.8 -1 0 4 -2.5 "/>
        <feGaussianBlur id="feGaussianBlur1" stdDeviation="3.0"/>
        <feSpecularLighting id="feSpecularLighting1" surfaceScale="16.0" specularConstant="0.4" specularExponent="5">
          <feDistantLight id="feDistantLight1" azimuth="225" elevation="35"/>
        </feSpecularLighting>
        <feComposite id="feComposite1" in2="SourceGraphic" k2=" 0.4" k3=" 2.0" operator="arithmetic"/>
        <feComposite id="feComposite2" in2="SourceGraphic" operator="in" result="result2"/>
      </filter>
    </g>
    <g id="acyl-drawing">
      <path d="M 13.784144,2 C 11.422498,2 9.522,3.900497 9.522,6.262144 l 0,35.475716 C 9.522,44.09951 11.422498,46 13.784144,46 l 20.70365,0 c 2.361646,0 4.262146,-1.90049 4.262146,-4.26214 l 0,-35.475716 C 38.74994,3.900497 36.84944,2 34.487794,2 l -20.70365,0 z m 0.442656,2.592699 19.818338,0 c 1.116679,0 2.010923,0.894243 2.010923,2.010922 l 0,29.569419 c 0,1.11668 -0.894244,2.01092 -2.010923,2.01092 l -19.818338,0 c -1.11668,0 -2.010922,-0.89424 -2.010922,-2.01092 l 0,-29.569419 c 0,-1.116679 0.894242,-2.010922 2.010922,-2.010922 z m 1.492383,35.602181 c 1.026538,0 1.859155,0.83262 1.859155,1.85916 0,1.02654 -0.832617,1.85916 -1.859155,1.85916 -1.026538,0 -1.859155,-0.83262 -1.859155,-1.85916 0,-1.02654 0.832617,-1.85916 1.859155,-1.85916 z m 5.615407,0 c 1.026537,0 1.859154,0.83262 1.859154,1.85916 0,1.02654 -0.832617,1.85916 -1.859154,1.85916 -1.026538,0 -1.859156,-0.83262 -1.859156,-1.85916 0,-1.02654 0.832618,-1.85916 1.859156,-1.85916 z m 5.615406,0 c 1.026538,0 1.859155,0.83262 1.859155,1.85916 0,1.02654 -0.832617,1.85916 -1.859155,1.85916 -1.026537,0 -1.859155,-0.83262 -1.859155,-1.85916 0,-1.02654 0.832618,-1.85916 1.859155,-1.85916 z m 5.615407,0 c 1.026537,0 1.859154,0.83262 1.859154,1.85916 0,1.02654 -0.832617,1.85916 -1.859154,1.85916 -1.026538,0 -1.859155,-0.83262 -1.859155,-1.85916 0,-1.02654 0.832617,-1.85916 1.859155,-1.85916 z" id="path-main"/>
    </g>
  </defs>
  <g id="acyl-visual">
    <use id="visible1" transform="translate(24,24) scale(1.00) translate(-24,-24)" style="fill:url(#acyl-gradient);filter:url(#filter)" xlink:href="#acyl-drawing"/>
  </g>
</svg>
