<svg xmlns="http://www.w3.org/2000/svg" xmlns:xlink="http://www.w3.org/1999/xlink" width="48" height="48"
   viewBox="0 0 12.7 12.7">
  <defs id="acyl-settings">
    <linearGradient id="acyl-gradient" x1="0%" x2="0%" y1="0%" y2="100%">
      <stop offset="0%" style="stop-color:#00FAFF;stop-opacity:1.000000"/>
      <stop offset="74%" style="stop-color:#000BFF;stop-opacity:1.000000"/>
    </linearGradient>
    <g id="acyl-filter">
      <filter id="filter">
        <feTurbulence id="feTurbulence1" type="turbulence" numOctaves="5.0" baseFrequency="0.40 0.40"/>
        <feDisplacementMap id="feDisplacementMap1" xChannelSelector="R"/>
        <feBlend id="feBlend1" in2="SourceGraphic" mode="screen"/>
        <feColorMatrix id="feColorMatrix1" values="1 0 0 -1 0 1 0 1 -1 0 1 0 0 -1 0 -0.8 -1 0 4 -2.5 "/>
        <feGaussianBlur id="feGaussianBlur1" stdDeviation="3.0"/>
        <feSpecularLighting id="feSpecularLighting1" surfaceScale="16.0" specularConstant="0.4" specularExponent="5">
          <feDistantLight id="feDistantLight1" azimuth="225" elevation="35"/>
        </feSpecularLighting>
        <feComposite id="feComposite1" in2="SourceGraphic" k2=" 0.4" k3=" 2.0" operator="arithmetic"/>
        <feComposite id="feComposite2" in2="SourceGraphic" operator="in" result="result2"/>
      </filter>
    </g>
    <g id="acyl-drawing"
     transform="translate(0,-284.29998)">
      <path 
         d="m 2.1088859,296.46055 c -0.010072,-0.0163 0.013056,-3.27262 0.040415,-5.69128 0.01912,-1.69033 0.040722,-2.42832 0.071972,-2.45883 0.013614,-0.0133 0.2182672,-0.0259 0.6476537,-0.0399 0.7220727,-0.0235 0.8949234,-0.0188 0.9270772,0.0251 0.034879,0.0477 0.1630205,0.37772 1.0071023,2.59358 1.0549395,2.76939 1.4764399,3.8591 1.5031915,3.88619 0.023792,0.0241 0.06678,-0.0464 0.1403585,-0.23047 0.040347,-0.10086 0.5494284,-1.53305 1.1312918,-3.18257 0.5818632,-1.6495 1.0650808,-3.00858 1.0738166,-3.02015 0.012475,-0.0165 0.1955167,-0.0201 0.8530134,-0.0167 l 0.8371311,0.004 0.0032,0.59313 c 0.0088,1.58102 0.04246,5.61346 0.0541,6.47442 0.0085,0.62965 0.0073,0.9764 -0.0033,0.98997 -0.01261,0.016 -0.162636,0.0209 -0.6480793,0.0209 -0.4869914,0 -0.6347611,-0.005 -0.6451788,-0.0209 -0.00744,-0.0115 -0.010796,-1.37802 -0.00748,-3.03672 0.00332,-1.65869 6.046e-4,-3.04401 -0.00603,-3.07847 -0.00664,-0.0344 -0.01821,-0.0627 -0.025715,-0.0627 -0.026226,0 -0.1853615,0.44897 -1.4716109,4.15198 -0.3670803,1.05678 -0.6745282,1.92857 -0.6832176,1.93728 -0.031382,0.0315 -0.3659706,0.0581 -0.7382279,0.0587 -0.3402199,5.6e-4 -0.3830416,-0.002 -0.4092123,-0.0287 -0.016076,-0.0161 -0.362821,-0.96533 -0.7705441,-2.10941 -0.9425197,-2.64474 -1.3267313,-3.71687 -1.3621831,-3.8011 -0.021919,-0.0521 -0.031318,-0.0612 -0.042582,-0.0412 -0.035785,0.0633 -0.068072,1.72653 -0.081725,4.20995 l -0.010334,1.87966 -0.6878801,0.004 c -0.3910792,0.002 -0.6918586,-0.002 -0.6971009,-0.0106 z m -1.56858479,-9.68731 c -0.006119,-0.006 -0.0111348,-0.44142 -0.0111348,-0.96729 0,-0.85647 0.002751,-0.9572 0.0264197,-0.9663 0.0145309,-0.005 2.62488759,-0.0105 5.80079239,-0.0105 4.4689086,0 5.7789036,0.004 5.7944156,0.0201 0.01511,0.0152 0.02004,0.24921 0.02004,0.951 0,0.51202 -0.0046,0.94285 -0.01014,0.95739 -0.0092,0.0241 -0.536666,0.0265 -5.8097003,0.0265 -3.1897589,0 -5.80457276,-0.005 -5.81069699,-0.0111 z" id="path-main"/>
      <rect
         y="-93.600586"
         x="-634.50586"
         height="55.385506"
         width="295.83908" />
    </g>
  </defs>
  <g id="acyl-visual">
    <use id="visible1" transform="translate(24,24) scale(1.00) translate(-24,-24)" style="fill:url(#acyl-gradient);filter:url(#filter)" xlink:href="#acyl-drawing"/>
  </g>
</svg>
