<svg xmlns="http://www.w3.org/2000/svg" xmlns:xlink="http://www.w3.org/1999/xlink" width="48" height="48">
  <defs id="acyl-settings">
    <linearGradient id="acyl-gradient" x1="0%" x2="0%" y1="0%" y2="100%">
      <stop offset="0%" style="stop-color:#00FAFF;stop-opacity:1.000000"/>
      <stop offset="74%" style="stop-color:#000CFF;stop-opacity:1.000000"/>
    </linearGradient>
    <g id="acyl-filter">
      <filter id="filter">
        <feTurbulence id="feTurbulence1" type="turbulence" numOctaves="5.0" baseFrequency="0.40 0.40"/>
        <feDisplacementMap id="feDisplacementMap1" xChannelSelector="R"/>
        <feBlend id="feBlend1" in2="SourceGraphic" mode="screen"/>
        <feColorMatrix id="feColorMatrix1" values="1 0 0 -1 0 1 0 1 -1 0 1 0 0 -1 0 -0.8 -1 0 4 -2.5 "/>
        <feGaussianBlur id="feGaussianBlur1" stdDeviation="3.0"/>
        <feSpecularLighting id="feSpecularLighting1" surfaceScale="16.0" specularConstant="0.4" specularExponent="5">
          <feDistantLight id="feDistantLight1" azimuth="225" elevation="35"/>
        </feSpecularLighting>
        <feComposite id="feComposite1" in2="SourceGraphic" k2=" 0.4" k3=" 2.0" operator="arithmetic"/>
        <feComposite id="feComposite2" in2="SourceGraphic" operator="in" result="result2"/>
      </filter>
    </g>
    <g id="acyl-drawing">
      <path id="path-main" d="m 28.232252,9.852603 c 4.809786,3.93565 3.653859,14.515202 -0.485059,16.732138 6.942552,-0.701418 8.024155,-14.839352 0.485059,-16.732138 z m -7.703409,0 c -4.809787,3.93565 -3.653859,14.515202 0.485058,16.732138 C 14.071349,25.883323 12.989746,11.745389 20.528843,9.852603 z M 32.098716,2 c 9.627987,7.711164 7.31411,28.439798 -0.970965,32.783467 C 45.025,33.40917 47.190098,5.7085564 32.098716,2 z m -7.718171,13.373306 c -2.143005,0 -3.882256,1.43005 -3.882256,3.192078 0,0.978825 0.535864,1.862287 1.380358,2.447981 l 0,19.982834 -6.254748,0 0,5.003801 17.513293,0 0,-5.003801 -6.254747,0 0,-19.982834 c 0.844494,-0.585694 1.380357,-1.469156 1.380357,-2.447981 0,-1.762027 -1.73925,-3.192079 -3.882257,-3.192078 z M 16.68032,2 C 7.0523331,9.711164 9.36621,30.439798 17.651285,34.783467 3.7540366,33.40917 1.5889381,5.7085564 16.68032,2 z"/>
    </g>
  </defs>
  <g id="acyl-visual">
    <use id="visible1" transform="translate(24,24) scale(1.00) translate(-24,-24)" style="fill:url(#acyl-gradient);filter:url(#filter)" xlink:href="#acyl-drawing"/>
  </g>
</svg>
