<svg xmlns="http://www.w3.org/2000/svg" xmlns:xlink="http://www.w3.org/1999/xlink" width="48" height="48">
  <defs id="acyl-settings">
    <linearGradient id="acyl-gradient" x1="0%" x2="0%" y1="0%" y2="100%">
      <stop offset="0%" style="stop-color:#00FAFF;stop-opacity:1.000000"/>
      <stop offset="74%" style="stop-color:#000BFF;stop-opacity:1.000000"/>
    </linearGradient>
    <g id="acyl-filter">
      <filter id="filter">
        <feTurbulence id="feTurbulence1" type="turbulence" numOctaves="5.0" baseFrequency="0.40 0.40"/>
        <feDisplacementMap id="feDisplacementMap1" xChannelSelector="R"/>
        <feBlend id="feBlend1" in2="SourceGraphic" mode="screen"/>
        <feColorMatrix id="feColorMatrix1" values="1 0 0 -1 0 1 0 1 -1 0 1 0 0 -1 0 -0.8 -1 0 4 -2.5 "/>
        <feGaussianBlur id="feGaussianBlur1" stdDeviation="3.0"/>
        <feSpecularLighting id="feSpecularLighting1" surfaceScale="16.0" specularConstant="0.4" specularExponent="5">
          <feDistantLight id="feDistantLight1" azimuth="225" elevation="35"/>
        </feSpecularLighting>
        <feComposite id="feComposite1" in2="SourceGraphic" k2=" 0.4" k3=" 2.0" operator="arithmetic"/>
        <feComposite id="feComposite2" in2="SourceGraphic" operator="in" result="result2"/>
      </filter>
    </g>
    <g id="acyl-drawing">
      <path d="M 6.7849125,2 C 3.6201768,2.097778 2.4703067,5.1428092 2.2540856,6.53125 l 0,26.375 10.5927604,0 c 1.4546,-11.850671 9.401497,-21.797755 22.06044,-21.09375 -5.346637,8.135107 -3.248922,17.769309 0.249977,21.09375 C 38.774102,32.82804 42.383161,32.89074 46,32.8125 l -0.156235,-26.5 C 45.696335,4.1711671 44.273787,2.2640006 41.531667,2 L 6.7849125,2 z M 31.501354,14.03125 C 18.292019,18.020585 17.212514,26.708253 14.971648,35.15625 10.64716,35.11713 6.3285963,35.07034 2.0041089,35.03125 l 0,6.34375 C 1.9058291,43.154555 3.573816,45.74578 6.6599241,46 l 34.6217669,0 c 2.13276,-0.0098 4.850625,-2.237309 4.624568,-4.59375 l 0,-6.375 c -4.295,0 -8.578798,0.21875 -12.873798,0.21875 -3.774095,-5.827552 -5.659017,-11.871191 -1.531107,-21.21875 z" id="path-main"/>
    </g>
  </defs>
  <g id="acyl-visual">
    <use id="visible1" transform="translate(24,24) scale(1.00) translate(-24,-24)" style="fill:url(#acyl-gradient);filter:url(#filter)" xlink:href="#acyl-drawing"/>
  </g>
</svg>
