<svg xmlns="http://www.w3.org/2000/svg" xmlns:xlink="http://www.w3.org/1999/xlink" width="48" height="48">
  <defs id="acyl-settings">
    <linearGradient id="acyl-gradient" x1="0%" x2="0%" y1="0%" y2="100%">
      <stop offset="0%" style="stop-color:#00FAFF;stop-opacity:1.000000"/>
      <stop offset="74%" style="stop-color:#000BFF;stop-opacity:1.000000"/>
    </linearGradient>
    <g id="acyl-filter">
      <filter id="filter">
        <feTurbulence id="feTurbulence1" type="turbulence" numOctaves="5.0" baseFrequency="0.40 0.40"/>
        <feDisplacementMap id="feDisplacementMap1" xChannelSelector="R"/>
        <feBlend id="feBlend1" in2="SourceGraphic" mode="screen"/>
        <feColorMatrix id="feColorMatrix1" values="1 0 0 -1 0 1 0 1 -1 0 1 0 0 -1 0 -0.8 -1 0 4 -2.5 "/>
        <feGaussianBlur id="feGaussianBlur1" stdDeviation="3.0"/>
        <feSpecularLighting id="feSpecularLighting1" surfaceScale="16.0" specularConstant="0.4" specularExponent="5">
          <feDistantLight id="feDistantLight1" azimuth="225" elevation="35"/>
        </feSpecularLighting>
        <feComposite id="feComposite1" in2="SourceGraphic" k2=" 0.4" k3=" 2.0" operator="arithmetic"/>
        <feComposite id="feComposite2" in2="SourceGraphic" operator="in" result="result2"/>
      </filter>
    </g>
    <g id="acyl-drawing">
      <path d="M 26.53125 1.90625 C 6.4242162 3.9116598 5.375 15.65625 5.375 15.65625 C 13.598647 12.582386 16.614118 17.873878 18.90625 22.1875 C 21.198382 26.501121 19.387344 40.001949 5.84375 36.0625 C 16.198063 48.939325 28.153068 45.747496 36.6875 40.28125 C 45.221962 34.815004 50.047696 22.524241 42 10.96875 C 38.350096 19.831109 29.755375 17.88251 26.53125 13.96875 C 23.307155 10.054991 22.992346 6.2159086 26.53125 1.90625 z M 33.21875 4.65625 C 32.389368 4.6809756 31.567837 4.947481 30.84375 5.46875 C 28.91285 6.8588007 28.484949 9.5378503 29.875 11.46875 C 31.265051 13.39965 33.9441 13.827551 35.875 12.4375 C 37.8059 11.047449 38.233801 8.3683997 36.84375 6.4375 C 35.974968 5.2306877 34.601053 4.6150407 33.21875 4.65625 z M 9.40625 22.3125 C 8.5768641 22.337226 7.755341 22.603728 7.03125 23.125 C 5.1003406 24.515058 4.6724423 27.194091 6.0625 29.125 C 7.4525577 31.055909 10.131591 31.515058 12.0625 30.125 C 13.993409 28.734942 14.421308 26.024659 13.03125 24.09375 C 12.162464 22.886932 10.78856 22.271291 9.40625 22.3125 z " id="path-main"/>
    </g>
  </defs>
  <g id="acyl-visual">
    <use id="visible1" transform="translate(24,24) scale(1.00) translate(-24,-24)" style="fill:url(#acyl-gradient);filter:url(#filter)" xlink:href="#acyl-drawing"/>
  </g>
</svg>
