<svg xmlns="http://www.w3.org/2000/svg" xmlns:xlink="http://www.w3.org/1999/xlink" width="48" height="48">
  <defs id="acyl-settings">
    <linearGradient id="acyl-gradient" x1="0%" x2="0%" y1="0%" y2="100%">
      <stop offset="0%" style="stop-color:#00FAFF;stop-opacity:1.000000"/>
      <stop offset="74%" style="stop-color:#000BFF;stop-opacity:1.000000"/>
    </linearGradient>
    <g id="acyl-filter">
      <filter id="filter">
        <feTurbulence id="feTurbulence1" type="turbulence" numOctaves="5.0" baseFrequency="0.40 0.40"/>
        <feDisplacementMap id="feDisplacementMap1" xChannelSelector="R"/>
        <feBlend id="feBlend1" in2="SourceGraphic" mode="screen"/>
        <feColorMatrix id="feColorMatrix1" values="1 0 0 -1 0 1 0 1 -1 0 1 0 0 -1 0 -0.8 -1 0 4 -2.5 "/>
        <feGaussianBlur id="feGaussianBlur1" stdDeviation="3.0"/>
        <feSpecularLighting id="feSpecularLighting1" surfaceScale="16.0" specularConstant="0.4" specularExponent="5">
          <feDistantLight id="feDistantLight1" azimuth="225" elevation="35"/>
        </feSpecularLighting>
        <feComposite id="feComposite1" in2="SourceGraphic" k2=" 0.4" k3=" 2.0" operator="arithmetic"/>
        <feComposite id="feComposite2" in2="SourceGraphic" operator="in" result="result2"/>
      </filter>
    </g>
    <g id="acyl-drawing">
      <path d="M 24.200521,2 C 14.510172,2 6.7218087,10.165659 6.2395833,20.304688 3.7690977,21.423429 2,23.917247 2,26.950521 l 0,11.544271 c -1e-7,4.026083 3.0079334,7.41927 6.8463542,7.419271 3.8384268,1e-6 6.8463548,-3.385815 6.8463538,-7.419271 l 0,-11.544271 c 0,-2.623508 -1.33463,-4.850087 -3.265625,-6.158854 0.187406,-6.902706 5.413811,-12.375 11.830729,-12.375 6.353121,10e-7 11.572593,5.372121 11.859375,12.174479 -2.236531,1.220333 -3.809895,3.617 -3.809895,6.473958 l 0,11.544271 c 0,4.033459 3.016831,7.390627 6.846354,7.390625 3.829522,-10e-7 6.846351,-3.364544 6.846354,-7.390625 l 0,-11.544271 c 10e-7,-2.865212 -1.548433,-5.307551 -3.809896,-6.53125 C 41.818198,10.287557 33.964373,2 24.200521,2 z" id="path-main"/>
    </g>
  </defs>
  <g id="acyl-visual">
    <use id="visible1" transform="translate(24,24) scale(1.00) translate(-24,-24)" style="fill:url(#acyl-gradient);filter:url(#filter)" xlink:href="#acyl-drawing"/>
  </g>
</svg>
