<svg xmlns="http://www.w3.org/2000/svg" xmlns:xlink="http://www.w3.org/1999/xlink" width="48" height="48">
  <defs id="acyl-settings">
    <linearGradient id="acyl-gradient" x1="0%" x2="0%" y1="0%" y2="100%">
      <stop offset="0%" style="stop-color:#00FAFF;stop-opacity:1.000000"/>
      <stop offset="74%" style="stop-color:#000BFF;stop-opacity:1.000000"/>
    </linearGradient>
    <g id="acyl-filter">
      <filter id="filter">
        <feTurbulence id="feTurbulence1" type="turbulence" numOctaves="5.0" baseFrequency="0.40 0.40"/>
        <feDisplacementMap id="feDisplacementMap1" xChannelSelector="R"/>
        <feBlend id="feBlend1" in2="SourceGraphic" mode="screen"/>
        <feColorMatrix id="feColorMatrix1" values="1 0 0 -1 0 1 0 1 -1 0 1 0 0 -1 0 -0.8 -1 0 4 -2.5 "/>
        <feGaussianBlur id="feGaussianBlur1" stdDeviation="3.0"/>
        <feSpecularLighting id="feSpecularLighting1" surfaceScale="16.0" specularConstant="0.4" specularExponent="5">
          <feDistantLight id="feDistantLight1" azimuth="225" elevation="35"/>
        </feSpecularLighting>
        <feComposite id="feComposite1" in2="SourceGraphic" k2=" 0.4" k3=" 2.0" operator="arithmetic"/>
        <feComposite id="feComposite2" in2="SourceGraphic" operator="in" result="result2"/>
      </filter>
    </g>
    <g id="acyl-drawing">
      <path d="M 30.6875,6.375 L 5.28125,6.625 L 21.15625,19.96875 L 44.25,19.96875 L 30.6875,6.375 z M 20.9375,20.46875 L 5.5625,34.3125 L 30.25,34.3125 L 43.96875,20.46875 L 20.9375,20.46875 z M 21.53125,20.9375 C 21.572753,20.932272 21.614747,20.932272 21.65625,20.9375 L 41.34375,20.9375 C 41.539973,20.945005 41.707161,21.068147 41.78125,21.25 C 41.855339,21.431854 41.822613,21.638756 41.6875,21.78125 L 29.71875,33.5625 C 29.62899,33.657506 29.5056,33.713592 29.375,33.71875 L 8.90625,33.71875 C 8.6959335,33.724259 8.5144292,33.602071 8.4375,33.40625 C 8.3605709,33.21043 8.4046732,32.982869 8.5625,32.84375 L 21.34375,21.0625 C 21.395925,21.00711 21.460053,20.964358 21.53125,20.9375 z M 44.6875,21.15625 L 30.9375,35.03125 L 30.9375,42.625 L 44.6875,27.15625 L 44.6875,21.15625 z M 21.84375,21.9375 L 10.1875,32.71875 L 29.125,32.71875 L 40.09375,21.9375 L 21.84375,21.9375 z M 4.75,35.3125 L 4.75,43.46875 L 29.9375,43.46875 L 29.9375,35.3125 L 4.75,35.3125 z" id="path-main"/>
    </g>
  </defs>
  <g id="acyl-visual">
    <use id="visible1" transform="translate(24,24) scale(1.00) translate(-24,-24)" style="fill:url(#acyl-gradient);filter:url(#filter)" xlink:href="#acyl-drawing"/>
  </g>
</svg>
