<svg xmlns="http://www.w3.org/2000/svg" xmlns:xlink="http://www.w3.org/1999/xlink" width="48" height="48">
  <defs id="acyl-settings">
    <linearGradient id="acyl-gradient" x1="0%" x2="0%" y1="0%" y2="100%">
      <stop offset="0%" style="stop-color:#00FAFF;stop-opacity:1.000000"/>
      <stop offset="74%" style="stop-color:#000BFF;stop-opacity:1.000000"/>
    </linearGradient>
    <g id="acyl-filter">
      <filter id="filter">
        <feTurbulence id="feTurbulence1" type="turbulence" numOctaves="5.0" baseFrequency="0.40 0.40"/>
        <feDisplacementMap id="feDisplacementMap1" xChannelSelector="R"/>
        <feBlend id="feBlend1" in2="SourceGraphic" mode="screen"/>
        <feColorMatrix id="feColorMatrix1" values="1 0 0 -1 0 1 0 1 -1 0 1 0 0 -1 0 -0.8 -1 0 4 -2.5 "/>
        <feGaussianBlur id="feGaussianBlur1" stdDeviation="3.0"/>
        <feSpecularLighting id="feSpecularLighting1" surfaceScale="16.0" specularConstant="0.4" specularExponent="5">
          <feDistantLight id="feDistantLight1" azimuth="225" elevation="35"/>
        </feSpecularLighting>
        <feComposite id="feComposite1" in2="SourceGraphic" k2=" 0.4" k3=" 2.0" operator="arithmetic"/>
        <feComposite id="feComposite2" in2="SourceGraphic" operator="in" result="result2"/>
      </filter>
    </g>
    <g id="acyl-drawing">
      <path d="m 8.08392,9.988001 c -1.265421,0 -2.292312,1.026891 -2.292312,2.292312 l 0,0.879752 C 3.681412,13.226595 2,14.936249 2,17.063191 L 2,36.219485 C 2,38.3889 3.746104,40.135 5.915517,40.135 l 36.168966,0 C 44.253898,40.135 46,38.3889 46,36.219485 l 0,-19.156294 c 0,-2.169413 -1.746102,-3.915517 -3.915517,-3.915517 l -28.114897,0 0,-0.867361 c 0,-1.265421 -1.0145,-2.292312 -2.279921,-2.292312 l -3.605745,0 z m 24.533934,8.710786 c 4.384581,0 7.942552,3.557971 7.942552,7.942551 0,4.384581 -3.557971,7.942552 -7.942552,7.942552 -4.38458,0 -7.942551,-3.557971 -7.942551,-7.942552 0,-4.38458 3.557971,-7.942551 7.942551,-7.942551 z m -20.791889,0.805407 c 0.419219,0 0.755843,0.336624 0.755843,0.755843 l 0,12.762602 c 0,0.419219 -0.336624,0.755844 -0.755843,0.755844 -0.41922,0 -0.755844,-0.336625 -0.755844,-0.755844 l 0,-12.762602 c 0,-0.419219 0.336624,-0.755843 0.755844,-0.755843 z m 20.791889,2.379048 c -2.630748,0 -4.758096,2.127348 -4.758096,4.758096 0,2.630749 2.127348,4.770487 4.758096,4.770487 2.630748,0 4.770487,-2.139738 4.770487,-4.770487 0,-2.630748 -2.139739,-4.758096 -4.770487,-4.758096 z" id="path-main"/>
    </g>
  </defs>
  <g id="acyl-visual">
    <use id="visible1" transform="translate(24,24) scale(1.00) translate(-24,-24)" style="fill:url(#acyl-gradient);filter:url(#filter)" xlink:href="#acyl-drawing"/>
  </g>
</svg>
