<svg xmlns="http://www.w3.org/2000/svg" xmlns:xlink="http://www.w3.org/1999/xlink" width="48" height="48"  viewBox="0 0 12.7 12.7">
  <defs id="acyl-settings">
    <linearGradient id="acyl-gradient" x1="0%" x2="0%" y1="0%" y2="100%">
      <stop offset="0%" style="stop-color:#00FAFF;stop-opacity:1.000000"/>
      <stop offset="74%" style="stop-color:#000BFF;stop-opacity:1.000000"/>
    </linearGradient>
    <g id="acyl-filter">
      <filter id="filter">
        <feTurbulence id="feTurbulence1" type="turbulence" numOctaves="5.0" baseFrequency="0.40 0.40"/>
        <feDisplacementMap id="feDisplacementMap1" xChannelSelector="R"/>
        <feBlend id="feBlend1" in2="SourceGraphic" mode="screen"/>
        <feColorMatrix id="feColorMatrix1" values="1 0 0 -1 0 1 0 1 -1 0 1 0 0 -1 0 -0.8 -1 0 4 -2.5 "/>
        <feGaussianBlur id="feGaussianBlur1" stdDeviation="3.0"/>
        <feSpecularLighting id="feSpecularLighting1" surfaceScale="16.0" specularConstant="0.4" specularExponent="5">
          <feDistantLight id="feDistantLight1" azimuth="225" elevation="35"/>
        </feSpecularLighting>
        <feComposite id="feComposite1" in2="SourceGraphic" k2=" 0.4" k3=" 2.0" operator="arithmetic"/>
        <feComposite id="feComposite2" in2="SourceGraphic" operator="in" result="result2"/>
      </filter>
    </g>
    <g id="acyl-drawing" transform="translate(0,-284.29998)">
      <path   d="m 3.0434628,294.17964 c -1.6226883,-0.1198 -2.35842015,-0.4766 -2.49651855,-1.21067 -0.097394,-0.51772 0.1765786,-0.88437 1.54460925,-2.06711 0.366069,-0.31649 0.4972407,-0.51723 0.9856891,-1.50853 0.6911598,-1.40269 0.9506004,-1.73233 1.623321,-2.06259 0.4371796,-0.21461 0.5953771,-0.25095 1.0999824,-0.25262 0.7277448,-0.002 1.0724859,0.14578 2.33831,1.00515 1.0743152,0.72935 1.1887438,0.77997 2.01965,0.89341 1.614418,0.22043 2.317113,0.87072 1.889455,1.74851 -0.08855,0.18176 -0.272606,0.45723 -0.409008,0.61215 -0.289045,0.32829 -2.2812594,1.66991 -2.8418813,1.9138 -1.8463491,0.80327 -3.6052426,1.08711 -5.7536089,0.9285 z m 2.8109392,-0.43122 c 1.410473,-0.24154 3.1404552,-0.89367 3.7635428,-1.4187 0.224491,-0.18917 0.254264,-0.24786 0.174398,-0.34382 -0.05297,-0.0636 -0.288756,-0.13828 -0.5239793,-0.16584 -1.3097976,-0.15352 -4.1327466,0.58925 -5.310464,1.39726 -0.6675439,0.458 -0.5143711,0.64341 0.534578,0.64711 0.3689213,9.6e-4 0.9817909,-0.0509 1.3619245,-0.11601 z M 3.0823753,293.4685 c 0,-0.2699 0.046189,-0.36419 0.2918422,-0.59571 0.7876088,-0.74229 3.2516454,-1.56666 5.0667867,-1.69515 1.0599536,-0.075 1.6572478,0.12723 1.8222128,0.61703 0.04632,0.13753 0.390991,-0.0643 0.900298,-0.5274 1.154504,-1.04959 0.749059,-1.728 -1.135071,-1.89925 -2.7164559,-0.24691 -7.0426641,1.06697 -8.648211,2.62647 -0.46670245,0.45332 -0.62577925,0.86017 -0.44430865,1.13636 0.22846855,0.34771 1.02046985,0.63822 1.77678495,0.65173 l 0.369666,0.007 z m 0.7324131,-3.95372 c 0.2001262,-0.23716 0.2611136,-0.49137 0.1363362,-0.56828 -0.102135,-0.063 -0.3906816,0.17246 -0.5221646,0.42602 -0.2196931,0.42366 0.06105,0.52718 0.3858284,0.14226 z m 1.1952778,-0.42486 c 0.3740011,-0.26122 0.3826427,-0.65569 0.014355,-0.65569 -0.1670275,0 -0.6190373,0.36206 -0.6190373,0.49584 0,0.26721 0.3271532,0.3537 0.6046768,0.15985 z m 1.681899,-0.51841 c 0.2020625,-0.32155 -0.5686483,-0.56435 -0.8621877,-0.27162 -0.1212915,0.12095 -0.1201971,0.14019 0.016533,0.29086 0.1824922,0.20109 0.7147965,0.18897 0.8456481,-0.0192 z m 1.2785863,-0.0802 c 0.038753,-0.19921 -0.6408216,-0.491 -0.8472453,-0.36378 -0.1467665,0.0904 0.1102462,0.36438 0.4276437,0.45577 0.2984894,0.0859 0.3888379,0.0662 0.4196016,-0.092 z"/>
    </g>
  </defs>
  <g id="acyl-visual">
    <use id="visible1" transform="translate(24,24) scale(1.00) translate(-24,-24)" style="fill:url(#acyl-gradient);filter:url(#filter)" xlink:href="#acyl-drawing"/>
  </g>
</svg>
