<svg xmlns="http://www.w3.org/2000/svg" xmlns:xlink="http://www.w3.org/1999/xlink" width="48" height="48">
  <defs id="acyl-settings">
    <linearGradient id="acyl-gradient" x1="0%" x2="0%" y1="0%" y2="100%">
      <stop offset="0%" style="stop-color:#00FAFF;stop-opacity:1.000000"/>
      <stop offset="74%" style="stop-color:#000BFF;stop-opacity:1.000000"/>
    </linearGradient>
    <g id="acyl-filter">
      <filter id="filter">
        <feTurbulence id="feTurbulence1" type="turbulence" numOctaves="5.0" baseFrequency="0.40 0.40"/>
        <feDisplacementMap id="feDisplacementMap1" xChannelSelector="R"/>
        <feBlend id="feBlend1" in2="SourceGraphic" mode="screen"/>
        <feColorMatrix id="feColorMatrix1" values="1 0 0 -1 0 1 0 1 -1 0 1 0 0 -1 0 -0.8 -1 0 4 -2.5 "/>
        <feGaussianBlur id="feGaussianBlur1" stdDeviation="3.0"/>
        <feSpecularLighting id="feSpecularLighting1" surfaceScale="16.0" specularConstant="0.4" specularExponent="5">
          <feDistantLight id="feDistantLight1" azimuth="225" elevation="35"/>
        </feSpecularLighting>
        <feComposite id="feComposite1" in2="SourceGraphic" k2=" 0.4" k3=" 2.0" operator="arithmetic"/>
        <feComposite id="feComposite2" in2="SourceGraphic" operator="in" result="result2"/>
      </filter>
    </g>
    <g id="acyl-drawing">
      <path id="path-main" d="M 33.684783,4.3722826 17.065217,13.967391 15.570652,11.1875 3.7038043,18.032609 5.2282609,20.8125 l -2.3913044,1.375 1.7934783,3.108696 -1.8532609,1.046195 -0.5081522,0.298913 0.388587,0.44837 1.763587,1.883152 L 2.5679348,30.019022 2,30.347826 2.4483696,30.766304 14.793478,43.05163 15.0625,43.320652 15.182065,43.5 46,25.714674 33.684783,4.3722826 z M 19.456522,16.358696 c 1.116713,0.03609 4.656758,3.200566 5.589674,3.288043 0.995109,0.09331 5.190867,-2.737115 5.978261,-2.152174 0.787393,0.584941 -1.594138,4.736529 -1.315218,5.589674 0.27892,0.853145 4.939353,3.688219 4.603261,4.483696 -0.336092,0.795477 -5.78325,-0.224725 -6.605978,0.209239 -0.822729,0.433964 -2.113586,4.995483 -3.108696,4.902174 -0.99511,-0.09331 -1.962607,-4.855277 -2.75,-5.440218 -0.787393,-0.58494 -6.267276,-0.611529 -6.546196,-1.464673 -0.278919,-0.853145 4.566082,-2.79148 4.902174,-3.586957 0.336092,-0.795477 -1.749358,-5.364949 -0.92663,-5.798913 0.05142,-0.02712 0.1049,-0.0323 0.179348,-0.02989 z m -14.3478263,9.774456 8.1603263,14.048913 -9.6847829,-9.625 1.8233696,-1.076087 0.5081522,-0.298913 -0.388587,-0.448369 -1.7336956,-1.853261 1.3152174,-0.747283 z"/>
    </g>
  </defs>
  <g id="acyl-visual">
    <use id="visible1" transform="translate(24,24) scale(1.00) translate(-24,-24)" style="fill:url(#acyl-gradient);filter:url(#filter)" xlink:href="#acyl-drawing"/>
  </g>
</svg>
