<svg xmlns="http://www.w3.org/2000/svg" xmlns:xlink="http://www.w3.org/1999/xlink" width="48" height="48">
  <defs id="acyl-settings">
    <linearGradient id="acyl-gradient" x1="0%" x2="0%" y1="0%" y2="100%">
      <stop offset="0%" style="stop-color:#00FAFF;stop-opacity:1.000000"/>
      <stop offset="74%" style="stop-color:#000BFF;stop-opacity:1.000000"/>
    </linearGradient>
    <g id="acyl-filter">
      <filter id="filter">
        <feTurbulence id="feTurbulence1" type="turbulence" numOctaves="5.0" baseFrequency="0.40 0.40"/>
        <feDisplacementMap id="feDisplacementMap1" xChannelSelector="R"/>
        <feBlend id="feBlend1" in2="SourceGraphic" mode="screen"/>
        <feColorMatrix id="feColorMatrix1" values="1 0 0 -1 0 1 0 1 -1 0 1 0 0 -1 0 -0.8 -1 0 4 -2.5 "/>
        <feGaussianBlur id="feGaussianBlur1" stdDeviation="3.0"/>
        <feSpecularLighting id="feSpecularLighting1" surfaceScale="16.0" specularConstant="0.4" specularExponent="5">
          <feDistantLight id="feDistantLight1" azimuth="225" elevation="35"/>
        </feSpecularLighting>
        <feComposite id="feComposite1" in2="SourceGraphic" k2=" 0.4" k3=" 2.0" operator="arithmetic"/>
        <feComposite id="feComposite2" in2="SourceGraphic" operator="in" result="result2"/>
      </filter>
    </g>
    <g id="acyl-drawing">
      <path d="M 42.5625 8.75 L 5.1875 8.78125 C 3.6978404 8.78125 2 10.645778 2 12 L 2 34.75 C 2 36.536835 3.9378936 38.0625 5.5625 38.0625 L 42.34375 38.0625 C 44.292815 38.0625 46 36.425567 46 34.71875 L 46 12.3125 C 46 10.416739 44.322506 8.75 42.5625 8.75 z M 6.5 11.875 L 23.25 28.59375 L 24.6875 28.59375 L 41.5 11.875 L 43.1875 13.5625 L 33.15625 23.71875 L 40.71875 31.4375 L 39.0625 33.09375 L 31.34375 25.40625 L 25.75 31.03125 L 22.25 31.03125 L 16.65625 25.40625 L 8.9375 33.1875 L 7.28125 31.4375 L 14.90625 23.71875 L 4.8125 13.5625 L 6.5 11.875 z " id="path-main"/>
    </g>
  </defs>
  <g id="acyl-visual">
    <use id="visible1" transform="translate(24,24) scale(1.00) translate(-24,-24)" style="fill:url(#acyl-gradient);filter:url(#filter)" xlink:href="#acyl-drawing"/>
  </g>
</svg>
