<svg xmlns="http://www.w3.org/2000/svg" xmlns:xlink="http://www.w3.org/1999/xlink" width="48" height="48">
  <defs id="acyl-settings">
    <linearGradient id="acyl-gradient" x1="0%" x2="0%" y1="0%" y2="100%">
      <stop offset="0%" style="stop-color:#00FAFF;stop-opacity:1.000000"/>
      <stop offset="74%" style="stop-color:#000BFF;stop-opacity:1.000000"/>
    </linearGradient>
    <g id="acyl-filter">
      <filter id="filter">
        <feTurbulence id="feTurbulence1" type="turbulence" numOctaves="5.0" baseFrequency="0.40 0.40"/>
        <feDisplacementMap id="feDisplacementMap1" xChannelSelector="R"/>
        <feBlend id="feBlend1" in2="SourceGraphic" mode="screen"/>
        <feColorMatrix id="feColorMatrix1" values="1 0 0 -1 0 1 0 1 -1 0 1 0 0 -1 0 -0.8 -1 0 4 -2.5 "/>
        <feGaussianBlur id="feGaussianBlur1" stdDeviation="3.0"/>
        <feSpecularLighting id="feSpecularLighting1" surfaceScale="16.0" specularConstant="0.4" specularExponent="5">
          <feDistantLight id="feDistantLight1" azimuth="225" elevation="35"/>
        </feSpecularLighting>
        <feComposite id="feComposite1" in2="SourceGraphic" k2=" 0.4" k3=" 2.0" operator="arithmetic"/>
        <feComposite id="feComposite2" in2="SourceGraphic" operator="in" result="result2"/>
      </filter>
    </g>
    <g id="acyl-drawing">
      <path id="path-main" d="M 24.009546,4 C 12.997253,4.0000006 4,12.978161 4,23.990453 4,35.002745 12.997255,44 24.009546,44 35.021836,43.999999 44.000002,35.002747 44,23.990453 43.999998,12.978161 35.021838,4 24.009546,4 z m 0,5.365155 c 8.104859,0 14.625299,6.520437 14.625299,14.625298 1e-6,8.104861 -6.520438,14.625299 -14.625299,14.625299 -8.104862,10e-7 -14.6252977,-6.520437 -14.6252977,-14.625299 -7e-7,-8.104861 6.5204367,-14.625298 14.6252977,-14.625298 z m -1.050119,2.023866 c -1.057555,0 -1.909308,0.851754 -1.909308,1.909308 l 0,12.162291 c 0,0.457984 0.172205,0.874612 0.439141,1.202864 0.0077,0.0125 0.01101,0.02583 0.01909,0.03819 0.06956,0.10631 0.155215,0.211536 0.24821,0.30549 l 6.319809,6.396181 c 0.743962,0.751628 1.95959,0.763057 2.711217,0.01909 l 0.706445,-0.706444 c 0.751628,-0.743961 0.763055,-1.959588 0.01909,-2.711218 l -5.632458,-5.708829 0,-10.997614 c 0,-1.057555 -0.851751,-1.909308 -1.909309,-1.909308 l -1.011932,0 z"/>
    </g>
  </defs>
  <g id="acyl-visual">
    <use id="visible1" transform="translate(24,24) scale(1.00) translate(-24,-24)" style="fill:url(#acyl-gradient);filter:url(#filter)" xlink:href="#acyl-drawing"/>
  </g>
</svg>
