<svg xmlns="http://www.w3.org/2000/svg" xmlns:xlink="http://www.w3.org/1999/xlink" width="48" height="48">
  <defs id="acyl-settings">
    <linearGradient id="acyl-gradient" x1="0%" x2="0%" y1="0%" y2="100%">
      <stop offset="0%" style="stop-color:#00FAFF;stop-opacity:1.000000"/>
      <stop offset="74%" style="stop-color:#000BFF;stop-opacity:1.000000"/>
    </linearGradient>
    <g id="acyl-filter">
      <filter id="filter">
        <feTurbulence id="feTurbulence1" type="turbulence" numOctaves="5.0" baseFrequency="0.40 0.40"/>
        <feDisplacementMap id="feDisplacementMap1" xChannelSelector="R"/>
        <feBlend id="feBlend1" in2="SourceGraphic" mode="screen"/>
        <feColorMatrix id="feColorMatrix1" values="1 0 0 -1 0 1 0 1 -1 0 1 0 0 -1 0 -0.8 -1 0 4 -2.5 "/>
        <feGaussianBlur id="feGaussianBlur1" stdDeviation="3.0"/>
        <feSpecularLighting id="feSpecularLighting1" surfaceScale="16.0" specularConstant="0.4" specularExponent="5">
          <feDistantLight id="feDistantLight1" azimuth="225" elevation="35"/>
        </feSpecularLighting>
        <feComposite id="feComposite1" in2="SourceGraphic" k2=" 0.4" k3=" 2.0" operator="arithmetic"/>
        <feComposite id="feComposite2" in2="SourceGraphic" operator="in" result="result2"/>
      </filter>
    </g>
    <g id="acyl-drawing">
      <path d="m 37.839674,5.5108696 -1.82337,1.8233696 c 4.558848,4.4641788 7.413043,10.6664608 7.413043,17.5461958 2e-6,6.879735 -2.854194,13.082019 -7.413043,17.546195 L 37.839674,44.25 C 42.866516,39.317325 45.999998,32.474149 46,24.880435 46.000001,17.286719 42.866517,10.443544 37.839674,5.5108696 z M 20.114131,8.0516304 8.4864131,19.709238 2,19.709238 2,30.05163 l 6.4864131,0 11.6277179,11.657608 0,-33.6576076 z m 12.225543,2.9592396 -1.82337,1.823368 c 3.153804,3.058391 5.141304,7.309373 5.141304,12.046197 0,4.736821 -1.9875,8.987805 -5.141304,12.046195 l 1.82337,1.82337 c 3.621576,-3.526956 5.888589,-8.418913 5.888587,-13.869565 -1e-6,-5.450652 -2.267011,-10.342609 -5.888587,-13.869565 z m -5.470109,5.470107 -1.853261,1.853261 c 1.745905,1.651632 2.869565,3.954997 2.869565,6.546197 -1e-6,2.5912 -1.12366,4.894565 -2.869565,6.546195 l 1.853261,1.853261 c 2.216487,-2.120827 3.616848,-5.091897 3.616848,-8.399456 -10e-7,-3.307558 -1.40036,-6.278631 -3.616848,-8.399458 z" id="path-main"/>
    </g>
  </defs>
  <g id="acyl-visual">
    <use id="visible1" transform="translate(24,24) scale(1.00) translate(-24,-24)" style="fill:url(#acyl-gradient);filter:url(#filter)" xlink:href="#acyl-drawing"/>
  </g>
</svg>
