<svg xmlns="http://www.w3.org/2000/svg" xmlns:xlink="http://www.w3.org/1999/xlink" width="48" height="48">
  <defs id="acyl-settings">
    <linearGradient id="acyl-gradient" x1="0%" x2="0%" y1="0%" y2="100%">
      <stop offset="0%" style="stop-color:#00FAFF;stop-opacity:1.000000"/>
      <stop offset="74%" style="stop-color:#000BFF;stop-opacity:1.000000"/>
    </linearGradient>
    <g id="acyl-filter">
      <filter id="filter">
        <feTurbulence id="feTurbulence1" type="turbulence" numOctaves="5.0" baseFrequency="0.40 0.40"/>
        <feDisplacementMap id="feDisplacementMap1" xChannelSelector="R"/>
        <feBlend id="feBlend1" in2="SourceGraphic" mode="screen"/>
        <feColorMatrix id="feColorMatrix1" values="1 0 0 -1 0 1 0 1 -1 0 1 0 0 -1 0 -0.8 -1 0 4 -2.5 "/>
        <feGaussianBlur id="feGaussianBlur1" stdDeviation="3.0"/>
        <feSpecularLighting id="feSpecularLighting1" surfaceScale="16.0" specularConstant="0.4" specularExponent="5">
          <feDistantLight id="feDistantLight1" azimuth="225" elevation="35"/>
        </feSpecularLighting>
        <feComposite id="feComposite1" in2="SourceGraphic" k2=" 0.4" k3=" 2.0" operator="arithmetic"/>
        <feComposite id="feComposite2" in2="SourceGraphic" operator="in" result="result2"/>
      </filter>
    </g>
    <g id="acyl-drawing">
      <path d="M 5.471254,12.858301 C 3.568194,12.858301 2,14.426496 2,16.329557 L 2,32.528745 C 2,34.431805 3.568194,36 5.471254,36 l 32.398379,0 c 1.90306,0 3.471255,-1.568195 3.471255,-3.471255 l 0,-3.471255 c 0.312593,0.01 0.561385,0.01227 0.940131,0 0.728357,-0.02351 1.617137,-0.180042 2.386488,-0.795495 0.860022,-0.667044 1.223092,-1.657071 1.30172,-2.458806 0.07572,-0.772042 -0.01388,-1.393528 0,-1.880263 0.0035,-0.02393 -0.0028,-0.04834 0,-0.07232 0.229057,-1.899644 -1.078012,-3.906346 -3.181983,-4.049797 l -0.07232,0 c -0.465555,-0.0014 -0.908564,0.0011 -1.374038,0 l 0,-3.471255 c 0,-1.903058 -1.568195,-3.471253 -3.471255,-3.471253 l -32.398379,0 z m 35.869634,9.25668 c 0.440597,0.0011 0.861209,-0.0013 1.30172,0 0.63642,0.04339 1.108717,0.835353 1.012449,1.518674 l 0,0.07232 c -0.0327,0.743547 0.04612,1.409875 0,1.880263 -0.04612,0.470387 -0.09389,0.660172 -0.361589,0.867814 l -0.07232,0 c -0.245363,0.196287 -0.514336,0.27319 -1.01245,0.289271 -0.229889,0.0074 -0.579609,0.0099 -0.867813,0 l 0,-4.62834 z" id="path-main"/>
    </g>
  </defs>
  <g id="acyl-visual">
    <use id="visible1" transform="translate(24,24) scale(1.00) translate(-24,-24)" style="fill:url(#acyl-gradient);filter:url(#filter)" xlink:href="#acyl-drawing"/>
  </g>
</svg>
