<svg xmlns="http://www.w3.org/2000/svg" xmlns:xlink="http://www.w3.org/1999/xlink" width="48" height="48">
  <defs id="acyl-settings">
    <linearGradient id="acyl-gradient" x1="0%" x2="0%" y1="0%" y2="100%">
      <stop offset="0%" style="stop-color:#00FAFF;stop-opacity:1.000000"/>
      <stop offset="74%" style="stop-color:#000BFF;stop-opacity:1.000000"/>
    </linearGradient>
    <g id="acyl-filter">
      <filter id="filter">
        <feTurbulence id="feTurbulence1" type="turbulence" numOctaves="5.0" baseFrequency="0.40 0.40"/>
        <feDisplacementMap id="feDisplacementMap1" xChannelSelector="R"/>
        <feBlend id="feBlend1" in2="SourceGraphic" mode="screen"/>
        <feColorMatrix id="feColorMatrix1" values="1 0 0 -1 0 1 0 1 -1 0 1 0 0 -1 0 -0.8 -1 0 4 -2.5 "/>
        <feGaussianBlur id="feGaussianBlur1" stdDeviation="3.0"/>
        <feSpecularLighting id="feSpecularLighting1" surfaceScale="16.0" specularConstant="0.4" specularExponent="5">
          <feDistantLight id="feDistantLight1" azimuth="225" elevation="35"/>
        </feSpecularLighting>
        <feComposite id="feComposite1" in2="SourceGraphic" k2=" 0.4" k3=" 2.0" operator="arithmetic"/>
        <feComposite id="feComposite2" in2="SourceGraphic" operator="in" result="result2"/>
      </filter>
    </g>
    <g id="acyl-drawing">
      <path d="M 24,2 C 15.0647,2 7.87088,9.1939 7.87088,18.1291 l 0,11.7418 C 7.87088,38.8062 15.0647,46 24,46 32.9352,46 40.1291,38.8062 40.1291,29.8709 l 0,-11.7418 C 40.1291,9.1939 32.9352,2 24,2 Z m -1.8704,3.74887 12.3066,12.13063 -6.7508,5.965 6.8613,5.0217 -12.4478,12.147 0.012,-12.237 -6.2741,5.5434 -1.9378,-2.1936 8.2139,-7.2603 0,-1.4714 -8.2467,-6.0366 1.7291,-2.3615 6.5216,4.772 0.012,-14.01933 z m 2.9222,6.99033 -0.01,9.1716 0.2272,0.1657 4.8804,-4.3136 -5.0973,-5.0237 z m 0.3888,13.0902 0,0 0,0 0,0 z m 0,0 -0.4012,0.3541 -0.01,7.8763 4.9951,-4.8764 -4.5838,-3.354 z" id="path-main"/>
    </g>
  </defs>
  <g id="acyl-visual">
    <use id="visible1" transform="translate(24,24) scale(1.00) translate(-24,-24)" style="fill:url(#acyl-gradient);filter:url(#filter)" xlink:href="#acyl-drawing"/>
  </g>
</svg>
