<svg xmlns="http://www.w3.org/2000/svg" xmlns:xlink="http://www.w3.org/1999/xlink" width="48" height="48">
  <defs id="acyl-settings">
    <linearGradient id="acyl-gradient" x1="0%" x2="0%" y1="0%" y2="100%">
      <stop offset="0%" style="stop-color:#00FAFF;stop-opacity:1.000000"/>
      <stop offset="74%" style="stop-color:#000BFF;stop-opacity:1.000000"/>
    </linearGradient>
    <g id="acyl-filter">
      <filter id="filter">
        <feTurbulence id="feTurbulence1" type="turbulence" numOctaves="5.0" baseFrequency="0.40 0.40"/>
        <feDisplacementMap id="feDisplacementMap1" xChannelSelector="R"/>
        <feBlend id="feBlend1" in2="SourceGraphic" mode="screen"/>
        <feColorMatrix id="feColorMatrix1" values="1 0 0 -1 0 1 0 1 -1 0 1 0 0 -1 0 -0.8 -1 0 4 -2.5 "/>
        <feGaussianBlur id="feGaussianBlur1" stdDeviation="3.0"/>
        <feSpecularLighting id="feSpecularLighting1" surfaceScale="16.0" specularConstant="0.4" specularExponent="5">
          <feDistantLight id="feDistantLight1" azimuth="225" elevation="35"/>
        </feSpecularLighting>
        <feComposite id="feComposite1" in2="SourceGraphic" k2=" 0.4" k3=" 2.0" operator="arithmetic"/>
        <feComposite id="feComposite2" in2="SourceGraphic" operator="in" result="result2"/>
      </filter>
    </g>
    <g id="acyl-drawing">
      <path id="path-main" d="m 18.714653,31.491892 -0.118919,-1.664865 c -0.118919,-3.210811 0.832433,-6.540541 3.686487,-9.87027 2.021621,-2.378379 3.686486,-4.518919 3.686486,-6.65946 0,-2.14054 -1.427027,-3.686486 -4.518919,-3.686486 -2.14054,0 -4.637837,0.713513 -6.302702,1.783783 L 13.006545,4.6162161 c 2.25946,-1.3081081 6.064865,-2.6162163 10.583784,-2.6162163 8.324324,0 12.12973,4.6378379 12.12973,9.7513512 0,4.875676 -3.091892,7.967568 -5.470271,10.702703 -2.259459,2.497297 -3.329729,4.994594 -3.21081,7.848649 l 0,1.189189 -8.324325,0 0,0 z M 22.638978,46 c -3.32973,0 -5.58919,-2.497297 -5.58919,-5.708108 0,-3.448649 2.378379,-5.708108 5.58919,-5.708108 3.448648,0 5.589189,2.378378 5.708108,5.708108 0,3.329729 -2.25946,5.708108 -5.589189,5.708108 l -0.118919,0 z"/>
    </g>
  </defs>
  <g id="acyl-visual">
    <use id="visible1" transform="translate(24,24) scale(1.00) translate(-24,-24)" style="fill:url(#acyl-gradient);filter:url(#filter)" xlink:href="#acyl-drawing"/>
  </g>
</svg>
