<svg xmlns="http://www.w3.org/2000/svg" xmlns:xlink="http://www.w3.org/1999/xlink" width="48" height="48">
  <defs id="acyl-settings">
    <linearGradient id="acyl-gradient" x1="0%" x2="0%" y1="0%" y2="100%">
      <stop offset="0%" style="stop-color:#00FAFF;stop-opacity:1.000000"/>
      <stop offset="74%" style="stop-color:#000BFF;stop-opacity:1.000000"/>
    </linearGradient>
    <g id="acyl-filter">
      <filter id="filter">
        <feTurbulence id="feTurbulence1" type="turbulence" numOctaves="5.0" baseFrequency="0.40 0.40"/>
        <feDisplacementMap id="feDisplacementMap1" xChannelSelector="R"/>
        <feBlend id="feBlend1" in2="SourceGraphic" mode="screen"/>
        <feColorMatrix id="feColorMatrix1" values="1 0 0 -1 0 1 0 1 -1 0 1 0 0 -1 0 -0.8 -1 0 4 -2.5 "/>
        <feGaussianBlur id="feGaussianBlur1" stdDeviation="3.0"/>
        <feSpecularLighting id="feSpecularLighting1" surfaceScale="16.0" specularConstant="0.4" specularExponent="5">
          <feDistantLight id="feDistantLight1" azimuth="225" elevation="35"/>
        </feSpecularLighting>
        <feComposite id="feComposite1" in2="SourceGraphic" k2=" 0.4" k3=" 2.0" operator="arithmetic"/>
        <feComposite id="feComposite2" in2="SourceGraphic" operator="in" result="result2"/>
      </filter>
    </g>
    <g id="acyl-drawing">
      <path d="m 24.061281,2.0035613 a 1.3742641,1.3742641 0 0 0 -0.12499,0.031248 l -2.562293,0 c -3.321627,0 -6.336517,0.963633 -8.593054,2.656035 C 10.524408,6.3832457 9,8.8835654 9,11.65903 l 0,24.716749 c 0,2.775464 1.524408,5.275784 3.780944,6.968186 C 15.037481,45.036367 18.052371,46 21.373998,46 l 5.499555,0 c 3.321627,0 6.336518,-0.963633 8.593055,-2.656035 2.256536,-1.692402 3.749696,-4.192722 3.749696,-6.968186 l 0,-24.716749 c 0,-2.7754646 -1.49316,-5.2757843 -3.749696,-6.9681862 -2.256537,-1.692402 -5.271428,-2.656035 -8.593055,-2.656035 l -2.406055,0 a 1.3742641,1.3742641 0 0 0 -0.406217,-0.031248 z m -2.687283,2.7810249 1.468632,0 0,9.6242208 a 1.3742641,1.3742641 0 1 0 2.718529,0 l 0,-9.6242208 1.312394,0 c 2.768502,0 5.219501,0.836749 6.936939,2.124828 1.717439,1.2880789 2.687282,2.9574818 2.687282,4.7496158 l 0,22.248199 c -0.624477,-0.973557 -1.688358,-1.656116 -3.093499,-1.656116 l -18.560998,0 c -1.279811,0 -2.425929,0.668506 -3.0935,1.656116 l 0,-22.248199 c 0,-1.792134 0.938597,-3.4615369 2.656035,-4.7496158 1.717438,-1.288079 4.199683,-2.124828 6.968186,-2.124828 z" id="path-main"/>
    </g>
  </defs>
  <g id="acyl-visual">
    <use id="visible1" transform="translate(24,24) scale(1.00) translate(-24,-24)" style="fill:url(#acyl-gradient);filter:url(#filter)" xlink:href="#acyl-drawing"/>
  </g>
</svg>
