<svg xmlns="http://www.w3.org/2000/svg" xmlns:xlink="http://www.w3.org/1999/xlink" width="48" height="48">
  <defs id="acyl-settings">
    <linearGradient id="acyl-gradient" x1="0%" x2="0%" y1="0%" y2="100%">
      <stop offset="0%" style="stop-color:#00FAFF;stop-opacity:1.000000"/>
      <stop offset="74%" style="stop-color:#000BFF;stop-opacity:1.000000"/>
    </linearGradient>
    <g id="acyl-filter">
      <filter id="filter">
        <feTurbulence id="feTurbulence1" type="turbulence" numOctaves="5.0" baseFrequency="0.40 0.40"/>
        <feDisplacementMap id="feDisplacementMap1" xChannelSelector="R"/>
        <feBlend id="feBlend1" in2="SourceGraphic" mode="screen"/>
        <feColorMatrix id="feColorMatrix1" values="1 0 0 -1 0 1 0 1 -1 0 1 0 0 -1 0 -0.8 -1 0 4 -2.5 "/>
        <feGaussianBlur id="feGaussianBlur1" stdDeviation="3.0"/>
        <feSpecularLighting id="feSpecularLighting1" surfaceScale="16.0" specularConstant="0.4" specularExponent="5">
          <feDistantLight id="feDistantLight1" azimuth="225" elevation="35"/>
        </feSpecularLighting>
        <feComposite id="feComposite1" in2="SourceGraphic" k2=" 0.4" k3=" 2.0" operator="arithmetic"/>
        <feComposite id="feComposite2" in2="SourceGraphic" operator="in" result="result2"/>
      </filter>
    </g>
    <g id="acyl-drawing">
      <path d="M 36.34375,11.3125 L 36.34375,12.28125 L 36.34375,14.78125 L 30.5,14.78125 L 30.34375,14.78125 L 30.1875,14.875 L 21.5,21.625 L 12.8125,14.875 L 12.65625,14.78125 L 12.5,14.78125 L 4.09375,14.78125 L 3.59375,14.78125 L 3.59375,15.28125 L 3.59375,19.28125 L 3.59375,19.78125 L 4.09375,19.78125 L 12.3125,19.78125 L 18.09375,24.28125 L 12.3125,28.78125 L 4.09375,28.78125 L 3.59375,28.78125 L 3.59375,29.28125 L 3.59375,33.28125 L 3.59375,33.78125 L 4.09375,33.78125 L 12.5,33.78125 L 12.65625,33.78125 L 12.8125,33.6875 L 21.5,26.9375 L 30.1875,33.6875 L 30.34375,33.78125 L 30.5,33.78125 L 36.34375,33.78125 L 36.34375,36.28125 L 36.34375,37.25 L 37.125,36.6875 L 44.125,31.6875 L 44.6875,31.28125 L 44.125,30.875 L 37.125,25.875 L 36.34375,25.3125 L 36.34375,26.28125 L 36.34375,28.78125 L 30.6875,28.78125 L 24.90625,24.28125 L 30.6875,19.78125 L 36.34375,19.78125 L 36.34375,22.28125 L 36.34375,23.25 L 37.125,22.6875 L 44.125,17.6875 L 44.6875,17.28125 L 44.125,16.875 L 37.125,11.875 L 36.34375,11.3125 z" id="path-main"/>
    </g>
  </defs>
  <g id="acyl-visual">
    <use id="visible1" transform="translate(24,24) scale(1.00) translate(-24,-24)" style="fill:url(#acyl-gradient);filter:url(#filter)" xlink:href="#acyl-drawing"/>
  </g>
</svg>
