<svg xmlns="http://www.w3.org/2000/svg" xmlns:xlink="http://www.w3.org/1999/xlink" width="48" height="48">
  <defs id="acyl-settings">
    <linearGradient id="acyl-gradient" x1="0%" x2="0%" y1="0%" y2="100%">
      <stop offset="0%" style="stop-color:#00FAFF;stop-opacity:1.000000"/>
      <stop offset="74%" style="stop-color:#000BFF;stop-opacity:1.000000"/>
    </linearGradient>
    <g id="acyl-filter">
      <filter id="filter">
        <feTurbulence id="feTurbulence1" type="turbulence" numOctaves="5.0" baseFrequency="0.40 0.40"/>
        <feDisplacementMap id="feDisplacementMap1" xChannelSelector="R"/>
        <feBlend id="feBlend1" in2="SourceGraphic" mode="screen"/>
        <feColorMatrix id="feColorMatrix1" values="1 0 0 -1 0 1 0 1 -1 0 1 0 0 -1 0 -0.8 -1 0 4 -2.5 "/>
        <feGaussianBlur id="feGaussianBlur1" stdDeviation="3.0"/>
        <feSpecularLighting id="feSpecularLighting1" surfaceScale="16.0" specularConstant="0.4" specularExponent="5">
          <feDistantLight id="feDistantLight1" azimuth="225" elevation="35"/>
        </feSpecularLighting>
        <feComposite id="feComposite1" in2="SourceGraphic" k2=" 0.4" k3=" 2.0" operator="arithmetic"/>
        <feComposite id="feComposite2" in2="SourceGraphic" operator="in" result="result2"/>
      </filter>
    </g>
    <g id="acyl-drawing">
      <path d="m 38.056466,24 c -1.295989,0 -2.589451,0.42303 -3.614117,1.370107 -1.024666,0.947076 -1.694118,2.416854 -1.694118,4.149466 l 0,2.622776 -0.07529,0 C 31.195957,32.142349 30,33.385921 30,34.921708 l 0,8.298933 C 29.999998,44.756428 31.195955,46 32.672939,46 l 10.654117,0 c 1.476985,0 2.672942,-1.243572 2.672942,-2.779359 l 0,-8.298933 c 0,-1.508911 -1.156683,-2.737124 -2.597647,-2.779359 l 0,-2.622776 c 0,-1.732612 -0.669451,-3.20239 -1.694118,-4.149466 C 40.683565,24.42303 39.352457,24 38.056466,24 z m 0,2.779359 c 0.703538,0 1.407375,0.226468 1.882354,0.665481 0.474977,0.439013 0.790588,1.035165 0.790588,2.074733 l 0,2.622776 -5.308235,0 0,-2.622776 c 0,-1.039568 0.315609,-1.63572 0.790588,-2.074733 0.474978,-0.439013 1.141168,-0.665481 1.844705,-0.665481 z" id="path-main"/>
    </g>
  </defs>
  <g id="acyl-visual">
    <use id="visible1" transform="translate(24,24) scale(1.00) translate(-24,-24)" style="fill:url(#acyl-gradient);filter:url(#filter)" xlink:href="#acyl-drawing"/>
  </g>
</svg>
