<svg xmlns="http://www.w3.org/2000/svg" xmlns:xlink="http://www.w3.org/1999/xlink" width="48" height="48">
  <defs id="acyl-settings">
    <linearGradient id="acyl-gradient" x1="0%" x2="0%" y1="0%" y2="100%">
      <stop offset="0%" style="stop-color:#00FAFF;stop-opacity:1.000000"/>
      <stop offset="74%" style="stop-color:#000BFF;stop-opacity:1.000000"/>
    </linearGradient>
    <g id="acyl-filter">
      <filter id="filter">
        <feTurbulence id="feTurbulence1" type="turbulence" numOctaves="5.0" baseFrequency="0.40 0.40"/>
        <feDisplacementMap id="feDisplacementMap1" xChannelSelector="R"/>
        <feBlend id="feBlend1" in2="SourceGraphic" mode="screen"/>
        <feColorMatrix id="feColorMatrix1" values="1 0 0 -1 0 1 0 1 -1 0 1 0 0 -1 0 -0.8 -1 0 4 -2.5 "/>
        <feGaussianBlur id="feGaussianBlur1" stdDeviation="3.0"/>
        <feSpecularLighting id="feSpecularLighting1" surfaceScale="16.0" specularConstant="0.4" specularExponent="5">
          <feDistantLight id="feDistantLight1" azimuth="225" elevation="35"/>
        </feSpecularLighting>
        <feComposite id="feComposite1" in2="SourceGraphic" k2=" 0.4" k3=" 2.0" operator="arithmetic"/>
        <feComposite id="feComposite2" in2="SourceGraphic" operator="in" result="result2"/>
      </filter>
    </g>
    <g id="acyl-drawing">
      <path id="path-main" d="M 22.004206,2 C 16.587319,2 12.22643,6.360889 12.22643,11.777777 l 0,7.333333 -2.4444446,0 c -1.3542221,0 -2.4444443,1.090222 -2.4444443,2.444444 l 0,22.000002 C 7.3375411,44.909778 8.4277633,46 9.7819854,46 l 29.3333316,0 c 1.354222,0 2.444444,-1.090222 2.444444,-2.444444 l 0,-22.000002 c 0,-1.354222 -1.090222,-2.444444 -2.444444,-2.444444 l -2.444445,0 0,-7.333333 C 36.670872,6.360889 32.309984,2 26.893095,2 l -4.888889,0 z m 0,4.888889 4.888889,0 c 2.708444,0 4.888889,2.180444 4.888889,4.888888 l 0,7.333333 -14.666665,0 0,-7.333333 c 0,-2.708444 2.180444,-4.888888 4.888887,-4.888888 z"/>
    </g>
  </defs>
  <g id="acyl-visual">
    <use id="visible1" transform="translate(24,24) scale(1.00) translate(-24,-24)" style="fill:url(#acyl-gradient);filter:url(#filter)" xlink:href="#acyl-drawing"/>
  </g>
</svg>
