<svg xmlns="http://www.w3.org/2000/svg" xmlns:xlink="http://www.w3.org/1999/xlink" width="48" height="48">
  <defs id="acyl-settings">
    <linearGradient id="acyl-gradient" x1="0%" x2="0%" y1="0%" y2="100%">
      <stop offset="0%" style="stop-color:#00FAFF;stop-opacity:1.000000"/>
      <stop offset="74%" style="stop-color:#000BFF;stop-opacity:1.000000"/>
    </linearGradient>
    <g id="acyl-filter">
      <filter id="filter">
        <feTurbulence id="feTurbulence1" type="turbulence" numOctaves="5.0" baseFrequency="0.40 0.40"/>
        <feDisplacementMap id="feDisplacementMap1" xChannelSelector="R"/>
        <feBlend id="feBlend1" in2="SourceGraphic" mode="screen"/>
        <feColorMatrix id="feColorMatrix1" values="1 0 0 -1 0 1 0 1 -1 0 1 0 0 -1 0 -0.8 -1 0 4 -2.5 "/>
        <feGaussianBlur id="feGaussianBlur1" stdDeviation="3.0"/>
        <feSpecularLighting id="feSpecularLighting1" surfaceScale="16.0" specularConstant="0.4" specularExponent="5">
          <feDistantLight id="feDistantLight1" azimuth="225" elevation="35"/>
        </feSpecularLighting>
        <feComposite id="feComposite1" in2="SourceGraphic" k2=" 0.4" k3=" 2.0" operator="arithmetic"/>
        <feComposite id="feComposite2" in2="SourceGraphic" operator="in" result="result2"/>
      </filter>
    </g>
    <g id="acyl-drawing">
      <path id="path-main" d="m 23.999946,34.5625 c -1.607379,0.0011 -3.075673,0.391754 -4.217912,1.09375 -0.570418,0.351793 -1.059367,0.777115 -1.426201,1.3125 -0.370025,0.536404 -0.606894,1.185017 -0.606894,1.875 0,0.689982 0.236607,1.338218 0.606894,1.875 0.550349,0.796831 1.369661,1.37619 2.336541,1.78125 0.971079,0.40374 2.102285,0.625 3.307572,0.625 1.606472,-0.0011 3.076267,-0.391453 4.217912,-1.09375 0.572999,-0.351592 1.060072,-0.779343 1.426201,-1.3125 0.369553,-0.535719 0.609381,-1.181899 0.606894,-1.875 0.0025,-0.693099 -0.237602,-1.339659 -0.606894,-1.875 -0.549571,-0.799786 -1.368871,-1.378045 -2.336542,-1.78125 -0.97078,-0.403614 -2.100808,-0.623933 -3.307571,-0.625 z"/>
    </g>
  </defs>
  <g id="acyl-visual">
    <use id="visible1" transform="translate(24,24) scale(1.00) translate(-24,-24)" style="fill:url(#acyl-gradient);filter:url(#filter)" xlink:href="#acyl-drawing"/>
  </g>
</svg>
