<svg xmlns="http://www.w3.org/2000/svg" xmlns:xlink="http://www.w3.org/1999/xlink" width="48" height="48">
  <defs id="acyl-settings">
    <linearGradient id="acyl-gradient" x1="0%" x2="0%" y1="0%" y2="100%">
      <stop offset="0%" style="stop-color:#00FAFF;stop-opacity:1.000000"/>
      <stop offset="74%" style="stop-color:#000BFF;stop-opacity:1.000000"/>
    </linearGradient>
    <g id="acyl-filter">
      <filter id="filter">
        <feTurbulence id="feTurbulence1" type="turbulence" numOctaves="5.0" baseFrequency="0.40 0.40"/>
        <feDisplacementMap id="feDisplacementMap1" xChannelSelector="R"/>
        <feBlend id="feBlend1" in2="SourceGraphic" mode="screen"/>
        <feColorMatrix id="feColorMatrix1" values="1 0 0 -1 0 1 0 1 -1 0 1 0 0 -1 0 -0.8 -1 0 4 -2.5 "/>
        <feGaussianBlur id="feGaussianBlur1" stdDeviation="3.0"/>
        <feSpecularLighting id="feSpecularLighting1" surfaceScale="16.0" specularConstant="0.4" specularExponent="5">
          <feDistantLight id="feDistantLight1" azimuth="225" elevation="35"/>
        </feSpecularLighting>
        <feComposite id="feComposite1" in2="SourceGraphic" k2=" 0.4" k3=" 2.0" operator="arithmetic"/>
        <feComposite id="feComposite2" in2="SourceGraphic" operator="in" result="result2"/>
      </filter>
    </g>
    <g id="acyl-drawing">
      <path d="m 23.839887,14.889317 c -4.833494,0 -8.750722,3.917228 -8.750722,8.750722 0,4.833494 3.919153,8.750722 8.750722,8.750722 4.829644,0 8.748797,-3.917228 8.748797,-8.750722 0,-4.833494 -3.919153,-8.750722 -8.748797,-8.750722 z m 0,14.585178 c -3.222329,0 -5.832532,-2.612127 -5.832532,-5.832531 0,-3.222329 2.610203,-5.834456 5.832532,-5.834456 3.220404,0 5.832531,2.612127 5.832531,5.834456 0,3.216554 -2.612127,5.832531 -5.832531,5.832531 z m -5.834457,9.718961 11.665063,0 0,-3.888355 -11.665063,0 0,3.888355 0,0 z m 0,6.806544 11.665063,0 0,-3.890279 -11.665063,0 0,3.890279 0,0 z M 16.40774,7.5457174 8.505912,15.422522 l 2.633301,2.625602 7.903754,-7.876805 -2.635227,-2.6256016 0,0 z M 11.139213,2.3349378 3.2373846,10.213667 5.8706858,12.841194 13.774439,4.9181909 11.139213,2.3349378 l 0,0 z m 26.39846,-0.3349374 -8.67565,8.6487006 6.900867,6.835419 8.677574,-8.5620792 -6.902791,-6.9220404 0,0 z" id="path-main"/>
    </g>
  </defs>
  <g id="acyl-visual">
    <use id="visible1" transform="translate(24,24) scale(1.00) translate(-24,-24)" style="fill:url(#acyl-gradient);filter:url(#filter)" xlink:href="#acyl-drawing"/>
  </g>
</svg>
