<svg xmlns="http://www.w3.org/2000/svg" xmlns:xlink="http://www.w3.org/1999/xlink" width="48" height="48">
  <defs id="acyl-settings">
    <linearGradient id="acyl-gradient" x1="0%" x2="0%" y1="0%" y2="100%">
      <stop offset="0%" style="stop-color:#00FAFF;stop-opacity:1.000000"/>
      <stop offset="74%" style="stop-color:#000BFF;stop-opacity:1.000000"/>
    </linearGradient>
    <g id="acyl-filter">
      <filter id="filter">
        <feTurbulence id="feTurbulence1" type="turbulence" numOctaves="5.0" baseFrequency="0.40 0.40"/>
        <feDisplacementMap id="feDisplacementMap1" xChannelSelector="R"/>
        <feBlend id="feBlend1" in2="SourceGraphic" mode="screen"/>
        <feColorMatrix id="feColorMatrix1" values="1 0 0 -1 0 1 0 1 -1 0 1 0 0 -1 0 -0.8 -1 0 4 -2.5 "/>
        <feGaussianBlur id="feGaussianBlur1" stdDeviation="3.0"/>
        <feSpecularLighting id="feSpecularLighting1" surfaceScale="16.0" specularConstant="0.4" specularExponent="5">
          <feDistantLight id="feDistantLight1" azimuth="225" elevation="35"/>
        </feSpecularLighting>
        <feComposite id="feComposite1" in2="SourceGraphic" k2=" 0.4" k3=" 2.0" operator="arithmetic"/>
        <feComposite id="feComposite2" in2="SourceGraphic" operator="in" result="result2"/>
      </filter>
    </g>
    <g id="acyl-drawing">
      <path d="M 12.000019,34.495541 C 11.998439,34.674961 12.093099,34.841481 12.248089,34.931881 C 12.403079,35.022291 12.594619,35.022731 12.750019,34.933041 L 30.000019,24.589291 L 30.000019,34.495541 C 30.000049,34.771671 30.223889,34.995511 30.500019,34.995541 L 35.500019,34.995541 C 35.776149,34.995511 35.999989,34.771671 36.000019,34.495541 L 36.000019,13.495541 C 35.999989,13.219411 35.776149,12.995571 35.500019,12.995541 L 30.500019,12.995541 C 30.223889,12.995571 30.000049,13.219411 30.000019,13.495541 L 30.000019,23.401791 L 12.750019,13.058041 C 12.594619,12.968351 12.403079,12.968791 12.248089,13.059201 C 12.093099,13.149601 11.998439,13.316121 12.000019,13.495541 L 12.000019,34.495541 z" id="path-main"/>
    </g>
  </defs>
  <g id="acyl-visual">
    <use id="visible1" transform="translate(24,24) scale(1.00) translate(-24,-24)" style="fill:url(#acyl-gradient);filter:url(#filter)" xlink:href="#acyl-drawing"/>
  </g>
</svg>
