<svg xmlns="http://www.w3.org/2000/svg" xmlns:xlink="http://www.w3.org/1999/xlink" width="48" height="48">
  <defs id="acyl-settings">
    <linearGradient id="acyl-gradient" x1="0%" x2="0%" y1="0%" y2="100%">
      <stop offset="0%" style="stop-color:#00FAFF;stop-opacity:1.000000"/>
      <stop offset="74%" style="stop-color:#000BFF;stop-opacity:1.000000"/>
    </linearGradient>
    <g id="acyl-filter">
      <filter id="filter">
        <feTurbulence id="feTurbulence1" type="turbulence" numOctaves="5.0" baseFrequency="0.40 0.40"/>
        <feDisplacementMap id="feDisplacementMap1" xChannelSelector="R"/>
        <feBlend id="feBlend1" in2="SourceGraphic" mode="screen"/>
        <feColorMatrix id="feColorMatrix1" values="1 0 0 -1 0 1 0 1 -1 0 1 0 0 -1 0 -0.8 -1 0 4 -2.5 "/>
        <feGaussianBlur id="feGaussianBlur1" stdDeviation="3.0"/>
        <feSpecularLighting id="feSpecularLighting1" surfaceScale="16.0" specularConstant="0.4" specularExponent="5">
          <feDistantLight id="feDistantLight1" azimuth="225" elevation="35"/>
        </feSpecularLighting>
        <feComposite id="feComposite1" in2="SourceGraphic" k2=" 0.4" k3=" 2.0" operator="arithmetic"/>
        <feComposite id="feComposite2" in2="SourceGraphic" operator="in" result="result2"/>
      </filter>
    </g>
    <g id="acyl-drawing">
      <path d="M 37.928276,4.7917241 C 36.560729,4.7917239 35.44,5.9134995 35.44,7.28 l 0,36.231724 C 35.440003,44.878873 36.561127,46 37.928276,46 l 5.583448,0 C 44.878874,45.999998 46,44.878873 46,43.511724 L 46,7.28 c -10e-7,-1.3665005 -1.120729,-2.4882759 -2.488276,-2.4882759 l -5.583448,0 z m -33.4400001,0.2731035 0,9.9227584 2.5489655,0 0,-4.217931 3.7627586,0 0,4.217931 2.57931,0 0,-9.9227584 -2.57931,0 0,3.7931034 -3.7627586,0 0,-3.7931034 -2.5489655,0 z m 33.4400001,1.0013793 5.583448,0 c 0.68522,0 1.213793,0.5294689 1.213793,1.2137931 l 0,36.231724 c 0,0.685618 -0.528173,1.244137 -1.213793,1.244138 l -5.583448,0 c -0.685618,0 -1.213792,-0.558519 -1.213793,-1.244138 l 0,-36.231724 c 0,-0.6843243 0.528573,-1.2137932 1.213793,-1.2137931 z M 26.791724,13.166897 c -1.366501,0 -2.488276,1.120729 -2.488276,2.488275 l 0,27.856552 C 24.303448,44.879272 25.425223,46 26.791724,46 l 5.553104,0 c 1.367149,-2e-6 2.488275,-1.121127 2.488275,-2.488276 l 0,-27.856552 c 0.0013,-1.367869 -1.121127,-2.488275 -2.488275,-2.488275 l -5.553104,0 z m 0,1.244137 5.553104,0 c 0.685618,0 1.244785,0.559241 1.244138,1.244138 l 0,27.856552 c 0,0.685618 -0.558518,1.244137 -1.244138,1.244138 l -5.553104,0 c -0.684324,0 -1.244138,-0.558918 -1.244138,-1.244138 l 0,-27.856552 c 0,-0.68522 0.559814,-1.244138 1.244138,-1.244138 z m -11.166896,7.10069 C 14.258327,21.511725 13.136552,22.632453 13.136552,24 l 0,19.511724 C 13.136552,44.879272 14.258327,46 15.624828,46 l 5.583448,0 c 1.367148,-2e-6 2.488276,-1.121127 2.488276,-2.488276 l 0,-19.511724 c 0,-1.367149 -1.121128,-2.488276 -2.488276,-2.488276 l -5.583448,0 z M 4.4882759,29.886897 C 3.1211273,29.886898 2,31.008024 2,32.375172 L 2,43.511724 C 2.0000001,44.878874 3.121127,46 4.4882759,46 l 5.5834481,0 c 1.3665,-2e-6 2.488276,-1.120729 2.488276,-2.488276 l 0,-11.136552 c 0,-1.3665 -1.120729,-2.488275 -2.488276,-2.488275 l -5.5834481,0 z" id="path-main"/>
    </g>
  </defs>
  <g id="acyl-visual">
    <use id="visible1" transform="translate(24,24) scale(1.00) translate(-24,-24)" style="fill:url(#acyl-gradient);filter:url(#filter)" xlink:href="#acyl-drawing"/>
  </g>
</svg>
