<svg xmlns="http://www.w3.org/2000/svg" xmlns:xlink="http://www.w3.org/1999/xlink" width="48" height="48">
  <defs id="acyl-settings">
    <linearGradient id="acyl-gradient" x1="0%" x2="0%" y1="0%" y2="100%">
      <stop offset="0%" style="stop-color:#00FAFF;stop-opacity:1.000000"/>
      <stop offset="74%" style="stop-color:#000BFF;stop-opacity:1.000000"/>
    </linearGradient>
    <g id="acyl-filter">
      <filter id="filter">
        <feTurbulence id="feTurbulence1" type="turbulence" numOctaves="5.0" baseFrequency="0.40 0.40"/>
        <feDisplacementMap id="feDisplacementMap1" xChannelSelector="R"/>
        <feBlend id="feBlend1" in2="SourceGraphic" mode="screen"/>
        <feColorMatrix id="feColorMatrix1" values="1 0 0 -1 0 1 0 1 -1 0 1 0 0 -1 0 -0.8 -1 0 4 -2.5 "/>
        <feGaussianBlur id="feGaussianBlur1" stdDeviation="3.0"/>
        <feSpecularLighting id="feSpecularLighting1" surfaceScale="16.0" specularConstant="0.4" specularExponent="5">
          <feDistantLight id="feDistantLight1" azimuth="225" elevation="35"/>
        </feSpecularLighting>
        <feComposite id="feComposite1" in2="SourceGraphic" k2=" 0.4" k3=" 2.0" operator="arithmetic"/>
        <feComposite id="feComposite2" in2="SourceGraphic" operator="in" result="result2"/>
      </filter>
    </g>
    <g id="acyl-drawing">
      <path d="M 2 4 L 2 11 L 16 11 L 16 4 L 2 4 z M 20 4 L 20 11 L 36 11 L 36 4 L 20 4 z M 40 4 L 40 11 L 46 11 L 46 4 L 40 4 z M 2 15 L 2 22 L 8 22 L 8 15 L 2 15 z M 12 15 L 12 22 L 28 22 L 28 15 L 12 15 z M 32 15 L 32 22 L 46 22 L 46 15 L 32 15 z M 2 26 L 2 33 L 16 33 L 16 26 L 2 26 z M 20 26 L 20 33 L 36 33 L 36 26 L 20 26 z M 40 26 L 40 33 L 46 33 L 46 26 L 40 26 z M 2 37 L 2 44 L 8 44 L 8 37 L 2 37 z M 12 37 L 12 44 L 28 44 L 28 37 L 12 37 z M 32 37 L 32 44 L 46 44 L 46 37 L 32 37 z " id="path-main"/>
    </g>
  </defs>
  <g id="acyl-visual">
    <use id="visible1" transform="translate(24,24) scale(1.00) translate(-24,-24)" style="fill:url(#acyl-gradient);filter:url(#filter)" xlink:href="#acyl-drawing"/>
  </g>
</svg>
