<svg xmlns="http://www.w3.org/2000/svg" xmlns:xlink="http://www.w3.org/1999/xlink" width="48" height="48">
  <defs id="acyl-settings">
    <linearGradient id="acyl-gradient" x1="0%" x2="0%" y1="0%" y2="100%">
      <stop offset="0%" style="stop-color:#00FAFF;stop-opacity:1.000000"/>
      <stop offset="74%" style="stop-color:#000BFF;stop-opacity:1.000000"/>
    </linearGradient>
    <g id="acyl-filter">
      <filter id="filter">
        <feTurbulence id="feTurbulence1" type="turbulence" numOctaves="5.0" baseFrequency="0.40 0.40"/>
        <feDisplacementMap id="feDisplacementMap1" xChannelSelector="R"/>
        <feBlend id="feBlend1" in2="SourceGraphic" mode="screen"/>
        <feColorMatrix id="feColorMatrix1" values="1 0 0 -1 0 1 0 1 -1 0 1 0 0 -1 0 -0.8 -1 0 4 -2.5 "/>
        <feGaussianBlur id="feGaussianBlur1" stdDeviation="3.0"/>
        <feSpecularLighting id="feSpecularLighting1" surfaceScale="16.0" specularConstant="0.4" specularExponent="5">
          <feDistantLight id="feDistantLight1" azimuth="225" elevation="35"/>
        </feSpecularLighting>
        <feComposite id="feComposite1" in2="SourceGraphic" k2=" 0.4" k3=" 2.0" operator="arithmetic"/>
        <feComposite id="feComposite2" in2="SourceGraphic" operator="in" result="result2"/>
      </filter>
    </g>
    <g id="acyl-drawing">
      <path id="path-main" d="m 12.882499,2 0,21.52606 -7.3078528,0 L 24.287641,46 42.725445,23.52606 l -7.338429,0 0,-21.52606 -22.504517,0 z m 8.225156,5.2592078 6.054204,0 c 0.50722,-2e-7 0.917304,0.4370868 0.917304,0.9784572 L 27.008975,25.23836 c 0,0.541372 -0.410086,0.978457 -0.917303,0.978457 l -3.944406,0 c -0.50722,-10e-7 -0.978457,-0.52882 -0.978457,-1.070187 L 20.190351,8.237665 c 1e-6,-0.5413706 0.410085,-0.9784572 0.917304,-0.9784572 z m 3.027102,21.1897152 c 2.188875,0 3.944406,1.720964 3.944406,3.883252 0,2.162288 -1.75553,3.913829 -3.944406,3.913829 -2.188876,10e-7 -3.944406,-1.751541 -3.944406,-3.913829 0,-2.162287 1.755531,-3.883252 3.944406,-3.883252 z"/>
    </g>
  </defs>
  <g id="acyl-visual">
    <use id="visible1" transform="translate(24,24) scale(1.00) translate(-24,-24)" style="fill:url(#acyl-gradient);filter:url(#filter)" xlink:href="#acyl-drawing"/>
  </g>
</svg>
