<svg xmlns="http://www.w3.org/2000/svg" xmlns:xlink="http://www.w3.org/1999/xlink" width="48" height="48">
  <defs id="acyl-settings">
    <linearGradient id="acyl-gradient" x1="0%" x2="0%" y1="0%" y2="100%">
      <stop offset="0%" style="stop-color:#00FAFF;stop-opacity:1.000000"/>
      <stop offset="74%" style="stop-color:#000BFF;stop-opacity:1.000000"/>
    </linearGradient>
    <g id="acyl-filter">
      <filter id="filter">
        <feTurbulence id="feTurbulence1" type="turbulence" numOctaves="5.0" baseFrequency="0.40 0.40"/>
        <feDisplacementMap id="feDisplacementMap1" xChannelSelector="R"/>
        <feBlend id="feBlend1" in2="SourceGraphic" mode="screen"/>
        <feColorMatrix id="feColorMatrix1" values="1 0 0 -1 0 1 0 1 -1 0 1 0 0 -1 0 -0.8 -1 0 4 -2.5 "/>
        <feGaussianBlur id="feGaussianBlur1" stdDeviation="3.0"/>
        <feSpecularLighting id="feSpecularLighting1" surfaceScale="16.0" specularConstant="0.4" specularExponent="5">
          <feDistantLight id="feDistantLight1" azimuth="225" elevation="35"/>
        </feSpecularLighting>
        <feComposite id="feComposite1" in2="SourceGraphic" k2=" 0.4" k3=" 2.0" operator="arithmetic"/>
        <feComposite id="feComposite2" in2="SourceGraphic" operator="in" result="result2"/>
      </filter>
    </g>
    <g id="acyl-drawing">
      <path d="m 20.333333,4.7909269 c -10.12,0 -18.3333328,8.2133341 -18.333333,18.3333341 0,10.12 8.213334,18.333333 18.333333,18.333333 4.802815,0 9.181593,-1.863204 12.451389,-4.888889 l 13.215278,0 -8.173611,-8.173611 c 0.508303,-1.680842 0.840278,-3.424828 0.840278,-5.270833 0,-10.12 -8.213334,-18.3333341 -18.333334,-18.3333341 z m 0,7.3333341 c 6.072,0 11,4.928 11,11 0,6.072 -4.928,11 -11,11 -6.072,0 -11,-4.928 -11,-11 0,-6.072 4.928,-11 11,-11 z m -0.381944,3.666666 a 1.2223444,1.2223444 0 0 0 -0.840278,1.222223 l 0,6.111111 a 1.2223444,1.2223444 0 0 0 1.222222,1.222222 l 4.277778,0 a 1.2223444,1.2223444 0 1 0 0,-2.444445 l -3.055555,0 0,-4.888888 a 1.2223444,1.2223444 0 0 0 -1.451389,-1.222223 1.2223444,1.2223444 0 0 0 -0.152778,0 z" id="path-main"/>
    </g>
  </defs>
  <g id="acyl-visual">
    <use id="visible1" transform="translate(24,24) scale(1.00) translate(-24,-24)" style="fill:url(#acyl-gradient);filter:url(#filter)" xlink:href="#acyl-drawing"/>
  </g>
</svg>
