<svg xmlns="http://www.w3.org/2000/svg" xmlns:xlink="http://www.w3.org/1999/xlink" width="48" height="48">
  <defs id="acyl-settings">
    <linearGradient id="acyl-gradient" x1="0%" x2="0%" y1="0%" y2="100%">
      <stop offset="0%" style="stop-color:#00FAFF;stop-opacity:1.000000"/>
      <stop offset="74%" style="stop-color:#000BFF;stop-opacity:1.000000"/>
    </linearGradient>
    <g id="acyl-filter">
      <filter id="filter">
        <feTurbulence id="feTurbulence1" type="turbulence" numOctaves="5.0" baseFrequency="0.40 0.40"/>
        <feDisplacementMap id="feDisplacementMap1" xChannelSelector="R"/>
        <feBlend id="feBlend1" in2="SourceGraphic" mode="screen"/>
        <feColorMatrix id="feColorMatrix1" values="1 0 0 -1 0 1 0 1 -1 0 1 0 0 -1 0 -0.8 -1 0 4 -2.5 "/>
        <feGaussianBlur id="feGaussianBlur1" stdDeviation="3.0"/>
        <feSpecularLighting id="feSpecularLighting1" surfaceScale="16.0" specularConstant="0.4" specularExponent="5">
          <feDistantLight id="feDistantLight1" azimuth="225" elevation="35"/>
        </feSpecularLighting>
        <feComposite id="feComposite1" in2="SourceGraphic" k2=" 0.4" k3=" 2.0" operator="arithmetic"/>
        <feComposite id="feComposite2" in2="SourceGraphic" operator="in" result="result2"/>
      </filter>
    </g>
    <g id="acyl-drawing">
      <path d="M 27.999919,2 C 24.460106,2 21.460306,3.8661091 19.848133,6.6160714 18.940328,5.9688126 17.781076,5.6339286 16.508848,5.6339286 c -2.891429,0 -5.303572,1.9412768 -5.303572,4.4196424 0,0.556604 0.176544,1.07943 0.392857,1.571429 -3.2884928,1.259443 -5.598214,4.167039 -5.598214,7.464286 0,3.542273 2.6976994,6.465727 6.383929,7.5625 -0.04983,-0.357626 -0.09821,-0.709007 -0.09821,-1.080357 0,-4.339381 3.517763,-7.857143 7.857143,-7.857143 4.339381,0 7.857143,3.517762 7.857143,7.857143 0,0.542422 -0.09177,1.059947 -0.196429,1.571428 l 6.482143,0 c 5.223429,0 9.428572,-3.576348 9.428572,-8.053571 0,-3.54635 -2.691028,-6.567063 -6.383929,-7.660715 0.0082,-0.153434 0.09821,-0.33572 0.09821,-0.491071 C 37.428491,5.9807649 33.204491,2 27.99992,2 z m -3.142854,33 c 0,2.603628 2.110658,4.714286 4.714283,4.714286 2.603634,0 4.714288,-2.110658 4.714288,-4.714286 0,-2.603628 -2.110654,-4.714286 -4.714288,-4.714286 -2.603625,0 -4.714283,2.110658 -4.714283,4.714286 l 0,0 z M 15.42849,25.571429 c 0,2.603627 2.110658,4.714285 4.714286,4.714285 2.603628,0 4.714286,-2.110658 4.714286,-4.714285 0,-2.603628 -2.110658,-4.714286 -4.714286,-4.714286 -2.603628,0 -4.714286,2.110658 -4.714286,4.714286 l 0,0 z m -3.142857,15.714285 c 0,2.603628 2.110658,4.714286 4.714286,4.714286 2.603628,0 4.714286,-2.110658 4.714286,-4.714286 0,-2.603627 -2.110658,-4.714285 -4.714286,-4.714285 -2.603628,0 -4.714286,2.110658 -4.714286,4.714285 l 0,0 z" id="path-main"/>
    </g>
  </defs>
  <g id="acyl-visual">
    <use id="visible1" transform="translate(24,24) scale(1.00) translate(-24,-24)" style="fill:url(#acyl-gradient);filter:url(#filter)" xlink:href="#acyl-drawing"/>
  </g>
</svg>
