<svg xmlns="http://www.w3.org/2000/svg" xmlns:xlink="http://www.w3.org/1999/xlink" width="48" height="48">
  <defs id="acyl-settings">
    <linearGradient id="acyl-gradient" x1="0%" x2="0%" y1="0%" y2="100%">
      <stop offset="0%" style="stop-color:#00FAFF;stop-opacity:1.000000"/>
      <stop offset="74%" style="stop-color:#000BFF;stop-opacity:1.000000"/>
    </linearGradient>
    <g id="acyl-filter">
      <filter id="filter">
        <feTurbulence id="feTurbulence1" type="turbulence" numOctaves="5.0" baseFrequency="0.40 0.40"/>
        <feDisplacementMap id="feDisplacementMap1" xChannelSelector="R"/>
        <feBlend id="feBlend1" in2="SourceGraphic" mode="screen"/>
        <feColorMatrix id="feColorMatrix1" values="1 0 0 -1 0 1 0 1 -1 0 1 0 0 -1 0 -0.8 -1 0 4 -2.5 "/>
        <feGaussianBlur id="feGaussianBlur1" stdDeviation="3.0"/>
        <feSpecularLighting id="feSpecularLighting1" surfaceScale="16.0" specularConstant="0.4" specularExponent="5">
          <feDistantLight id="feDistantLight1" azimuth="225" elevation="35"/>
        </feSpecularLighting>
        <feComposite id="feComposite1" in2="SourceGraphic" k2=" 0.4" k3=" 2.0" operator="arithmetic"/>
        <feComposite id="feComposite2" in2="SourceGraphic" operator="in" result="result2"/>
      </filter>
    </g>
    <g id="acyl-drawing">
      <path d="M 20.751158,2.0380026 C 15.506236,2.9183585 10.73657,6.0364883 7.6471002,10.386555 c -3.0891314,4.350063 -4.3631599,9.945989 -3.48737,15.217614 0.2686045,1.616794 0.7246446,3.14704 1.3738125,4.649827 0.1459031,-0.09763 0.2740523,-0.223225 0.4227115,-0.317034 3e-7,-2.4564 1.3529436,-4.550286 3.0646584,-5.812283 1.7117154,-1.261997 3.8679654,-1.902202 6.1293174,-1.902202 0.991646,0 1.818659,0.486575 2.747625,0.739745 1.055588,-1.006743 2.290352,-1.845183 3.593048,-2.536269 -0.541592,-0.419384 -0.985797,-0.806066 -1.268135,-1.056778 -3.984555,-3.539151 5.773651,-18.2115317 0.52839,-17.3311724 z m 6.763384,20.2901524 c -3.808814,0 -7.036578,1.743719 -8.771264,4.332793 -0.976788,-0.609391 -2.224139,-0.951101 -3.593048,-0.951101 -3.111156,0 -5.7066054,1.893748 -5.7066054,4.227115 0,0.524038 0.18996,1.016277 0.422711,1.479491 -3.5383946,1.18576 -6.023639,3.870401 -6.023639,6.97474 C 3.8426966,42.606472 8.3674006,46 13.987773,46 l 20.290153,0 c 5.620372,0 10.145076,-3.393528 10.145076,-7.608807 0,-3.338867 -2.895526,-6.156428 -6.869062,-7.186096 0.0088,-0.144432 0.105678,-0.276453 0.105678,-0.422711 0,-4.666736 -4.544994,-8.454231 -10.145076,-8.454231 z" id="path-main"/>
    </g>
  </defs>
  <g id="acyl-visual">
    <use id="visible1" transform="translate(24,24) scale(1.00) translate(-24,-24)" style="fill:url(#acyl-gradient);filter:url(#filter)" xlink:href="#acyl-drawing"/>
  </g>
</svg>
