<svg xmlns="http://www.w3.org/2000/svg" xmlns:xlink="http://www.w3.org/1999/xlink" width="48" height="48">
  <defs id="acyl-settings">
    <linearGradient id="acyl-gradient" x1="0%" x2="0%" y1="0%" y2="100%">
      <stop offset="0%" style="stop-color:#00FAFF;stop-opacity:1.000000"/>
      <stop offset="74%" style="stop-color:#000BFF;stop-opacity:1.000000"/>
    </linearGradient>
    <g id="acyl-filter">
      <filter id="filter">
        <feTurbulence id="feTurbulence1" type="turbulence" numOctaves="5.0" baseFrequency="0.40 0.40"/>
        <feDisplacementMap id="feDisplacementMap1" xChannelSelector="R"/>
        <feBlend id="feBlend1" in2="SourceGraphic" mode="screen"/>
        <feColorMatrix id="feColorMatrix1" values="1 0 0 -1 0 1 0 1 -1 0 1 0 0 -1 0 -0.8 -1 0 4 -2.5 "/>
        <feGaussianBlur id="feGaussianBlur1" stdDeviation="3.0"/>
        <feSpecularLighting id="feSpecularLighting1" surfaceScale="16.0" specularConstant="0.4" specularExponent="5">
          <feDistantLight id="feDistantLight1" azimuth="225" elevation="35"/>
        </feSpecularLighting>
        <feComposite id="feComposite1" in2="SourceGraphic" k2=" 0.4" k3=" 2.0" operator="arithmetic"/>
        <feComposite id="feComposite2" in2="SourceGraphic" operator="in" result="result2"/>
      </filter>
    </g>
    <g id="acyl-drawing">
      <path d="M 3.60931,4.0000202 C 2.717752,4.0000202 2,4.723483 2,5.6221392 L 2,42.377881 C 2,43.276537 2.717752,44 3.60931,44 l 40.78138,0 c 0.111445,0 0.224227,-0.01532 0.329177,-0.03689 C 45.454523,43.812348 46,43.16418 46,42.377861 l 0,-24.884783 c 0,-0.898656 -0.717752,-1.622119 -1.60931,-1.622119 l -34.34414,0 c -0.891557,0 -1.60931,0.723463 -1.60931,1.622119 0,0.898656 0.717753,1.622119 1.60931,1.622119 l 32.73483,0 0,21.640545 -37.56276,0 0,-33.5115039 12.874481,0 0,4.8663569 c 0,0.898656 0.717752,1.622119 1.60931,1.622119 l 21.469659,0 c 0.891558,0 1.60931,-0.723463 1.60931,-1.622119 0,-0.898656 -0.717752,-1.622119 -1.60931,-1.622119 l -19.860349,0 0,-4.866357 C 21.311721,4.7234628 20.593968,4 19.702411,4 L 3.60931,4 z" id="path-main"/>
    </g>
  </defs>
  <g id="acyl-visual">
    <use id="visible1" transform="translate(24,24) scale(1.00) translate(-24,-24)" style="fill:url(#acyl-gradient);filter:url(#filter)" xlink:href="#acyl-drawing"/>
  </g>
</svg>
