<svg xmlns="http://www.w3.org/2000/svg" xmlns:xlink="http://www.w3.org/1999/xlink" width="48" height="48">
  <defs id="acyl-settings">
    <linearGradient id="acyl-gradient" x1="0%" x2="0%" y1="0%" y2="100%">
      <stop offset="0%" style="stop-color:#00FAFF;stop-opacity:1.000000"/>
      <stop offset="74%" style="stop-color:#000BFF;stop-opacity:1.000000"/>
    </linearGradient>
    <g id="acyl-filter">
      <filter id="filter">
        <feTurbulence id="feTurbulence1" type="turbulence" numOctaves="5.0" baseFrequency="0.40 0.40"/>
        <feDisplacementMap id="feDisplacementMap1" xChannelSelector="R"/>
        <feBlend id="feBlend1" in2="SourceGraphic" mode="screen"/>
        <feColorMatrix id="feColorMatrix1" values="1 0 0 -1 0 1 0 1 -1 0 1 0 0 -1 0 -0.8 -1 0 4 -2.5 "/>
        <feGaussianBlur id="feGaussianBlur1" stdDeviation="3.0"/>
        <feSpecularLighting id="feSpecularLighting1" surfaceScale="16.0" specularConstant="0.4" specularExponent="5">
          <feDistantLight id="feDistantLight1" azimuth="225" elevation="35"/>
        </feSpecularLighting>
        <feComposite id="feComposite1" in2="SourceGraphic" k2=" 0.4" k3=" 2.0" operator="arithmetic"/>
        <feComposite id="feComposite2" in2="SourceGraphic" operator="in" result="result2"/>
      </filter>
    </g>
    <g id="acyl-drawing">
      <path d="m 20.9375,6.40625 -12.15625,12.1875 -6.78125,0 0,10.8125 6.78125,0 12.15625,12.1875 0,-35.1875 z M 33.71875,9.5 31.8125,11.40625 c 3.297159,3.197407 5.375,7.641617 5.375,12.59375 0,4.952132 -2.077841,9.396342 -5.375,12.59375 L 33.71875,38.5 C 37.504944,34.812727 39.875002,29.698409 39.875,24 39.874999,18.301591 37.504944,13.187272 33.71875,9.5 z M 28,15.21875 l -1.9375,1.9375 c 1.825264,1.726705 3,4.134768 3,6.84375 -1e-6,2.708981 -1.174736,5.117045 -3,6.84375 L 28,32.78125 C 30.317236,30.564022 31.78125,27.457902 31.78125,24 31.781249,20.542098 30.317237,17.435978 28,15.21875 z" id="path-main"/>
    </g>
  </defs>
  <g id="acyl-visual">
    <use id="visible1" transform="translate(24,24) scale(1.00) translate(-24,-24)" style="fill:url(#acyl-gradient);filter:url(#filter)" xlink:href="#acyl-drawing"/>
  </g>
</svg>
