<svg xmlns="http://www.w3.org/2000/svg" xmlns:xlink="http://www.w3.org/1999/xlink" width="48" height="48">
  <defs id="acyl-settings">
    <linearGradient id="acyl-gradient" x1="0%" x2="0%" y1="0%" y2="100%">
      <stop offset="0%" style="stop-color:#00FAFF;stop-opacity:1.000000"/>
      <stop offset="74%" style="stop-color:#000BFF;stop-opacity:1.000000"/>
    </linearGradient>
    <g id="acyl-filter">
      <filter id="filter">
        <feTurbulence id="feTurbulence1" type="turbulence" numOctaves="5.0" baseFrequency="0.40 0.40"/>
        <feDisplacementMap id="feDisplacementMap1" xChannelSelector="R"/>
        <feBlend id="feBlend1" in2="SourceGraphic" mode="screen"/>
        <feColorMatrix id="feColorMatrix1" values="1 0 0 -1 0 1 0 1 -1 0 1 0 0 -1 0 -0.8 -1 0 4 -2.5 "/>
        <feGaussianBlur id="feGaussianBlur1" stdDeviation="3.0"/>
        <feSpecularLighting id="feSpecularLighting1" surfaceScale="16.0" specularConstant="0.4" specularExponent="5">
          <feDistantLight id="feDistantLight1" azimuth="225" elevation="35"/>
        </feSpecularLighting>
        <feComposite id="feComposite1" in2="SourceGraphic" k2=" 0.4" k3=" 2.0" operator="arithmetic"/>
        <feComposite id="feComposite2" in2="SourceGraphic" operator="in" result="result2"/>
      </filter>
    </g>
    <g id="acyl-drawing">
      <path d="M 14.15625 2 C 7.423831 2 2 7.423831 2 14.15625 L 2 33.84375 C 2 40.576169 7.423831 46 14.15625 46 L 33.84375 46 C 40.576169 46 46 40.576169 46 33.84375 L 46 14.15625 C 46 7.423831 40.576169 2 33.84375 2 L 14.15625 2 z M 32.71875 5 C 33.282155 13.576263 39.78113 17.649218 39.84375 22.03125 C 39.87147 23.971666 39.535771 24.650725 36.71875 28.09375 C 37.469957 26.904342 38.406452 24.534766 38.28125 22.34375 C 38.15605 20.152734 34.719955 16.220156 33.96875 15.34375 C 33.217544 14.467344 32.03125 11.75 32.03125 11.75 C 32.03125 11.75 28.688705 34.306975 27.9375 37.75 C 27.186294 41.193025 22.194232 43.06261 18 43 C 13.805768 42.937401 9.2816517 40.567323 9.03125 37.5625 C 8.780848 34.557678 13.492364 31.844051 18.25 31.65625 C 23.007636 31.468449 25.5 33.84375 25.5 33.84375 L 32.71875 5 z " id="path-main"/>
    </g>
  </defs>
  <g id="acyl-visual">
    <use id="visible1" transform="translate(24,24) scale(1.00) translate(-24,-24)" style="fill:url(#acyl-gradient);filter:url(#filter)" xlink:href="#acyl-drawing"/>
  </g>
</svg>
