<svg xmlns="http://www.w3.org/2000/svg" xmlns:xlink="http://www.w3.org/1999/xlink" width="48" height="48">
  <defs id="acyl-settings">
    <linearGradient id="acyl-gradient" x1="0%" x2="0%" y1="0%" y2="100%">
      <stop offset="0%" style="stop-color:#00FAFF;stop-opacity:1.000000"/>
      <stop offset="74%" style="stop-color:#000BFF;stop-opacity:1.000000"/>
    </linearGradient>
    <g id="acyl-filter">
      <filter id="filter">
        <feTurbulence id="feTurbulence1" type="turbulence" numOctaves="5.0" baseFrequency="0.40 0.40"/>
        <feDisplacementMap id="feDisplacementMap1" xChannelSelector="R"/>
        <feBlend id="feBlend1" in2="SourceGraphic" mode="screen"/>
        <feColorMatrix id="feColorMatrix1" values="1 0 0 -1 0 1 0 1 -1 0 1 0 0 -1 0 -0.8 -1 0 4 -2.5 "/>
        <feGaussianBlur id="feGaussianBlur1" stdDeviation="3.0"/>
        <feSpecularLighting id="feSpecularLighting1" surfaceScale="16.0" specularConstant="0.4" specularExponent="5">
          <feDistantLight id="feDistantLight1" azimuth="225" elevation="35"/>
        </feSpecularLighting>
        <feComposite id="feComposite1" in2="SourceGraphic" k2=" 0.4" k3=" 2.0" operator="arithmetic"/>
        <feComposite id="feComposite2" in2="SourceGraphic" operator="in" result="result2"/>
      </filter>
    </g>
    <g id="acyl-drawing">
      <path d="M 23.6875 2 A 4.5812446 4.5801257 0 0 0 19.40625 6.59375 A 4.5812446 4.5801257 0 0 0 28.59375 6.59375 A 4.5812446 4.5801257 0 0 0 23.6875 2 z M 10.84375 6.59375 A 4.5848248 4.5801259 0 0 0 6.5625 11.15625 A 4.5848248 4.5801259 0 0 0 15.75 11.15625 A 4.5848248 4.5801259 0 0 0 10.84375 6.59375 z M 36.5 6.59375 A 4.584825 4.5837068 0 0 0 32.25 11.15625 A 4.584825 4.5837068 0 0 0 41.4375 11.15625 A 4.584825 4.5837068 0 0 0 36.5 6.59375 z M 6.71875 19.40625 A 4.5812446 4.5801257 0 0 0 2 24 A 4.5812446 4.5801257 0 0 0 11.15625 24 A 4.5812446 4.5801257 0 0 0 6.71875 19.40625 z M 41.09375 19.4375 A 4.5812446 4.5801257 0 0 0 36.84375 24 A 4.5812446 4.5801257 0 0 0 46 24 A 4.5812446 4.5801257 0 0 0 41.09375 19.4375 z M 10.84375 32.25 A 4.5848286 4.5837065 0 0 0 6.5625 36.84375 A 4.5848286 4.5837065 0 0 0 15.75 36.84375 A 4.5848286 4.5837065 0 0 0 10.84375 32.25 z M 36.5 32.25 A 4.5848285 4.5837065 0 0 0 32.25 36.84375 A 4.5848285 4.5837065 0 0 0 41.4375 36.84375 A 4.5848285 4.5837065 0 0 0 36.5 32.25 z M 23.65625 36.84375 A 4.5812446 4.5801257 0 0 0 19.40625 41.40625 A 4.5812446 4.5801257 0 0 0 28.5625 41.40625 A 4.5812446 4.5801257 0 0 0 23.65625 36.84375 z " id="path-main"/>
    </g>
  </defs>
  <g id="acyl-visual">
    <use id="visible1" transform="translate(24,24) scale(1.00) translate(-24,-24)" style="fill:url(#acyl-gradient);filter:url(#filter)" xlink:href="#acyl-drawing"/>
  </g>
</svg>
